<?xml version="1.0" standalone="no"?>
<!DOCTYPE svg PUBLIC "-//W3C//DTD SVG 1.1//EN" "http://www.w3.org/Graphics/SVG/1.1/DTD/svg11.dtd" >
<svg xmlns="http://www.w3.org/2000/svg" xmlns:xlink="http://www.w3.org/1999/xlink" version="1.1">
<metadata>
Created by FontForge 20170812 at Thu Jan 10 11:52:09 2019
 By root
Copyright (c) 2017 by Union Hands. All rights reserved.
</metadata>
<defs>
<font id="Reunion" horiz-adv-x="165" >
  <font-face 
    font-family="Reunion"
    font-weight="400"
    font-stretch="normal"
    units-per-em="1000"
    panose-1="0 0 0 0 0 0 0 0 0 0"
    ascent="750"
    descent="-250"
    x-height="467"
    cap-height="692.5"
    bbox="-99.0833 -250 1004.12 919.8"
    underline-thickness="50"
    underline-position="-100"
    unicode-range="U+0020-20AC"
  />
    <missing-glyph />
    <glyph glyph-name="space" unicode=" " horiz-adv-x="246" 
 />
    <glyph glyph-name="G" unicode="G" horiz-adv-x="729" 
d="M187 609q-1 -3 -1 -5t-1 -4q-1 -5 -6 -10q-2 -3 -8 -9q-9 -9 -15 -21q-8 -19 -18 -35q-10 -18 -17 -37t-10 -40q-2 -5 -3.5 -11t-3.5 -11q-3 -9 -3 -18q0 -12 -1.5 -24t0.5 -23q1 -5 -3 -11l-4 -6l-4 -6q-5 -9 3 -14q3 -3 5 -10q2 -8 4 -15l4 -14q2 -8 4.5 -15t8.5 -12
q4 -4 5 -8t3 -9l4 -16t5 -16q4 -13 9.5 -24.5t15.5 -22.5q4 -5 7.5 -10.5t6.5 -10.5q9 -17 24 -24q4 -2 6.5 -4t5.5 -4q8 -5 13 -10.5t7 -14.5q1 -5 7 -9q4 -2 8 -5t8 -5q6 -3 12 -5.5t11 -5.5q17 -8 34.5 -11.5t35.5 -3.5q21 -1 41.5 0.5t40.5 3.5q14 2 27 6.5t26 10.5
q8 4 15 9t15 10q15 10 15 29q0 21 4 38q1 5 1 9v9q-2 20 -2.5 40t-2.5 40q0 9 -3 18t-7 17q-3 7 -11 9q-5 1 -10.5 1.5t-10.5 0.5q-8 1 -15 1h-15q-11 2 -11 10v31q0 1 2 2t4 1q11 -4 22 -3.5t22 1.5q12 2 25 0t26 -1.5t26 0.5h44h12t12 2q14 3 30 0q10 -1 11 -12
q1 -4 1 -7.5v-6.5q0 -10 -10 -15q-3 -2 -11 -4q-6 -2 -10.5 -6.5l-9.5 -9.5q-4 -6 -4 -11q-1 -26 -1.5 -51.5t-1.5 -51.5q0 -13 1 -25.5t8 -24.5q4 -7 -2 -15q-12 -15 -31 -26q-9 -5 -18 -9.5l-19 -9.5q-8 -5 -15 -6q-17 -2 -32 -8t-29 -14q-10 -5 -19.5 -8.5t-20.5 -3.5
q-8 0 -14.5 -2t-12.5 -4q-23 -9 -46 -11.5t-46 -0.5q-4 0 -7.5 0.5t-6.5 0.5q-24 -1 -47 12q-4 3 -8.5 4t-9.5 2q-7 2 -14 4.5t-15 4.5t-14 5.5t-11 10.5l-3.5 3.5l-3.5 3.5q-3 3 -6.5 5.5t-8.5 3.5q-4 2 -7 2.5t-7 2.5q-10 3 -19 7t-17 10q-11 7 -21 14.5t-19 17.5
q-4 4 -7 6q-17 13 -25 36l-2.5 5t-3.5 5t-4.5 5t-5.5 5q-15 16 -16 36q-1 10 -3.5 19t-6.5 19q-6 14 -9.5 29t-5.5 30q-2 10 -2 19.5v19.5q0 5 1 9t3 9t6 13q2 7 3 13.5t-2 14.5t-3 16t2 16q2 9 3.5 18t3.5 18l2 6t2 5q5 8 9 15.5t8 15.5q2 4 4 7t4 7q2 8 6.5 14t9.5 12
q17 20 35 38t34 38q3 4 6.5 7t7.5 6q16 11 32.5 19t35.5 13q10 2 15 4q22 9 44 15.5t45 13.5q19 4 37 3q33 -1 68 -9q8 -2 15 -3t15 -1q25 -2 52 -6.5t51 -16.5q18 -9 27 -19.5t13 -22.5t5.5 -27t4.5 -33l3 -30q4 -13 5 -23q4 -10 4 -15q3 -15 -12 -16h-16q-9 -1 -11.5 0.5
t-5.5 9.5t-6 16.5t-5 17.5q-7 20 -19 34q-5 6 -9.5 12t-7.5 13q-8 15 -24 26q-11 7 -21 14.5t-20 16.5q-2 2 -5 4l-6 4q-8 4 -15 6q-23 1 -51 8q-3 1 -9 1q-11 -2 -21 -1t-21 -1q-13 -1 -25.5 -4t-24.5 -7q-8 -3 -17 -8q-5 -2 -8.5 -4.5t-8.5 -4.5t-11 -3t-11 -4
q-5 -2 -9.5 -6t-9.5 -8q-2 -2 -5 -2.5t-5 -1.5t-4.5 -1t-5.5 -1zM555 270q-2 0 -2 -1v-2q2 0 2.5 -0.5t1.5 -0.5q2 1 0 3q-1 1 -2 1z" />
    <glyph glyph-name="H" unicode="H" horiz-adv-x="775" 
d="M565 508q0 4 -2 4q-13 9 -11 29q3 19 -1 35q-2 6 -2 9q1 13 -3.5 23.5t-9.5 21.5q-5 14 -19 15q-7 1 -15.5 3.5t-14.5 7t-7.5 10t5.5 11.5q4 4 14.5 6t23 3.5t24 1.5h16.5q6 -1 12 -1.5t12 0.5q23 2 42 -1q22 -1 44 0h16t21 -2t17 -7t4 -15q-2 -8 -11.5 -11t-21.5 -5
t-23 -5.5t-15 -13.5q-5 -11 -6.5 -22t-2.5 -22q-1 -8 -1 -16.5t-1 -16.5q-1 -14 -0.5 -28.5t1.5 -29.5v-21t-2 -21q-2 -14 -2.5 -29t2.5 -29q2 -14 -1 -26q-5 -17 -4.5 -33.5t3.5 -33.5q2 -13 2.5 -25.5t-0.5 -25.5q-2 -21 -1.5 -41.5t1.5 -40.5q0 -12 3 -24q1 -8 0.5 -19.5
t-0.5 -24t2 -23t8 -16.5q5 -5 12.5 -5.5t15.5 0t14.5 -0.5t10.5 -7q12 -19 2 -27.5t-28.5 -11t-38.5 -2t-28 0.5q-10 0 -14 1q-11 3 -21 3h-21q-8 1 -16.5 1.5t-16.5 0.5q-7 0 -14.5 -0.5t-13.5 0t-11 3.5t-6 11q-2 12 6 16.5t16 10.5q11 8 18.5 8.5t11.5 8.5q5 11 7.5 34
t3.5 41q0 5 0.5 11t1.5 12q2 16 3.5 32t0.5 33q-1 13 3 25q4 10 1 21q-2 10 -2 16q0 14 -2.5 26t-7.5 25l-4 2t-4 1q-24 0 -48 0.5t-48 -0.5h-29.5t-29.5 1h-28q-5 0 -9.5 -0.5t-9.5 -1.5q-11 -3 -23 -3t-23 2q-6 1 -12 1.5t-11 1.5q-16 2 -31 0.5t-30 -3.5q-6 0 -6 -6
q-1 -18 -1.5 -36.5t-1.5 -36.5q4 -15 2 -30t0 -30q0 -4 -1 -5q-2 -11 -2.5 -22t0.5 -22q1 -10 0.5 -20t-5.5 -19q-2 -6 1 -9q4 -5 5.5 -10.5t3.5 -10.5q1 -5 2.5 -10t3.5 -10q3 -7 10 -9q6 -2 15.5 -4t19 -5t17.5 -7t12 -10q9 -14 2.5 -19t-19.5 -6t-28 0t-22 -1
q-14 -2 -27 -1t-26 4q-15 3 -28 2q-21 -1 -44 -6q-11 -2 -21 -2.5t-21 1.5q-10 2 -19.5 2t-19.5 -1q-6 -1 -8.5 4.5t-1 12.5t6.5 13t14 6q10 0 18.5 3t17.5 7q8 5 14.5 11t14.5 13q4 4 4 10q2 10 3 19l2 18q1 2 0.5 3.5t-0.5 3.5q-2 30 7 56q3 10 0 21q-3 9 -0.5 17t6.5 16
q1 2 2.5 4t2.5 4q0 2 0.5 4.5t-0.5 4.5q-2 4 -6 10q-7 10 -7 22q-1 11 -1 22t-2 22q-1 5 -0.5 10.5t1.5 10.5l3 21q2 10 2.5 19t-1.5 19q-2 14 0 30q0 9 -0.5 17.5t-2.5 17.5q-3 19 1 37q2 5 2 10.5v10.5q0 28 -4 51q-2 8 -4.5 15.5t-4.5 15.5q-2 6 -9 11q-6 4 -12 7.5
t-13 5.5q-8 2 -17 2t-15 3t-8.5 10t-0.5 14q2 8 8 11t14 5q32 11 66 4h7q13 2 26 1.5t27 -0.5h40q2 0 4.5 0.5t5.5 -0.5q15 -2 30 -1.5t30 0.5q16 0 18 -16v-14q0 -11 -11 -9q-5 0 -9 -0.5t-9 -1.5q-17 -2 -29 -14q-3 -4 -6.5 -6.5t-6.5 -6.5q-17 -17 -17 -40
q0 -14 -0.5 -27t-0.5 -27q-1 -9 -0.5 -18.5t1.5 -18.5q2 -6 1.5 -12t-0.5 -11q-1 -16 -3 -31t0 -30q0 -6 1 -9q0 -5 5 -5q11 1 21 1.5t21 2.5q17 3 32 -3q16 -6 32 -7.5t33 0.5q11 1 22.5 0.5t23.5 -2.5q35 -5 65 1q12 2 24 2.5t23 0.5h12t12 1l15 1.5t7.5 3t2.5 8t1 15.5
t0.5 19.5t-1.5 19.5q-3 27 13 46v2zM150 429v-2q2 -2 2 2q0 1 -1 1t-1 -1zM132 506l-1 -1h2z" />
    <glyph glyph-name="I" unicode="I" horiz-adv-x="336" 
d="M285 12q-14 -4 -26.5 -4.5t-25.5 0.5l-24 3q-15 2 -30 2t-31 -1q-17 -1 -33.5 -0.5t-33.5 0.5h-22.5t-22.5 -2q-7 -1 -14 -0.5t-14 0.5q-8 0 -8 9q1 12 16 23t28 13q21 3 35 21q20 26 20 58v33q0 3 0.5 6t-0.5 6q-2 12 -1 24t3 25q1 5 1.5 9t-0.5 9q-2 11 -1.5 22t2.5 22
q1 7 1.5 13t1.5 13q0 10 -1 14q-5 14 -4.5 26.5t1.5 26.5q1 11 1.5 22.5t2.5 22.5q2 15 -1 28q-3 11 -1 25v25t1 24q1 8 0.5 14.5t-4.5 13.5q-3 7 -3 16q-1 5 -1.5 10.5t-0.5 10.5q0 9 -2.5 18t-6.5 18q-2 5 -5 8t-7 5q-14 7 -25 7q-8 1 -22 1t-18 9q-3 8 3.5 16.5
t12.5 12.5q13 7 32.5 2.5t34.5 -4.5q2 0 4.5 -0.5t4.5 0.5q15 4 30.5 3t30.5 -3q3 0 14.5 0.5t25.5 1t28.5 -0.5t23.5 -5t11 -11.5t-9 -19.5q-5 -5 -11 -7t-13 -3.5t-13 -3.5t-10 -7q-5 -6 -8.5 -16t-5.5 -21t-3.5 -22t-1.5 -18q-1 -15 -1.5 -29.5t0.5 -29.5q1 -3 1 -6.5
t1 -7.5q3 -8 3.5 -16t0.5 -16q1 -10 1 -19t2 -18q1 -3 0.5 -5t-1.5 -5q-1 -4 -1.5 -7.5t-1.5 -8.5l-2 -30t1 -30q1 -11 -3 -21q-5 -9 0 -18t3 -20q-3 -29 2 -61q3 -22 -1 -42q-3 -15 -1 -33q1 -7 1.5 -13.5t1.5 -14.5q0 -4 1 -7.5t2 -8.5q2 -6 6 -10.5t9 -9.5q12 -8 25 -14
t27 -11q5 -2 11.5 -3.5t8.5 -6.5q1 -2 0 -11.5t-2 -9.5z" />
    <glyph glyph-name="J" unicode="J" horiz-adv-x="354" 
d="M322 657q-1 -1 -2 -1.5t-2 -1.5q-6 -5 -14 -5.5t-16.5 -1t-15.5 -2.5t-12 -9q-8 -10 -12.5 -21.5t-8.5 -22.5q-2 -5 -1.5 -9.5t0.5 -9.5q0 -26 -3 -51q-3 -15 0 -30q1 -15 0 -28q0 -2 -0.5 -3.5t0.5 -3.5q3 -22 -2 -47q0 -8 1 -11q2 -12 2 -24v-23v-36t-3 -37
q-4 -23 1 -51q4 -17 -2 -34q-1 -2 -1 -3.5t-1 -3.5q-2 -9 0 -14q5 -10 6 -20t0 -21q-2 -16 -2 -31.5v-31.5q0 -23 -8 -39q-4 -8 -6.5 -15t-5.5 -15q-4 -10 -6.5 -20t-6.5 -20q-2 -6 -6 -13.5t-8 -12.5q-6 -8 -13.5 -14.5t-15.5 -12.5q-6 -5 -11.5 -10t-10.5 -10
q-9 -11 -22 -18q-24 -14 -50.5 -22t-55.5 -11h-9q-7 1 -13 1h-13q-37 2 -55 30q-10 16 -4 31q2 5 4.5 9.5t5.5 9.5q10 13 17 16.5t27 4.5q3 0 6 -0.5t6 -0.5q20 -1 33 -19q3 -4 5.5 -7.5t5.5 -8.5q7 -10 22 -10q2 1 4.5 1t4.5 1q5 2 10.5 2.5t10.5 0.5q7 0 10 6q5 8 10.5 16
t11.5 16q8 11 12 22t6 24q2 17 3.5 34.5t3.5 34.5q1 8 2 15t3 15q4 13 4 25.5t-5 25.5q-3 5 -3 11t1 12q2 6 4 16q1 4 1.5 7.5t0.5 8.5q1 18 1 36v36q0 5 0.5 10.5t0.5 10.5t0.5 8.5t-0.5 8.5q-1 17 -0.5 34t0.5 34q0 5 0.5 10.5t-0.5 10.5q-2 14 -1.5 28t1.5 28q2 17 2 34
t-3 34q-1 5 -1 10.5v10.5q2 15 1 30l-2 30q-1 12 -5 23t-9 22q-4 8 -15 10q-8 1 -18 1.5t-19.5 2.5t-17.5 6t-12 13q-7 14 0.5 20.5t21.5 4.5q14 -3 28 0q10 1 19.5 1.5t19.5 2.5q8 2 16.5 2t16.5 -2q17 -2 34 -2t34 -2q5 0 9 0.5t9 1.5q7 0 13 0.5t13 0.5q11 -1 26.5 -1.5
t21.5 -13.5q7 -12 -4 -24z" />
    <glyph glyph-name="K" unicode="K" horiz-adv-x="667" 
d="M571 647q-12 -8 -24.5 -15.5t-24.5 -15.5q-20 -14 -36 -30q-4 -4 -7 -8t-8 -7q-10 -7 -18 -15l-16 -16q-2 -2 -2.5 -3t-2.5 -3q-11 -7 -19 -16.5t-16 -20.5q-8 -9 -16 -17t-18 -15q-14 -11 -26 -23.5t-23 -26.5q-2 -2 -3.5 -5t-1.5 -5q-1 -6 -3.5 -11t-4.5 -10
q0 -4 1 -6.5t3 -5.5q8 -12 18.5 -22t20.5 -21l14.5 -14.5t14.5 -13.5q14 -17 27 -38q3 -5 6 -9t7 -8q11 -11 20.5 -23.5t20.5 -23.5q15 -17 29.5 -34.5t28.5 -36.5q2 -2 2.5 -3t2.5 -2q12 -12 23.5 -24.5t22.5 -25.5q10 -12 21 -13l9 -3q17 -7 32 -7q8 0 11 -10q4 -9 2 -21
q-2 -6 -6.5 -10t-10.5 -3q-8 1 -16.5 1t-16.5 1q-11 2 -23 2h-24q-16 0 -29.5 -0.5t-25 2.5t-21.5 11t-17 23q-2 3 -2.5 6t-2.5 5q-9 12 -18 24.5t-18 24.5q-4 5 -8 8.5t-9 7.5q-4 3 -7.5 6t-6.5 7q-10 11 -19.5 22.5t-18.5 24.5q-2 3 -8 9l-18 24q-5 8 -10.5 14.5
t-10.5 13.5q-10 11 -18.5 21.5t-17.5 21.5q-6 9 -13 16.5t-15 14.5q-6 6 -14 9q-2 2 -7 2q-7 -1 -13.5 -2t-12.5 -4q-2 -5 -2.5 -10.5t-0.5 -10.5v-9.5t1 -9.5q3 -15 1.5 -30t-3.5 -30q-5 -22 -2 -42q2 -10 2.5 -20t2.5 -20l2 -22t0 -22q-2 -9 2 -14.5t11 -10.5
q14 -9 29.5 -14t32.5 -3q6 1 11 -3t6 -11q2 -7 2 -13.5t1 -14.5q0 -4 -5 -4q-5 1 -10.5 1t-10.5 1q-6 1 -11.5 1.5t-11.5 -0.5q-29 0 -56.5 -0.5t-56.5 -1.5h-2q-14 -2 -28 -1.5t-28 1.5q-11 2 -23.5 1.5t-22.5 6.5t-10 19q1 11 6.5 12.5t15.5 3.5q5 1 11 2t12 3q13 5 22 14
t12 24q2 11 3.5 21t-0.5 21q-2 8 -3 17l-2 18q-3 15 -3 32q2 23 2 45t-1 44q-2 40 13 73q3 5 -3 8q-6 4 -6 9q-2 13 3 25q3 13 2 23q-2 15 -2.5 30.5t0.5 30.5q1 7 0 14q0 23 3 44q4 30 -5 60q-9 24 -32 33q-8 3 -17.5 3t-17 1.5t-10.5 7t4 20.5q5 10 14.5 14t21 5t23.5 0
t22 0q14 2 25.5 -1t25.5 1t29 3t30 1q13 2 30.5 3.5t28.5 -7.5q13 -12 6 -26.5t-22 -12.5q-14 1 -28 -5q-12 -5 -16 -15q-3 -8 -5.5 -16t-4.5 -16q-6 -24 -6 -48q-1 -21 -1 -41.5t-1 -40.5q-1 -12 -1.5 -23.5t0.5 -23.5q0 -7 0.5 -14t1.5 -14q0 -5 4.5 -8.5t10.5 -1.5
q34 6 53 27q5 6 10 11.5t10 11.5q6 9 15 15q21 17 42 41q3 5 7 8.5t9 7.5q27 22 52 51q2 3 4 7t4 7q6 13 18 22q5 3 9 7l8 8q6 6 8 14q5 13 -6 21q-3 3 -8.5 4t-11 2.5t-8.5 4t0 8.5q3 7 18.5 15.5t21.5 12.5q12 6 25 4.5t26 -3.5q19 -3 35 -2q17 2 30 -2q5 -2 10.5 -2h10.5
h13.5t14.5 -1q10 0 12 -12v-10q1 -10 -2 -13t-14 -4q-10 -2 -19.5 -2h-20.5zM481 663h2l1 1q-2 1 -2 -2l-1 -1v2z" />
    <glyph glyph-name="L" unicode="L" horiz-adv-x="573" 
d="M172 234q6 -8 9.5 -11t5 -7t1.5 -10t-1 -18q-2 -22 -1.5 -43.5t2.5 -43.5q2 -11 6 -20t10 -18q8 -11 13.5 -15t18.5 -5q19 -1 37.5 -2.5t37.5 3.5q5 1 11 2t11 3q8 3 14 2q8 0 12 1q28 1 54 19q5 5 6 7q4 10 5 15q5 15 15 21q12 7 18 21q3 5 5.5 9t5.5 9q4 7 7.5 13
t6.5 14q2 6 9 5q16 -2 19 -5t1 -19q-1 -21 -8 -46q-6 -20 -6.5 -41.5t-11.5 -40.5q-12 -22 -31 -27.5t-42 -3.5q-28 2 -55.5 1.5t-54.5 4.5q-23 4 -49 -2q-28 -8 -62 -2q-15 3 -30.5 3h-30.5q-16 -1 -31.5 -0.5t-31.5 2.5q-12 2 -23 0q-7 -1 -16.5 -2t-17 0.5t-10 6.5
t4.5 16q10 14 27 15.5t32 4.5q4 2 7 5q12 15 12 32q0 8 1 16.5t3 16.5t3 15t2 15q1 9 0.5 18t-3.5 19q-8 22 -5 44v8t-1 8q-2 14 0 28t2 28q0 1 1 2q6 17 4 33.5t-4 33.5q-2 15 -2.5 29.5t1.5 28.5q2 13 3.5 25t3.5 24q2 10 2.5 19t-0.5 18q-2 11 -1.5 22.5t2.5 22.5
q2 15 -1.5 32.5t-12.5 30.5q-9 11 -23 14.5t-22 15.5q-11 15 -4 21.5t20.5 8t28.5 0.5t21 0q14 2 29 2t29 -1q7 0 13.5 0.5t12.5 -0.5q8 -1 15 -0.5t15 0.5h42q14 0 16 -3t4 -16q0 -3 -1 -6.5t-2 -7.5q-2 -5 -7 -5q-3 -1 -11 -1l-16 -2t-16 -4q-5 -2 -8.5 -4.5t-6.5 -7.5
q-6 -10 -9.5 -15t-5 -10t-1 -11t2.5 -18t1.5 -23.5t-4.5 -22.5q-5 -16 -6.5 -32t0.5 -33q0 -5 0.5 -10.5t-0.5 -10.5q-3 -13 -3 -25.5t1 -25.5q2 -18 3 -26.5t0.5 -15t-2 -15.5l-4.5 -27q-1 -8 -1 -15v-15q0 -11 -2 -20.5t-7 -18.5q-1 -1 -1 -4zM123 562q3 -2 3 1q-1 1 -2 1
q-1 -1 -1 -2z" />
    <glyph glyph-name="M" unicode="M" horiz-adv-x="898" 
d="M670 678q8 7 19.5 9t22.5 0q23 -5 44 -2q11 1 26.5 2.5t23.5 -9.5q6 -9 4 -15t-9 -9t-15 -4.5t-14 -2.5q-5 0 -13 -4q-9 -4 -12 -14q-10 -22 -5 -41q3 -11 3 -22t2 -22q3 -23 2 -42q0 -7 0.5 -13.5t1.5 -14.5l2 -28t1 -28q1 -9 1.5 -17.5t2.5 -17.5q2 -5 2 -11v-12
q0 -21 3 -42q4 -20 5 -40.5t1 -40.5q0 -33 3 -64q3 -24 1.5 -50t9.5 -49q10 -22 35 -27q8 -1 14.5 -1.5t12.5 -6.5q5 -6 5 -16t-7 -15q-5 -4 -12.5 -4t-16.5 1.5t-17.5 2.5t-14.5 0q-6 -2 -21 -3t-31.5 -2t-31.5 -2t-22 -1q-6 0 -16.5 -0.5t-20.5 1.5t-16.5 7.5t-3.5 17.5
q2 8 8.5 11.5t15 5.5t16 3.5t12.5 6.5t6 17t2 18q6 40 -1 78q-2 10 -2 20v20q1 9 1.5 18.5t1.5 18.5v26q-1 11 -1.5 22t-1.5 22v15t-2 15q-1 5 -1 8.5v8.5v18q-2 17 -4.5 33t-4.5 32l-4 42l-4 42q0 3 -2 9q0 1 -4 1q-2 -2 -3 -4q-9 -14 -17 -28t-14 -29q-8 -23 -17.5 -44
t-20.5 -42l-3 -9q-7 -23 -15.5 -46t-15.5 -47l-3 -6q-5 -10 -9 -20t-9 -21t-10.5 -21t-11.5 -20q-2 -3 -3.5 -6t-1.5 -7q-1 -13 -5.5 -25t-11.5 -23q-11 -20 -17 -39q-1 -4 -3 -8t-4 -9q-8 -13 -11 -28q-3 -11 -7.5 -20t-8.5 -19q-2 -5 -5.5 -8.5l-7.5 -7.5q-2 -2 -5 -2
q-6 1 -11 3t-8 8q-5 9 -9 18l-8 18q-4 13 -9.5 23.5t-13.5 21.5q-15 21 -21 45q-5 14 -10.5 28.5t-10.5 28.5q-8 23 -17.5 44.5t-20.5 43.5q-10 19 -18 38.5t-14 39.5q-4 13 -8.5 25.5t-9.5 24.5q-11 31 -18 61q-5 25 -19 45q-3 5 -8 5q-1 -2 -2 -5t-2 -5q-2 -13 -5 -25.5
t-5 -25.5q-2 -15 -2.5 -30t-1.5 -31q0 -14 -0.5 -26.5t-4.5 -26.5q0 -2 -0.5 -4.5t-0.5 -4.5q-2 -18 -3 -36t-3 -37q-2 -20 -3 -39.5t-3 -39.5q-2 -19 -2.5 -37.5t-1.5 -37.5q-1 -23 8.5 -39t32.5 -20q9 -2 15 -4.5t10 -11.5q2 -4 2.5 -9.5t-0.5 -10.5t-4.5 -8t-9.5 -2
q-11 1 -22.5 2t-22.5 2h-21q-2 0 -4.5 -0.5t-4.5 0.5q-25 1 -50 -3t-50 -2q-11 1 -14 5.5t1 16.5q4 10 14 14q13 6 25 6.5t23 11.5q14 15 18 35.5t9 39.5q1 4 1 8v8q-1 13 -1 25t2 24q2 10 3.5 19.5t3.5 20.5q1 8 1.5 17t2.5 17q2 14 3 28t4 28q4 22 6 43t1 43q-2 20 4 35
q7 22 4 46q-2 13 -1.5 25.5t2.5 25.5q6 38 -2 77q-3 16 -19 19q-7 2 -13.5 2.5t-13.5 2.5q-15 2 -18.5 9t1 14.5t14 13.5t18.5 8q16 2 33 -0.5t32 -3.5q10 -1 19 -0.5t19 2.5q20 5 30 -16q3 -8 6.5 -15l7.5 -15q7 -15 8 -29q0 -4 1 -7.5t1 -8.5q1 -31 20 -57q10 -15 17 -32
t12 -34l15 -42q4 -11 8.5 -22.5t9.5 -22.5l8 -22t6 -23q2 -11 6.5 -21t9.5 -20q6 -14 12.5 -26.5t13.5 -26.5q0 -1 1 -2q11 -16 18 -34l14 -36q2 -5 4.5 -9.5t4.5 -9.5q2 -3 4.5 -3t4.5 2q8 8 13 18t9 20q6 14 11 27.5t10 27.5q3 6 5.5 12t5.5 11q16 29 23 57q2 8 5 15.5
t5 15.5q6 20 20 39q2 2 3.5 4.5t3.5 4.5q10 13 11 26q0 7 2.5 13t4.5 12q5 11 10.5 23t10.5 23q2 5 4.5 9t4.5 8q15 28 26.5 56.5t22.5 57.5q5 11 7 22.5t12 19.5zM365 231q0 1 -0.5 2.5t-0.5 3.5q-2 9 -12 9q-2 0 -4 -2q0 -1 -0.5 -2t0.5 -3q2 -5 7 -7t7 -7q2 -2 2 3
q0 1 1 3zM147 373q1 0 1 -1q1 1 1 2l-1 1q-1 0 -1 -2z" />
    <glyph glyph-name="N" unicode="N" horiz-adv-x="734" 
d="M126 17q-2 -2 -3.5 -2t-2.5 -1q-6 -7 -19 -7q-14 1 -27.5 1t-27.5 -2q-8 -2 -15 -3t-15 4t-14 16.5t1 19.5q5 5 14 6t15 3q24 6 43 19q14 11 17 27v5q-1 17 1 32.5t1 32.5q-1 14 -0.5 27t1.5 27v25.5t1 25.5q0 12 0.5 24t0.5 23q1 6 0.5 12t-0.5 12v9t2 9q2 7 2.5 13
t0.5 13q-1 11 -1.5 22t-1.5 22q-2 15 0 30q2 6 1.5 12t-0.5 12q-1 9 -1 18.5t-1 18.5v13t-1 13q0 5 -0.5 9t-1.5 9q-1 3 -5 12.5t-9 19.5t-9.5 18.5t-6.5 10.5q-5 7 -11 9q-5 2 -12.5 4t-15 5t-12.5 7.5t-3 11.5q1 5 6.5 9.5t12.5 8.5t14 6t11 2q9 -1 18 -1.5t17 1.5
q18 2 33 -1q5 -2 11 -2t12 -1q5 -1 8.5 -1t7.5 -1q6 -4 10.5 -9.5t8.5 -11.5q14 -19 28.5 -38t29.5 -38l12 -16l12 -16q21 -33 51 -64q4 -5 7.5 -9.5t6.5 -9.5q10 -20 29 -36q8 -8 15.5 -17.5t12.5 -20.5q6 -14 15 -25t19 -22q12 -13 23 -26q5 -5 9.5 -10t10.5 -9
q10 -6 16 -14t11 -18q2 -3 3 -6.5t3 -6.5q4 -8 8 -14.5t11 -11.5l3.5 -3.5l3.5 -3.5q8 -8 15.5 -16.5t12.5 -19.5q1 -3 3 -5l4 -4t5 -2q2 -1 4.5 0.5t2.5 3.5q1 6 1.5 11.5t0.5 11.5q0 14 -0.5 28t-0.5 28v10q-2 14 -1.5 28t-1.5 28q-1 11 3 23q6 16 7.5 33t-0.5 34v10.5
t-1 10.5q0 14 -0.5 28t-2.5 28q-3 18 0 37v9.5t1 9.5v12q-3 27 -14 56q-4 10 -14 15q-4 1 -7 2t-7 2l-20 4t-21 4q-12 3 -14 16q-1 5 -1.5 8.5t-0.5 7.5q0 12 12 12h6.5t7.5 -1q8 -2 16 -2t16 -1q18 -1 36.5 -1h36.5q7 0 14 -0.5t14 -1.5q8 0 15 0.5t15 2.5q5 2 11 2.5
t12 0.5q7 -1 14 -1h14q8 -2 8 -10v-10.5t-1 -10.5q-2 -14 -15 -14q-12 0 -23 -4t-22 -9q-8 -3 -11.5 -5t-5.5 -4t-3 -6.5t-3 -12.5q-8 -28 -7 -51q1 -4 0 -8l-2 -8q-1 -15 0 -28q2 -17 3.5 -33t2.5 -33q0 -12 2.5 -24t0.5 -24t-2.5 -24t-2.5 -23q-2 -17 -1.5 -35t0.5 -35
q0 -18 -4 -33q-6 -14 -4 -32v-8t2 -8q5 -14 5.5 -28t-1.5 -28q-2 -20 4 -37q6 -20 1 -44q-2 -8 -2.5 -17t-1.5 -17q0 -8 -1 -12q-2 -10 -10 -16t-18 -4q-6 1 -11 2.5t-10 6.5q-2 3 -5.5 5.5t-7.5 4.5q-14 9 -23 23q-6 8 -12.5 16.5t-11.5 17.5q-5 10 -11.5 18t-14.5 16
q-11 11 -21 24.5t-18 27.5q-12 21 -28 37q-9 8 -16.5 16.5t-15.5 17.5q-6 6 -7 9q-3 7 -8 12t-10 9q-6 5 -10.5 10t-9.5 10t-8 11t-3 14q0 9 -11 15q-14 7 -24.5 17t-20.5 23l-6 8l-6 8q-11 16 -23 30t-25 28q-3 3 -5.5 6t-5.5 6q-2 2 -3.5 5t-3.5 5q-8 5 -13.5 12.5
t-10.5 15.5q-8 12 -18 21q-4 4 -6 -1q-1 -3 -2 -6.5t-1 -6.5q-1 -8 -1.5 -14.5t-2.5 -13.5q-4 -10 -2 -23q1 -10 1.5 -19t1.5 -19q1 -8 1 -16v-16q-1 -22 -1 -43.5t-1 -43.5v-30q-1 -9 -1.5 -18t0.5 -18l2 -30t-1 -30v-8.5t1 -8.5q2 -8 2 -16v-16q0 -19 8 -32q7 -8 14 -12
q11 -6 18.5 -7t18.5 -1q15 0 23.5 -4.5t6.5 -20.5q-2 -11 -3.5 -14t-10.5 -5q-8 -2 -19 -1.5t-19 1.5q-9 1 -18 -3q-10 -4 -15 -5q-5 0 -9.5 0.5t-8.5 3.5t-7 5.5t-7 5.5z" />
    <glyph glyph-name="O" unicode="O" horiz-adv-x="740" 
d="M2 386q1 17 2 33t5 32q0 5 2 9l8 22l8 22q2 7 4 13.5t2 14.5q0 5 5 12l1 2q12 13 24 25.5t25 25.5q5 5 10.5 9t11.5 8q23 13 36 29q17 20 41 27q6 2 12.5 4.5t12.5 7.5q5 3 9.5 4.5t9.5 3.5l33 12q5 2 10.5 3t10.5 1q9 0 14 2t11 2t12 1q4 0 7.5 -0.5t6.5 0.5q8 3 16 2
t16 -3t15 -2.5t15 -1.5q18 -2 35.5 -6.5t33.5 -13.5q3 -2 5.5 -3t5.5 -2q20 -6 36 -17.5t30 -25.5q11 -9 20 -20q10 -11 19.5 -21.5t20.5 -20.5q14 -14 25.5 -30t18.5 -36q2 -5 4 -9.5t4 -9.5q13 -31 13 -59q0 -23 6 -44t5.5 -42t-5.5 -42q-1 -4 -1.5 -7.5t-1.5 -8.5
q-4 -15 -8.5 -29t-12.5 -28l-6 -12q-4 -11 -8.5 -21.5t-11.5 -20.5q-4 -5 -6 -15q-1 -8 -4 -14t-8 -11q-5 -7 -10.5 -13t-10.5 -12t-9 -11.5t-8 -10.5q-22 -30 -59 -46q-12 -5 -23.5 -10.5t-22.5 -11.5q-46 -28 -97 -32q-11 -1 -21 -1.5t-21 1.5q-21 3 -41.5 5.5t-41.5 7.5
l-8 2l-8 2q-26 6 -45 24q-10 10 -21.5 18t-23.5 16q-8 5 -15.5 10t-15.5 10q-16 10 -27 22q-7 7 -13 14l-12 14q-8 9 -13 25l-10 30l-10 30q-4 12 -6.5 24.5t-5.5 25.5q0 2 -0.5 3.5t-0.5 3.5q0 14 -2.5 26.5t-1.5 26.5q0 7 -1 10q-2 10 -2.5 19.5t1.5 19.5q1 3 1 7z
M111 255q2 -4 4 -5q10 -6 15 -20q5 -15 14 -32q7 -15 17 -27t17 -27q10 -11 19 -22t22 -19l21 -15q6 -3 11 -8q7 -8 15.5 -12.5t18.5 -8.5q28 -12 62 -19q8 -2 15.5 -1.5t15.5 2.5q9 2 18 3.5t18 4.5q9 2 17.5 6.5t16.5 7.5q22 9 33 26q5 5 10 13q4 8 11 15l15 15q2 3 4 5.5
t4 5.5q12 22 21 48t13 49q7 46 12 93q3 22 -2 46q-3 13 -4 25.5t3 25.5q2 9 -4 13q-5 5 -7.5 10.5t-4.5 11.5l-4 10t-3 10q-2 10 -6 18t-10 16q-12 16 -21 36q-4 13 -16 23q-4 4 -7.5 7t-8.5 7q-3 3 -7 5.5t-7 6.5q-10 13 -22.5 21t-26.5 13q-8 4 -17 7t-18 7
q-8 4 -16.5 6.5t-16.5 4.5q-7 2 -14 3t-14 0q-15 0 -32 -5q-14 -3 -26.5 -8t-26.5 -9q-4 0 -7 -3q-9 -7 -18.5 -13.5t-17.5 -15.5l-22 -26t-20 -27q-10 -16 -18 -35q-7 -18 -11 -36t-7 -37q-3 -12 -3 -25q0 -21 1 -41.5t3 -40.5q1 -14 1 -27t-2 -27q-3 -17 0 -35zM605 285
l-1 -1l1 -1v2z" />
    <glyph glyph-name="P" unicode="P" horiz-adv-x="514" 
d="M5 17q-2 1 -3 6q-4 9 -1 18.5t13 13.5q7 2 13.5 0.5t13.5 1.5t11.5 8.5t12.5 8.5q9 3 11 14q9 33 13 60t3 65q-1 17 -2 34.5t-3 35.5q-1 5 -1 9t-1 9q-1 9 2 19q2 7 3 11t1 7.5t-0.5 8t-1.5 12.5q-2 12 -3 24.5t-3 24.5q-2 14 -3 27t-1 27v15t-1 15q-2 16 0 33
q2 14 3.5 28.5t2.5 29.5q2 26 -13 45q-9 11 -20 14.5t-22 10.5q-7 4 -13 13.5t-1 17.5q3 5 9.5 6t14 0.5t15 -2.5t12.5 -2q9 0 18.5 1t18.5 5t23 4q17 0 37 3q7 1 14 1h14q17 0 34 0.5t34 2.5q8 1 15 0.5t15 -0.5q15 -2 29.5 -3.5t28.5 -4.5t27.5 -7t24.5 -12
q8 -5 15.5 -8.5t15.5 -8.5q9 -5 16 -10q8 -8 15.5 -15t15.5 -14q9 -7 13 -21q2 -9 3.5 -17.5t3.5 -18.5l4 -2t5 -3q4 -3 4 -7q1 -16 1 -31.5t-3 -31.5q-2 -8 -3 -14.5t-3 -13.5l-3 -6q-2 -7 -3 -14t-4 -13t-7.5 -10.5t-8.5 -10.5q-3 -5 -5.5 -10t-4.5 -10q-11 -27 -35 -40
q-10 -5 -19 -9t-19 -9q-29 -14 -60 -18q-8 -1 -19 -5q-22 -6 -51 -4h-10t-10 2q-12 4 -23.5 4.5t-23.5 2.5q-8 2 -10 -7q0 -3 -0.5 -5.5t-0.5 -4.5q-2 -26 -2.5 -51t4.5 -51q1 -8 1 -16.5t-2 -16.5q-3 -8 1 -18l6 -26t2 -27q0 -2 1.5 -5.5t3.5 -5.5q5 -7 15 -10q15 -6 31 -9
q6 -1 14.5 -0.5t13.5 -3.5q4 -3 6.5 -9t2.5 -13t-2.5 -12.5t-7.5 -8.5q-4 -2 -12 -1t-13 0h-22t-22 1h-26l-28 2l-28 2q-20 1 -39 -2t-39 -5q-11 -1 -21.5 0t-17.5 10zM185 407v-32q1 -5 1.5 -9t3.5 -9q2 -5 7 -5q6 -1 12.5 -1t12.5 -1q8 -1 14.5 -1t13.5 -1h12t12 -1
q28 -3 57 8q14 5 22 13q9 9 18 18.5t14 20.5q7 14 13 27t10 27q5 14 2 28q-3 13 1 25q1 2 1 5.5v5.5q-2 8 -3 14.5t-2 13.5q-1 3 -2 6.5t-1 7.5q-1 11 -4.5 22t-7.5 22q-5 11 -15 14q-15 4 -30 14q-3 3 -9 7q-7 3 -12.5 6.5t-13.5 4.5q-11 2 -22 3.5t-22 1.5q-30 1 -51 -18
q-6 -4 -10 -10q-19 -19 -19 -44q0 -11 -0.5 -22t-0.5 -22q-2 -18 -2.5 -35.5t-1.5 -34.5q0 -8 1 -12q2 -9 2 -18.5t-1 -18.5v-20z" />
    <glyph glyph-name="Q" unicode="Q" horiz-adv-x="746" 
d="M290 -46l2 -1q14 1 26 -3t23 -11q12 -6 25 -8t24 -7q13 -6 27.5 -9.5t28.5 -10.5q18 -9 38 -18.5t41 -16t42.5 -9t42.5 3.5q11 4 22 7.5t22 10.5q8 5 22 7q2 0 5 -2.5t2 -5.5t-1 -6t-2 -5q-3 -5 -6.5 -8.5l-7.5 -7.5q-18 -15 -36 -33q-11 -10 -25 -16q-5 -3 -18 -5.5
t-21 -2.5q-12 -1 -23 -3.5t-21 -9.5q-2 0 -2.5 -0.5t-2.5 -0.5h-11t-12 1q-11 3 -20 7q-23 11 -44.5 21t-41.5 26q-10 8 -22 12t-24.5 6t-25.5 4t-25 7q-14 5 -23 7.5t-23 -0.5q-16 -3 -30.5 -6t-30.5 -8q-11 -4 -17.5 -8.5t-15.5 -11.5q-2 -2 -4 -2.5t-4 -2.5q-7 -3 -11 1
q-15 11 -12 23.5t13 26.5q11 16 24.5 30t25.5 28t29 22t32 19q5 4 16 10.5t11 12.5q-8 3 -16.5 5.5t-17.5 4.5q-10 2 -19 5.5t-19 6.5q-2 1 -5 1.5t-5 2.5q-20 13 -40.5 23.5t-40.5 24.5q-11 6 -18 18q-10 14 -19.5 28.5t-19.5 29.5q-3 5 -5 10l-12 33q-7 16 -8 32
q-1 8 -2.5 15t-6.5 14q-3 4 -3 13q0 3 0.5 6t0.5 6q1 10 -0.5 19.5t-7.5 18.5q-2 3 -3 6.5t-2 6.5q-4 9 -1 16q2 6 2.5 11.5t2.5 11.5q2 15 4.5 30t9.5 29q5 10 5 25q1 31 18 57q4 5 7.5 10.5t8.5 10.5q8 10 13 24q5 16 15 32l8 10t9 9l10 10l10 10q11 11 23 19.5t26 16.5
q12 7 25 12.5t25 11.5q10 6 23 6q4 0 7 0.5t7 0.5q13 0 25 6q3 1 6.5 2t6.5 2q5 1 9.5 2t9.5 0q10 -2 19.5 -1.5t19.5 0.5q6 -1 11 -1.5t10 -2.5q22 -8 41 -7q10 1 19 -2t17 -7q8 -3 14 -6.5t13 -6.5q14 -7 25.5 -15t25.5 -15q11 -5 20 -14t17 -18q9 -11 17.5 -21.5
t16.5 -23.5q4 -6 9 -11.5t10 -11.5q23 -26 31 -55q3 -11 9 -21q1 -3 2 -5.5t3 -5.5q6 -12 3 -27q-2 -10 -4 -19.5t-4 -19.5q-3 -15 6 -23q2 -1 2.5 -2t1.5 -2q4 -4 3 -10v-10q-2 -14 -3 -26.5t-3 -26.5q-1 -15 -3.5 -30t-8.5 -29q-3 -6 -3 -12q-2 -11 -7 -20.5t-12 -18.5
q-2 -2 -3 -4t-3 -4q-9 -10 -11 -20q-1 -9 -8 -17l-32 -38t-36 -35q-8 -7 -16 -12t-19 -7q-1 0 -1 -0.5t-1 -0.5q-17 -10 -36 -15.5t-37 -13.5q-16 -6 -33 -11l-34 -10q-15 -4 -29.5 -13t-28.5 -17q-4 -2 -7.5 -4.5t-8.5 -5.5q1 0 -1 -4zM560 399q-1 10 -1 18t-1 16
q-1 11 -3.5 22.5t-8.5 22.5q-9 17 -14 32q-4 8 -7 17t-8 17q-11 23 -27 41t-39 29q-13 6 -25 16q-5 4 -9 7l-8 6q-13 8 -30 13q-7 2 -14 3t-14 3q-6 2 -12.5 2.5t-12.5 -0.5q-11 -1 -21 -1t-21 2q-7 1 -16 -2q-11 -4 -21 -8t-19 -12q-8 -6 -16 -11.5t-16 -11.5l-3.5 -3.5
t-2.5 -3.5q-3 -7 -9 -13q-11 -11 -19 -23l-16 -24q-4 -8 -5 -13q-4 -11 -7 -21t-7 -21q-3 -9 -5.5 -18t-2.5 -18q0 -21 -6 -42q-1 -5 -1 -9.5t-1 -9.5q-2 -8 -2.5 -15t-2.5 -15q-3 -16 1 -30q1 -4 1.5 -7.5t1.5 -8.5q2 -8 2.5 -17t2.5 -17q0 -5 0.5 -8.5t0.5 -8.5
q0 -10 2.5 -19.5t6.5 -18.5t8 -17.5t7 -17.5q3 -7 6.5 -13.5t8.5 -12.5q12 -13 18 -32q3 -10 6 -15.5t6 -9t7.5 -6.5t11.5 -8q12 -8 24 -16.5t22 -19.5q9 -9 22 -12q5 -1 8.5 -2t8.5 -1q9 -1 18 -3l18 -4q17 -4 28 0q6 1 12 1h11q8 -1 14.5 0.5t13.5 3.5q16 7 35 13
q17 7 26 16q12 12 23 19q13 9 23 27q6 11 10 23t6 26q0 15 8 26q3 5 5.5 11t4.5 13q1 8 5 17q5 11 5.5 21t3.5 21q1 4 0.5 8.5t-0.5 9.5q0 9 0.5 18t2.5 17t1.5 15t-1.5 15q-3 9 -1 19q0 4 -0.5 7.5t-0.5 5.5zM69 178q5 1 7 6q2 8 3 15t2 15q1 2 -1 5t-4 2t-5 -4
q-2 -6 -1 -9q1 -11 -4 -26v-2q0 -2 3 -2zM625 404l1 -2q7 1 10 9v1l-4 2q-3 -2 -7 -6v-4z" />
    <glyph glyph-name="R" unicode="R" horiz-adv-x="646" 
d="M614 47q0 -1 1 -2q2 -7 0.5 -14t-5.5 -12q-3 -5 -8.5 -6.5t-10.5 -1.5q-6 -1 -11.5 -1t-11.5 -1q-15 -3 -33 2q-16 5 -29 6q-17 2 -35 13t-30 22q-14 13 -23 32t-19 36q-17 30 -30.5 63t-36.5 61q-5 8 -10 15.5t-11 15.5q-7 8 -15 14.5t-16 13.5q-5 5 -14 7l-28 6t-28 2
q-2 0 -3.5 -0.5t-3.5 -0.5q-16 -26 -14 -58q1 -12 1.5 -24t1.5 -23t-0.5 -21t-1.5 -21q0 -18 3 -36.5t11 -35.5q10 -21 24 -30t36 -9q11 0 18 -7q1 -7 1.5 -13.5t1.5 -14.5q0 -3 -3 -3l-8 -2t-8 -1h-35q-10 1 -20 1.5t-20 1.5h-12q-3 -1 -11 -1q-13 2 -25.5 1.5t-25.5 0.5
q-12 1 -21.5 -2t-20.5 -5q-7 -2 -16 -2.5t-17 1t-14.5 6t-9.5 12.5q-5 16 7.5 22t23.5 12q29 14 33 44l4 22l4 22q6 19 -1 44q-3 11 -3 22.5t5 22.5q3 6 3.5 12.5t0.5 13.5q-1 16 -0.5 31.5t-1.5 31.5q-2 14 -1.5 27t0.5 27v8t1 8q3 14 3.5 26.5t-0.5 26.5q0 4 -1 7.5t0 6.5
q2 14 1 28t-3 28q-2 18 0 35t-1.5 33t-8.5 32q0 2 -2 4q-5 6 -11.5 11.5t-12.5 10.5q-1 1 -4 1q-11 3 -22.5 5.5t-23.5 0.5q-3 0 -5 4t-2 8v8q1 8 9 10q14 5 25 4q5 0 8.5 -0.5t7.5 0.5q10 2 19 2.5t19 -0.5q23 -2 44.5 -0.5t44.5 3.5q3 1 11 3q4 1 7 1.5t7 1.5q11 2 22 2.5
t22 2.5q17 3 35 2.5t35 -2.5q2 0 4.5 -1t4.5 -1q11 0 20 -3t18 -8q8 -3 15.5 -5.5t15.5 -4.5q31 -9 59 -29q6 -4 9 -7q8 -9 15 -18t14 -19q11 -14 11 -32q0 -5 1 -10.5t0 -10.5q0 -17 6 -30q4 -7 4 -13.5t-2 -13.5l-8 -28t-9 -28q-3 -7 -6.5 -13t-8.5 -11q-11 -11 -17 -25
q-6 -15 -20 -21q-2 -1 -3 -2t-3 -2q-14 -5 -24.5 -14.5t-21.5 -17.5q-6 -5 -4 -15q0 -3 1 -5q7 -14 13 -28.5t16 -27.5q7 -9 13.5 -19t14.5 -18q7 -11 14.5 -22t12.5 -24q4 -9 8.5 -17t9.5 -16q4 -6 7.5 -12t5.5 -13t6 -13t9 -11q6 -8 13 -16t13 -16q5 -7 12 -11t13 -9
q10 -10 23 -5q3 2 11 6t12 -1zM245 360q5 0 9.5 -0.5t9.5 -0.5h26q13 0 26 8l14 8l14 8q9 5 15.5 11.5t11.5 14.5q4 6 8 11.5t9 10.5q4 4 7 10q5 14 9.5 29t2.5 32q-2 20 -2.5 40.5t-1.5 40.5q0 5 -4 11q-6 8 -12 17t-9 19t-13 13l-15 6q-9 2 -17.5 4t-16.5 5q-12 4 -24 5
t-24 3q-14 2 -30 -4q-21 -10 -34 -32q-11 -20 -15 -42t2 -45q5 -18 2 -33q-1 -4 -1 -14q1 -7 1 -13.5t-6 -12.5q-2 -2 -1.5 -4.5t0.5 -4.5q0 -20 -1 -39.5t4 -39.5q3 -14 5 -16.5t16 -3.5q9 -1 18 -1.5t17 -0.5zM120 460q0 -3 -0.5 -5.5t-0.5 -4.5q-4 -10 -5 -15
q-1 -2 0 -4.5t1 -4.5q0 -3 3 -3q2 0 4 2t2 4q-1 8 0.5 16t3.5 16q3 10 -8 19h-2l-3 -3q-1 -3 1 -9q2 -2 4 -8z" />
    <glyph glyph-name="S" unicode="S" horiz-adv-x="511" 
d="M380 541l-3 9q-4 10 -7.5 19.5t-8.5 19.5q-8 13 -20 22q-10 8 -18.5 15.5t-17.5 15.5q-7 7 -19 12t-24.5 8t-25.5 6q-2 1 -4.5 0.5t-4.5 1.5q-14 4 -27 -4t-26 -15.5t-25 -18.5q-4 -4 -8 -7.5t-8 -8.5q-7 -8 -11.5 -17.5t-6.5 -20.5q-1 -5 -2 -9t-2 -9q-2 -14 3 -25
q9 -20 21 -39q10 -17 27 -28q10 -5 19.5 -10.5t18.5 -12.5q8 -7 21 -10l36 -9q5 -1 8.5 -1.5t8.5 -1.5q7 0 10 -8q4 -8 5 -12q4 -3 12 -3q20 2 34 -12q4 -3 8 -5.5t8 -4.5q17 -9 31 -21.5t26 -26.5q7 -8 13 -15.5t12 -15.5q4 -4 6 -7q3 -5 4.5 -10t-0.5 -10q-4 -9 -3 -17.5
t5 -16.5q5 -9 2 -18l-4 -24t-3 -24q-1 -8 -2.5 -15t-3.5 -15q-8 -27 -23 -46q-8 -9 -16 -18.5t-16 -18.5q-11 -14 -27 -17q-5 -1 -8.5 -2.5t-7.5 -3.5q-12 -5 -17 -15q-5 -9 -17 -11q-15 -3 -30.5 -5.5t-31.5 -0.5q-11 2 -22.5 1.5t-22.5 0.5h-14t-14 1q-11 0 -23 3
q-9 2 -17.5 3.5t-16.5 3.5q-22 3 -36 11q-15 6 -30 6q-3 0 -6 -1t-5 0q-10 2 -14.5 5t-5.5 14q0 4 -0.5 7.5t-0.5 6.5q1 9 -1 18t-4 17q-1 4 -3 14q0 8 0.5 17t-1.5 18q-3 16 -3 32q0 8 7 11q12 7 27 2q3 -3 3 -4q2 -4 2 -6q1 -5 1 -8.5t1 -8.5q3 -16 13 -26q9 -9 17 -18.5
t17 -17.5q12 -15 34 -25q8 -3 16.5 -7t17.5 -9q7 -3 14 -5t15 -2q11 -1 23 -1t23 3q4 2 7 1t7 -1q20 -3 37 1q7 1 13 6q9 7 16.5 14.5t12.5 18.5t10 19q3 5 6 9.5t6 9.5q5 7 5 13q2 14 3 27t2 27q1 12 -5 25q-6 9 -12.5 17t-14.5 15l-30 27q-14 13 -32 17q-14 2 -26.5 7
t-24.5 11q-5 3 -9.5 5t-9.5 4q-8 4 -17 7.5t-17 7.5q-13 5 -28 17q-6 5 -13 10q-13 8 -16 22q-1 7 -9 9q-8 1 -14 3.5t-12 6.5q-9 4 -12 15q-2 9 -5.5 17.5t-8.5 16.5l-9 24q-3 9 -3 18q-1 11 -1.5 20.5t-1.5 19.5q0 14 5 23l4 6t4 5q10 15 12 33q0 23 18 44q4 5 7.5 10
t8.5 10q18 17 44 25q23 7 42 8q10 0 18 4q25 9 53 4q23 -5 44 -6q11 -1 21 -3.5t20 -6.5q4 -1 7.5 -2t8.5 -2q15 -2 27 -7q3 -1 6.5 -1.5t6.5 -1.5q13 -1 16 -14q1 -8 1.5 -15t-0.5 -15q-2 -10 -2 -19t3 -18q0 -2 0.5 -2.5t0.5 -2.5q1 -27 6 -56q2 -6 -5 -6h-22zM75 484
q-1 1 -1 2t-1 2q-2 1 -4 -1q0 -4 2 -4q1 -1 1.5 0t2.5 1z" />
    <glyph glyph-name="T" unicode="T" horiz-adv-x="581" 
d="M17 683q8 8 18.5 7.5t21.5 0.5t23 0t23 0q14 2 29 2.5t29 1.5q14 0 26.5 1.5t26.5 1.5q11 0 20.5 0.5t20.5 1.5q14 2 28 0l28 -4q11 -1 21.5 -1h21.5q33 2 65.5 -1.5t65.5 -2.5q24 1 52 1.5t58 -9.5q8 -2 11.5 -20t3 -39t-6.5 -39t-18 -21q-10 -2 -12 3.5t-2 14.5
t-0.5 18t-7.5 13q-12 7 -31.5 11t-40.5 5.5t-41.5 1t-33.5 -1.5h-14q-11 -1 -16 -2t-7 -3.5t-3.5 -7t-5.5 -11.5q-2 -6 -4 -16q-3 -24 -4.5 -48.5t1.5 -49.5q2 -22 -1 -39q-1 -15 0 -28q2 -15 0.5 -29.5t-4.5 -29.5q-3 -14 -4 -27.5t1 -27.5q2 -9 0.5 -18t-3.5 -17
q-2 -9 -2.5 -17.5t0.5 -17.5q2 -15 2.5 -30t1.5 -31v-63q0 -35 21 -55.5t56 -19.5h9.5t9.5 -1q13 -2 13 -14v-8.5t-1 -8.5q0 -10 -11 -8q-6 0 -14 2q-16 5 -30 2q-11 -2 -21 0q-10 1 -19 1.5t-19 0.5q-8 1 -15 0.5t-15 -3.5q-12 -4 -24 -4.5t-24 1.5q-10 1 -19 2t-19 2
q-4 1 -7.5 1.5t-8.5 -1.5q-6 -2 -15.5 -2t-17.5 2.5t-12.5 8.5t0.5 15q2 5 16 9t19 8q20 13 26 24.5t14 31.5q3 8 4 16l2 16q1 5 1.5 10.5t0.5 10.5q0 24 0.5 48t1.5 48v22.5t-2 22.5q-2 9 0 18q2 13 2.5 25.5t-0.5 26.5v4q2 24 2.5 48t-0.5 48v7q2 8 2 16.5t-2 16.5v2
q1 18 -1.5 36t-4.5 36q0 5 -1 8.5t-1 8.5q1 12 -5.5 20t-14.5 15t-22 7q-7 0 -13.5 0.5t-14.5 0.5q-22 -2 -44 -4.5t-42 -12.5q-6 -1 -11 -5q-12 -11 -24.5 -18t-20.5 -21q-3 -6 -3.5 -15t-6.5 -14t-11 -2.5t-8.5 7.5t-6 11.5t-2.5 11.5q-1 11 0.5 24t3.5 24q2 12 1.5 24.5
t5.5 23.5q3 6 6 9z" />
    <glyph glyph-name="U" unicode="U" horiz-adv-x="711" 
d="M618 594q2 -11 -0.5 -20.5t-6.5 -19.5q-4 -7 -4 -18q-1 -11 -1.5 -23t-1.5 -24v-6.5t1 -6.5q2 -9 2 -18v-18q-1 -7 -0.5 -13.5t1.5 -14.5q2 -28 -1 -51q-2 -10 -3.5 -19.5t-2.5 -19.5v-45q1 -14 1 -28t1 -28q1 -11 -1 -20t-5 -19q-4 -13 -8 -25l-8 -24q-3 -10 -9 -19
q-7 -10 -13 -19.5t-12 -19.5q-4 -6 -8 -11.5t-9 -10.5q-12 -13 -26 -22.5t-28 -18.5q-14 -7 -25 -7q-25 -1 -50 -11q-5 -2 -11 -3t-12 -3q-15 -5 -32 -3q-8 1 -16.5 1t-16.5 1q-14 1 -27 6q-6 2 -11.5 2.5t-11.5 1.5q-11 0 -16 1q-19 3 -33 13q-2 2 -5 2.5t-5 2.5
q-14 6 -21 18q-4 7 -10 11.5t-12 9.5q-7 5 -16 10q-14 8 -24 25q-6 10 -11 19.5t-9 20.5q-2 10 -6 17q-5 10 -6 19.5t-3 19.5q-1 14 -1.5 29t1.5 30q0 5 0.5 9t0.5 9q-1 14 -1.5 27t-2.5 27t-2.5 28t0.5 28q1 3 1 9v35.5t-1 35.5v9t-2 9q-3 9 -3 18.5v18.5q2 17 3 33t2 33
q2 14 -4 26t-15 23q-2 2 -5 4.5t-5 4.5q-5 4 -11 5q-8 2 -14.5 3.5t-14.5 3.5q-3 0 -6 -0.5t-5 3.5q-1 3 -1 11q0 14 13 20q14 7 30 4q10 -2 19.5 -3.5t19.5 -3.5q13 -1 26 0q5 1 10.5 1t10.5 1q9 1 18.5 1.5t18.5 -0.5q5 0 22.5 0.5t34.5 -1t27 -6t1 -14.5
q-8 -10 -21.5 -14t-24.5 -12q-14 -11 -16.5 -25.5t-3.5 -30.5v-12.5t-1 -12.5v-14q1 -19 1.5 -37t-0.5 -36q-1 -8 -0.5 -15.5t0.5 -15.5q2 -17 -8 -28q-2 -2 -4 -6q-5 -8 -2 -16q2 -5 4 -10.5t4 -10.5q6 -14 5 -26q-2 -10 -1 -19.5t0 -19.5q0 -9 3 -16q4 -8 4.5 -16
t-1.5 -16t-2 -16.5t-1 -16.5q-1 -14 5 -30q8 -16 14.5 -32t13.5 -32q5 -13 12.5 -23.5t17.5 -21.5q12 -12 25 -17q19 -8 38.5 -14t39.5 -9q12 -2 24 -1t24 6q19 7 41 9q10 2 16 4q11 3 17 12q2 3 3.5 6t3.5 6q8 18 22 22q6 1 8 8q2 4 3.5 7.5t3.5 7.5q6 19 13 35q9 21 15 42
q2 3 2 11q2 23 -1 40q-2 10 1 19q3 11 3 23t1 23q2 20 1.5 39t-0.5 38q0 4 -0.5 7.5t-0.5 6.5q-1 8 -1.5 14.5t-0.5 13.5q-1 8 -0.5 15.5t-0.5 15.5q-2 11 -2 23v23q0 5 -0.5 10.5t-1.5 10.5q-5 19 -2 40q1 3 1 9.5v14v14.5t-1 10q-2 13 -16 15t-28.5 2t-24.5 4t-4 22
q4 13 22 16t39.5 1t42 -6t30.5 -3q7 0 18.5 2t23.5 2.5t21.5 -1.5t13.5 -10q6 -12 3 -18.5t-10 -10.5t-16 -7t-15 -8q-7 -5 -12.5 -12t-12.5 -15zM236 33q1 0 1.5 -1.5t1.5 1.5q-3 0 -4 -1q0 2 0.5 3.5t0.5 3.5q-5 17 -18 26q-6 2 -6 -1q-1 -2 -1 -6q2 -3 6 -7q5 -5 10 -9
t9 -9zM148 408q-1 1 -2 1v-2h1z" />
    <glyph glyph-name="V" unicode="V" horiz-adv-x="631" 
d="M636 632q-9 -7 -16.5 -15t-15.5 -16q-3 -3 -5.5 -6t-5.5 -6q-2 -2 -4 -8q-2 -8 -4.5 -15t-4.5 -14q-6 -25 -17 -44q-3 -6 -5.5 -12.5t-4.5 -13.5v-2q-3 -8 -6.5 -16.5t-5.5 -16.5q-5 -18 -10 -32q-5 -13 -11.5 -25.5t-14.5 -23.5q-17 -23 -26 -50q-5 -14 -11 -28t-9 -29
q0 -3 -2 -7q-8 -13 -14 -27t-16 -25q-4 -5 -5 -11l-27 -75q-5 -12 -10 -23.5t-10 -23.5q-11 -24 -14 -47q-2 -11 -8 -19q-4 -6 -11.5 -8t-13.5 2q-9 5 -11 11q-4 8 -7 16.5t-7 16.5q-11 32 -25 57q-8 14 -14 28l-12 28q-8 20 -15 39.5t-14 39.5q-5 14 -10.5 27t-11.5 27
q-3 8 -6.5 16t-7.5 16q-2 8 -3.5 16t0.5 16q2 10 -3 18q-2 5 -5 9.5t-5 9.5l-21 36q-2 2 -2.5 4t-2.5 4q-8 12 -12.5 25t-9.5 27q-5 17 -10 34.5t-10 34.5t-14 27q-6 8 -11.5 16t-9.5 18q-6 14 -22 20q-7 2 -13 4.5t-14 3.5q-3 0 -5.5 1t-5.5 2q-8 2 -8 10v5q1 9 1 13.5
t2 6.5t7 3t14 3q24 4 51 -2q14 -3 28 -3.5t28 3.5q16 5 32 6t33 0q12 0 23.5 -3t22.5 -6q4 0 6 -6q1 -5 1.5 -9.5t0.5 -9.5q2 -6 -6 -8q-6 -1 -11.5 -3.5t-11.5 -0.5q-9 1 -16 -2.5t-14 -8.5q-3 -2 -3 -5q-2 -5 0 -10q2 -10 3.5 -19.5t3.5 -19.5q5 -18 11 -36t11 -35
q3 -8 8 -17q10 -17 16 -37q8 -21 17 -41t24 -37q11 -12 9 -28q-1 -13 2.5 -24.5t8.5 -22.5q11 -24 17 -46q8 -26 17.5 -50.5t20.5 -48.5q0 -2 3 -2q4 0 4 2q7 10 12 23q8 17 14.5 33.5t13.5 33.5l2 4q7 20 15.5 40t19.5 39q4 5 6 15q2 11 6 20.5t9 18.5q9 17 16 34.5
t13 34.5t15 33t13 33q2 10 5.5 25t5.5 30.5t1.5 30.5t-6.5 24t-16.5 13.5t-19.5 9t-14 11t-1 18.5q2 6 6 6q4 2 7 2q8 -1 15 -1t15 -1q19 -3 40 -1q12 2 23.5 1.5t23.5 -2.5q14 -2 28 -2.5t28 2.5q10 2 18 -1q12 -5 11 -16q0 -7 -4.5 -10.5t-10 -5.5t-12 -3.5t-11.5 -3.5
q-10 -5 -15 -10z" />
    <glyph glyph-name="W" unicode="W" horiz-adv-x="933" 
d="M691 130q5 5 6 7q3 8 7 16t6 16q3 8 6.5 16.5t7.5 16.5q9 20 14 42.5t13 43.5q9 25 20.5 48.5t16.5 50.5q4 20 10.5 39t10.5 39q3 17 7.5 32.5t9.5 30.5q2 4 3.5 7.5t3.5 7.5q19 40 14 69.5t-43 52.5q-2 1 -6.5 3.5t-8.5 5t-6.5 5.5t-0.5 6q1 3 12.5 4.5t25 1.5h25.5h15
q10 0 19 -0.5t18 1.5q6 1 14 -3q7 -6 18 -3q5 2 10.5 2t10.5 1q6 1 12.5 1t12.5 -3q8 -3 18 -1q2 0 4 -0.5t4 -0.5q5 -14 2 -27q0 -1 -3 -4l-6 -3q-9 -2 -17.5 -6t-17.5 -7q-17 -8 -28 -21t-18 -30l-12 -30t-13 -30q0 -2 -1 -3t-2 -3q-5 -12 -11 -23t-9 -24t-8 -25t-8 -24
q-8 -29 -18 -57l-20 -56q-9 -26 -15.5 -54t-19.5 -52l-7.5 -15t-7.5 -14q-2 -3 -2.5 -6t-1.5 -5q-6 -20 -11.5 -38.5t-11.5 -37.5q-2 -5 -3 -8.5t-3 -7.5q-7 -12 -11.5 -24t-9.5 -25q-2 -5 -3.5 -9t-3.5 -9q-7 -18 -30 -23q-5 -1 -12 3t-9 9l-3 9q-1 6 -3.5 11.5t-5.5 10.5
q-5 7 -8 14q-8 21 -17 42t-14 44q-1 3 -2 6.5t-2 6.5q-7 16 -13 35q-2 3 -2.5 6t-2.5 5q-6 10 -9.5 20t-6.5 21q-5 19 -11.5 37t-13.5 36q-4 10 -8 19.5t-10 18.5q-5 11 -7 25q-2 9 -3 18.5t-5 18.5q-2 -2 -3.5 -2.5t-2.5 -1.5q-11 -23 -21.5 -45.5t-20.5 -45.5
q-5 -11 -8.5 -23t-7.5 -24q-5 -15 -9.5 -30t-11.5 -29q-2 -6 -4 -12.5t-5 -12.5q-2 -8 -4.5 -15.5t-7.5 -14.5q-6 -11 -11 -23l-10 -24q-5 -11 -8.5 -22t-8.5 -22q-2 -5 -4 -15q-2 -5 -3 -9t-2 -9q-3 -14 -16 -26q-11 -10 -25 -11q-10 -2 -16 7q-8 14 -12 28q-5 14 -9 29
t-9 29q-6 20 -14 39.5t-16 39.5q-16 34 -26 70q-9 28 -21 57q-11 22 -18.5 44.5t-14.5 45.5q-2 8 -5 15.5t-7 14.5q-3 5 -5 10.5t-5 10.5q-12 21 -14 49q-1 12 -3.5 23.5t-6.5 22.5q-5 14 -9 29t-9 29q-3 8 -6.5 16t-7.5 16q-2 4 -8 12q-10 13 -22.5 18.5t-27.5 6.5
q-4 1 -12 1q-4 0 -4 5v9q1 16 4 19.5t18 5.5q18 3 35 3q16 -1 31.5 -1.5t31.5 1.5q3 1 7 1q7 0 28 -0.5t39.5 -3.5t26 -11.5t-11.5 -24.5q-7 -6 -13 -9t-10.5 -6.5t-7.5 -9t-3 -15.5q0 -14 5 -28t10 -27q12 -33 22 -69.5t16 -71.5q4 -27 15 -51q7 -15 12.5 -30.5t10.5 -31.5
q5 -15 11 -29.5t11 -29.5q9 -21 17.5 -42t15.5 -43q1 -5 5 -8q0 -1 4 -3q6 16 12 31t13 30l4 8t4 9q11 18 19 42q2 8 5 14.5t6 14.5l6 16t7 16l8 18t9 18q8 14 13 28l10 28q1 2 1 3.5t1 3.5q10 24 11 48q1 11 6 25q6 14 0 29q-4 10 -7.5 19t-7.5 18q-2 8 -5.5 14.5
t-5.5 14.5q-5 14 -13.5 23t-20.5 16l-4 2q-11 0 -18.5 5.5t-16.5 7.5q-4 0 -5 1q-4 2 -5 4l-3 9q-3 9 2 15.5t14 7.5q20 2 38.5 3.5t38.5 3.5q8 1 15 1.5t15 -1.5q6 -2 19 -1t28.5 1.5t31 0.5t27 -3.5t16 -11t-1.5 -21.5q-2 -6 -6 -7q-5 -1 -9 -1.5t-9 -2.5q-7 -2 -13 -5
t-12 -8q-5 -5 -3 -10q2 -9 3.5 -17.5t0.5 -17.5q-1 -4 1 -14q1 -2 1 -3t1 -3q8 -21 14 -42.5t12 -42.5q2 -10 5 -18.5t6 -17.5q5 -16 7.5 -31t3.5 -31q2 -19 7 -32q1 -6 5 -11q8 -11 12 -23.5t7 -26.5q2 -16 7 -31t10 -29q3 -7 8 -14q11 -12 12 -28t7 -29.5t13 -27.5
q1 -1 2 -1t2 -1zM486 449q-2 2 -2 4q-2 -1 -4 -3q-4 -4 -3 -8q0 -2 3 -2q6 1 6 9z" />
    <glyph glyph-name="X" unicode="X" horiz-adv-x="740" 
d="M355 428q2 1 4 3t3 3.5t3 3.5q3 7 8 13t10 11q14 12 25 25t22 27q11 12 19 30q9 17 19 29q12 14 22 33q2 5 4 9t2 9q0 9 4 11.5t-4 10.5q-5 5 -11.5 3t-10.5 3q-8 9 -4.5 16.5t11.5 12.5q14 10 35.5 9t38.5 1q12 2 23.5 3t23.5 0q4 -1 7 -0.5t7 1.5q7 1 14 0.5t14 0.5
q6 0 11.5 -2t10.5 -4q5 -1 5 -7q0 -5 -0.5 -10.5t-1.5 -10.5q0 -6 -8 -8q-16 0 -29 -12q-17 -13 -33 -16q-5 -1 -10 -6q-11 -11 -27 -19q-8 -5 -14 -12q-6 -9 -13 -17t-12 -17l-6 -10t-8 -9q-9 -9 -16 -19.5t-15 -21.5q-16 -21 -29.5 -43.5t-30.5 -42.5q-5 -6 -9 -12t-9 -13
q-4 -6 -5 -10q-4 -10 3 -15l15 -15q19 -19 29 -42q3 -8 7.5 -14.5t9.5 -13.5l28 -40t29 -40q10 -14 20 -28.5t23 -26.5q4 -3 6.5 -7.5t5.5 -9.5q2 -4 4 -7.5t4 -7.5q2 -5 5.5 -8.5t8.5 -5.5t7.5 -4.5l5.5 -5.5q6 -8 9 -11q7 -7 14 -8q5 -2 11 -3t12 -3l10 -2t10 -3q3 0 5 -4
q7 -8 10 -21q1 -5 0 -9q0 -5 -6 -7q-4 0 -8 -0.5t-8 -0.5q-8 1 -15 1t-15 1q-11 1 -22.5 0.5t-22.5 -3.5q-5 -2 -16 -2q-25 0 -50 -1t-50 1l-24 3q-9 2 -7 10q1 5 2 8.5t2 7.5q2 9 9 9q10 0 18 4q5 2 8.5 7.5t1.5 11.5q-4 11 -8.5 21.5t-11.5 20.5q-8 9 -15 18.5t-15 17.5
q-15 17 -27 40q-7 12 -14 23.5t-16 21.5q-11 13 -18 25q-9 16 -24 27q-1 0 -5 -2q-1 -2 -2 -2.5t-2 -2.5q-11 -18 -25 -35t-28 -33.5t-27.5 -34t-22.5 -36.5q-9 -20 -13 -42t3 -43q3 -8 9 -15.5t2 -17.5q-2 -6 -8 -8t-13.5 -2t-15 0.5t-13.5 0.5h-8.5t-8.5 -1q-8 -2 -15 -2
h-15q-11 1 -22 0.5t-22 -1.5q-9 0 -16 -3q-5 -2 -10.5 -2.5t-10.5 -1.5q-12 -2 -22 1.5t-19 10.5q-5 2 -5 10v4q1 14 3.5 18.5t19.5 6.5q7 0 13.5 2t13.5 4q14 4 24 12t20 18q6 7 11.5 13.5t11.5 12.5q5 5 8.5 9t8.5 8q8 6 13.5 13t10.5 15q27 43 60 81q17 20 32 40.5
t29 42.5q2 2 2.5 5t2.5 5q4 8 1 16t-6.5 15.5t-8.5 14.5q-7 9 -14 18.5t-14 18.5q-8 12 -17 24t-17 24q-5 6 -10 12.5t-10 13.5q-10 14 -20.5 26.5t-18.5 28.5l-18 21q-13 12 -16 25q-4 16 -18 28q-4 4 -8 7.5t-9 8.5q-12 13 -31 13h-12q-8 0 -10 8q-4 13 -3 28q0 3 3 3
q8 2 15 3.5t15 -0.5q18 -6 39 1q21 6 44 6q4 -1 7.5 -0.5t6.5 -1.5q9 -3 21.5 -2.5t25 -0.5t23 -4t15.5 -13q6 -13 0.5 -18t-13 -8.5t-13.5 -8t-2 -16.5q1 -7 6 -13q7 -9 14 -18.5t15 -17.5q4 -3 7 -7q10 -14 19.5 -28t17.5 -29q16 -32 44 -60l10.5 -10.5t10.5 -11.5z" />
    <glyph glyph-name="Y" unicode="Y" horiz-adv-x="542" 
d="M361 319q1 -4 1.5 -7t1.5 -7q2 -8 2 -17t-4 -17q-3 -7 -3.5 -14t-0.5 -14v-26q2 -15 -1 -28q-1 -8 -0.5 -17t2.5 -18q1 -5 1.5 -10t-0.5 -11q-1 -5 -1 -10.5v-10.5q0 -12 5.5 -21.5t13.5 -17.5q2 -1 5 -4q11 -11 23.5 -14t26.5 -4q8 -1 18.5 -4.5t13.5 -14.5
q5 -14 -3 -17t-19 -7q-4 -1 -14 -1q-5 0 -9 0.5t-9 1.5q-23 3 -45 3.5t-44 -0.5q-17 0 -33 -0.5t-33 -0.5h-12t-11 1q-13 2 -26 2h-26h-14q-2 1 -5 4q0 5 -0.5 10.5t-0.5 10.5t6 7q5 1 10.5 2t10.5 2q2 0 4.5 0.5t4.5 0.5q8 0 17 7q5 3 9.5 7t10.5 6q7 2 12 13q2 5 2.5 9
t2.5 9q1 3 1 6t1 6q5 20 7 39.5t2 39.5q1 20 1 39.5t-2 39.5q0 7 -1 14l-2 14q-2 12 -5 23.5t-11 22.5q-3 5 -5 9.5t-4 9.5q-11 26 -27 46q-8 11 -15 22.5t-15 22.5q-6 11 -11.5 20.5t-12.5 19.5q-4 5 -7 11t-6 11l-15 27q-6 10 -12.5 18.5t-14.5 16.5q-5 3 -7.5 7.5
t-4.5 9.5q-2 3 -3.5 6t-2.5 7q-4 10 -11 16t-16 11q-8 4 -14.5 6.5t-14.5 4.5q-2 1 -5 2l-6 2q-6 2 -9.5 5.5t-2.5 11.5q1 2 0.5 4.5t-0.5 4.5q0 7 6 7q4 1 7.5 1t6.5 1q23 6 48.5 2t49.5 -2q18 2 35.5 5.5t34.5 5.5q7 1 18 2t18 -2q9 -5 10.5 -11.5t-2.5 -13t-10.5 -12
t-12.5 -6.5q-5 -2 -9 -3.5t-8 -5.5q-7 -7 -4 -17q2 -2 3 -5t3 -5q8 -14 16.5 -28t16.5 -28q8 -13 14.5 -26t12.5 -26q5 -10 9.5 -19.5t10.5 -18.5q5 -7 9.5 -13.5t9.5 -12.5q6 -8 11 -15.5t8 -16.5q5 -17 20 -28q5 3 6 4q4 7 7 14.5t8 13.5t9.5 12t8.5 13q4 5 4 13q0 6 5 13
q7 9 13.5 18.5t15.5 17.5q10 8 13 19t10.5 24t14.5 27t10.5 27.5t-1.5 25.5t-13.5 16.5t-16.5 8.5t-12.5 10.5t-0.5 21.5q1 1 2 2.5t3 2.5q8 4 20 4q7 -1 13 -1t13 -1q8 -1 15 -2t15 -2q10 -2 21 0q8 1 15 1h15h21q11 2 20.5 1t19.5 -1q6 0 6 -6q1 -4 1 -8t1 -8
q0 -11 -9 -11q-19 0 -35 -6.5t-30 -16.5q-4 -2 -8 -9q-2 -2 -3.5 -5.5t-3.5 -6.5q-8 -11 -14.5 -22.5t-16.5 -21.5q-5 -5 -8.5 -11t-7.5 -11q-5 -7 -9 -13t-8 -13q-7 -8 -12 -20q-4 -9 -8.5 -17.5t-8.5 -18.5q-7 -14 -15.5 -27.5t-17.5 -25.5q-11 -14 -16.5 -28t-10.5 -29
q-1 -5 -1 -9.5t-2 -9.5l-4 -8t-4 -9zM229 483l1 1q0 1 -0.5 1t-0.5 1l-2 -2q1 0 1 -0.5t1 -0.5z" />
    <glyph glyph-name="Z" unicode="Z" horiz-adv-x="622" 
d="M51 562q-5 1 -7 4q-8 6 -9.5 16t0 21t4 21.5t4.5 18.5q1 3 1 11q-1 9 1 17.5t4 17.5q1 7 12 14q4 2 6 1q11 -5 22 -4t22 -4q11 -1 23 -2t24 0q14 2 29 1.5t29 -2.5q22 -2 43.5 -2.5t43.5 -0.5q25 1 50 0t50 -5q12 -2 23.5 -2t23.5 2q11 2 23 2.5t23 0.5q18 0 29 2t22 -11
q8 -10 10.5 -21.5t-5.5 -20.5l-15 -18q-10 -13 -19 -25.5t-18 -25.5q-10 -12 -19.5 -23.5t-20.5 -22.5q-8 -8 -15 -16.5t-14 -17.5q-15 -23 -31.5 -44t-33.5 -42q-18 -21 -32 -46q-9 -17 -20.5 -31t-24.5 -28q-20 -21 -27.5 -42t-20.5 -44q-7 -14 -17.5 -25.5l-21 -23
l-21 -23t-17.5 -25.5q-6 -12 -8.5 -26t8.5 -25q7 -8 17.5 -10t22.5 -1.5l24 1t21 -0.5q22 -3 46 0q18 2 38.5 2.5t41.5 1t41 3.5t38 10t28.5 23.5t19 34.5t18.5 33t27 20q9 3 21 1.5t14 -12.5q2 -8 -4.5 -16t-9.5 -15q-6 -15 -8.5 -35.5t-7 -40t-14 -35.5t-30.5 -23
q-12 -3 -25.5 -3.5t-27.5 0.5t-28 2.5t-26 1.5q-14 -1 -29 -1h-29h-35q-12 1 -23.5 1t-23.5 1h-8t-8 1q-28 6 -59 4q-14 0 -27 -3q-5 -2 -9.5 -2h-9.5q-24 1 -48 1.5t-48 0.5q-10 -1 -19 1.5t-17 5.5t-8 11q0 9 2.5 17.5t8.5 14.5q12 12 18 27q5 11 12 17q8 7 14 15t11 16
q5 7 10 13t10 13q12 17 23.5 32.5t23.5 32.5q6 8 11.5 17t12.5 17q5 5 8.5 10t8.5 10q8 10 15.5 20t12.5 23q9 15 18 30.5t23 28.5q15 14 30 32q2 2 4 6q2 6 3 7q7 7 11.5 15.5t8.5 18.5t17 15q6 1 6 9q0 1 0.5 2t0.5 2q0 10 8 13q11 5 8 15v2q0 10 7 11q2 1 3.5 1t3.5 1
q7 2 8 7q1 2 3 4q4 10 13 16q6 5 10.5 11t9.5 12q6 11 12 20t13 20q2 3 3 7t3 8q3 12 -9 12q-5 -1 -8.5 -1t-8.5 -1q-17 -2 -33.5 -2t-33.5 1q-11 1 -21.5 0.5t-21.5 -0.5h-14q-10 0 -19.5 -1t-19.5 -4q-21 -6 -46 -4q-26 2 -53 -7.5t-43 -29.5q-5 -6 -9 -14t-9.5 -14.5
t-12.5 -9.5t-16 2z" />
    <glyph glyph-name="a" unicode="a" horiz-adv-x="476" 
d="M421 46q0 -12 -14 -23.5t-25 -13.5q-3 -1 -10 -1q-12 -1 -22 0q-6 2 -12 3t-12 3q-10 3 -15 9q-8 8 -16 11q-11 4 -18.5 5t-15.5 -6q-8 -6 -13.5 -7.5t-15.5 -3.5q-14 -2 -26.5 -5.5t-26.5 -6.5q-12 -4 -23 -6t-24 1l-51 9q-32 6 -53 29q-11 11 -17 20t-9 25q-2 9 -2 19
t2 20q-1 6 1 10.5t5 9.5q9 12 8 26q0 11 11 16q13 6 17 19q2 6 7 10.5t10 8.5l6 4t5 4q5 4 10 6.5t12 1.5q5 0 11 3q9 6 18.5 9.5t19.5 6.5q13 4 25 7.5t25 5.5q12 0 19 8q9 7 20 6h9l8 2t7 3q20 13 19 33q-1 6 -1 12t-1 11q-2 8 -4 15t-4 15q-2 9 -5.5 16.5t-7.5 15.5
q-4 6 -9 7q-10 2 -19 5.5t-19 6.5q-28 10 -57 -2q-11 -4 -16.5 -7.5t-8.5 -8t-4 -10.5t-2 -15q-2 -7 -2 -13.5v-14.5q1 -8 -5.5 -16.5t-14.5 -11.5q-7 -2 -13 -3t-13 -3q-4 0 -6 -1q-14 -2 -22 6t-13 17q-7 17 -3.5 30.5t12.5 27.5q1 2 2 2.5t2 2.5q5 6 10.5 12.5t7.5 14.5
q1 5 4 7.5t7 4.5q5 2 9.5 4.5t9.5 3.5q12 3 22.5 7.5t21.5 7.5q31 10 65 12q32 3 58 -13q4 -2 8 -3.5t9 -3.5q9 -2 18 -5.5t18 -6.5q10 -4 18 -14q7 -6 11.5 -13t8.5 -15q2 -3 3 -6.5t3 -6.5q5 -8 7.5 -16t0.5 -18q-1 -5 0 -10l2 -10q0 -6 1 -12t1 -12q0 -19 1.5 -37.5
t-0.5 -37.5q-1 -4 -0.5 -8t-1.5 -8q-2 -7 -1.5 -14.5t-0.5 -15.5t1 -14.5t0 -13.5q-2 -14 -1 -30q0 -5 1 -10t1 -10v-11t1 -12q2 -5 2.5 -10.5t2.5 -10.5q1 -4 4 -8q2 -2 2.5 -3.5t2.5 -3.5t5.5 -4.5t7.5 -3.5q6 -1 15 1.5t13 -4.5q1 -2 1 -5zM268 250q-11 -2 -23 -4t-24 -6
q-14 -3 -26 -7t-26 -9q-12 -3 -22 -9.5t-21 -13.5q-13 -8 -16 -27v-7q-2 -19 -11 -31q-2 -3 -2.5 -7t-0.5 -8l3 -24q2 -7 6 -10q2 -2 5 -4.5t5 -4.5q8 -8 18 -13t21 -8q16 -3 30 1q6 2 12 3t13 3q2 1 5 1t6 2q17 9 29 23q5 8 10 14.5t10 14.5q3 3 5 11q1 13 1 26.5t-2 26.5
q-6 30 -1 56q2 7 -4 11zM392 31q-4 0 -2 -2h2v2z" />
    <glyph glyph-name="b" unicode="b" horiz-adv-x="539" 
d="M3 713l3.5 3.5l3.5 3.5q8 7 22 7.5t25 1.5q18 1 39.5 2t36.5 -10q17 -14 20 -25.5t-1 -31.5q-2 -7 -2.5 -14t-1.5 -14t-1 -13.5v-14.5q1 -8 0.5 -16.5t-0.5 -16.5q2 -15 2 -30t1 -30v-21t-2 -21q0 -2 -1 -9.5t-1.5 -16.5t-0.5 -16.5t1 -9.5q2 -4 1 -8t1 -8q2 2 3.5 5.5
t3.5 6.5q6 12 14.5 23t19.5 19t24 11.5t26 6.5q5 2 11 2.5t12 1.5q4 0 8 0.5t8 -0.5l30 -4t30 -6q5 0 11 -4q5 -2 8.5 -4.5t7.5 -4.5q14 -8 21 -19q2 -4 5 -7t5 -6q6 -10 15 -14q18 -12 21 -33q1 -11 7 -18t10 -17t3.5 -21.5t0.5 -22.5q2 -20 3.5 -39t1.5 -38
q0 -18 -7 -35.5t-10 -34.5q-4 -18 -15 -36.5t-25 -29.5q-9 -7 -17.5 -13.5t-18.5 -11.5q-9 -5 -13 -11q-2 -3 -4.5 -5.5t-4.5 -5.5q-5 -7 -12 -3q-7 3 -10 -3q-4 -11 -13 -16.5t-19 -8.5q-20 -8 -41 -6q-8 1 -14.5 0.5t-14.5 -0.5q-19 0 -38 8q-7 2 -13.5 4.5t-12.5 4.5
q-4 -2 -6 -8q-5 -16 -21 -19q-42 -6 -83 -6q-8 0 -13 2t-9 10q-5 11 2 17t14 13q11 11 14 26q3 14 3 29t4 29q1 3 0.5 6t-0.5 6q0 12 0.5 24t2.5 25q2 10 -1 18q-2 7 -2.5 13t-2.5 12q-2 10 -2.5 19t0.5 19v6.5t1 7.5q4 22 4.5 44t1.5 44v10.5t1 10.5q6 32 1 65
q-2 11 -2 20.5t1 19.5q6 33 0 65q-4 14 -2 33l3 51q1 6 -0.5 11t-3.5 10t-5 10t-14 10t-21.5 11t-17 13t0.5 16zM207 50h4q41 -3 68 17t47 52q11 18 19.5 35t8.5 40q-1 23 2 46t1 46q-1 9 -2.5 18.5t-3.5 18.5t-6.5 17t-6.5 18q-2 15 -11.5 26t-19.5 22q-4 3 -8 5
q-5 3 -10.5 5.5t-10.5 5.5q-6 4 -13 3q-9 -2 -18 -2t-18 -2q-12 -2 -19 -4q-5 -2 -7 -5t-6 -8q-11 -14 -23.5 -30.5t-17.5 -34.5q-2 -11 -4.5 -23t-4.5 -23q-2 -12 -0.5 -23t0.5 -22q-1 -8 -1 -16.5t3 -16.5q1 -2 0.5 -5t0.5 -6v-47v-10.5t-2 -10.5q-3 -17 -1 -40
q0 -11 8 -18l5.5 -5.5t4.5 -7.5l3 -3q13 -13 29 -13q2 1 5 0.5t5 0.5z" />
    <glyph glyph-name="c" unicode="c" horiz-adv-x="458" 
d="M373 344q-4 -4 -8 -4q-2 -1 -3.5 -0.5t-3.5 -1.5t-4 -3l-4 -2q-6 -1 -12 0l-12 2q-5 2 -8.5 3t-6.5 5q-2 2 -3 2t-3 2q-4 1 -6 6q-4 4 -4 7q-1 2 -0.5 3t0.5 3q-1 2 -3.5 4.5l-4.5 4.5q-2 5 -3 10l-2 10q-1 8 -2.5 16t-8.5 12q-3 2 -6 2.5t-5 1.5q-3 2 -6 2.5t-5 2.5
q-5 5 -10 5.5t-11 1.5q-20 1 -36 -6q-11 -5 -21 -10.5t-18 -14.5q-6 -8 -12.5 -14t-12.5 -14q-17 -22 -11 -51q0 -2 2 -6q1 -8 -5 -13l-4 -2q-4 -3 -4 -8v-14v-9t-2 -9q-5 -15 1 -28q3 -8 3 -16q0 -7 2 -9q8 -14 5 -29q-1 -3 0 -6l2 -6q10 -20 16 -44q3 -14 14 -23
q5 -5 9 -9.5t9 -9.5q5 -6 15 -11q5 -2 9.5 -4.5t8.5 -5.5q8 -5 16 -6t16 -1q13 -1 25.5 1.5t25.5 5.5q14 3 23 10q3 2 5.5 3t5.5 2q12 3 20.5 13t19.5 15q4 2 11 4t12 1t5.5 -3t-1 -5t-4.5 -5.5t-4 -3.5q-5 -5 -7.5 -11t-4.5 -12q-2 -7 -5.5 -13t-8.5 -12t-11 -11t-11 -11
q-3 -3 -6 -5q-9 -2 -18.5 -4t-18.5 -6q-6 -2 -12.5 -2.5t-13.5 -1.5q-2 -1 -4.5 -0.5t-4.5 -0.5q-11 -4 -20.5 -3t-20.5 3q-34 6 -63 5h-10q-11 0 -18 9q-3 3 -6 6.5t-6 7.5q-10 14 -23 15q-5 2 -10 5q-13 8 -22 21q-4 3 -5 8q-5 14 -12 26.5t-14 25.5q-9 17 -10 36v14
q-1 2 -1 4.5t-1 4.5l-6 15q2 9 1.5 18t2.5 17q7 19 9 41q3 26 17 48q6 12 13 28q6 19 16 33q3 5 5.5 9.5t5.5 8.5q3 5 8.5 5.5t10.5 3.5q5 5 5 7q0 11 8 16q9 10 19.5 15t23.5 8q10 2 19 5t19 6q5 2 9 2.5t9 1.5q13 1 25.5 1.5t26.5 1.5q12 2 22 -4q8 -5 15 -8t14 -7
q8 -3 15.5 -5t12.5 -7q8 -8 16 -15.5t16 -15.5l6 -6t5 -8q2 -4 1.5 -7.5t1.5 -7.5q4 -7 6 -15.5t-1 -16.5q-2 -3 -3.5 -5t-2.5 -5q-2 -2 -2 -5t-2 -5zM264 438q-1 3 -3.5 4.5t-4.5 3.5q-2 1 -4 -2v-2q4 -7 9 -6q1 0 3 2z" />
    <glyph glyph-name="d" unicode="d" horiz-adv-x="517" 
d="M0 227q2 11 3 22l2 22q3 23 10 45.5t21 41.5q9 14 16 28t18 27t25.5 23t29.5 18q16 8 32.5 12t34.5 6q16 2 35.5 4.5t34.5 -2.5q11 -3 19.5 -11t16.5 -17q6 -8 9.5 -18t9.5 -17q3 4 3.5 8t0.5 9v29.5t-2 30.5q-3 23 2.5 45.5t1.5 45.5q-1 6 -3.5 10t-1.5 11q1 10 0 19.5
t-3 19.5q0 9 1 14q3 13 -4.5 19t-17.5 9.5t-20.5 7.5t-13.5 13q-5 13 2 18.5t18.5 7.5t24 1.5t18.5 0.5q11 1 20.5 2.5t20.5 0.5q8 0 20 -1.5t19 -6.5q8 -5 6.5 -14t-0.5 -16q0 -8 0.5 -15.5t-0.5 -15.5q0 -8 -0.5 -17t-0.5 -18q-1 -8 -1 -17t-1 -18q-2 -13 0 -25
q2 -11 2.5 -21t-0.5 -21q-1 -6 -1 -12t-1 -11q0 -6 -0.5 -12t-1.5 -12q-2 -13 -2.5 -25.5t0.5 -25.5q0 -15 0.5 -30.5t0.5 -30.5q1 -30 2.5 -60t-2.5 -61q-2 -11 -1 -22.5t-1 -22.5q-2 -21 -3.5 -39t3.5 -39q2 -8 3 -17t3 -18q1 -9 3.5 -19t12.5 -15q8 -4 12 -2q3 1 6 3.5
t6.5 4.5t6.5 1.5t6 -4.5q3 -6 1 -12t-6.5 -11.5t-11 -9.5t-10.5 -5q-5 -1 -7.5 -4t-6.5 -6t-9 -4t-10 -3q-4 -2 -7 -4t-7 -3q-10 -2 -19 0q-4 0 -8 0.5t-9 0.5q-4 0 -8 3t-7 5q-8 4 -12 12q-2 5 -4.5 9.5t-4.5 10.5q-2 5 -2.5 10.5t-2.5 10.5q-1 1 -2 1l-8 -4l-8 -4
q-8 -5 -14.5 -10t-14.5 -9t-15.5 -6.5t-15.5 -4.5l-27 -9q-20 -6 -42 -5.5t-42.5 7t-38 19t-29.5 30.5q-8 12 -14.5 25.5t-12.5 27.5q-12 26 -19.5 54t-5.5 57zM98 158q9 -13 15 -28q2 -5 4 -8.5t4 -8.5q7 -12 20 -22q17 -13 38 -24q10 -7 24 -4q5 1 10.5 2t10.5 3
q9 3 18 5.5t17 5.5q5 2 9 3.5t8 5.5l12 12t12 13q1 1 4 6q3 11 6 22.5t3 23.5v28t-2 28q-1 5 -1.5 9t0.5 9q3 21 3 42q1 20 0.5 38.5t-8.5 36.5q-7 16 -17 29t-20 27q-11 16 -25 17.5t-31 -3.5q-9 -4 -16 -5q-2 -1 -4.5 -2t-4.5 -1q-14 0 -24.5 -6.5t-20.5 -14.5
q-5 -3 -8 -8l-10 -16l-10 -16q-3 -6 -5.5 -12t-3.5 -12q-2 -9 -4 -18.5t-4 -18.5q-4 -22 -4 -44t5 -44q2 -9 2.5 -17.5t0.5 -17.5q-2 -6 -3 -15zM71 172q2 0 2 1q0 3 -2 2q-1 -1 -1 -2z" />
    <glyph glyph-name="e" unicode="e" horiz-adv-x="478" 
d="M391 130q3 -21 -7.5 -37.5t-23.5 -30.5q-8 -10 -18 -17t-19 -15q-4 -2 -7 -3q-10 -2 -19 -4.5t-19 -3.5q-21 -3 -36 -10q-8 -4 -17 -5t-18 -1q-6 0 -16 2q-15 4 -32 4h-10.5t-10.5 1q-16 3 -32 14q-14 9 -25.5 19t-22.5 22q-5 6 -11 11q-19 16 -25 39q-2 9 -4.5 18
t-4.5 19q-2 7 -3.5 13.5t-4.5 12.5q-4 6 -4.5 12.5t-0.5 12.5q0 5 0.5 8.5t1.5 8.5q1 15 2.5 30t1.5 30q0 11 2 20.5t4 18.5q1 9 8 17q6 9 12.5 18t12.5 18q4 5 6.5 10t4.5 11q2 10 7.5 17t13.5 13q8 7 16 13.5t19 9.5q3 1 5.5 2.5t4.5 3.5q4 2 7.5 3.5t7.5 3.5
q8 2 16.5 5.5t16.5 6.5q20 9 40.5 9.5t41.5 -4.5q5 -1 9 -2t9 -1q16 -1 29 -7.5t24 -15.5q10 -8 19 -16.5t17 -17.5q3 -3 5.5 -7t4.5 -8q5 -8 8 -15t9 -13q3 -3 3 -6q2 -11 4 -21t1 -21q-1 -9 -0.5 -17.5t1.5 -17.5q0 -9 -6 -15q-4 -6 -9 -6q-8 -2 -12 -2q-20 -1 -39.5 -2
t-39.5 1q-8 1 -14.5 0.5t-13.5 -0.5q-8 -1 -14.5 -1h-13.5q-16 0 -31.5 1t-31.5 5q-5 1 -15.5 0.5t-22.5 -0.5q-14 -1 -30 -1v-17v-14t1 -11q2 -11 3.5 -22t0.5 -22q-1 -16 4.5 -29t15.5 -25q7 -8 13 -16.5t13 -16.5q9 -12 24 -18l24 -9q19 -6 37 -5q7 2 13.5 1.5t14.5 -0.5
q6 0 12.5 1t12.5 4q4 2 7.5 3.5t7.5 2.5q10 2 16 8.5t14 11.5q9 6 14 13.5t10 16.5q2 5 1 9t1 8q3 4 7 4.5t8.5 -2t8 -6.5t4.5 -7q0 -2 1 -3zM161 318v1q7 -1 13.5 -1t14.5 -1q15 -2 32 0q15 3 30 3.5t31 1.5q6 0 9 1q4 2 4 5q0 2 0.5 2.5t0.5 2.5q-2 11 -3.5 20.5
t-3.5 20.5q-1 6 -3.5 12t-7.5 11l-10.5 10.5t-11.5 10.5q-3 2 -6.5 4.5t-7.5 1.5q-8 -2 -16.5 -0.5t-16.5 2.5q-11 1 -23 -3q-3 -2 -6.5 -2t-6.5 -2q-20 -8 -35 -21t-24 -33q-4 -10 -6 -20.5t-4 -21.5q-2 -6 5 -6q2 0 3.5 -0.5t3.5 0.5q11 0 22.5 0.5t22.5 0.5zM68 270
l-1 -2h2z" />
    <glyph glyph-name="f" unicode="f" horiz-adv-x="318" 
d="M-21 26v1q1 7 6.5 11t12 6.5t14 3t12.5 2.5q15 5 19.5 21t6.5 30q2 25 1.5 50t-4.5 50q-2 9 -1 18t2 17q2 25 2.5 49.5t-0.5 49.5q0 8 0.5 15t0.5 15q0 12 -0.5 23.5t-0.5 23.5q0 2 -0.5 3.5t-0.5 3.5q-22 8 -41 5q-5 -1 -10.5 -1.5t-10.5 -0.5q-7 0 -9 7q-2 4 -2 9
q1 5 1.5 11t2.5 12q1 4 6 6q10 2 19.5 3.5t20.5 -0.5q5 -1 9 -0.5t9 0.5q3 0 5 3t1 6q-4 11 -3.5 22t2.5 22q2 8 3 17t4 17t4.5 17t3.5 17q2 7 3.5 13.5t4.5 13.5q7 16 15.5 30t19.5 28q2 4 6 6.5t8 5.5q3 3 6 5.5t5 5.5q3 4 5 7.5t5 5.5l16 14l16 14q3 2 6 3.5t7 2.5
q19 6 38.5 8t39.5 -3q10 -2 19 -6l18 -8q10 -4 18.5 -7t16.5 -9t14.5 -13t11.5 -16q2 -3 3 -6t3 -7q5 -11 0.5 -22t-13.5 -17q-8 -5 -15.5 -7.5t-17.5 -2.5q-16 1 -24.5 11.5t-15.5 22.5q-5 9 -12 15.5t-14 12.5q-3 3 -6 3q-7 0 -13 2t-13 2q-21 0 -35 -14q-28 -30 -36 -73
q-2 -12 -3 -24t-2 -25v-11t-2 -12q-3 -11 -3 -23t-1 -23q0 -5 0.5 -8.5t1.5 -8.5q0 -2 2 -3.5t4 -1.5h7q4 -1 7.5 -0.5t6.5 -0.5q16 -3 31 -4l30 -2q8 0 10 -9q0 -2 0.5 -3.5t-0.5 -3.5q0 -5 0.5 -10.5t-4.5 -8.5q-12 -10 -26 -9l-21 3q-11 2 -21 1t-21 -3q-6 0 -8 -7
q0 -2 -0.5 -3.5t-0.5 -3.5v-63v-5q-2 -17 -1 -32.5t3 -32.5q2 -18 0.5 -36.5t-2.5 -36.5q-2 -26 1.5 -52.5t5.5 -52.5q0 -8 1.5 -20t9.5 -18q18 -14 40 -16q7 0 12.5 -1t10.5 -8t2 -14t-12 -8q-7 -1 -13 -1.5t-13 -0.5q-2 0 -4.5 -0.5t-4.5 0.5q-22 4 -43.5 3.5t-43.5 -0.5
q-14 -1 -28 -1.5t-28 1.5q-5 0 -15 -1.5t-19 -2t-15.5 2.5t-5.5 14z" />
    <glyph glyph-name="g" unicode="g" horiz-adv-x="447" 
d="M63 199l-10.5 10.5t-7.5 11.5q-6 15 -13.5 30t-15.5 29q-5 11 -4 20q1 2 1 4.5t1 4.5q4 17 4 38q0 28 18 46q5 5 8 12q6 11 14.5 20t16.5 18q8 8 17 12.5t18 9.5q8 3 14.5 6t14.5 5q29 9 58 5q18 -1 38 -8q12 -3 23 -6.5t22 -8.5q12 -5 25 -11q6 -3 11 0q8 5 15.5 9
t15.5 9q4 2 8 4.5t8 4.5q9 4 16 1q9 -2 10 -9q2 -10 -4 -15q-8 -7 -15.5 -14t-17.5 -10q-3 -2 -5.5 -3.5t-4.5 -3.5q-2 -1 -2.5 -4t0.5 -5q4 -5 7 -11t7 -11q13 -17 17 -36t2 -39q-1 -9 -5 -20q-4 -8 -5.5 -16t-3.5 -16t-4 -15.5t-6 -15.5q-9 -22 -31 -33q-4 -2 -7.5 -3.5
t-7.5 -3.5q-8 -3 -15 -7t-12 -11q-4 -5 -10 -7.5t-12 -4.5q-20 -6 -39.5 -8t-39.5 3q-7 2 -16 5.5t-19 5.5t-19 2.5t-16 -3.5q-14 -8 -23.5 -29t-7.5 -37q2 -13 13.5 -19t22.5 -9q8 -3 16.5 -3h16.5q18 -2 35 -5t35 -2q17 1 33 -2t31 -8q6 -2 11.5 -3t11.5 -2q14 -1 26.5 -5
t25.5 -8q17 -6 28 -22q11 -18 25 -30q6 -8 7 -15q2 -11 4 -22.5t2 -23.5t-4 -21q-2 -6 -5 -12.5t-6 -13.5q-19 -38 -59 -61q-11 -6 -21.5 -12t-21.5 -12q-24 -14 -50 -18q-11 -1 -22 -3.5t-22 -4.5t-21 -3t-21 -2q-4 0 -8 -0.5t-8 0.5q-11 2 -22 2.5t-22 1.5q-5 1 -10.5 1
t-10.5 2q-19 5 -37.5 10t-36.5 12q-4 2 -10 6q-5 5 -10.5 11t-10.5 11q-12 13 -16.5 30.5t-2.5 34.5t11.5 28.5t23.5 20.5q3 2 18.5 7t31.5 8t28 1.5t8 -11.5q-1 -5 -8 -10q-6 -4 -13 -8.5t-10 -10.5q-7 -11 -8.5 -24t7.5 -23q15 -16 33.5 -26.5t38.5 -17.5q6 -3 13 -3
q9 -2 18.5 -3t18.5 -3q4 -1 7 -1t7 -1q6 -1 14 2q8 4 13 5q9 5 20 3q5 0 7 -1q20 -3 38 10q4 2 7.5 5t7.5 6q7 6 13 12t14 11q13 9 21 22q16 22 5 46q-7 15 -21 31q-11 12 -27 17t-31 10t-32 8q-4 0 -7 0.5t-7 0.5q-7 -2 -13 -1.5t-13 1.5q-11 2 -21 2.5t-21 2.5
q-22 3 -47.5 9t-47.5 17t-36.5 29.5t-14.5 46.5q0 23 8.5 46t23.5 41l4 4t7 6t8 4.5t6 -0.5zM283 284v14q0 15 -0.5 29.5t-0.5 29.5q-1 6 -1.5 12.5t-2.5 12.5q0 3 -2 9q-9 14 -20.5 25.5t-27.5 17.5q-8 2 -17 4t-17 4q-5 1 -9.5 0.5t-9.5 -0.5q-7 0 -11 -4q-2 -3 -10 -5
q-3 -1 -6.5 -1.5t-6.5 -2.5q-14 -6 -21 -18q-8 -15 -11.5 -31t-8.5 -31q-2 -6 0 -12t1 -11v-12q0 -3 -0.5 -6t0.5 -6q2 -11 3 -22t3 -22q2 -13 8 -24q4 -8 9.5 -14.5t13.5 -11.5q11 -5 22.5 -8.5t24.5 -3.5q8 0 16 0.5t16 3.5q6 2 12 5t12 5q36 16 41 58v6.5t1 9.5z" />
    <glyph glyph-name="h" unicode="h" horiz-adv-x="554" 
d="M304 37q4 6 11.5 8.5t14.5 3.5q3 0 6 -0.5t5 3.5q5 7 5.5 20t1.5 21q1 33 -2 67t-1 68q0 12 1 23t-1 23q-2 11 -3 21.5t1 21.5q2 10 1 23.5t-5.5 26t-12 22.5t-19.5 13q-9 2 -17.5 3.5t-16.5 3.5q-15 6 -32 -1q-10 -5 -19.5 -9t-17.5 -11q-12 -9 -27 -15q-9 -5 -17.5 -11
t-15.5 -15q-4 -4 -5 -7q-5 -14 -8 -28t-1 -29q3 -14 3.5 -28t0.5 -28v-40q0 -10 -1 -19t-5 -18q-3 -8 -1 -18q2 -7 3.5 -13t3.5 -12q2 -5 3.5 -10t2.5 -10q1 -9 5.5 -15.5t10.5 -11t12.5 -8.5t12.5 -9q2 -2 6.5 -7t7.5 -10t2.5 -9t-8.5 -4q-12 0 -23 -4q-3 -1 -7 -1.5
t-7 1.5q-7 2 -13.5 2t-13.5 -1q-8 0 -15.5 0.5t-15.5 0.5q-3 0 -6.5 0.5t-7.5 0.5q-17 0 -33.5 -0.5t-33.5 3.5q-6 2 -13 6t-11 9q-5 8 1.5 14t14.5 7q9 1 16 1t12 11t6 22l2 22v54q0 8 0.5 14.5t2.5 13.5q4 14 1 26q-4 14 -3.5 28.5t1.5 29.5q0 11 1 22t3 22q3 30 4 59.5
t-4 59.5q-2 14 -2.5 28t0.5 28t1 29v30q0 30 3 60q1 12 -1.5 23.5t-6.5 22.5l-2 4t-3 4q-7 5 -16 10q-8 4 -17 6.5t-18 5.5q-6 1 -8 8q0 3 -0.5 6t-0.5 6q0 8 7 10q10 2 14 2q23 1 46 1h46q8 1 17 1h18q3 0 9 -2l2.5 -2.5t1.5 -2.5q-4 -23 -2.5 -45t-0.5 -44q-1 -12 0 -24.5
t1 -24.5l3 -42q0 -8 -1 -12q-2 -7 -2 -14v-14q1 -6 0.5 -12.5t-0.5 -13.5q-1 -17 -1 -33.5v-33.5q0 -2 2.5 -4t4.5 0q1 1 2 1t2 1q5 5 9.5 9t8.5 9q13 14 30 22q16 9 35 15q14 5 27.5 10t27.5 10q20 6 41 3q8 -1 16.5 -2t16.5 -3q2 -1 5 -2t5 -3q9 -7 18.5 -14t18.5 -15
q5 -5 8 -11q12 -19 18 -43q2 -5 2.5 -10t2.5 -10q3 -7 3.5 -14t-0.5 -14q-2 -15 -2.5 -36.5t0.5 -35.5q2 -24 0.5 -48t-1.5 -48q-1 -20 4.5 -40t0.5 -40q-4 -20 14 -29q8 -4 16 -7.5t17 -5.5q5 -1 15 -5q3 -3 3 -4q3 -12 -2 -20q-3 -6 -10 -6q-11 2 -23 -0.5t-23 -2.5
q-5 0 -9 -2q-5 -2 -8.5 -1.5t-8.5 0.5q-9 2 -18 2.5t-19 1.5q-6 1 -12.5 1.5t-12.5 0.5q-12 2 -24.5 1.5t-23.5 4.5q-10 5 -9 15q1 2 1 2.5t1 2.5z" />
    <glyph glyph-name="i" unicode="i" horiz-adv-x="295" 
d="M226 28q7 -8 -1.5 -13t-15.5 -4q-7 0 -13 -1t-13 0q-13 1 -26 1t-26 1q-8 0 -14.5 -0.5t-13.5 0.5q-18 1 -36 1.5t-36 0.5q-9 0 -16 0.5t-11 9.5q-2 6 0.5 13t7.5 10t10 3.5t10.5 1t10 2t9.5 6.5q9 10 12 31t1 34q0 5 1 7q3 9 2.5 18.5t-2.5 18.5q-2 21 -2.5 42t1.5 42
q2 23 2 46.5t-1 47.5q-1 11 -3.5 20.5t-7.5 19.5q-8 18 -26 21q-5 1 -9.5 1.5t-9.5 2.5q-10 1 -10 13q0 4 0.5 8t0.5 8q3 3 4 3q11 4 27 3.5t28 1.5q14 2 28.5 0.5t28.5 -1.5q12 0 23 4q6 3 13 -2q6 -3 6 -9q-2 -8 -2 -12q-1 -3 -1 -5.5t-1 -5.5q-1 -5 1 -9.5t0 -9.5
q-1 -5 -1 -16q1 -5 1.5 -9t0.5 -9q0 -20 0.5 -40t-1.5 -40v-10.5t-1 -10.5q0 -8 0.5 -15t0.5 -15q0 -11 -0.5 -21t1.5 -21q3 -33 0 -66q-2 -22 4 -45.5t26 -36.5q7 -5 17.5 -6t17.5 -6q3 -1 4 -4zM81 593q-6 7 -11 14t-8 16q-2 6 -3.5 9.5t-1.5 7t2 7.5t7 11q4 5 6.5 10
t4.5 10q4 8 9.5 12t13.5 8h2q12 1 23 -0.5t22 -7.5l3.5 -3.5l3.5 -3.5q5 -7 8.5 -14.5t5.5 -15.5q1 -2 1 -8l-2 -12t-2 -13q-1 -8 -3.5 -15t-9.5 -12q-14 -12 -31 -12q-6 1 -10.5 1.5t-9.5 0.5q-11 1 -20 10z" />
    <glyph glyph-name="j" unicode="j" horiz-adv-x="265" 
d="M159 241q1 -44 -3 -89q-2 -12 -2 -24t2 -25q2 -12 0.5 -23.5t-2.5 -22.5q-2 -8 -2 -12q-2 -22 -5 -43t-8 -42q-2 -5 -2 -8.5v-8.5q1 -13 -6 -29q-2 -6 -4 -11.5t-4 -10.5t-4 -9t-5 -8q-8 -13 -16.5 -25t-17.5 -25q-5 -3 -8 -8t-5 -10q-6 -13 -20 -15q-10 -2 -19 -3
t-18 -4q-3 -1 -9 -1q-8 0 -15.5 0.5t-15.5 0.5q-14 0 -27.5 7.5t-23.5 16.5q-6 6 -8.5 14t-4.5 16q-4 14 -5 27t10 24q8 8 19 11t22 3q8 0 10 -3.5t2 -8t-1.5 -10.5t0.5 -10q4 -8 12 -12t14 -8q5 -3 8.5 -5.5t8.5 -4.5q11 -4 18.5 0t15.5 11q5 4 7 12q4 11 5 20q9 26 7 55
q-1 22 2 47q2 16 2 31.5t-1 31.5q-2 15 2 26q2 5 2.5 9t1.5 9q3 7 1 16q-3 12 -3 24.5t2 24.5q2 14 4.5 29t4.5 29q3 11 0 20q0 5 -1 7q-5 11 -5 22v22q1 14 1.5 27t0.5 27q-1 10 -1.5 20t-2.5 20q-3 24 -27 34q-8 4 -16.5 7.5t-9.5 14.5q-1 8 4 12t12 6q11 2 25.5 6t25.5 0
q15 -5 31.5 -3t32.5 2q3 2 7 0q2 0 5 -3.5t3 -6.5q-2 -20 -2.5 -39.5t-2.5 -39.5h-1v-15t1 -15v-12q-2 -23 -0.5 -44.5t2.5 -44.5zM51 616q-1 2 -1 2.5t-1 2.5q-2 11 -1 20.5t8 17.5q3 4 5 8t5 8q7 11 15.5 19t22.5 12q7 2 18 -1q28 -12 36 -43q2 -7 3 -12.5t1 -8.5
q0 -14 -3.5 -24t-8.5 -19q-2 -3 -8 -7q-4 -2 -7.5 -4.5t-8.5 -4.5q-4 -2 -7 -2q-8 0 -15 1t-14 5q-8 4 -12 5q-10 4 -15.5 11t-11.5 14z" />
    <glyph glyph-name="k" unicode="k" horiz-adv-x="581" 
d="M214 35q2 -5 1 -8t-1 -7v-14q0 -2 -2 -4t-4 -2q-11 -1 -22 -1.5t-22 1.5l-12 3q-12 2 -24 3.5t-25 -0.5q-8 -2 -17 -2h-18q-22 0 -44 -3q-7 -1 -14 0q-9 0 -9 9q-4 17 6 27q2 3 5.5 3.5t5.5 1.5q8 2 15.5 6t15.5 6q11 4 15.5 11.5t6.5 18.5q1 4 1 8t1 8q0 8 0.5 16.5
t0.5 16.5q1 10 0 21q-1 8 -0.5 15t1.5 15q1 11 1 21t1 21q1 29 0.5 57.5t-2.5 57.5q0 8 0.5 16.5t0.5 16.5q2 28 -1 51q-4 37 -1 77q2 15 4 29.5t3 29.5q1 14 1 27v26q0 8 -2 16.5t-4 16.5q-6 20 -24 29q-12 5 -21 5q-16 1 -18 5t-1 20q0 3 4 5h10q9 1 18.5 1t18.5 3h5
q22 1 44 1.5t45 0.5q4 0 7.5 -0.5t7.5 -2.5q6 -12 2 -23q-2 -8 -1.5 -15t-0.5 -15q-2 -11 -2 -22v-22q0 -13 -0.5 -25t-1.5 -25q0 -6 -0.5 -12.5t-1.5 -12.5q-2 -13 3 -20q2 -3 0 -9q-3 -12 -3.5 -23.5t-0.5 -23.5v-30v-13.5t-2 -12.5q-3 -15 -2.5 -30t1.5 -31l3 -30
q0 -9 1 -18.5t2 -18.5q2 -10 4.5 -11t10.5 0q8 2 14.5 2.5t13.5 1.5q12 2 23.5 14t18.5 21q5 6 11.5 11t12.5 11q9 10 18.5 19t17.5 21q8 10 11 20q1 5 1 8.5t-2 7.5q-5 8 -12.5 10t-12.5 8q-8 10 -4 17.5t16 5.5q15 -3 28 -2q8 2 15 2t15 1q27 2 55 4t55 0q12 -2 19 -8.5
t-6 -14.5q-14 -9 -30 -14t-30 -13q-19 -10 -37 -23.5t-32 -29.5q-5 -5 -9 -9.5t-9 -9.5q-14 -13 -26.5 -28t-25.5 -29q-2 -2 -2 -4q-1 -2 3 -8q16 -18 26 -36q8 -16 21 -28.5t22 -27.5q6 -11 14 -21t16 -21q7 -11 14 -21t17 -19q17 -17 33 -29q10 -7 18 -12.5t18 -10.5
q6 -3 16.5 -6t12.5 -10q1 -8 -6 -15t-14 -5q-8 2 -16.5 3.5t-16.5 2.5q-12 3 -25 3h-25.5t-25.5 -2q-8 -2 -20.5 -4t-19.5 6q-2 3 -1.5 7.5t-0.5 8.5q-1 8 -8 18q-5 8 -11 14t-11 13q-7 9 -12 19t-12 20q-5 6 -11 11t-11 10q-5 6 -8 12.5t-7 13.5q-8 11 -17.5 19.5
t-17.5 19.5q-5 8 -13 14q-5 5 -11.5 7t-14.5 -1q-5 -2 -11 -1.5t-10 -4.5t-2.5 -10.5t1.5 -10.5q-1 -7 -0.5 -14t1.5 -14q0 -5 0.5 -10.5t1.5 -10.5q0 -10 -6 -17q-6 -6 0 -12q6 -5 6 -12q0 -19 3 -38q1 -8 9 -13q6 -4 13 -7t15 -4q6 -2 8 -2z" />
    <glyph glyph-name="l" unicode="l" horiz-adv-x="292" 
d="M150 166q2 -6 3.5 -12t2.5 -13q2 -5 3 -10t0 -10q-2 -14 0.5 -26.5t4.5 -24.5q1 -5 1 -14q-1 -10 9 -9q4 0 8 -0.5t7 -2.5q8 -5 16 -7.5t17 -4.5q3 0 7 -2q10 -3 8 -13t-9 -14q-8 -5 -18 -5t-18 1q-5 1 -9 0.5t-9 -1.5q-6 -2 -12.5 -2.5t-12.5 -1.5q-8 -2 -16.5 -2
t-16.5 2q-5 1 -10.5 0.5t-10.5 0.5h-22t-31 2.5t-28 7.5t-12 16q0 6 4.5 9.5t11.5 5.5t13.5 4t10.5 5q13 9 16 22t7 28t4.5 31t1.5 32q0 8 0.5 17t0.5 18q1 15 0 30q-2 16 0 33v13.5t1 14.5q1 6 0.5 12.5t-2.5 12.5t3 13q5 5 6 7q5 5 0 11q-8 8 -12 11q-3 5 -2 9q6 13 4 27
q0 4 2 12q2 12 3.5 24t-2.5 24q-1 2 -0.5 5t0.5 5q3 55 3 112q0 12 -0.5 23.5t-0.5 23.5q-1 4 -1.5 8t-1.5 8q-2 11 -8 19t-17 12q-2 1 -4.5 2t-4.5 2q-5 3 -9.5 4t-9.5 3q-7 3 -13.5 7.5t-5.5 12.5q0 2 2.5 5t4.5 3q7 1 14 1t14 1q5 0 8.5 -1t7.5 1q14 3 26.5 2t25.5 -1
h25.5t25.5 -1q11 0 13 -11v-21t-1 -21q0 -8 -0.5 -15.5t-1.5 -15.5q0 -5 0.5 -10.5t1.5 -10.5q0 -4 1 -8t1 -8q-1 -14 -1 -27t-1 -27q-1 -8 -1 -15v-15q1 -13 0 -26q0 -8 -0.5 -17t-0.5 -18q-1 -20 -1 -40.5t-1 -41.5q-1 -11 -1 -21t-2 -21q-2 -6 -1 -12.5t2 -12.5
q2 -7 2.5 -13t2.5 -13q3 -15 -3 -29q-2 -5 -2.5 -8.5t-0.5 -7.5q0 -7 -0.5 -13t-0.5 -13q0 -4 0.5 -7.5t-1.5 -6.5q-1 -3 -3 -6z" />
    <glyph glyph-name="m" unicode="m" horiz-adv-x="808" 
d="M129 454q3 -2 7 -10q3 -6 4 -13.5t1 -14.5q0 -4 -0.5 -8t1.5 -8q4 -9 -0.5 -22t-1.5 -22q8 20 18 39.5t27 34.5l24 18q5 2 8.5 4t8.5 4t9.5 4.5t9.5 4.5q14 8 28.5 11t29.5 3q12 0 23.5 -2.5t22.5 -6.5q6 -2 11 -9q4 -9 15 -9q4 0 8 -4q5 -4 8.5 -7.5l8.5 -8.5
q7 -7 10 -18q4 -15 7.5 -29t1.5 -29q1 5 4.5 11t5.5 11q3 7 10 15q6 10 11.5 19.5t13.5 17.5q4 4 7.5 8t8.5 7q12 7 25 14q30 17 62 21q6 1 12 0.5t11 -1.5q22 -3 41 -9q11 -3 19 -11t14 -17q4 -5 8 -9t7 -9q4 -5 6 -10.5t5 -10.5q5 -11 6 -21.5t3 -21.5q2 -9 3.5 -17.5
t2.5 -17.5q1 -8 1.5 -16t-0.5 -16q0 -5 -0.5 -8.5t0.5 -8.5q3 -15 1 -35q-2 -14 -1.5 -26.5t1.5 -26.5q0 -5 0.5 -10.5t-0.5 -10.5q-2 -17 0 -34.5t4 -34.5q2 -11 3.5 -23t8.5 -21q4 -6 12 -9q4 -1 8 -0.5t8 -1.5t6 -7t1 -9q-2 -11 -13.5 -12.5t-19.5 0.5q-17 1 -33 0
q-21 -2 -41 3q-16 3 -31 2.5t-30 -2.5q-7 -1 -16 -2t-12 6q-2 6 -1.5 12.5t5.5 11.5q8 7 17 10.5t17 11.5q9 9 10 21q1 8 2 15t3 15q2 5 1.5 10.5t-0.5 10.5q-3 25 0 51q1 12 0.5 23.5t-2.5 23.5q-2 8 -1 16t1 16l3 21q1 12 -2 26q-2 12 -1.5 25.5t-2.5 25.5q-2 7 -4.5 13
t-7.5 12q-5 8 -16 12t-20 6q-8 2 -17 -0.5t-17 -3.5q-7 -1 -13 -5t-12 -7l-12 -4t-11 -7q-3 -4 -4 -8t-3 -8q-3 -8 -7 -13.5t-9 -12.5q-18 -26 -29 -57.5t-11 -64.5q0 -5 0.5 -9t0.5 -9q1 -6 0.5 -12t-0.5 -12t0.5 -12t2.5 -11q3 -7 1 -16q-1 -10 -1.5 -19t0.5 -19
q2 -8 2.5 -22t1.5 -22q2 -9 8 -12t10 -11q5 -8 5 -12t-8 -8q-11 -4 -29 -1.5t-29 4.5q-5 1 -17.5 -1.5t-25.5 -3.5t-23.5 1t-10.5 13q-1 5 7 8t10 8q3 5 2 12t0 12q2 11 2.5 23t1.5 24q2 10 3 20t3 20q3 13 0 27q-2 8 -2 14.5t1 13.5q2 6 2 12t1 11q6 22 -4 46l-3 12
q-3 16 1 30q9 25 -2 50q-2 5 -4.5 10.5t-4.5 11.5q-11 20 -33 23q-17 3 -24.5 2.5t-25.5 -7.5q-13 -4 -25 -9.5t-20 -17.5q-7 -11 -13 -24t-11 -25q-9 -20 -15 -40t-11 -41q-4 -19 -3.5 -38.5t-4.5 -36.5q-2 -7 -1 -10q5 -12 5.5 -27t0.5 -30t2 -29.5t11 -25.5q3 -4 9 -5.5
l12 -3t10 -4.5t3 -10q-1 -8 -7.5 -12t-14.5 -5t-16.5 -0.5t-13.5 0.5q-6 0 -12 -0.5t-12 -0.5q-27 -3 -53 0q-7 1 -19 0.5t-22 1.5t-14.5 8t3.5 20q4 6 11 8.5t14.5 5t13 5.5t5.5 11q0 10 -0.5 16.5t-0.5 10.5v19q-3 24 2 51q1 9 0 19q-1 8 -1 16v16q0 23 6 47l3 9
q2 9 -4 15q-9 8 -6 19t3 22q0 14 -2.5 29t-2.5 29l1.5 16.5t-7.5 12.5q-3 3 -7 5.5t-7.5 5.5t-4.5 6.5t3 7.5q4 5 11 4.5t12 1.5q8 2 15.5 6t15.5 3q10 -1 18.5 -3t18.5 -2q5 -1 8.5 -0.5t5.5 -1.5z" />
    <glyph glyph-name="n" unicode="n" horiz-adv-x="575" 
d="M221 43v-9q1 -15 -1 -17.5t-17 -4.5q-7 -1 -13 -1h-13q-11 0 -23 -0.5t-24 0.5q-5 0 -11 0.5t-12 1.5h-18.5t-18.5 -1h-15.5t-15.5 1q-5 1 -9 0.5t-9 -0.5q-4 0 -7.5 0.5t-6.5 0.5q-5 2 -7 6v17q0 12 13 15q5 1 10 1.5t10 2.5q22 4 32 28q3 8 5 16.5t2 17.5q-1 9 -1 17.5
t4 17.5q2 4 0 9q-3 17 0 35v9t-2 9q-5 9 0 19q5 12 4.5 24t-2.5 24q-8 38 0 77q3 18 -2 32q-4 9 -9 13q-22 16 -46 13h-7q-5 0 -8 5q-4 7 -2 18q2 6 6 7l12 2t11 2q13 1 25 1.5t24 2.5h5q16 0 31.5 0.5t30.5 0.5q2 -1 3 -2q5 -5 8 -8.5t4 -6.5t1 -6.5v-10.5
q-1 -5 -0.5 -10.5t0.5 -10.5q0 -2 4 -2h2q13 10 25.5 19t25.5 18q3 2 6 3.5t6 3.5q8 3 14.5 6.5t12.5 8.5q1 2 2.5 2t3.5 1q5 0 7 1q8 2 14.5 5t14.5 5t15 1.5t15 -0.5q5 0 8.5 0.5t7.5 0.5q20 3 37 -4l9 -3q11 -3 17.5 -10.5t10.5 -18.5q2 -4 2 -7q0 -7 7 -17
q25 -40 26 -86v-24.5t-2 -24.5q-1 -5 1 -14q2 -5 2.5 -9t1.5 -9t1.5 -11t-0.5 -12q-2 -25 -3 -50t-3 -51q0 -5 0.5 -9t0.5 -9q0 -7 1.5 -12.5t7.5 -10.5q1 0 1 -2q7 -16 25 -19q9 -2 17 -7l16 -10q3 -2 3 -6q1 -5 0.5 -10.5t-0.5 -10.5q0 -4 -5 -4q-5 1 -10.5 1t-10.5 1
q-18 1 -35.5 0.5t-35.5 -1.5h-9q-11 -3 -21 -2.5t-21 2.5q-8 2 -15 2t-15 -2q-10 -3 -19.5 -3.5t-19.5 -2.5q-5 -2 -7 5q-1 2 -1 5q-2 4 -1.5 7.5t1.5 7.5q4 11 15 14q3 1 9 1q14 3 27 14q8 6 9 16q0 6 0.5 11.5t-0.5 11.5q-1 12 0.5 23.5t3.5 23.5q3 15 2 28q0 11 1 21
t2 21q2 17 2.5 34.5t1.5 35.5q0 5 -0.5 10.5t-1.5 10.5q-2 14 -5.5 27.5t-5.5 27.5q-2 10 -7 17t-10 15q-20 24 -48 18q-17 -3 -33 -8t-31 -13q-6 -4 -11.5 -8t-10.5 -10q-5 -7 -11.5 -13t-14.5 -10l-3 -3q-9 -5 -13 -13t-6 -17q-1 -7 -1.5 -13.5t-0.5 -12.5v-23.5t-1 -23.5
q-2 -11 -0.5 -22t4.5 -22q2 -9 2.5 -17.5t0.5 -17.5q-1 -14 -0.5 -27t-0.5 -27q0 -8 1.5 -15t3.5 -15q3 -10 13 -16q6 -4 12 -7l12 -6q10 -5 15 -11zM426 156q-1 1 -1 2l-1 1q-3 0 -4 -1q-5 -4 -6 -9l-2 -10q-1 -6 -7 -7l-4 -2q-4 -3 -2 -9q1 -2 3.5 -2.5t4.5 1.5q4 4 7 6
q8 6 10 14t2 16z" />
    <glyph glyph-name="o" unicode="o" horiz-adv-x="534" 
d="M448 229v-19q0 -21 -8 -36q-8 -18 -11 -36q-2 -10 -6 -19.5t-12 -17.5q-5 -5 -9.5 -11.5t-8.5 -13.5q-5 -8 -14 -15q-11 -8 -22 -15.5t-22 -15.5q-4 -2 -7.5 -3.5t-7.5 -3.5q-4 -1 -7.5 -2t-8.5 -2q-5 -2 -9.5 -3.5t-9.5 -5.5q-4 -4 -9 -5l-10 -2q-12 -2 -23.5 -2.5
t-22.5 -3.5h-5q-18 0 -36 2.5t-35 10.5q-8 4 -16 7.5t-16 5.5q-15 6 -24 18q-2 4 -4.5 7.5t-4.5 6.5q-2 2 -3.5 4.5t-3.5 4.5q-11 8 -19.5 17.5t-16.5 19.5q-2 4 -4.5 8t-4.5 8q-6 19 -12 37t-10 37q-5 23 -5 42q0 8 1.5 15t3.5 15q2 10 4 15q9 24 8 46q-1 16 9 31
q5 9 11 17.5t14 16.5q7 6 10 12q1 2 2.5 3.5l3.5 3.5t3.5 2t2.5 2q12 12 25.5 21t26.5 19q8 7 16.5 10.5t19.5 5.5q3 0 6.5 0.5t7.5 0.5q3 1 6.5 1t6.5 1q14 5 28 5t28 -2t26.5 -4.5t26.5 -6.5q13 -5 24.5 -11t22.5 -15q5 -5 11 -9t14 -6q14 -4 25 -17q4 -6 10.5 -17
t12.5 -23t10.5 -23.5t6.5 -18.5q3 -14 6 -27.5t5 -27.5q2 -11 2 -21t1 -18zM349 251h1v25q-1 16 -3 31t-8 29q-5 10 -10.5 18.5t-10.5 17.5q-7 10 -16 14q-9 5 -16 11.5t-14 14.5q-4 6 -7 9q-10 10 -23 11h-6.5t-6.5 2q-19 6 -36 -5q-1 -1 -2 -1t-2 -1q-31 -13 -50 -37
q-5 -5 -9.5 -10.5t-9.5 -10.5q-8 -11 -9 -24q-1 -14 -8 -29q-6 -17 -9 -34q-2 -10 -2.5 -20t-2.5 -21q0 -2 0.5 -2.5t0.5 -2.5q0 -28 12 -52q4 -9 6.5 -18.5t5.5 -19.5q1 -2 1 -5.5t2 -5.5q7 -11 11.5 -21.5t12.5 -20.5q6 -8 12 -12q9 -7 18 -13l18 -12q10 -6 18 -4
q6 2 13 -3q5 -6 12 -5q9 2 17.5 2.5t17.5 -0.5q22 -2 35 15q7 11 14.5 20t14.5 19q13 19 14 39q2 12 2.5 23.5t2.5 23.5q2 10 -2 18q-3 6 -1 14q1 8 1 16.5t1 16.5z" />
    <glyph glyph-name="p" unicode="p" horiz-adv-x="539" 
d="M210 -229q-2 -7 -12 -9t-22.5 -2t-24.5 1t-18 1q-23 0 -47 -3q-8 -2 -16.5 -0.5t-16.5 0.5t-16.5 -2.5t-16.5 0.5t-21 6.5t-17 12.5q-3 7 0 10t8.5 4.5t12 3t10.5 5.5q7 7 13 19.5t9.5 26.5t5.5 27.5t2 23.5q-1 8 -0.5 15.5t-0.5 15.5q-1 9 -1 17.5t2 17.5q1 4 1 8v8
q-1 7 -1 13t-1 13v28t4 28q1 3 1 11q3 12 -2 26q-6 15 -4 34q0 6 0.5 12t0.5 11v19q-3 20 -1 45q3 33 3 66t-2 67q0 8 -3 16q-2 8 -5 15.5t-5 15.5q-3 8 -11 11q-9 4 -16 5q-17 4 -14 14.5t13 18.5q13 10 28.5 8t30.5 -2q5 0 8.5 0.5t8.5 1.5q8 1 16 1.5t16 2.5q11 1 23 -4
q5 -2 5 -7q1 -8 1.5 -15t-1.5 -15t-1.5 -16.5t-0.5 -16.5q0 -8 -1 -15.5t0 -15.5q2 4 3 8.5t3 8.5q3 8 7 14t8 14q2 5 5.5 9.5t6.5 9.5q8 14 19 24t25 18q5 2 9.5 4.5t9.5 4.5q10 5 20 5q20 0 39 -0.5t38 -5.5q11 -2 19.5 -7.5t19.5 -9.5q22 -8 36 -24t26 -35q13 -20 19 -45
q6 -28 10 -55.5t5 -55.5q0 -13 -1 -26t-3 -26q-2 -10 -3.5 -19.5t-3.5 -19.5q-3 -17 -12 -30q-9 -14 -20 -27.5t-22 -26.5q-7 -8 -15 -13l-16 -10q-17 -9 -28 -18l-6 -4l-6 -4q-20 -11 -43.5 -10t-45.5 -2q-10 -1 -28.5 6t-36.5 17.5t-31.5 22t-12.5 19.5q-2 -21 2.5 -43
t-0.5 -42q-4 -21 -3.5 -42t1.5 -42v-22.5t2 -24.5t7 -22.5t16 -15.5q10 -5 26 -8t25 -12q7 -7 7 -18q0 -1 -1 -2zM225 49q32 -5 64.5 10t53.5 40q12 14 15 30.5t10 33.5q6 16 6 30t1 31q0 11 1 21.5t2 21.5v16q-2 11 -5 20.5t-8 19.5q-9 17 -19 35q-4 9 -14 19
q-9 11 -19.5 19.5t-21.5 18.5q-3 3 -7 5q-12 3 -23.5 3t-22.5 -5q-10 -5 -21.5 -8t-18.5 -11q-8 -9 -13 -18.5t-10 -19.5q-16 -27 -24 -59q-2 -6 -2.5 -12t-2.5 -13q-2 -8 -3.5 -15t-3.5 -15t-1.5 -16.5t0.5 -16.5v-39t3 -39q4 -23 16 -40t30 -31q17 -11 38 -16z" />
    <glyph glyph-name="q" unicode="q" horiz-adv-x="523" 
d="M318 436q-3 9 -1 19t7.5 19t13.5 16t16 10q9 3 21 2.5t22 -0.5q4 0 14 -0.5t19.5 -2.5t15.5 -7.5t3 -14.5q-3 -7 -11.5 -8.5t-13.5 -8.5q-6 -8 -5.5 -19.5t-1.5 -21.5q-7 -43 -1 -89q4 -38 -2 -73.5t-5 -71.5q0 -17 1.5 -33.5t-1.5 -33.5q-3 -20 -2 -37q1 -5 1.5 -9.5
t1.5 -9.5q0 -2 1 -4.5t0 -4.5q-3 -8 -2 -17t-1 -17q-1 -9 0 -17q1 -26 0.5 -52.5t-1.5 -52.5v-17.5t5 -17.5q1 -3 0.5 -6.5t0.5 -7.5q1 -5 1.5 -10t2.5 -10q3 -13 17 -18q7 -2 13 -4t14 -3q6 0 16 -4q5 -2 5 -7q1 -4 1 -8v-8q0 -8 -9 -10q-8 -2 -16 -3t-16 0q-7 0 -13 0.5
t-13 1.5q-16 2 -31.5 2t-31.5 -1q-8 0 -12 -1l-12.5 -2.5t-15.5 -2.5t-15.5 0t-11.5 4t-5 9t0.5 12t4 12t5.5 9q5 7 12.5 9t10.5 11q5 12 7 29t2.5 35t-0.5 35q-1 13 -1.5 25.5t0.5 25.5q0 8 2.5 15t2.5 15v9v15.5v15.5t-1 8q-8 -20 -22 -29t-24 -13q-11 -4 -21 -7.5
t-21 -5.5q-31 -6 -65 -1q-8 2 -16 3.5t-16 3.5q-5 1 -9 3l-8 4q-11 8 -21.5 14.5t-21.5 14.5q-5 3 -9 7t-8 9l-6 6t-8 5q-10 5 -17 17t-12 21q-8 11 -10 23.5t-4 26.5q-2 17 -5.5 33.5t-1.5 34.5q2 25 9.5 48t10.5 48q6 38 38 67q10 8 19.5 16.5t17.5 19.5q13 16 33 25
q2 1 3 2t3 2q11 3 22.5 6.5t22.5 7.5q10 3 20 5.5t20 5.5q7 3 21.5 2.5t22.5 -2.5q4 -1 12 -3.5t16.5 -7.5t16 -12.5t10.5 -17.5zM324 328q1 10 -0.5 19.5t-3.5 19.5q0 4 -3 7q-7 7 -13.5 14.5t-11.5 15.5q0 3 -3 3q-7 5 -13 10t-14 8q-16 8 -30 5q-11 -3 -26 -1
q-2 0 -5 0.5t-6 0.5q-25 -2 -37 -18q-2 -4 -4 -5q-11 -7 -17 -16.5t-13 -19.5q-11 -14 -12 -30q-1 -15 -8 -28t-10 -27q-4 -16 -4 -31.5t2 -30.5q2 -23 5 -45t10 -41.5t20 -35.5t36 -27q5 -2 10 -4.5t9 -5.5q5 -5 11 -7.5t11 -5.5q22 -13 50 -8q15 3 24 7.5t15 12t9.5 17.5
t6.5 24q2 10 5.5 19t5.5 19q2 15 1 30.5t1 30.5q0 8 -1 12q-3 16 -2.5 32t1.5 33q1 12 2 23.5t2 23.5z" />
    <glyph glyph-name="r" unicode="r" horiz-adv-x="392" 
d="M229 41q7 -11 4 -22q-2 -9 -9 -9q-17 -2 -34.5 -3t-35.5 1q-9 1 -18 1.5t-19 -1.5q-11 -1 -22 -1h-22q-12 0 -31.5 -2.5t-29.5 3.5q-9 6 -11.5 11t2.5 14q6 11 15 11.5t19 5.5t14 16.5t5.5 25t1 26.5t-0.5 22q1 20 1 40t1 40v19q2 3 4.5 6t4.5 7q5 7 1 13q-2 2 -2.5 4
t-2.5 4q-6 6 -6 19t-1 25t1 24q1 7 0.5 13t-1.5 13q0 15 -11 25q-2 1 -6 7q-6 8 -17 12t-16 13t-2.5 13.5t8 6.5t13 2h12.5q11 1 21 1.5t21 2.5q5 1 10.5 1h10.5q10 0 20 -0.5t20 -0.5q4 -4 6 -7q3 -2 3 -6q-2 -8 0 -16t4 -17q10 4 17.5 9.5t15.5 12.5q5 5 9 9.5t9 9.5
q12 13 27 21q21 12 43 9q36 -3 53 -33q13 -24 7 -50q-5 -16 -19 -22q-5 -2 -10.5 -5t-11.5 -5q-11 -4 -18 0q-11 5 -27 8q-6 2 -9 7q-2 3 -4 6.5t-4 7.5q-2 3 -8 4.5t-9 -0.5q-5 -3 -6 -4q-8 -8 -15.5 -17.5t-12.5 -20.5q-5 -12 -12 -23.5t-15 -22.5q-7 -9 -6 -17
q1 -14 -1 -29t-3 -29q-1 -7 -1 -13v-13q-1 -16 5 -32q2 -3 4 -11t-1 -18l-3 -9q-2 -8 -3.5 -15t1.5 -15q1 -11 3.5 -20.5t6.5 -20.5q5 -9 11 -11q11 -3 20 -7q2 0 3.5 -0.5t3.5 0.5q10 4 18.5 -0.5t16.5 -3.5z" />
    <glyph glyph-name="s" unicode="s" horiz-adv-x="382" 
d="M93 342q2 -5 5 -8.5t5 -7.5q6 -12 18 -18q5 -2 10 -5.5t10 -6.5q8 -4 15.5 -6.5t15.5 -2.5q9 0 16 -4q10 -4 19 -9t15 -14q4 -6 11 -9q17 -6 31 -21q6 -6 12.5 -11.5t13.5 -11.5q10 -8 18 -18q5 -7 7.5 -13.5t3.5 -14.5q0 -8 1 -16.5t2 -16.5q3 -11 -4 -25q-2 -2 -2.5 -5
t-2.5 -5q-5 -8 -9 -15.5t-6 -16.5q-5 -9 -11 -17.5t-16 -13.5q-8 -5 -15.5 -8.5t-15.5 -8.5q-11 -5 -27 -7q-12 0 -24 -2.5t-24 -6.5q-7 -2 -13.5 -3t-13.5 -2q-8 -1 -15.5 -0.5t-15.5 3.5q-8 2 -15.5 4.5t-15.5 4.5q-4 1 -7 1.5t-7 0.5q-5 2 -8 -2q-6 -9 -14 -12.5t-16 -2
t-14 7.5t-6 17q-2 17 0 32.5t2 32.5q1 13 -3.5 27t-1.5 27q2 11 12 12.5t18 -3.5q6 -4 9 -10.5t4.5 -14.5l3 -16t3.5 -14q4 -8 7 -12q10 -18 29 -22q12 -3 24.5 -6.5t25.5 -6.5h11q7 2 14 3t13 4t12 5t12 5q5 2 9 5t9 6q6 4 6 9q3 11 3.5 21t-0.5 21q0 12 -7 20l-6 8t-6 9
q-16 22 -38 29q-16 6 -30.5 13.5t-28.5 15.5q-5 1 -10 6q-10 8 -20.5 14t-21.5 11q-13 5 -21.5 14t-15.5 21q-8 15 -10 36q0 7 -0.5 13.5t0.5 14.5v9t2 9q7 27 23 54q4 6 9 10t10 9q5 2 9.5 3t9.5 2q21 6 36 21q12 12 27 11q2 -1 5 0q21 5 41 1.5t40 -7.5q5 -2 10.5 -2.5
t10.5 -2.5q6 -1 10 4q2 4 5 4q20 5 34 -3q11 -6 11 -19q-1 -2 -1 -4.5t-1 -4.5q0 -9 -0.5 -18t-1.5 -17q0 -16 0.5 -32t0.5 -32q0 -10 -12 -12q-5 -2 -11 -2h-12q-2 -1 -5 2t-4 5q-2 11 -5 20.5t-7 19.5q-2 5 -4.5 9.5t-4.5 9.5q-8 13 -21 21q-5 2 -8.5 4.5t-8.5 4.5
q-8 5 -17 6.5t-19 2.5q-12 0 -23 -4l-12 -6q-26 -13 -27 -39q-2 -10 -3.5 -19.5t-3.5 -19.5z" />
    <glyph glyph-name="t" unicode="t" horiz-adv-x="295" 
d="M47 548q1 11 1 20.5t-5 19.5q-2 3 -7 7l-10 8t-8.5 8t-1.5 9q5 11 17 11h22q8 0 17.5 1.5t19.5 3t19.5 1.5t17.5 -4q11 -6 10 -16.5t-1 -21.5q0 -5 -1.5 -25t-2.5 -42t0.5 -40t7.5 -18q11 -1 22.5 -3t22.5 -4q8 -1 17.5 0t17.5 -1q8 -3 10 -9t-0.5 -12t-8 -11.5
t-11.5 -7.5q-13 -5 -31.5 -2t-32.5 3q-2 0 -4.5 -0.5t-5.5 -0.5q-7 -20 -7 -37q1 -23 0.5 -45.5t1.5 -45.5q3 -32 -5 -58q-6 -27 -2 -51q3 -18 1 -40q-1 -9 -1.5 -22.5t1 -27t5.5 -25.5t13 -17q12 -7 22 -3.5t19 12t18 17.5t19 12q17 5 18.5 -6t-7.5 -21q-8 -8 -13 -17.5
t-12 -18.5q-6 -9 -12 -11.5t-16 -6.5q-23 -8 -43.5 -12.5t-45.5 0.5q-10 3 -22 8q-15 5 -20 21q-2 5 -3.5 9t-3.5 8q-3 5 -1 12q1 5 2 9t3 9q2 8 -4 12q-6 5 -6 15q2 11 1 21t-1 21q-2 14 1 25q1 5 1 9.5v9.5q1 20 1 41t1 41q0 18 0.5 36t0.5 36v15.5t-2 15.5q-2 9 -2 18v19
q1 2 1 7q1 13 -12 13q-6 0 -12 -0.5t-11 -0.5h-12q-9 0 -9 11q0 4 0.5 7t0.5 7q0 9 8 10q6 2 12 3t13 1h9.5t9.5 1q7 2 9 10v5q-2 17 -0.5 32.5t2.5 32.5zM81 355q-5 -14 -4 -25v-2q2 -1 4 -1q7 4 6 9q0 5 -2 15q0 2 -1 2t-3 2zM77 315q1 2 0 2l-1 -1zM96 172l1 -1v2z" />
    <glyph glyph-name="u" unicode="u" horiz-adv-x="558" 
d="M309 116q11 28 12 64t3 63q1 15 0 30q-1 13 -1.5 25.5t-0.5 26.5q0 15 -2 30t-5 30q0 5 -1 7q-3 12 -9.5 21t-18.5 13q-4 1 -7 2t-7 3q-7 2 -12.5 2.5t-7.5 9.5q-2 8 4 14t12 8q12 3 24.5 3t25.5 -1.5l26 -3t25 0.5q17 2 30 -8.5t15 -28.5q0 -6 -1 -12t-1 -11
q1 -11 0.5 -20.5t-2.5 -19.5l-2 -12t-1 -11q0 -24 -2 -47.5t-1 -46.5q0 -11 -0.5 -22t-1.5 -22q-2 -29 3 -56q1 -5 1 -8.5v-8.5q2 -19 10 -36l3 -6q4 -6 11 -8t14 2q5 4 10.5 7.5t9.5 8.5q3 3 5 4q5 3 13 1t10 -7q1 -1 1 -4q0 -5 -0.5 -9.5t-0.5 -8.5q-8 -9 -15 -17.5
t-15 -16.5q-6 -6 -13 -11.5t-15 -9.5q-10 -5 -18.5 -10t-18.5 -9q-5 -2 -10 -3.5t-10 -3.5q-22 -5 -39 3q-4 2 -8 3t-9 3q-5 11 -8.5 23.5t-3.5 26.5q0 3 -2.5 4.5t-4.5 -0.5q-3 -2 -6.5 -4.5t-6.5 -5.5q-20 -17 -47 -30q-23 -13 -51 -16q-14 -2 -28 -2.5t-28 -2.5
q-21 -2 -35 14q-6 6 -16 11q-24 9 -27 35q-1 23 -17 40q-3 4 -4 8t-2 9v50v7q3 16 3 32v33v35q1 18 1 35.5t-3 34.5q-1 8 -1.5 15.5t-1.5 15.5q-1 17 -6.5 34.5t-19.5 26.5q-4 2 -9.5 4t-10.5 4.5t-8.5 6t-2.5 9.5q2 8 13.5 7.5t17.5 -1.5q15 -2 25.5 0.5t25.5 1.5
q14 0 28 -2t26 -10q17 -13 15.5 -32t-3.5 -38q-3 -23 -2.5 -46.5t0.5 -47.5q0 -2 0.5 -4.5t-0.5 -4.5q-3 -27 4 -51q3 -9 -1 -23q-4 -12 -1 -25q2 -5 2 -10.5t1 -10.5q1 -12 2 -23.5t2 -23.5q0 -19 17 -31q18 -12 39 -18q3 -1 6.5 -1h6.5q10 1 25 3.5t29.5 6.5t27 10.5
t19.5 15.5q6 9 9 19z" />
    <glyph glyph-name="v" unicode="v" horiz-adv-x="500" 
d="M152 437q-1 -1 -1.5 -1t-1.5 -1q-5 -4 -13.5 -7t-13.5 -8q-8 -9 -8 -21.5t3.5 -26.5t8.5 -27t7 -22q3 -16 10 -26q13 -24 20 -47q1 -2 1 -3.5t1 -3.5q12 -24 15 -51q2 -17 9 -31.5t17 -28.5q4 -2 6 -4q15 10 22.5 24t12.5 30q4 10 7.5 20t8.5 19q2 5 4.5 11t4.5 11
q5 12 9.5 24t9.5 24l4 12t3 12q2 11 8 25.5l12 29t10 29t2 25.5q-2 8 -6.5 11t-11 4t-13.5 1.5t-13 5.5q-24 19 9 24q11 2 21 -0.5t20 -1.5q14 1 26.5 3t26.5 2q8 0 13.5 -2t12.5 -4q3 -1 10 -0.5t14.5 0t12.5 -3t4 -8.5q0 -2 -1 -3.5t-1 -3.5q0 -8 -3 -11.5t-8 -5
t-11.5 -2.5t-12.5 -4q-11 -5 -19 -14t-16 -19q-14 -18 -23.5 -39.5t-17.5 -42.5q-2 -6 -5.5 -11.5t-6.5 -10.5t-5.5 -10.5t-4.5 -10.5q-8 -26 -17.5 -50t-19.5 -49q-5 -14 -9.5 -27.5t-8.5 -27.5q-6 -19 -15 -35q-7 -14 -13 -27t-13 -27q-2 -5 -4.5 -9.5t-4.5 -9.5
q-2 -3 -6 -7q-6 -4 -9 -3l-21 3q-5 2 -7 6q-15 22 -24 48q-4 11 -7.5 21t-8.5 20q-11 27 -15 54q-5 21 -15 37q-8 10 -12.5 21.5t-6.5 23.5q-5 19 -12 36.5t-16 34.5q-6 10 -6 23q0 16 -5 31t-11 29q-2 6 -6.5 17.5t-6.5 13.5q-8 8 -21 7t-24 1q-10 3 -15.5 10.5t3.5 16.5
q8 8 22 9t24 0q14 -2 24.5 0t23.5 4q18 3 36 2t36 1q7 1 15 -1t12.5 -6t4 -9.5t-9.5 -11.5z" />
    <glyph glyph-name="w" unicode="w" horiz-adv-x="768" 
d="M233 443q-1 1 -2 1.5t-2 1.5q-7 8 -1.5 16.5t14.5 8.5h41.5t40.5 -2h16.5t16.5 1t16.5 0t17.5 1q3 0 10 1t14 0.5t12.5 -3t5.5 -7.5q1 -11 -3.5 -16t-13.5 -10q-7 -5 -17.5 -9t-11.5 -15v-9t1 -9q3 -16 7.5 -29.5t13.5 -25.5q8 -12 8.5 -26t7.5 -27q6 -12 9 -24.5
t8 -26.5q8 -20 16.5 -41t17.5 -41q2 -5 4 -9.5t4 -9.5q2 -6 8 -8q3 -1 7.5 4.5t9 13.5t7.5 15.5t4 10.5q5 20 11.5 37.5t14.5 36.5q9 20 15.5 41t12.5 41q5 15 12 27.5t9 28.5q0 1 1.5 6t4 11.5t4 11.5t1.5 6q0 10 -7 10t-15 6q-4 3 -9 3.5t-9.5 1t-7.5 2.5t-4 8
q-1 13 8 18.5t22 7t26.5 0t20.5 -1.5q16 -1 31 -1h31q7 0 14.5 -0.5t13.5 -5.5q5 -5 7.5 -17t-4.5 -17q-4 -3 -10.5 -2t-11.5 0q-6 -1 -16 -2t-15 -7q-10 -14 -18.5 -33.5t-13.5 -36.5q-3 -9 -6.5 -18t-7.5 -19q-2 -4 -4.5 -8t-4.5 -8l-7.5 -15t-6.5 -15l-16 -44t-17 -43
q-5 -13 -11 -24.5t-11 -23.5q-4 -10 -6 -20t-7 -19q-7 -16 -12.5 -31.5t-13.5 -30.5q-6 -13 -15.5 -24.5t-23.5 -13.5q-8 0 -11 3q-2 3 -4 5.5t-4 5.5t-4 9q-3 11 -8 21.5t-11 20.5q-7 12 -12.5 24t-8.5 25q-2 4 -2.5 7t-2.5 7q-2 2 -2.5 5t-2.5 5q-9 9 -14 20.5t-9 22.5
q-6 16 -13 31.5t-15 30.5l-2 4t-3 4q-1 2 -3.5 1.5t-4.5 -2.5q-3 -3 -4 -5q-9 -21 -19 -41.5t-16 -42.5l-6 -15l-10 -24t-8 -25q-2 -6 -4 -8l-30 -66q-2 -4 -6 -10q-5 -6 -12 -6t-10 -1q-12 -1 -19 11q-5 11 -10 21.5t-8 21.5q-6 19 -15 39q-3 7 -7 14t-9 12t-7.5 10.5
t-4.5 12.5q-5 16 -9.5 32t-5.5 33q0 5 -2 8.5t-4 7.5l-1 1q-8 7 -11.5 12t-6 10.5t-4 12t-4.5 16.5q-3 8 -5.5 17t-5.5 17q-5 16 -12 28q-4 7 -7 14.5t-6 15.5q-4 11 -8 20.5t-9 19.5q-8 18 -29 23q-5 1 -12.5 1t-14 0.5t-11.5 2.5t-5 8q0 12 8 17.5t19 7.5t22.5 1.5
t18.5 0.5q18 2 36.5 2.5t37.5 -1.5q8 -2 15 -2t15 -1q9 -1 17 -1t13 -2t6 -7.5t-5 -17.5q-2 -4 -7 -8t-9.5 -8t-8 -8t-2.5 -8q2 -10 3 -19l2 -18q0 -8 4 -18q2 -8 5 -15.5t6 -15.5q4 -10 8 -19.5t8 -19.5q2 -6 3.5 -11.5t3.5 -10.5q3 -12 7 -24t9 -23q2 -3 3 -6.5t3 -5.5
q6 -8 10 -16.5t8 -16.5l8 -16t6 -16q1 -2 1.5 -2t1.5 -2q10 6 13 16q7 22 16.5 43t18.5 42q3 8 6.5 17t6.5 18q5 14 9.5 27.5t11.5 26.5q3 9 -1 13q-10 11 -13 26.5t-10 28.5q-4 8 -6 18t-8 18q-7 10 -19.5 11t-21.5 7zM344 368q1 0 2 1q4 3 8 13q0 1 -1 2h-2q-9 -4 -9 -12z
" />
    <glyph glyph-name="x" unicode="x" horiz-adv-x="533" 
d="M303 57q-4 19 -15 34q-6 11 -12 20.5t-12 19.5q-3 5 -6.5 9.5t-7.5 9.5q-7 8 -13.5 14.5t-13.5 14.5q-8 8 -14 -1q-3 -4 -6 -7.5t-5 -7.5q-3 -5 -8.5 -13t-11.5 -16.5t-11.5 -16.5t-9.5 -12q-11 -14 -16.5 -24t-6.5 -30q0 -5 5 -5.5t10.5 -2t8.5 -6t-3 -16.5
q-2 -3 -20 -4.5t-40.5 -1.5h-42.5t-26 -1t-9 3.5t-3.5 10t1.5 11.5t5 8q7 6 13.5 3t15.5 0q10 3 18 9.5t14.5 15t12 17.5t12.5 18q4 5 10 13t12.5 17t12.5 17.5t10 13.5q7 9 13.5 17.5t13.5 17.5q6 8 8 12q3 3 1 9q-6 12 -12.5 23.5t-15.5 21.5q-9 11 -16.5 21.5t-12.5 23.5
t-17 25q-3 3 -6.5 5.5t-6.5 5.5q-5 5 -10 11t-8 13q-4 8 -9 14l-10 12q-10 10 -22 14q-8 2 -15 5.5t-16 4.5q-4 0 -6.5 3.5t-3.5 7.5v7q0 11 3 14.5t14 0.5q10 -3 24 1q16 3 32 4t33 -1q8 -2 17 -2t18 -2q14 -2 29 0t29 -3q6 -2 10 -6.5t2 -11.5q-2 -5 -6.5 -7.5t-10.5 -3.5
t-12.5 -1.5t-10.5 -1.5q-5 -2 -6.5 -7t0.5 -9t6 -10q8 -8 14 -17.5t11 -19.5q5 -8 10.5 -16t12.5 -16l10 -14t10 -15q2 -2 3 -3.5t3 -3.5q2 -1 3.5 -0.5t3.5 0.5l3 3q10 11 19 22.5t19 22.5q5 6 13 16.5t15 22t9 23t-5 19.5q-6 7 -17 9t-13 12q-1 8 7.5 14.5t16.5 8.5
q7 2 16 -0.5t17 -3.5q15 -1 30 -1h31q4 0 10.5 1t13.5 1t13 -1t9 -5q7 -9 5 -15t-9.5 -10t-17 -6.5t-15.5 -4.5q-2 -1 -5 -2t-5 -2q-3 -2 -7 -3t-7 -3q-5 -4 -8.5 -10t-6.5 -11q-4 -6 -7.5 -11t-7.5 -10t-6.5 -9.5t-5.5 -9.5q-3 -4 -6.5 -7.5t-6.5 -7.5q-9 -11 -15 -21
q-3 -4 -5.5 -8t-6.5 -7q-9 -7 -16 -15t-15 -16q-4 -4 -4 -11q-3 -12 6 -21q5 -5 9 -11t9 -11q9 -11 16 -24l14 -26q6 -11 12.5 -21t14.5 -20q6 -8 11.5 -15t10.5 -15q8 -11 19 -18q4 -2 7.5 -5t7.5 -5q12 -8 24.5 -10.5t26.5 -6.5q4 -2 8 -7.5t5 -11.5t-1 -11.5t-8 -6.5
q-20 -6 -42 -1q-11 3 -22 3.5t-22 -0.5q-20 -2 -42 -2.5t-42 2.5q-5 1 -10.5 5.5t-8.5 10.5t-2.5 12t6.5 9q2 1 9 1t6 5z" />
    <glyph glyph-name="y" unicode="y" horiz-adv-x="482" 
d="M146 444q-2 -3 -7 -6t-11 -6t-11 -6t-8 -7q-5 -8 -3 -20t4 -23q4 -21 11.5 -40.5t14.5 -32.5q8 -14 15.5 -28.5t15.5 -28.5q2 -2 3 -4l2 -4q7 -23 18.5 -42.5t20.5 -40.5q2 -5 5 -9t6 -9q4 -4 8 0l2 4q5 16 12.5 29.5t15.5 27.5q8 13 12 25l26 64l26 64q3 7 6.5 13.5
t6.5 13.5q8 17 3 29t-22 17q-7 3 -13.5 4.5t-13.5 3.5q-6 2 -8 8q-2 9 1 16q3 8 10 9q9 2 17.5 3t17.5 0q18 -1 36 -1.5t36 -4.5q6 -1 13 -0.5t14.5 0.5t13.5 -1t9 -6q4 -5 3 -11.5t-4 -12.5t-7.5 -11t-8.5 -8q-14 -8 -21.5 -15.5t-18.5 -21.5q-8 -11 -14 -23t-11 -25
q-7 -17 -14.5 -32l-15.5 -31q-4 -9 -6 -20q-1 -9 -4 -17t-8 -16q-14 -21 -24 -44l-20 -46q-10 -21 -19 -37q-7 -11 -12 -22t-9 -23l-10 -30l-10 -30q-5 -13 -9.5 -25t-8.5 -26q0 -2 -1.5 -5t-3.5 -5q-6 -11 -12 -20.5t-12 -19.5q-4 -8 -8.5 -15.5t-7.5 -15.5
q-1 -2 -1.5 -3.5t-1.5 -2.5q-8 -8 -12.5 -16.5t-9.5 -17.5q-11 -20 -29 -30.5t-38 -15.5q-5 -2 -8.5 -2h-8.5q-6 1 -12.5 2t-12.5 2q-8 2 -11 9q-2 6 -5 11.5t-5 11.5q-8 25 13 45q0 1 0.5 1t0.5 1q11 8 17 10t20 -1q11 -2 21.5 0.5t21.5 4.5q5 1 9.5 4.5t6.5 8.5q2 2 3 5
t3 5q2 3 2.5 6t2.5 5q10 14 17 30t15 32q6 11 9 23t5 24q2 7 0 14q-4 12 -6.5 25t-8.5 24q-4 9 -6 20q-5 20 -13.5 34t-16.5 31q-9 20 -15.5 40.5t-19.5 39.5q-12 17 -20.5 31.5t-12.5 35.5q-4 17 -11.5 32.5t-16.5 29.5q-11 15 -17.5 31.5t-20.5 28.5q-4 3 -9 4.5
t-10.5 2.5t-9 3t-4.5 7q-2 13 3.5 19.5t15 9.5t20 3.5t18.5 -0.5q13 -2 26.5 0t27 3.5t26.5 1.5t25 -4q3 -1 9 -2.5t12.5 -3.5t11 -5t4.5 -7q0 -3 -1 -4z" />
    <glyph glyph-name="z" unicode="z" horiz-adv-x="435" 
d="M23 466q13 0 25.5 1t25.5 4q9 2 18.5 1.5t18.5 -1.5q8 -2 11 -3q10 -1 16.5 -2t11.5 -1.5t10 0t14 1.5q21 3 42 0q6 -2 12.5 -1.5t12.5 0.5q14 1 33 1.5t31 -6.5q5 -3 7.5 -6.5t5.5 -7.5q7 -7 14 -12t2 -16q-2 -7 -8.5 -15t-12.5 -13q-3 -3 -5 -6.5t-4 -7.5
q-7 -11 -13.5 -21t-11.5 -21q-11 -21 -29 -42q-5 -6 -9 -12.5t-9 -12.5q-6 -10 -16 -23q-12 -15 -23 -30.5t-19 -33.5q-6 -15 -15 -27q-7 -8 -12.5 -16.5t-10.5 -18.5q-5 -11 -12 -20l-14 -18q-5 -7 -9.5 -13.5t-9.5 -13.5q-1 -2 0 -4t3 -2q5 0 10.5 -1t10.5 0q10 1 19 0.5
t18 -1.5q30 -3 56 4q10 2 19.5 4t19.5 3q13 0 21 8q10 10 20 17.5t18 19.5q5 8 10 15t16 8q14 0 18.5 -7t4 -17t-4 -21t-4.5 -18q-2 -15 -11.5 -28t-23.5 -20q-16 -8 -33.5 -6.5t-34.5 -0.5q-4 0 -8 -0.5t-8 -0.5q-12 1 -23.5 0.5t-23.5 -1.5q-21 -1 -42 1t-41 6
q-19 2 -37.5 1.5t-36.5 1.5q-14 2 -20 15t-1 26q4 12 13 24.5t17 22.5q2 3 4.5 6.5t4.5 6.5q7 10 14 19t13 20q9 13 12 30q3 16 15 26q8 7 14 14.5t15 12.5q2 2 3.5 4.5t3.5 4.5q8 11 17 25q2 2 4 6q5 9 10.5 17.5t10.5 16.5l21 36q8 14 15 26.5t15 26.5q2 2 3 5t3 5
q2 7 -4 7q-13 -1 -25.5 -0.5t-26.5 0.5q-11 1 -21 1t-21 2q-15 2 -28 -1q-12 -3 -22 -10.5t-20 -15.5t-21.5 -13.5t-24.5 -3.5q-7 1 -9.5 6t-2.5 11.5t1 13.5t2 12q1 4 1 12q1 9 1 13t1 6.5t4 5.5t9 10z" />
    <glyph glyph-name="D" unicode="D" horiz-adv-x="750" 
d="M2 -1q-1 5 -1.5 11t-0.5 11q0 10 1.5 13.5t15.5 5.5q9 2 18 5t18 5q10 2 16 9q2 3 8 9q8 8 8 19q1 10 1 19.5t1 19.5q0 8 -0.5 16.5t-0.5 16.5q0 10 3 21q2 5 3.5 9.5t5.5 9.5q3 3 5 7q-2 6 -4 9q-7 12 -7 22q0 9 -1 14q-3 11 -3.5 22t-0.5 22q1 11 1 21t1 21v9.5t2 9.5
q3 11 3.5 23t0.5 23q0 13 -0.5 25t-0.5 25q0 14 0.5 28t-1.5 28v4q2 14 0.5 28t-3.5 28q-1 5 -1.5 10.5t-2.5 10.5q-1 10 -9 19l-12 14l-12 14q-5 5 -11.5 8t-11 6.5t-5.5 9t4 15.5q5 11 16 13.5t22 2.5q29 1 58.5 -1t58.5 -2q22 0 44 -1t44 2q10 0 14 -1q34 -3 68 -3
q5 0 9.5 -0.5t9.5 -0.5q8 0 18 -5q8 -3 15 -5.5t15 -5.5q17 -6 33 -13l32 -14l4 -2q21 -15 42.5 -29t41.5 -31q14 -11 22 -21q0 -3 3 -4q13 -12 21.5 -27.5t17.5 -30.5q6 -10 11 -20.5t10 -21.5l6 -16t2 -17q-1 -6 3 -14q2 -4 3.5 -7.5t3.5 -7.5q5 -9 7 -19t3 -21
q2 -17 -6 -32q-5 -13 -7.5 -26t-3.5 -26q-1 -11 -4 -22t-5 -22q-3 -16 -9 -31q-6 -17 -16 -32q-5 -6 -8 -12.5t-7 -13.5q-5 -7 -4 -15q0 -5 -5 -8q-10 -5 -18 -12t-19 -12q-8 -3 -15 -11q-8 -11 -19 -20l-22 -18q-9 -8 -19.5 -12.5t-21.5 -9.5q-10 -3 -19 -2q-5 1 -9 0
t-9 -2q-14 -4 -28.5 -7t-28.5 -7q-23 -5 -51 -7q-4 0 -8 -0.5t-8 -0.5q-18 1 -35.5 0t-35.5 -3q-12 -1 -24 -0.5t-25 -0.5q-5 0 -11 0.5t-12 1.5q-23 2 -44.5 4.5t-44.5 4.5q-10 1 -20.5 0t-21.5 -2q-6 -1 -12.5 -1.5t-12.5 -0.5q-9 -2 -16 5zM300 50q15 -2 29.5 -2t29.5 2
q2 0 4.5 0.5t4.5 -0.5q19 -1 33 3t25 11.5t21.5 17.5t21.5 22q11 11 24 20t25.5 18.5t22 21.5t12.5 29q2 11 4 20.5t3 20.5q1 13 2.5 25t2.5 24q1 8 1 16.5v16.5q0 9 0.5 17.5t4.5 16.5q2 5 2 9.5t-1 9.5q-2 6 -4 11q-5 11 -8 23t-4 24q0 9 -6 18q-3 4 -5.5 7.5t-7.5 6.5
q-8 6 -8 18q0 9 1 14q0 5 -2 10l-4 10q-8 15 -19 28l-22 26q-6 8 -12.5 14t-14.5 12q-30 24 -72 32q-11 2 -21 4l-20 4q-19 3 -37.5 5t-37.5 2q-12 1 -24 -1t-24 -5q-14 -5 -22 -13t-9 -16q-1 -5 -1.5 -10.5t0.5 -10.5q3 -31 0 -61q-1 -24 0 -47q0 -27 3 -54q1 -5 0.5 -10.5
t-0.5 -10.5q1 -13 -1 -25.5t-2 -25.5q0 -5 -1 -9t-3 -9q-2 -7 -3 -13t-3 -12q-2 -7 1 -11q2 -4 6 -10q8 -14 4 -30q0 -3 -2 -9q-6 -20 -2 -39q2 -12 2 -24.5t-1 -24.5q-1 -10 -1.5 -19.5t-2.5 -20.5q-1 -10 -1.5 -19.5t1.5 -19.5q2 -14 4.5 -18t14.5 -12q1 0 2 -1
q5 -3 11 -2q44 8 86 5zM608 290h2q4 1 6 6q0 2 -1 2q-2 2 -4 2l-4 -2q-5 -2 -2 -5z" />
    <glyph glyph-name="one" unicode="1" horiz-adv-x="342" 
d="M189 83q3 -4 6.5 -7.5t6.5 -7.5q2 -2 4 -3.5t4 -1.5q9 -2 19 -5.5t16 -9t5 -13t-13 -16.5q-8 -6 -20.5 -8.5t-26 -2.5t-26.5 1t-23 2q-23 2 -46 0q-10 -2 -19 -2t-19 -1q-7 -1 -13.5 -1t-13.5 2q-6 2 -11.5 0t-9.5 -3t-6.5 1t-2.5 11q0 14 12.5 24t23.5 15q32 14 43 36.5
t9 59.5q-1 18 -1 36v37q1 8 1 15v15q0 5 0.5 9.5t-1.5 9.5q-4 14 1 32q1 3 1.5 6.5t1.5 6.5q3 17 -1 30q-6 19 -3 40q4 24 1 51q-1 15 -2 29.5t1 28.5q1 11 -4 23q-3 7 -10 10q-8 3 -16 2q-5 -1 -12.5 -3.5t-15 -3t-12.5 2.5t-5 12q1 11 9.5 13.5t14.5 7.5q8 6 15 12.5
t15 14.5q8 7 16.5 11.5t18.5 9.5q4 2 8 3.5t9 3.5q7 3 13.5 6.5t12.5 8.5t13.5 7.5t13.5 6.5q4 2 9 -1t5 -8q1 -7 0 -14q-1 -13 0 -26q2 -17 2 -34.5v-35.5q1 -3 0.5 -6.5t0.5 -7.5q2 -14 1 -28l-2 -28q-2 -15 -3 -30t0 -30q0 -8 -1 -16.5t-2 -16.5q-1 -12 -1.5 -24.5
t-1.5 -24.5q0 -3 1 -5q4 -6 3.5 -13t-0.5 -14q-1 -20 -1 -41t-1 -41q0 -5 -0.5 -10.5t-1.5 -10.5q-2 -19 1 -32l2 -12t1 -12q0 -11 2 -21t5 -21z" />
    <glyph glyph-name="two" unicode="2" horiz-adv-x="476" 
d="M357 130l10 -2.5t6 -4.5q5 -7 5.5 -17t-1 -21.5t-4.5 -22t-4 -17.5t-2.5 -13.5t-3.5 -13.5q-2 -8 -11 -8h-51h-122q-14 -1 -27 0t-27 -1q-6 -1 -14 2q-11 2 -22 2t-22 -2q-4 0 -7 -0.5t-7 -0.5q-26 -4 -41.5 3t-10.5 37q2 18 10.5 35.5t19.5 31.5l18 27q5 6 9.5 12
t9.5 12q6 8 12.5 15t12.5 15q15 21 33 38.5t36 34.5q11 9 20 20q14 16 27 32.5t26 33.5q6 8 12.5 16.5t13.5 16.5q2 4 4.5 8t5.5 8q14 20 14 48v14q2 5 5 7.5t6 5.5q6 5 5.5 8t-7.5 8q-4 2 -6 4q-9 4 -7 15q0 5 0.5 8.5t0.5 8.5q3 15 -5 29q-5 8 -10.5 14.5t-13.5 10.5
q-5 2 -8 5t-8 5q-6 4 -12 6.5t-14 2.5q-4 0 -7 0.5t-7 1.5q-14 4 -27.5 1t-27.5 -9q-17 -8 -27.5 -23t-5.5 -34q4 -13 8 -24.5t4 -22t-6.5 -19t-23.5 -15.5q-40 -14 -55 22q-8 19 -5 40.5t9 39.5q11 30 29.5 43.5t44.5 29.5q11 7 23 10t26 5q7 1 13.5 1t14.5 1q25 3 49 -1
q12 -2 24 -5l24 -6q4 -1 8 -3t9 -4q15 -9 28.5 -19.5t25.5 -24.5q11 -11 14 -29v-7q0 -10 0.5 -19.5t5.5 -19.5q2 -14 4.5 -27.5t0.5 -27.5q-2 -10 -3 -14q-7 -16 -8 -32q0 -10 -6 -17q-3 -5 -6 -9t-7 -8q-8 -8 -16 -16.5t-16 -17.5q-5 -5 -9 -9.5t-8 -9.5
q-5 -7 -10.5 -12.5t-13.5 -10.5q-4 -2 -5 -4q-4 -7 -10.5 -10.5t-12.5 -8.5q-24 -17 -44 -35q-17 -16 -32.5 -33.5t-31.5 -35.5q-5 -6 -11 -15t-12 -19t-11 -19t-7 -14t-3 -8.5t-2 -7.5q-3 -15 11 -15q10 0 14 1q14 3 28 1l28 -4q11 -2 22 -2.5t22 2.5q8 2 15.5 1.5
t15.5 -0.5q20 -1 41.5 2.5t35.5 17.5q7 8 10.5 20.5t14.5 10.5zM326 407q0 6 -6 6q-5 -2 -6 -7q0 -6 5 -6q7 0 7 7z" />
    <glyph glyph-name="three" unicode="3" horiz-adv-x="476" 
d="M344 441q-11 -12 -23.5 -20t-23.5 -17q-5 -4 -9.5 -5.5t-9.5 -4.5q-4 -2 -5 -4q-1 -1 -1 -3q6 -4 10 -6l28 -14t28 -15q11 -5 18.5 -13.5t14.5 -18.5q3 -5 6 -9t5 -9q6 -11 10 -21.5t5 -22.5q1 -11 2 -21t2 -21t0 -21q0 -17 -8 -29q-4 -9 -6 -20q-2 -14 -6.5 -25.5
t-14.5 -22.5q-7 -7 -12 -17q-8 -12 -17 -21.5t-19 -18.5q-5 -5 -15 -7q-7 0 -11 -3q-8 -3 -15 -6t-15 -7q-5 -2 -9.5 -6t-9.5 -7q-5 -5 -10 -4q-10 0 -19 -1t-19 -2q-32 -3 -60 1q-14 3 -24 1q-6 -1 -12.5 -0.5t-12.5 1.5q-16 2 -29.5 8t-26.5 15q-3 2 -5.5 4t-5.5 4
q-19 14 -19 36q1 2 0.5 4.5t-0.5 5.5q-1 14 9.5 16.5t24 0t26 -8t15.5 -7.5q28 -17 54.5 -26.5t59.5 -4.5q28 3 50 18q8 6 8 14q0 2 1.5 3.5l3.5 3.5q7 6 14 11t13 12l2 24t3 24q2 10 3.5 19t3.5 18q6 21 4 44q0 10 -3 21q-10 29 -32 54q-6 8 -18 10q-12 1 -24 4t-23 7
t-21 3t-20 -1.5t-19 -5.5q-3 -2 -9 0.5t-8 5.5q-5 10 -8 19q-2 2 1 7.5t5 6.5q6 2 9 2q11 2 20.5 5.5t19.5 8.5q18 8 33.5 19.5t30.5 22.5q9 8 12 17q4 13 15 24q8 8 11 18t7 19q2 4 1.5 7.5t-0.5 6.5q-2 16 -6.5 31t-12.5 29q-5 10 -13 14q-2 1 -8 5q-8 7 -18 9t-21 2
q-26 1 -46 -9t-38 -27q-2 -2 -4 -8q-2 -3 -2.5 -5.5t-2.5 -5.5q-3 -7 -4.5 -13t0.5 -14q3 -20 -7 -36q-2 -2 -3.5 -4.5t-3.5 -4.5q-13 -10 -24 -14q-7 -3 -14 -1q-4 2 -7 2.5t-6 2.5q-5 1 -9 7q-2 2 -4 4.5t-4 4.5q-6 6 -6 15q-3 17 0 35q4 16 11 25q2 4 4.5 7t4.5 7
q11 20 33 32q12 7 25 18q11 11 26 14q8 2 17 4.5t17 4.5t11 2q19 0 37 -0.5t35 -5.5q8 -2 16 -3.5t16 -3.5q16 -3 29 -10t25 -17q3 -2 5.5 -4.5t5.5 -4.5q16 -12 24 -28.5t12 -35.5q2 -12 1.5 -24t-5.5 -24q-3 -8 -5.5 -14.5t-5.5 -13.5q-2 -6 -4.5 -11.5t-1.5 -11.5z" />
    <glyph glyph-name="four" unicode="4" horiz-adv-x="535" 
d="M350 406q-2 -3 -2 -6.5t-2 -6.5q-4 -11 -1 -19q2 -8 2 -16t-2 -16q-8 -48 -3 -96q0 -6 8 -6q6 0 9 1q17 4 35 1q8 -2 14 1q3 1 6 1t5 1q17 2 26 -11v-13q1 -9 -5 -17q-4 -4 -6 -10q-5 -14 -23 -11q-4 1 -14 1q-7 1 -14 1.5t-14 0.5q-5 1 -9.5 1h-9.5q-9 0 -9 -8
q-2 -9 -3 -18t-1 -19v-24.5t1 -24.5q0 -6 2 -16q1 -14 16 -19q7 -3 16 -3q5 -2 11 -2t12 -1q3 0 6 -1t5 -2q5 -3 7 -9q1 -7 0 -14l-2 -14q-3 -5 -7 -5h-3q-9 2 -18.5 1.5t-18.5 -1.5q-5 0 -9.5 -0.5t-9.5 -0.5q-26 2 -51.5 0.5t-51.5 -0.5q-8 0 -16.5 -1t-16 0t-11.5 5
t-2 15q1 9 6.5 14.5t12 9.5t13.5 7.5t12 8.5q8 8 11 19.5t2.5 23.5t-2 24t-2.5 22q-1 6 -0.5 12.5t0.5 12.5q0 8 -8 8q-11 1 -21 1.5t-21 0.5q-11 1 -22 0t-22 1q-5 0 -7 -1q-20 -3 -40 -2t-40 -1q-6 -1 -12.5 -1t-12.5 -1q-12 0 -22 8q-3 3 -6 6.5t-6 7.5q-7 7 -9 19
q0 9 3 13q6 8 10.5 17t10.5 17q8 12 15.5 23.5t15.5 22.5q16 23 31.5 44.5t30.5 44.5q1 2 2 3t2 3q9 19 21.5 35.5t26.5 33.5q3 3 5 7q17 24 33.5 48.5t33.5 48.5q4 5 8 10.5t9 10.5q8 9 16.5 17t15.5 18q4 6 12 6q5 0 10.5 0.5t10.5 -0.5q5 -2 10.5 -4t11.5 -4q2 0 2 -3
q1 -5 1 -14q5 -4 4 -8t-1 -9q0 -14 -0.5 -27t-1.5 -27t-1 -27v-27q0 -3 0.5 -6.5t-0.5 -7.5q-3 -11 -3 -23t-2 -23q-1 -5 1 -14zM253 453q1 8 1 14.5v13.5v18t-1 17q0 1 -0.5 1t-0.5 1h-2q-5 -7 -10 -13t-10 -13t-9.5 -13.5t-9.5 -13.5q-14 -16 -26 -33.5t-23 -35.5
q-5 -8 -10 -16.5t-11 -16.5q-17 -22 -32 -44.5t-31 -45.5q-5 -6 -8 -12.5t-7 -13.5q-1 -2 0 -3.5t3 -1.5q12 -1 24 -1h25q12 0 24 -0.5t25 2.5h7q14 -1 28.5 -1.5t29.5 -1.5q9 0 14 1q4 2 4 5q2 8 2 14q0 10 -0.5 19.5t0.5 19.5q1 21 0 40q-1 11 -0.5 22t2.5 22q1 7 1.5 13
t0.5 13v44z" />
    <glyph glyph-name="five" unicode="5" horiz-adv-x="452" 
d="M326 564q-11 1 -21 0.5t-20 -4.5q-3 -1 -9 -1q-9 -1 -18 -1t-17 -1q-17 -2 -33 0q-11 2 -21 3.5t-20 3.5q-3 1 -6 1t-6 1q-8 0 -15 1t-15 4q-6 3 -13 1q-10 -2 -10 -9q1 -17 -1.5 -32.5t-4.5 -32.5q-1 -5 -1.5 -8.5t-1.5 -7.5q-2 -11 -4.5 -21t-3.5 -21q-1 -6 -3 -12
t-1 -13q0 -1 1.5 -2t1.5 0q5 4 10.5 4.5t10.5 2.5q6 2 12 2t12 1l18 3q31 5 58 -4q17 -5 30 -4q9 2 16 -1t15 -8q10 -7 19.5 -14.5t17.5 -16.5q6 -6 10.5 -13t8.5 -14q4 -5 6.5 -10.5t7.5 -10.5q7 -8 8 -17q3 -16 11 -36q5 -10 7 -21l4 -22q1 -9 -5 -17q-2 -3 -8 -9
q-2 -6 -0.5 -11.5t1.5 -11.5v-12t2 -11q4 -11 -4 -23q-8 -9 -13.5 -20t-13.5 -21q-7 -9 -13 -19l-12 -20q-2 -4 -4.5 -8t-4.5 -8q-4 -7 -13 -13l-18 -6t-17 -8q-6 -2 -11 -2h-14q-8 2 -14 -3q-10 -8 -21 -10t-23 -1q-5 0 -8.5 0.5t-8.5 0.5h-5.5t-5.5 -1q-18 -9 -38.5 -3
t-39 20.5t-33 33t-18.5 33.5q-3 11 -2.5 23t14.5 15q11 3 17.5 -3.5t11.5 -16t9 -20t10 -15.5q15 -12 37 -18t41 -7q7 -1 14 0l14 2q3 0 5 1q22 8 41 21q11 8 17 22q2 5 5 10.5t5 11.5q2 7 5 14t7 13q6 12 6 25q0 27 6 56q1 5 0.5 9t-1.5 9q-3 12 -6 23.5t-6 22.5
q-1 4 -2 7.5t-2 8.5q-2 11 -9 18.5t-15 14.5q-2 2 -4 2q-8 2 -15 5.5l-15 7.5q-2 2 -3 2t-3 1q-14 8 -28 8.5t-29 -3.5q-10 -2 -19 -4.5t-20 -1.5q-10 0 -15 -5t-11.5 -7.5t-13.5 -4.5q-8 -5 -15 1q-8 6 -11 9q-4 4 -4 11q1 10 1 20t2 20q3 21 5 42.5t3 43.5q1 6 1 11.5
t2 11.5q2 5 2 10.5v10.5q1 11 1.5 21t4.5 20q2 6 2 10q0 11 2.5 22.5t2.5 23.5q0 4 0.5 7t1.5 7q2 7 10 9h10q10 -2 18 2q6 4 16 2q7 -1 14 -1.5t14 -2.5q33 -6 65 -3q7 0 13 1t13 1q5 1 9 1h9q14 -1 26.5 -0.5t24.5 4.5q8 2 12 2h14t14 -1q3 0 6.5 -2.5t3.5 -5.5
q0 -11 0.5 -20.5t-4.5 -19.5q-2 -3 -2.5 -7t-2.5 -8q-2 -5 -3.5 -9.5z" />
    <glyph glyph-name="six" unicode="6" horiz-adv-x="482" 
d="M405 200q-1 -14 -1 -26t-5 -23q-2 -4 0 -7q4 -8 -1 -16q-2 -2 -2.5 -5t-2.5 -5q-3 -8 -6.5 -15t-6.5 -15q-11 -11 -20.5 -21.5t-20.5 -20.5q-8 -6 -16.5 -12t-16.5 -11q-5 -3 -11 -6t-12 -5q-13 -3 -28 -11q-14 -9 -31 -7q-14 1 -27 1t-27 2q-19 2 -37 7t-35 12l-6 3
q-10 8 -20 16.5t-20 16.5q-5 5 -7 12q-5 10 -8.5 19.5t-5.5 20.5q-2 8 -4.5 15.5t-7.5 14.5q-8 11 -10 28q-2 8 -3 17l-2 18q-1 8 -2.5 17t-1.5 17v13.5t2 12.5q2 10 4 19.5t5 19.5q5 21 6 41q3 31 17 61q9 22 22.5 41.5t27.5 39.5q9 13 19 25t21 24q8 9 15.5 16.5
t17.5 12.5q6 3 11 7t10 9q14 14 35 27q8 5 16.5 10.5t16.5 10.5q13 10 30 13q6 2 12.5 3.5t12.5 3.5q21 5 39 2q4 0 6 -3.5t0 -7.5q-3 -8 -8.5 -14t-13.5 -9q-2 -1 -5 -1.5t-5 -2.5q-11 -8 -23 -15t-23 -13q-16 -9 -28 -22q-5 -7 -11 -13t-12 -13q-11 -11 -20 -24t-20 -25
q-14 -22 -27 -44t-22 -46q-1 -2 -0.5 -3.5t0.5 -3.5l1 -1q4 1 7.5 1t6.5 2q6 3 13 4l14 2q10 2 19.5 2.5t19.5 1.5q13 1 25 0t24 -5q14 -6 31 -9q9 -2 17.5 -4.5t16.5 -6.5q12 -4 24 -18q13 -14 23.5 -29t18.5 -32q6 -16 9 -29q2 -17 3.5 -32.5t3.5 -29.5zM101 236v-65
q0 -12 2 -23t8 -22q2 -4 3 -8t3 -8q4 -12 10 -23q6 -12 17 -19q9 -5 18 -10.5t17 -13.5q5 -4 15 -4q11 2 22 3.5t22 3.5t19 8t15 12l14 12q6 5 9 12t5 15q0 3 0.5 5.5t0.5 5.5q3 26 10 46q2 5 2.5 10t2.5 10q2 9 1 14q-2 10 6 20q1 1 3 5q2 2 1 5.5t-4 4.5q-2 1 -3 2t-3 1
q-8 0 -11 8l-4 8t-2 9q-3 15 -11 28l-12 18t-12 17q-6 9 -16 12q-14 5 -27.5 8.5t-27.5 3.5q-6 1 -11.5 1.5t-11.5 1.5q-22 2 -39 -4q-5 -2 -8.5 -4.5t-7.5 -4.5q-4 -4 -4 -6q-3 -8 -5.5 -15.5t-2.5 -15.5q-2 -19 -2 -36t-1 -28zM338 272q0 5 -6 5q-4 0 -4 -5q-2 -5 6 -5
q4 2 4 5z" />
    <glyph glyph-name="seven" unicode="7" horiz-adv-x="441" 
d="M95 -5h-21q-8 0 -10 2t1 10q2 5 3 10t3 10q8 25 23 40q6 6 7 12q2 16 7.5 30.5t11.5 29.5q3 6 5.5 12t2.5 12q3 24 12 45q10 23 20 45t23 43q6 10 10.5 19t7.5 20q5 16 10.5 31t12.5 30q11 24 20.5 48t20.5 49q6 14 12.5 28.5t13.5 28.5q2 6 2 9l-3 3q-1 1 -2 0
q-7 -3 -13.5 -3h-14.5h-12.5t-12.5 -1q-14 0 -26.5 0.5t-24.5 3.5q-15 3 -26 2q-9 -2 -17.5 -2t-17.5 -2q-3 -1 -6.5 -0.5t-7.5 0.5q-7 0 -16 0.5t-19 0.5t-18.5 -1.5t-14.5 -4.5q-6 -4 -7.5 -12t-2.5 -15.5t-4 -12t-12 -0.5q-11 5 -13 15t-2 21v45.5t7 45.5q0 2 2 6
q4 5 8 4q7 0 13 -3q23 -11 52 -11q15 -1 29.5 -2t29.5 -2h51q4 0 7 0.5t7 1.5q5 1 9 1.5t9 0.5q19 1 37.5 3t37.5 5q31 4 68 1q6 0 10 -7q6 -9 3 -18q-4 -12 -7.5 -24t-7.5 -23q0 -3 -2 -7q-9 -15 -16 -31t-17 -31q-5 -6 -7.5 -13t-5.5 -14q-5 -18 -11.5 -35.5t-13.5 -35.5
q-8 -17 -14 -35.5t-13 -36.5q-8 -20 -17 -39.5t-20 -38.5q-5 -9 -8.5 -18t-7.5 -19l-4 -12l-4 -12q-5 -14 -9.5 -27.5t-10.5 -27.5q-2 -6 -3.5 -12t-3.5 -12q-7 -22 -18 -46q-8 -13 -13 -32q-2 -4 -2 -8v-9q-2 -11 -7 -19t-14 -8h-28v-1z" />
    <glyph glyph-name="eight" unicode="8" horiz-adv-x="488" 
d="M148 350l-27 13.5t-27 11.5q-10 3 -11 13q-1 9 -10 16q-11 7 -17 21q-2 7 -6 13t-7 12q-14 21 -12 45v13.5t1 14.5q0 6 3 11q9 13 17 26.5t18 25.5q4 5 8 9t10 6q9 4 13 9q6 9 14.5 13t18.5 8q12 6 26 9q7 3 14 3h79h14.5t13.5 -2q17 -5 31 -14.5t25 -22.5q17 -22 28 -49
q5 -13 5 -25q2 -29 -4 -53q-1 -5 -1.5 -9.5t-1.5 -9.5q-1 -6 -4 -11.5t-8 -7.5q-20 -9 -34 -27q-5 -5 -11 -8q-10 -6 -19.5 -12t-17.5 -13q-2 -2 -4 -2.5t-4 -2.5q-1 -2 -1 -3.5t-1 -3.5q0 -4 2 -6q0 -2 2 -2q11 -5 19.5 -12t18.5 -14q5 -3 10 -5.5t11 -4.5q10 -3 21 -15
q7 -11 18 -18q9 -6 15 -15q10 -14 18 -30q2 -6 4.5 -12t5.5 -11q6 -11 7.5 -23.5t3.5 -24.5q1 -7 -1 -14t-4 -13q-5 -10 -9 -19.5t-12 -17.5q-9 -11 -16 -23t-16 -20q-5 -4 -9 -7.5t-8 -8.5q-14 -18 -33 -29t-40 -20q-5 -2 -9 -3t-9 -1q-14 -2 -27 -4l-26 -4
q-8 -2 -14.5 -1.5t-13.5 2.5q-5 2 -10 3.5t-10 3.5t-10.5 4t-11.5 4q-9 3 -18 5t-18 5q-8 3 -15.5 7.5t-16.5 6.5q-6 1 -11 8q-7 9 -12 19.5t-10 21.5l-6 16t-8 16q-10 19 -10 43v12t-1 11q-1 12 5 25q5 11 9.5 20.5t9.5 19.5q8 15 19 26.5t25 21.5q11 8 22 15.5t22 14.5
q8 5 16 11.5t16 12.5q2 1 2 2.5t2 3.5zM321 153q-1 8 -1 15t-2 15q-2 15 -8 28t-19 22q-4 4 -7 6q-12 9 -20 23q-8 16 -23 25q-5 3 -9.5 5.5t-8.5 6.5q-8 7 -17.5 11t-18.5 9q-5 3 -11 -3q-2 -4 -3 -8t-4 -7q-5 -5 -8.5 -9t-8.5 -9t-11.5 -6.5t-11.5 -5.5q-2 -1 -3.5 -1.5
t-3.5 -1.5q-2 -2 -3.5 -2.5t-3.5 -2.5q-5 -5 -9 -10t-6 -11q-5 -13 -10.5 -25t-10.5 -24q-11 -28 6 -48q2 -2 3 -4l2 -4q3 -6 5 -12t0 -13q-2 -5 -0.5 -9t2.5 -9q1 -17 17 -27q6 -4 12 -7.5t12 -6.5l42 -15q13 -5 25 -2q8 2 15 2t15 1q12 0 23 3q10 3 15 8q10 10 18.5 20.5
t13.5 24.5q3 8 6 15t5 15q5 15 5 28zM117 516q0 -17 8 -25q9 -9 16.5 -18.5t15.5 -18.5q4 -4 7.5 -8t5.5 -9q5 -9 12 -16t15 -12q11 -7 17.5 -6t16.5 10q1 0 1 0.5t1 0.5q9 11 18 20.5t17 20.5q13 15 12 32q0 5 1 9t3 9q2 6 3.5 11.5t0.5 11.5q-3 13 10 21q1 1 1.5 2t1.5 2
v4q-2 2 -4 4.5t-4 4.5q-5 3 -9 6t-7 8q-5 8 -19 12q-11 4 -25 4q-6 0 -12 0.5t-11 2.5q-17 5 -32 -3q-7 -4 -13.5 -7.5t-11.5 -9.5q-1 -4 -7 -6q-10 -3 -15 -14q-4 -9 -7 -18.5t-6 -18.5q-1 -2 -1 -6zM320 576q0 -1 -1 -2t-1 -2q2 -7 9 -7l2 1q-2 8 -9 10z" />
    <glyph glyph-name="nine" unicode="9" horiz-adv-x="442" 
d="M393 409q-1 -5 -1 -11.5t-1 -14.5q-2 -15 -2 -30t2 -31v-14q-3 -27 -14 -54q-6 -14 -13 -28.5t-15 -28.5q-5 -10 -12 -17q-5 -5 -9 -9.5t-8 -9.5q-11 -12 -21 -24t-21 -23q-5 -5 -7.5 -9.5t-7.5 -8.5l-10 -8l-10 -8l-18 -15q-12 -10 -26 -17.5t-28 -14.5l-15 -7.5
t-12 -11.5l-3 -3h-2q-11 1 -21.5 -3t-21 -7.5t-21 -4.5t-20.5 6q-11 8 -12.5 23t6.5 26q6 7 11 8t10.5 0t11.5 -3.5t13 -3.5q15 -2 31 2.5t31 13.5t27.5 21t20.5 25q7 12 14.5 23.5t14.5 24.5q5 8 9 17t8 19q3 8 8 16l10 16q8 8 5 22q0 2 -2 4t-4 1q-7 -2 -14 -2t-14 -1
q-5 0 -9 -1t-9 -2q-12 -3 -23 -3q-17 -1 -34 0.5t-34 3.5q-20 1 -39.5 13.5t-36 30t-29.5 38t-19 37.5q-4 12 -5.5 29t-1.5 35t2.5 34.5t5.5 28.5q4 16 18.5 34t22.5 32q14 26 34 45l21 15q10 7 25 13q23 11 45 10q7 0 13 0.5t13 1.5q13 0 25 -3q17 -5 33.5 -10t32.5 -12
q11 -5 19.5 -11.5t14.5 -17.5q5 -8 12 -14q7 -7 12 -15.5t9 -17.5q6 -14 11.5 -28t11.5 -28l3 -9q4 -17 7 -35t2 -39zM308 419v9q2 12 1 24t-3 25q-2 6 -4 11t-3 11q-3 27 -20 52l-3 6q-4 8 -10 14.5t-12 12.5q-1 1 -6.5 3.5t-11.5 5.5t-11.5 5.5t-6.5 2.5h-5q-3 0 -6 -0.5
t-5 -0.5q-8 -1 -14.5 -2.5t-13.5 0.5q-2 1 -4.5 0t-4.5 -2q-4 -2 -7.5 -3.5t-7.5 -2.5q-13 -4 -19 -17q-6 -11 -12 -21t-13 -21q-18 -29 -18 -60q0 -4 -0.5 -7.5t-0.5 -8.5q-1 -7 0 -14q2 -11 3.5 -22t3.5 -22q5 -19 13 -32q5 -8 10.5 -16.5t11.5 -16.5t10 -10q15 -9 26 -23
q3 -3 7.5 -5.5t9.5 -2.5q7 0 13 -1t12 -3q10 -2 20 -1t19 6q8 5 17 7.5t18 4.5q13 5 17 15q2 7 4.5 13t2.5 14q0 9 1 14q2 14 3 29t-1 30z" />
    <glyph glyph-name="zero" unicode="0" horiz-adv-x="517" 
d="M211 -7h-10q-11 -2 -20 0.5t-18 6.5q-8 3 -15 6t-15 5q-13 4 -25 16q-10 9 -17 17t-13 16.5t-11.5 17.5t-12.5 21q-8 14 -13.5 29t-12.5 29q-3 7 -2 14q0 3 0.5 6.5t-0.5 7.5q0 5 -3 8q-2 2 -4.5 4t-4.5 4q-3 3 -3 6q-2 15 -4.5 29.5t-1.5 29.5q0 13 -1 25.5t-3 25.5
q-1 6 -1 12.5v13.5q1 8 2.5 15t2.5 15q0 8 1.5 15t2.5 15q2 14 5.5 26.5t5.5 25.5q5 14 8 27.5t9 26.5q8 17 16.5 34t22.5 31q3 2 5.5 5t5.5 5q5 5 9.5 9t9.5 9q12 14 25 19q5 1 13 7q11 9 23 13t26 6l33 3h7l24 -6t23 -9q7 -5 14 -8t14 -7q14 -8 26 -19.5t23 -23.5
q3 -3 7 -9q3 -8 7 -13q6 -7 9 -15t6 -17q4 -13 9.5 -25t11.5 -24q4 -8 6.5 -16t1.5 -16q-1 -11 1.5 -20t4.5 -19q1 -8 2 -14.5t3 -13.5q1 -9 0 -19q-1 -5 -1 -9v-9q-1 -8 -1 -16.5t-1 -16.5q0 -4 -0.5 -7t0.5 -7q2 -12 1.5 -23.5t-1.5 -23.5q-2 -11 -3.5 -23t-1.5 -23
q0 -7 -3 -13t-6 -11q-4 -7 -7 -12.5t-4 -13.5q0 -3 -2 -7q-7 -11 -13.5 -22t-14.5 -22q-10 -15 -21.5 -28.5t-24.5 -26.5q-3 -4 -6.5 -7t-7.5 -6q-11 -7 -21 -13t-21 -12q-18 -11 -43 -11h-12zM196 595q-4 -1 -9 -6.5t-9.5 -12.5t-8 -14t-6.5 -11q-9 -13 -19.5 -27.5
t-19.5 -30.5t-15.5 -33t-7.5 -33q-2 -28 -0.5 -58t-3.5 -57q-13 -74 7 -144q2 -3 1.5 -6.5t-0.5 -7.5q1 -15 10 -26q3 -5 5.5 -9t5.5 -9l10 -14t10 -13q7 -8 13.5 -14.5l13.5 -13.5q3 -2 11 -6q4 -1 8 -1.5t8 -1.5q20 -7 41 5q4 2 12 8q19 16 35 33t24 42q9 28 14 56.5
t12 57.5q9 38 5 77.5t-5 77.5q0 19 -5 37t-11.5 35t-14 34.5t-12.5 34.5q-4 11 -13 20q-5 5 -10.5 9.5t-10.5 9.5q-6 6 -10 8q-10 5 -20 7t-21 -1q-3 -1 -6.5 -1t-7.5 -1zM44 224q-1 4 -1.5 8t-1.5 9l-2 1q-3 -3 -3 -2q-3 -10 1 -17q1 -1 4 -1q1 0 3 2z" />
    <glyph glyph-name="exclam" unicode="!" horiz-adv-x="157" 
d="M105 730q12 -8 16.5 -20.5t-0.5 -26.5q-8 -23 -7.5 -50.5t-4.5 -51.5q-5 -18 -10.5 -35t-8.5 -35q-6 -45 -4.5 -90.5t0.5 -91.5q0 -8 -2.5 -22.5t-7.5 -28t-12.5 -21t-18.5 0.5q-7 4 -10 11.5t-4 16.5t-1 18t-1 16q-3 16 -7 31.5t-7 31.5t-1.5 31t0.5 31q0 15 -4 29.5
t-4 29.5q-1 14 2 28t-3 28q-5 9 0 20q3 9 2.5 17.5t-1.5 17.5q-5 30 -6 60q-1 11 2 22t11 20q3 3 5.5 7t4.5 8q13 19 37 18q13 1 26 -7q11 -6 19 -13zM109 122q0 -1 0.5 -2t0.5 -2q3 -9 3 -16q0 -21 -12 -32q-4 -3 -7.5 -6.5t-8.5 -5.5q-8 -6 -18 -4q-9 2 -17.5 4t-16.5 4
q-2 1 -2.5 1.5t-2.5 1.5q-8 7 -14.5 15t-8.5 19q0 2 -0.5 3t0.5 3q2 7 2.5 13t1.5 13q0 3 1 5.5t2 5.5q4 11 17 18q2 1 5 1q29 11 49 -1t26 -38z" />
    <glyph glyph-name="quotedbl" unicode="&#x22;" horiz-adv-x="315" 
d="M159 652q1 -4 1.5 -7t0.5 -6q0 -5 -3 -5q-8 -3 -16 -2.5t-14 8.5q-6 7 -11.5 13.5t-11.5 12.5l-4.5 4.5t-4.5 3.5q-12 5 -20 14l-2 2q-11 6 -19.5 14.5t-16.5 18.5q-3 4 -9 6q-10 4 -15 15q-2 8 -8 13l-4.5 4.5t-1.5 5.5q2 11 10 15q24 12 51 18q4 0 6 1q10 2 17.5 -2
t14.5 -11q2 -2 4 -8q2 -5 2.5 -10t1.5 -10q0 -10 6 -17q5 -6 8.5 -12.5t7.5 -13.5q4 -8 8 -15.5t9 -14.5q7 -8 11 -16.5t2 -18.5zM287 652q1 -4 1.5 -7t0.5 -6q0 -5 -3 -5q-8 -3 -16 -2.5t-14 8.5q-6 7 -11.5 13.5t-11.5 12.5l-4.5 4.5t-4.5 3.5q-12 5 -20 14l-2 2
q-11 6 -19.5 14.5t-16.5 18.5q-3 4 -9 6q-10 4 -15 15q-2 8 -8 13l-4.5 4.5t-1.5 5.5q2 11 10 15q24 12 51 18q4 0 6 1q10 2 17.5 -2t14.5 -11q2 -2 4 -8q2 -5 2.5 -10t1.5 -10q0 -10 6 -17q5 -6 8.5 -12.5t7.5 -13.5q4 -8 8 -15.5t9 -14.5q7 -8 11 -16.5t2 -18.5z" />
    <glyph glyph-name="numbersign" unicode="#" horiz-adv-x="473" 
d="M181 463q5 -3 10.5 -3h10.5q10 0 19.5 0.5t19.5 -0.5h18t17 1q4 0 5 1q4 2 5 4q5 11 7 26q4 17 7 34l6 34q2 11 5 23t6 23q0 2 2.5 3.5t4.5 0.5q8 0 15 -0.5t15 -1.5q7 0 7 -7q-3 -18 -6.5 -36.5t-8.5 -36.5q-2 -5 -2.5 -10.5t-1.5 -10.5q-2 -11 -2.5 -20.5t-1.5 -20.5
q3 -3 8 -3t10.5 0.5t10.5 -0.5q25 -2 44 1h6l10 -10q7 -6 4 -14q-2 -5 -3.5 -8.5t-3.5 -8.5q-1 -3 -0.5 -6t-2.5 -5q-3 -3 -7 -3t-8 -1q-27 -3 -54 -3h-5q-8 -1 -13 -1.5t-7.5 -2.5t-4 -6.5t-2.5 -11.5q-1 -6 -2 -12.5t-3 -12.5q-3 -9 -3.5 -18.5t-0.5 -18.5q0 -5 6 -5
q8 0 14.5 -0.5t13.5 -0.5q10 1 19 0l18 -2l12 -3q3 -11 0 -21q-1 -5 -2 -9.5t-2 -9.5q0 -10 -3.5 -11.5t-11.5 -2.5q-17 -2 -35 0q-8 1 -15 1t-15 1q-2 0 -3.5 -0.5t-3.5 -0.5q-1 -1 -2 -1.5t-2 -1.5q-3 -14 -8 -27t-8 -27q-2 -13 -4.5 -25t-4.5 -24q-2 -9 -3.5 -18
t-3.5 -18q0 -2 -3 -5q-5 -2 -9 -1.5t-9 0.5q-5 -1 -8.5 -1.5t-8.5 -0.5q-4 0 -4 4q2 9 0 17q0 5 1 9t2 9q1 6 2 11.5t2 11.5t1.5 12t1.5 11q2 11 3 20.5t3 20.5q1 5 1.5 9.5t0.5 9.5q1 2 -0.5 3t-3.5 1q-4 1 -12 1h-10.5t-10.5 1q-8 0 -16 0.5t-16 -1.5q-7 -1 -13 -0.5
t-13 -0.5q-6 0 -9 -1q-4 -10 -5.5 -19.5t-3.5 -18.5q-2 -6 -3 -12t-3 -11q-4 -13 -7.5 -25t-7.5 -25q-2 -7 -3 -13.5t-1 -13.5q0 -8 -1 -11q-1 -5 -5 -7.5t-9 -1.5l-10 2l-10 2q-5 2 -5 6q0 3 1 4q3 9 3.5 17.5t2.5 17.5q2 11 3.5 22t5.5 22q1 2 1 6q1 14 3 26.5t3 25.5
q1 5 -6 7q-4 0 -7.5 0.5t-6.5 0.5h-20.5t-19.5 1q-5 0 -8.5 0.5t-7.5 1.5q-10 2 -10 10q0 4 -1 6q-4 16 4 26q1 2 0.5 3t1.5 3q3 3 5 3h9q7 -1 14 -1.5t14 -0.5q5 0 8.5 -0.5t7.5 1.5q10 2 19 2t19 1q3 6 4 9t1 8q1 12 2.5 24.5t5.5 24.5q1 3 1.5 6.5t1.5 6.5q2 10 -11 10
q-4 0 -7 -0.5t-7 -0.5q-12 -1 -24.5 -1t-24.5 2q-2 1 -4.5 1t-4.5 1q-6 3 -7 8q0 2 -0.5 3.5t0.5 3.5q1 8 2 16.5t3 16.5q0 2 2 4q5 2 9 2h9q12 0 23.5 -0.5t23.5 -0.5q8 -1 15 -0.5t15 3.5q5 7 7 14t4 15q1 5 1.5 9t-0.5 9q0 11 2 20.5t5 20.5l6 18q5 15 4 26q0 3 2 9
q3 13 19 13q8 0 12 -1q10 -2 12 -11q0 -10 3 -19q2 -8 -0.5 -16t-6.5 -16l-6 -9q-4 -6 -6.5 -12.5t-0.5 -13.5q2 -8 0 -15.5t-4 -15.5q-2 -5 -3.5 -10.5t0.5 -10.5zM172 404q-2 -5 -3 -10t-3 -10q-4 -10 -5 -15q-2 -11 -4 -21.5t-4 -21.5q-2 -8 1 -10t12 -4q6 0 9 -1
q15 -3 33 2q10 3 23 3h14q10 1 12 3.5t3 10.5q1 2 1 4.5t1 4.5q5 14 6.5 27t3.5 27q2 7 -6 7q-8 2 -14 1q-8 0 -15 0.5t-15 3.5h-7h-21.5t-21.5 -1z" />
    <glyph glyph-name="dollar" unicode="$" horiz-adv-x="454" 
d="M234 382q11 -15 27 -22q8 -3 16 -7t16 -7q51 -18 90 -61q7 -9 14 -22q4 -8 7.5 -17t4.5 -20q0 -6 1.5 -11.5t2.5 -11.5q4 -22 0 -44q-2 -10 -3 -19t-3 -18q-1 -5 -3 -10l-4 -10q-2 -2 -2.5 -4t-2.5 -4q-16 -17 -28 -40q-4 -7 -14 -16q-8 -6 -15 -11.5t-15 -10.5
t-16.5 -8.5t-18.5 -5.5q-8 -2 -17 -3.5t-17 -4.5q-5 -2 -10 -2.5t-10 -1.5t-9.5 -1t-9.5 -1q-4 0 -4 -4q-2 -17 0 -33q0 -5 -0.5 -9t-2.5 -9q-1 -2 -2 -4.5t-1 -4.5q1 -9 -4 -12.5t-13 -5.5q-4 -1 -7.5 -2t-8.5 -2q-8 -2 -8 6q-1 17 -1 35t-1 35q0 3 -0.5 6t-0.5 6
q-5 1 -9 2t-8 1q-17 1 -39 8q-11 3 -22 6.5t-22 7.5q-8 3 -15 4t-15 2q-8 2 -8 7q-2 10 -3.5 19.5t-3.5 19.5q-2 15 -5 29.5t-6 28.5l-4 18t-1 19q0 5 5 7q4 2 7.5 3.5t7.5 3.5t9 -0.5t7 -6.5q2 -2 3 -4q0 -2 0.5 -4.5t0.5 -4.5q9 -46 43 -73q6 -5 12 -9.5t12 -8.5t12 -6.5
t14 -3.5q7 0 13.5 -1.5t13.5 -3.5t7 5q1 3 2 6.5t1 6.5q-2 11 0.5 22.5t2.5 22.5q1 8 1.5 16t1.5 16q1 14 2 27t1 27q1 14 1.5 27t-0.5 27q-1 9 -1 18.5v18.5t-6 11q-12 5 -22 11.5t-21 12.5q-19 11 -36.5 23.5t-36.5 23.5q-2 2 -4.5 3.5t-4.5 3.5q-9 8 -12 17
q-5 15 -8.5 29.5t-5.5 29.5q-1 6 -0.5 12t0.5 12q0 19 10 33q4 7 7.5 14l7.5 15q8 13 16 24.5t16 24.5q5 6 9.5 11.5t11.5 9.5q5 3 9 6.5t8 6.5q5 2 8.5 4.5t8.5 3.5q14 5 27.5 9.5t28.5 4.5q5 0 7 1q3 2 5 5q1 2 1 7q1 14 1 29t1 29q0 11 12 14q3 1 6 1t6 1q17 2 21.5 0
t0.5 -23q-4 -25 -3 -49q0 -5 1 -7t3 -4t4 -2q17 -3 34 -8.5t34 -8.5q8 -2 15.5 -4.5t15.5 -4.5q10 -1 10 -11q0 -2 0.5 -4.5t0.5 -5.5q2 -17 4.5 -33t6.5 -33q2 -9 2.5 -18.5t0.5 -19.5q1 -2 -1.5 -5t-4.5 -3q-5 -1 -10.5 -1.5t-10.5 -0.5t-8 4q-1 4 -2.5 7.5t-2.5 8.5
q-3 19 -16 35q-5 8 -10.5 14.5t-12.5 12.5q-3 3 -6.5 6t-8.5 5q-8 5 -16 8t-16 7q-2 1 -5 -1t-3 -4q1 -9 0 -18t-3 -17q-2 -9 -1.5 -18t0.5 -17v-9.5t-1 -9.5q-3 -16 -4 -31.5t-2 -31.5q-1 -14 -1 -28v-28zM215 86q1 -11 1 -21.5v-21.5q1 -6 8 -6q36 2 64 21q3 2 6 3.5
t6 2.5q8 3 11 11q2 5 3.5 11t3.5 12q5 14 8 28.5t0 30.5q2 13 -0.5 24.5t-7.5 23.5q-2 2 -2.5 5t-2.5 6q-1 2 -1.5 4t-2.5 4q-14 19 -33 29q-8 4 -16 7.5t-16 7.5q-3 2 -6.5 2t-6.5 1q-4 0 -6 -4q0 -3 -0.5 -5.5t-0.5 -5.5q-1 -7 -1 -13t-1 -13q-3 -17 -3.5 -34.5t0.5 -35.5
v-23q-1 -13 -2 -25.5t-2 -25.5zM110 501v-22q2 -9 5 -13q8 -11 16 -21.5t20 -17.5q12 -8 25 -21q2 -2 4 -3q3 -3 6 -1q2 2 2 3q1 5 1.5 8.5t0.5 8.5v36t1 36q1 23 1 46.5t3 46.5q2 14 -1.5 15t-15.5 -3t-25 -12q-8 -5 -13 -13q-3 -6 -6 -11.5t-6 -10.5q-4 -6 -8 -11t-6 -11
q-3 -7 -2.5 -14t-1.5 -15z" />
    <glyph glyph-name="grave" unicode="`" horiz-adv-x="25" 
d="M71 704q1 -1 2.5 -1t3.5 -2q8 -7 14.5 -14t11.5 -16q5 -8 9.5 -16t7.5 -17q2 -6 5.5 -11.5t8.5 -9.5q10 -7 15 -21q5 -9 8 -18t6 -19q2 -6 0.5 -11.5t-4.5 -10.5q-2 -3 -3 -3q-5 -2 -8.5 -3t-7.5 -1q-2 0 -4 1l-4 2q-5 5 -9.5 9t-9.5 9q-4 5 -7.5 9t-8.5 8
q-7 5 -12.5 10.5t-10.5 12.5q-3 4 -6.5 7t-7.5 6q-11 6 -18 14.5t-14 18.5q-2 2 -3.5 4.5t-3.5 5.5q-3 5 -10 9q-2 2 -4.5 4t-4.5 4t-2 7t2 8q9 10 21 15q10 2 20 4.5t21 5.5h7z" />
    <glyph glyph-name="underscore" unicode="_" horiz-adv-x="858" 
d="M64 -50q8 -1 14.5 -1.5t13.5 -2.5q15 -3 26 -2h24.5t24.5 2q20 3 39.5 3.5t39.5 -0.5q4 0 10 -2q13 -3 26 -3.5t27 1.5t27 1.5t27 -0.5q5 0 10.5 -0.5t10.5 1.5q11 2 22 2t22 -2q7 -1 13 -1.5t13 -0.5q8 1 17 -1t17 -4q8 -3 9 -10q1 -3 2 -6.5t1 -7.5q1 -7 -3 -13.5
t-11 -8.5q-3 -1 -9 -1q-5 1 -9.5 1.5t-9.5 1.5q-6 1 -12.5 0.5t-12.5 -3.5q-8 -5 -16.5 -5.5t-17.5 0.5q-18 3 -33 2q-8 0 -15 1t-15 3q-33 6 -65 0q-14 -2 -26.5 -2t-26.5 4q-22 6 -44 2q-8 -2 -16.5 -2.5t-16.5 -0.5q-26 1 -51.5 2t-51.5 3q-7 1 -13.5 2t-12.5 5
q-4 2 -9 7q-4 4 -3 10t5 9q8 6 16 9q10 2 19.5 4t19.5 4h4z" />
    <glyph glyph-name="quotesingle" unicode="'" 
d="M159 652q1 -4 1.5 -7t0.5 -6q0 -5 -3 -5q-8 -3 -16 -2.5t-14 8.5q-6 7 -11.5 13.5t-11.5 12.5l-4.5 4.5t-4.5 3.5q-12 5 -20 14l-2 2q-11 6 -19.5 14.5t-16.5 18.5q-3 4 -9 6q-10 4 -15 15q-2 8 -8 13l-4.5 4.5t-1.5 5.5q2 11 10 15q24 12 51 18q4 0 6 1q10 2 17.5 -2
t14.5 -11q2 -2 4 -8q2 -5 2.5 -10t1.5 -10q0 -10 6 -17q5 -6 8.5 -12.5t7.5 -13.5q4 -8 8 -15.5t9 -14.5q7 -8 11 -16.5t2 -18.5z" />
    <glyph glyph-name="percent" unicode="%" horiz-adv-x="492" 
d="M287 432q-3 -8 -6.5 -15.5t-9.5 -12.5q-9 -9 -15 -23q-4 -7 -7.5 -13.5t-8.5 -12.5q-6 -10 -11.5 -20.5t-10.5 -21.5q-1 -3 -2 -5.5t-3 -5.5q-5 -9 -9.5 -19t-9.5 -21q-2 -5 -4.5 -9t-6.5 -9q-14 -16 -26.5 -35t-23.5 -39q-6 -11 -13 -23q-2 -4 -3.5 -7.5t-2.5 -8.5
q-4 -14 -10 -25t-14 -22q-5 -8 -9.5 -14.5t-9.5 -13.5q-5 -6 -10 -5q-5 2 -9 2.5t-9 3.5q-4 4 -3 9q0 8 4 13q5 11 13 23q3 6 7 11.5t8 10.5q6 8 10.5 15.5t9.5 15.5q6 12 11.5 23.5t13.5 22.5q4 4 5 7q3 11 8.5 18.5t10.5 16.5q8 13 14 27t13 28q2 4 3.5 8t3.5 8
q4 8 8.5 14.5t9.5 12.5q10 10 18 26q5 11 10.5 20.5t10.5 20.5q3 7 6.5 13t5.5 13q6 17 14.5 31.5t17.5 28.5q2 5 4.5 9t4.5 9q8 26 26 50q1 1 1 4q0 2 -3 2q-7 -1 -13.5 -1t-13.5 -2q-16 -3 -29 -2h-6.5t-6.5 1q-12 2 -24 3.5t-25 3.5q-1 1 -4 -4v-18q0 -21 -5.5 -39.5
t-13.5 -36.5q-4 -7 -5 -14q-4 -12 -9.5 -23t-10.5 -22q-4 -8 -7 -10q-12 -12 -22 -17q-11 -5 -21 -9t-21 -6q-18 -2 -33 12q-2 2 -2.5 3.5t-1.5 3.5q-3 7 -6.5 13t-5.5 14q-6 14 -15 23q-2 2 -2.5 3.5t-2.5 3.5q-3 4 -3 10q1 11 2 20.5t2 19.5q1 6 1 11.5t1 11.5
q2 13 4 25.5t7 23.5q1 2 1 3.5t1 3.5q7 11 13 23.5t14 23.5q4 6 9 10l10 8q10 7 19.5 12.5t20.5 8.5q9 5 18 1q14 -3 25 -10q3 -3 6.5 -5.5t7.5 -4.5q10 -9 26 -16q5 -2 9 -4.5t8 -4.5q19 -9 36 -8q10 1 19.5 2t18.5 1q17 2 29 7q4 2 7 2q21 6 39 21q5 5 11.5 8.5t11.5 7.5
q6 -1 10 -4t8 -8q7 -9 3 -17q0 -3 -3 -6q-8 -10 -13 -21t-11 -22q-13 -20 -26 -43q-2 -2 -4 -8q-5 -10 -10.5 -18t-11.5 -16q-5 -5 -11 -15.5t-10 -19.5q-3 -8 -5.5 -15t-5.5 -15zM153 562q2 13 -1.5 25.5t-9.5 23.5q-2 4 -3 5q-3 3 -6 5t-8 -1q-2 -2 -5.5 -2h-6.5
q-14 -2 -21 -16l-10 -18l-10 -18q-3 -6 -5.5 -12t-1.5 -14q0 -3 -2 -9q-2 -8 -4 -16.5t-4 -16.5q-3 -11 -1 -24q2 -6 2 -9q3 -28 24 -44q6 -3 11 -1q7 3 12 10q3 5 6 9.5t7 9.5q7 8 11.5 17t7.5 19q2 3 2.5 6t1.5 5q8 15 10.5 31.5t3.5 34.5zM445 235q1 -10 -2 -24
q-3 -17 -6.5 -33t-6.5 -33q-6 -29 -26 -53q-7 -8 -14 -15l-14 -14q-9 -8 -18.5 -13t-20.5 -8q-29 -7 -52 25q-4 7 -7 14t-4 15q-2 13 -4.5 25.5t-5.5 24.5q-2 5 -2.5 9t-1.5 9q-1 8 -1 15t2 15q1 2 1 4.5t1 4.5q5 30 19 50q6 8 10.5 17.5t8.5 19.5q6 15 16 22l12 8t12 7
q20 11 39 11q6 0 9 -3q4 -5 8 -6t9 -3q11 -5 19 -16q9 -13 13 -27t6 -30q1 -5 1 -9v-9zM415 201q5 19 4 30q-1 10 -1.5 16.5t-0.5 13.5q-2 9 -6 11q-3 2 -6 5l-6 6q-13 14 -29 5q-5 -2 -10 -6t-8 -12q-1 -4 -6 -9q-9 -11 -15.5 -24t-7.5 -30q0 -2 -0.5 -3t-0.5 -3
q-2 -17 -3.5 -35t-5.5 -35q-2 -12 4 -19q4 -5 7 -10.5t8 -10.5q5 -8 13 -5q5 2 9 3.5t8 3.5q14 7 22 24q4 8 7 15t8 14q2 3 4 11q5 24 12 44z" />
    <glyph glyph-name="parenleft" unicode="(" horiz-adv-x="279" 
d="M2 241q0 8 -0.5 16.5t-1.5 16.5q-1 23 5 49q6 19 4 41q0 7 -1 10l-2 16t-1 16q2 12 4 23.5t4 22.5q1 8 3.5 15t5.5 14q3 8 6 14.5t6 13.5q4 7 6 15q2 14 7.5 26t10.5 25l10 24t10 23q5 8 9 16.5t8 17.5q3 8 8 14.5t10 12.5q8 9 16.5 18.5t16.5 18.5q2 2 5 4.5t5 4.5
q14 11 27 22.5t24 25.5q3 3 6 5.5t6 5.5q5 5 14 7q8 3 13 -3q4 -3 5 -7.5t-2 -8.5q-5 -8 -10 -13q-10 -11 -18 -23t-13 -26q-11 -24 -25 -42q-8 -11 -13 -22.5t-9 -24.5t-8 -25.5t-9 -25.5q-5 -8 -3 -15q1 -25 -10 -51q-6 -17 -14 -37q-5 -12 -6 -25q-2 -36 -8 -70t-3 -70
q2 -33 5.5 -65.5t5.5 -65.5q1 -14 1 -26.5t1 -24.5t4.5 -24t11.5 -25l2 -4t3 -4q7 -15 14 -29.5t15 -28.5q9 -15 15 -30q3 -9 8 -18t10 -17q11 -18 23 -35t26 -33q2 -2 2.5 -3t2.5 -3q4 -9 0 -15l-5 -5q-13 -2 -21 3q-9 6 -16 13q-3 4 -6 7.5t-7 5.5q-12 8 -22 18t-19 20
q-14 16 -29 24q-16 11 -29 22.5t-20 28.5q-6 14 -7.5 25.5t-12.5 24.5q-8 9 -15.5 14.5t-12.5 17.5q-6 14 -5.5 31t-2.5 32q-4 17 -10.5 32t-5.5 35q0 10 -0.5 19t-1.5 18z" />
    <glyph glyph-name="parenright" unicode=")" horiz-adv-x="293" 
d="M250 404v-16t1 -16q3 -24 -5 -49q-5 -21 -3 -42q0 -6 1 -9q1 -8 2 -16.5t1 -16.5q-2 -11 -4 -22.5t-4 -23.5q-1 -8 -3.5 -14.5t-5.5 -14.5q-3 -7 -6 -13.5t-7 -13.5q-2 -4 -3.5 -7.5t-1.5 -8.5q-2 -14 -8 -25.5t-11 -24.5q-7 -23 -20 -47q-4 -9 -8 -17.5t-8 -16.5
q-8 -15 -18 -27q-8 -10 -16.5 -19t-16.5 -18q-2 -2 -5 -4.5t-5 -4.5q-14 -11 -27.5 -22.5t-24.5 -25.5q-2 -3 -5 -6l-6 -6t-6.5 -4t-8.5 -3q-8 -2 -12 3q-4 3 -5 8t2 9q4 7 10 13q21 23 31 49q11 24 25 42q8 11 13 22.5t9 23.5q4 14 8 26.5t9 24.5q3 9 3 16q-1 14 2 26t8 24
q3 10 6.5 19t7.5 19q5 13 5 25q3 36 9 69.5t3 70.5q-2 32 -5.5 65t-5.5 65q-1 15 -1 27.5t-1 24.5t-4.5 23.5t-11.5 25.5q-2 2 -2.5 4t-2.5 4q-8 14 -14.5 29t-14.5 29q-5 8 -8.5 15t-6.5 15q-3 9 -8 18t-10 17q-11 18 -23 35t-26 33l-5 5q-3 10 0 16q2 4 5 4q10 3 21 -2
q10 -7 16 -14t13 -13q12 -8 22 -17.5t19 -20.5q7 -7 14 -13t15 -11q16 -10 29 -21.5t20 -28.5q5 -14 7 -26t13 -24q8 -9 15.5 -15t12.5 -17q6 -14 5.5 -31t2.5 -32q4 -18 10 -33t6 -34q0 -10 0.5 -19t1.5 -19z" />
    <glyph glyph-name="ampersand" unicode="&#x26;" horiz-adv-x="639" 
d="M446 219q10 -14 18.5 -26t17.5 -23q8 -11 21 -22q11 -11 20 -22.5t25 -13.5q6 0 13 1t13 1t10 -3t4 -12q1 -20 -10 -30t-27 -13.5t-33 -1t-29 7.5q-16 7 -27 20.5t-23 24.5q-5 5 -11 9.5t-11 10.5q-2 1 -5.5 5.5t-7.5 9t-8 6.5t-6 -1q-6 -11 -14 -19t-16 -17
q-7 -7 -14.5 -13.5t-16.5 -11.5q-4 -2 -6 -6q-4 -7 -13 -9q-11 -3 -21.5 -7t-21.5 -6q-7 -1 -13 -4t-13 -6q-13 -7 -27 -8q-3 -1 -9 -1q-17 2 -34.5 4t-34.5 8q-5 2 -10.5 4t-11.5 4q-12 3 -23.5 8t-22.5 10q-17 7 -30 25q-6 10 -12.5 19.5t-13.5 19.5q-4 7 -6 17
q-2 11 -2.5 21t-2.5 21q-2 14 0 27t4 27q2 9 5 17.5t7 17.5q5 9 9 18.5t8 19.5q5 11 11.5 19.5t14.5 16.5q25 28 56 46q7 5 13.5 9.5t11.5 10.5q14 14 34 22q7 2 9 7q-1 2 -1.5 4t-2.5 4q-8 9 -12.5 19.5t-7.5 21.5q-2 8 -5 15.5t-6 15.5q-7 17 -11 31q-6 23 -1 46
q2 10 5.5 19.5t9.5 17.5q5 8 11 15t13 13q6 5 11.5 10t10.5 11q8 11 24 18q9 5 18 8.5t18 8.5q13 5 23 5h44q6 -2 10 -2q11 -4 21.5 -7.5t20.5 -11.5q2 -2 6 -4q15 -6 24.5 -17t17.5 -25q7 -12 12 -28q2 -5 3 -11t3 -12t-0.5 -11.5t-3.5 -11.5q-3 -18 -15 -33q-3 -5 -5.5 -9
t-4.5 -10q0 -2 -2.5 -4.5l-4.5 -4.5q-11 -8 -21.5 -18t-21.5 -21l-21 -18q-3 -3 -6.5 -5t-6.5 -5q-15 -13 -32 -19q-2 -1 -3 -3.5t0 -4.5q2 -4 4 -7.5t4 -6.5q6 -8 10.5 -17t9.5 -18q5 -10 10 -19.5t12 -19.5q14 -22 29.5 -43t32.5 -41q4 -6 8 0q2 4 5 7.5t5 8.5
q16 31 33 56q2 3 3.5 6.5t3.5 5.5q12 14 20.5 30t17.5 32q7 10 8 19v7q0 7 -10 13.5t-19 12.5t-12 13t12 16q10 5 26.5 -0.5t26.5 -6.5q6 -1 20.5 0t28 -0.5t21 -7t0.5 -19.5q-3 -6 -16.5 -12.5t-18.5 -13.5q-10 -11 -16.5 -25t-10.5 -28q-4 -10 -11 -20q-11 -16 -20.5 -33
t-18.5 -34q-8 -15 -16 -29.5t-19 -28.5q-4 -5 -6.5 -11t-5.5 -12zM217 407q-5 -2 -9 -4l-8 -4q-5 -3 -9.5 -6t-9.5 -5q-10 -5 -19 -11t-18 -13t-17.5 -15t-13.5 -19q-8 -14 -13.5 -28.5t-5.5 -31.5q0 -8 -1 -15t-3 -15q-2 -14 -2.5 -26.5t4.5 -26.5q2 -7 3.5 -14.5
t-1.5 -15.5q-2 -5 1 -9t8 -6t9.5 -3.5t9.5 -3.5q6 -2 6 -7q0 -10 6 -15t14 -8q4 -1 14 -3q7 0 13 -3q5 -3 11 -4t11 -2t9.5 -1t9.5 -2q13 -1 26 0q8 1 15 2t15 3q5 2 10.5 4t9.5 6q7 7 14 13t13 14q8 8 15.5 17t16.5 17t14 24q-4 10 -16 19l-10 10t-9 11q-2 4 -5.5 7.5
t-5.5 7.5q-4 9 -11 14q-9 7 -12 18q-1 5 -3.5 9.5t-5.5 9.5q-14 20 -26 40.5t-25 40.5q-5 8 -9.5 15t-9.5 15zM264 501q6 2 10.5 5t9.5 7q13 11 24 22.5t22 24.5q4 5 7.5 10t8.5 10q4 5 6.5 9.5t3.5 10.5q2 12 4 19q5 16 -3 29q-1 2 -1 4.5t-1 4.5q-2 4 -3 7.5t-3 7.5
q-9 19 -31 22q-11 2 -21.5 -0.5t-21.5 -7.5q-13 -5 -19 -13q-5 -5 -9 -10.5t-9 -11.5q-5 -7 -8.5 -15t-6.5 -16q-2 -5 -1.5 -8.5t1.5 -8.5q2 -5 3 -10t3 -10q3 -15 5.5 -24t5 -16t6.5 -15t12 -21q0 -2 2 -4q1 -1 2 -1t2 -1zM38 224q2 -2 2.5 -4t2.5 -4t5 -1t4 4q1 4 -2 7.5
t-7 2.5q-2 -1 -2.5 -2t-2.5 -3z" />
    <glyph glyph-name="asterisk" unicode="*" horiz-adv-x="308" 
d="M145 596q-13 -11 -21.5 -28t-16.5 -32q-5 -11 -16 -22t-26 -6q-11 4 -13.5 12t-0.5 19q3 21 18 39q5 8 15 15.5t11 18.5q0 10 -8 17t-19.5 11.5t-23.5 7.5t-19 5q-17 5 -23.5 13.5t4.5 25.5q9 15 19.5 15t22 -6t22.5 -14.5t21 -11.5q28 -10 31 16q3 20 4 40t-1 40
q-2 18 3 21t23 6q8 1 18.5 -7t12.5 -15q3 -11 0 -23.5t-2 -24.5q0 -19 -6 -38q-5 -14 -2 -15.5t16 2.5q11 4 22 7t22 8q7 4 16.5 12t17.5 7q11 -2 12.5 -13t0.5 -19q-2 -11 -7 -22.5t-16 -16.5q-8 -2 -16 -1.5t-16 -3.5q-5 -2 -12 -2.5t-13.5 -2t-10.5 -5t-1 -11.5
q3 -10 14.5 -15t17.5 -12q6 -8 11 -18.5t11 -18.5q11 -16 7 -19t-20 -1q-11 1 -23 3t-22 8q-7 5 -11 12.5t-7.5 15.5t-7.5 15.5t-12 11.5z" />
    <glyph glyph-name="asciitilde" unicode="~" horiz-adv-x="462" 
d="M288 283q-12 1 -22 3t-18 7l-6 4l-6 4q-17 12 -33 16q-8 2 -10 6q-6 9 -17 11q-2 0 -4.5 1t-4.5 2q-8 3 -14.5 5t-14.5 2l-22 -2t-22 -6q-10 -5 -19.5 -10.5t-17.5 -13.5q-5 -5 -10.5 -9.5t-10.5 -9.5q-6 -6 -16 -9q-6 -2 -13 1q-7 4 -7 12t1.5 16.5t7.5 16.5
q8 10 15 19.5t15 18.5q9 11 20 18.5t23 13.5q6 3 12 5.5t12 4.5q8 3 15 6t15 7q15 9 31 0q4 -2 7.5 -4t6.5 -4q8 -5 17 -8.5t18 -5.5q12 -3 18 -13q6 -9 14 -15.5t17 -12.5q3 -2 9 -4q7 -1 14 -1.5t14 1.5q43 8 68 41l6 8t8 8q6 5 17 3q5 -1 8.5 -6.5t2.5 -9.5q0 -2 -1 -3
q-6 -12 -11.5 -25t-13.5 -24q-5 -9 -11.5 -16.5t-13.5 -14.5q-15 -16 -33 -22q-8 -3 -15.5 -6t-15.5 -5q-2 0 -4.5 -0.5t-4.5 -0.5zM299 322q-7 0 -4 -3q2 -2 4 -2t4 2q2 1 0.5 2t-4.5 1z" />
    <glyph glyph-name="asciicircum" unicode="^" horiz-adv-x="345" 
d="M301 534q-4 -4 -9 -4q-8 0 -14.5 1t-12.5 3q-4 0 -10 4q-5 4 -10 7.5t-7 8.5l-3 3q-5 2 -7 5.5t-4 7.5q-6 16 -22 33q-2 2 -3.5 5t-3.5 5q-6 11 -11 22q-4 6 -7 11.5t-8 11.5q-4 5 -7.5 10.5t-4.5 12.5q0 3 -2 5q-4 6 -7 4q-4 -2 -4 -3q-5 -6 -8.5 -12t-7.5 -12l-24 -36
q-3 -6 -7 -11t-7 -11q-5 -8 -11.5 -16t-12.5 -17q-5 -8 -11 -16l-12 -16q-2 -2 -2.5 -4t-2.5 -4q-4 -2 -8 -2.5t-9 -2.5h-11q-10 0 -10 7q0 6 2 8q8 13 14 26t17 25q2 3 3.5 6t3.5 5q4 6 7.5 11t8.5 10q4 5 7 10l6 10q8 13 16.5 26t16.5 26q2 2 2.5 3.5t1.5 3.5q3 9 9.5 17
t11.5 16q1 1 1.5 2t2.5 2t8 3h14q12 2 20 -6q6 -6 9 -8q14 -14 18 -27q2 -7 4.5 -13.5t4.5 -13.5q1 -3 5 -9q7 -9 13.5 -18t13.5 -19l6 -8t7 -8q2 -4 4.5 -7.5t3.5 -8.5q2 -9 10 -15q6 -4 7 -10q2 -6 5.5 -11t7.5 -10q3 -5 5.5 -9t3.5 -9z" />
    <glyph glyph-name="plus" unicode="+" horiz-adv-x="477" 
d="M432 291q-30 -13 -60 -9q-8 1 -16.5 1.5t-16.5 0.5q-18 1 -35 0q-10 0 -19.5 -1t-20.5 0q-6 0 -8 -7q-1 -11 -1.5 -22t-1.5 -22q-1 -5 -1 -10.5v-10.5q-2 -20 -2.5 -40t1.5 -40v-14q0 -8 -6 -15q-5 -4 -8 -8t-8 -9q-9 -7 -17 -5l-4 6t-4 5q-6 5 -7.5 11.5t-1.5 14.5v28
q0 9 -1 14q-2 14 -2 27v27v10.5t-1 10.5q-2 10 0 21q1 4 1 8v8q-1 12 -13 13q-26 0 -51 0.5t-50 0.5q-4 1 -7.5 0.5t-6.5 -0.5q-20 3 -42 -2q-5 0 -7 1q-10 7 -14 16q0 2 -0.5 3t-0.5 3q1 6 2 11.5t5 10.5q8 13 21 13q12 0 23.5 1t23.5 3h8t8 -1q17 -3 34 -3.5t34 3.5
q4 1 8 1h8q3 1 6 1t6 1q4 2 6 6q0 3 0.5 5.5t0.5 4.5v23q0 13 2.5 25t0.5 24t-1.5 23.5t-0.5 23.5q-1 16 7 34q5 10 15.5 15t21.5 2q4 -2 8 -5q5 -6 7 -13t3 -15v-16.5t-1 -16.5q-2 -29 -1.5 -56.5t2.5 -55.5q0 -8 7 -8q15 -1 29.5 -1.5t29.5 -1.5h12q13 -2 26 -2t27 2h10
q11 -2 22 -3.5t22 -1.5q4 0 7 -5q5 -12 -2 -20q-4 -6 -7.5 -12t-7.5 -11z" />
    <glyph glyph-name="comma" unicode="," 
d="M54 18h-9q-7 0 -11 4l-6 4t-5 5q-5 3 -8 8q-2 5 -4 9l-4 8q-7 18 0 34q2 5 3.5 9t3.5 9q3 8 11 11q9 3 18.5 5t20.5 1h7q5 -2 10 -3.5t10 -3.5q11 -3 15 -13q14 -22 16.5 -40t4.5 -40q1 -5 0 -9.5t-2 -9.5l-6 -36q-1 -9 -8 -17q-6 -8 -9 -11q-11 -8 -17 -18
q-2 -2 -2.5 -3t-2.5 -2q-11 -8 -22 -15t-25 -11q-6 -2 -12 -4.5t-13 -1.5q-8 0 -8 9q0 10 9 15q10 5 19 10.5t17 11.5q7 5 13 11.5t10 14.5q2 5 4 8.5t5 8.5q2 4 2.5 8.5t1.5 9.5q0 7 -3.5 12t-7.5 10q-2 2 -4 2q-3 0 -6 0.5t-6 0.5v-1z" />
    <glyph glyph-name="hyphen" unicode="-" horiz-adv-x="348" 
d="M268 286q-10 -1 -19 -1t-19 -1q-26 -5 -51 -3h-12t-11 2q-3 1 -10 1q-16 -1 -31.5 0t-31.5 -1q-20 -3 -42 2q-13 3 -20 15q-1 1 -1 4q3 13 9 27q3 8 11 11l6 2t5 1q10 -2 20 -1t20 -1q9 -2 18.5 -1t18.5 3q9 3 18 4t19 1q23 -1 46.5 0t47.5 2q13 2 25 -3q9 -3 10 -12v-7
t2 -6q4 -5 -2 -9q-7 -5 -11 -12q-2 -5 -6 -9t-9 -8z" />
    <glyph glyph-name="period" unicode="." horiz-adv-x="146" 
d="M0 62q1 5 1 8.5t1 7.5q2 21 18 29q2 1 4.5 2.5t4.5 3.5q15 9 32 6q32 -8 46 -33q11 -17 5 -41q0 -3 -3 -6q-6 -6 -10 -9q-16 -10 -34 -20q-7 -4 -16 -4q-7 0 -10 4l-7 7q-7 10 -15 14q-18 11 -17 31z" />
    <glyph glyph-name="slash" unicode="/" horiz-adv-x="264" 
d="M296 728q2 -9 0.5 -17.5t-3.5 -16.5q-5 -20 -11 -40l-12 -40q-2 -5 -4 -13t-4.5 -14t-5.5 -13q-11 -25 -20 -50.5t-11 -54.5q-2 -8 -3 -13q-5 -16 -9.5 -32t-11.5 -32q-7 -18 -13.5 -35.5t-12.5 -35.5q-8 -26 -17 -50t-17 -49q-4 -13 -7.5 -25.5t-6.5 -25.5
q-2 -11 -5.5 -21.5t-7.5 -20.5q-4 -9 -6.5 -17.5t-6.5 -17.5q-7 -17 -11.5 -35.5t-7.5 -37.5q-3 -22 -8.5 -43t-13.5 -41q-3 -12 -10 -17q-6 -5 -11 -11q-7 -8 -15 -8.5t-16 1.5t-8 9q-1 14 1 27t6 25q3 8 9 16q8 11 13.5 23.5t9.5 26.5q2 5 2.5 10t2.5 10q3 8 5.5 17
t6.5 17q3 5 4.5 11t3.5 11l6 30t5 30q1 8 2.5 15.5t3.5 15.5q1 6 3 11.5t4 10.5q17 38 23 75q2 13 6 25.5t9 24.5q5 13 9.5 25.5t9.5 25.5q3 8 5.5 16.5t4.5 16.5q7 34 18 69q2 6 1 10q-4 8 -1 18q4 12 7.5 24t8.5 23q5 14 9.5 28t12.5 28q2 4 3 8t3 9q6 14 11.5 29t11.5 29
q8 21 28 27q2 0 4 2q4 0 10 2q3 0 5 -1t4.5 -2t4.5 -2z" />
    <glyph glyph-name="colon" unicode=":" horiz-adv-x="150" 
d="M61 148q32 -8 46 -33q11 -17 5 -41q0 -3 -3 -6q-6 -6 -10 -9q-16 -10 -34 -20q-7 -4 -16 -4q-7 0 -10 4l-7 7q-7 10 -15 14q-18 11 -17 31q1 5 1 8.5t1 7.5q2 21 18 29q2 1 4.5 2.5t4.5 3.5q15 9 32 6zM17 285q-18 11 -17 31q1 4 1 8t1 8q2 20 18 28q6 4 9 7q16 9 32 5
q31 -6 46 -32q11 -19 5 -41q0 -3 -3 -6l-4.5 -4.5t-5.5 -4.5q-8 -5 -17 -10.5t-17 -10.5q-7 -4 -16 -3q-7 0 -10 4l-3.5 3.5l-3.5 3.5q-5 7 -15 14z" />
    <glyph glyph-name="semicolon" unicode=";" horiz-adv-x="157" 
d="M127 52q1 -5 0 -9.5t-2 -9.5l-6 -36q-1 -9 -8 -17q-6 -8 -9 -11q-11 -8 -17 -18q-2 -2 -2.5 -3t-2.5 -2q-11 -8 -22 -15t-25 -11q-6 -2 -12 -4.5t-13 -1.5q-8 0 -8 9q0 10 9 15q10 5 19 10.5t17 11.5q7 5 13 11.5t10 14.5q2 5 4 8.5t5 8.5q2 4 2.5 8.5t1.5 9.5
q0 7 -3.5 12t-7.5 10q-2 2 -4 2q-3 0 -6 0.5t-6 0.5v-1h-9q-7 0 -11 4l-6 4t-5 5q-5 3 -8 8q-2 5 -4 9l-4 8q-7 18 0 34q2 5 3.5 9t3.5 9q3 8 11 11q9 3 18.5 5t20.5 1h7q5 -2 10 -3.5t10 -3.5q11 -3 15 -13q14 -22 16.5 -40t4.5 -40zM23 285q-17 10 -16 31q0 4 0.5 8t0.5 8
q2 19 18 28q6 3 10 7q15 9 31 5q30 -6 47 -32q6 -10 6.5 -20t-1.5 -21l-3 -6q-3 -2 -5.5 -4.5t-5.5 -4.5q-8 -5 -16.5 -10.5t-17.5 -10.5q-6 -5 -15 -3q-7 0 -11 4q-2 2 -3 3.5t-3 3.5q-5 8 -16 14z" />
    <glyph glyph-name="less" unicode="&#x3c;" horiz-adv-x="359" 
d="M313 412q-4 -2 -7 -3t-7 -1q-11 -1 -20.5 -5.5t-19.5 -10.5q-7 -4 -13.5 -8t-13.5 -6q-9 -4 -19 -14q-7 -9 -14 -13q-10 -9 -23 -12q-8 -2 -17 -4t-17 -4q-4 0 -10 -4q-3 -3 -10 -5q-11 -5 -21.5 -11.5t-21.5 -14.5q-1 -1 -1 -3t2 -3q7 -7 17 -9q9 -2 17 -6t16 -9
q14 -9 28 -16t28 -13q26 -11 47 -24q3 -2 5.5 -3t4.5 -3q14 -10 28 -17t29 -13q2 -1 3.5 -1t3.5 -1q13 -7 13 -25q1 -2 0.5 -3.5t-0.5 -3.5q1 -10 -3.5 -14t-10.5 -3q-10 1 -22 8q-5 2 -10.5 5t-10.5 7q-5 5 -10.5 6.5t-10.5 5.5q-14 10 -30 12q-5 1 -11 3t-11 4
q-12 5 -24 11l-24 12q-11 5 -22 10.5t-22 12.5l-1 1q-19 8 -37 17t-36 16l-6 2t-6 0q-7 -1 -9 9q-1 5 -1.5 8.5t-0.5 7.5q-2 5 -1.5 10.5t1.5 10.5q1 4 5 10q3 3 8 5q11 5 20.5 10.5t19.5 12.5q5 3 9 4.5t9 3.5q9 3 17.5 6t16.5 5q11 3 22 9q18 11 40 19l18 9q29 17 61 35
l18 9q5 2 9 4.5t9 5.5q9 6 23 8q6 0 8 -7q3 -15 2 -26q-1 -4 -1.5 -7.5t-1.5 -8.5z" />
    <glyph glyph-name="greater" unicode="&#x3e;" horiz-adv-x="363" 
d="M7 175q4 1 7.5 2.5t6.5 1.5q11 1 20.5 5.5t19.5 10.5q7 4 13.5 8t14.5 6q10 4 18 14q4 3 7 6.5t7 6.5q12 9 23 12q9 2 17.5 3.5t17.5 3.5q6 2 10 5q2 3 9 5q23 9 43 26q2 1 1.5 3t-1.5 3q-7 7 -18 9q-9 2 -17 6t-16 9q-14 9 -27.5 15.5t-27.5 13.5q-12 5 -24 10.5
t-24 13.5q-5 2 -10 5q-13 11 -27.5 18t-28.5 13q-2 1 -3.5 1t-3.5 1q-12 5 -14 25v7q0 19 15 17q5 -1 11 -3.5t11 -4.5q12 -5 20 -12q5 -5 10.5 -7t10.5 -6q14 -9 30 -11q6 -1 11.5 -3t10.5 -4q12 -5 24 -11l24 -12q11 -5 22 -10.5t22 -12.5q1 -1 2 -1q18 -8 36 -17t37 -16
q3 -1 5.5 -2t6.5 0q3 1 5 -2t3 -8q1 -4 1.5 -7.5t1.5 -8.5q2 -12 -1 -20q-1 -4 -5 -10q-3 -3 -7 -5q-11 -5 -21 -10.5t-20 -12.5q-5 -3 -9 -4.5t-9 -3.5q-8 -4 -17 -6.5t-17 -5.5q-5 -2 -11 -3.5t-11 -4.5q-9 -6 -19 -10.5t-20 -9.5q-5 -2 -9 -4t-9 -4q-16 -9 -31 -18
t-31 -17q-4 -3 -8.5 -5t-9.5 -4t-9 -4.5t-8 -5.5q-10 -6 -24 -8q-6 0 -8 7q-3 15 -1 26q1 4 1 7.5t1 8.5z" />
    <glyph glyph-name="equal" unicode="=" horiz-adv-x="437" 
d="M380 425q6 -1 9.5 -7.5t1.5 -13.5q-5 -13 -14 -21.5t-23 -8.5q-6 -1 -11.5 -0.5t-11.5 0.5v-1h-12q-18 2 -34 -4q-7 -4 -18 -2q-10 1 -19.5 2t-20.5 2q-5 1 -11 1h-11l-32 -2t-32 -1q-29 0 -57 6q-8 2 -17 2h-17q-9 -1 -17.5 0t-16.5 2q-4 0 -10 4q-8 4 -5 15l3 9
q7 19 27 21h8q8 -2 16 -1.5t16 2.5q8 1 17 0.5t17 -0.5h10t10 1q9 1 17.5 1.5t17.5 -1.5q11 -2 23 -1.5t23 1.5q14 1 26.5 0.5t26.5 -1.5q7 0 14 -0.5t14 0.5q11 0 22 0.5t22 0.5q10 1 22 -2q7 -1 13.5 -2t13.5 -1zM375 250q11 0 11 -13q2 -24 -19 -32q-21 -9 -44 -6
q-8 1 -15 1.5t-15 2.5q-8 1 -16.5 0.5t-16.5 -3.5q-3 -2 -6 -2.5t-6 -2.5q-17 -5 -30 -1q-14 3 -26 2q-26 -2 -48 4q-18 4 -38 -1q-8 -2 -16 -2.5t-16 0.5q-12 1 -24 0q-11 -3 -22 5q-5 2 -11 1q-4 -2 -10 0q-7 5 -5 11q1 9 0 16q-1 2 -1 7q2 13 11 16q5 2 8.5 3t8.5 3
q2 0 4 0.5t4 -0.5q16 -3 31.5 -3t30.5 -2q16 -2 31 -1.5t30 2.5q14 2 28 2t28 1q11 0 20 -3q11 -4 20.5 -4t19.5 2q8 1 15.5 1.5t15.5 1.5h6.5t7.5 -1q12 -3 24 -4t24 -1h6z" />
    <glyph glyph-name="question" unicode="?" horiz-adv-x="415" 
d="M368 549q1 -14 0.5 -28t-3.5 -28q-2 -8 -3 -15t-3 -15q-5 -21 -21 -36l-16.5 -16.5l-16.5 -16.5l-1 -1q-7 -16 -23 -29t-27 -25q-17 -17 -32 -40t-23 -46q-6 -18 -12.5 -46t-11.5 -47q-1 -2 -4 -5q-6 -7 -11.5 -4.5t-9.5 9.5t-7 15t-4 13q-2 8 -0.5 19.5t3.5 24t4 24
t3 19.5q1 12 4.5 23.5t11.5 22.5t15 26q8 15 21 31q6 7 11.5 13.5t11.5 13.5q5 6 11 11q13 9 18 27q5 14 13 24q7 8 11 16t7 17q-2 6 -4 9q-7 11 -9 23.5t-4 25.5q-1 4 -1 12q-3 19 -17 29l-33 27q-17 13 -39 12h-12.5t-13.5 -1q-12 -1 -23.5 -4t-21.5 -11q-4 -3 -7 -5
t-7 -5q-6 -4 -9 -7q-6 -6 -5 -15q2 -8 3 -17t5 -17q1 -5 5 -15q3 -13 -2.5 -24.5t-17.5 -16.5q-4 -2 -8 -3.5t-9 -3.5q-4 -1 -12 -1q-8 1 -15.5 3.5t-15.5 6.5q-7 5 -7 12q-1 5 -1 10.5v10.5q-1 6 -1 12t-1 11q-3 16 5 32q4 6 7.5 12t8.5 11q7 8 14 14.5t15 11.5q4 2 7.5 5
t6.5 5q14 13 31.5 19t36.5 10q16 3 32 -1q7 -2 20 -4q5 2 10.5 2.5t10.5 2.5q13 4 25 0q8 -3 15.5 -5t15.5 -7q6 -3 12.5 -5.5t13.5 -4.5q8 -3 15 -7t13 -10q2 -2 4.5 -3.5t4.5 -3.5q30 -26 41 -67q2 -10 2 -16zM207 56q2 -5 4.5 -9.5t4.5 -9.5q7 -18 -2 -34q-2 -2 -3 -3.5
t-3 -2.5l-22 -11t-25 -8t-24.5 1.5t-19.5 17.5q-3 5 -5.5 10.5t-2.5 11.5q-1 3 -1 7q0 16 13 29t29.5 19t33 2.5t23.5 -20.5z" />
    <glyph glyph-name="at" unicode="@" horiz-adv-x="793" 
d="M494 467q5 5 10.5 6.5t10.5 2.5q7 2 14 3t15 3q6 2 14 0q12 -2 15 -14l3 -9q0 -5 -1 -7q-6 -14 -9.5 -28.5t-7.5 -28.5q-3 -14 -7 -22q-10 -31 -14 -59q-6 -34 -15 -65q-5 -16 -8.5 -31.5t-5.5 -32.5q0 -8 -1 -12q-4 -15 -4 -34q0 -3 -0.5 -6t-0.5 -5q2 -4 3.5 -4h3.5
q8 1 16.5 1.5t16.5 2.5q6 1 11.5 1.5t11.5 1.5q27 3 45 26q11 11 19 23.5t16 25.5q2 4 3 7.5t3 7.5q6 25 4 54q-1 4 -1 8v8q0 16 4 28q5 15 5.5 30.5t-1.5 31.5q-3 27 -10 52.5t-15 51.5q-5 16 -12.5 30.5t-15.5 29.5q-6 13 -19 21q-5 2 -9 5t-9 5q-6 4 -11.5 8.5t-8.5 12.5
q-2 5 -5 8.5t-5 8.5q-1 3 -5 7q-2 3 -4.5 5.5t-4.5 5.5q-3 0 -6 0.5t-6 0.5q-10 2 -19.5 5t-17.5 8q-4 2 -8 3l-8 2q-10 2 -19 3.5t-18 4.5q-5 2 -9 2.5t-9 1.5q-14 3 -27 -1q-5 -2 -10.5 -2t-10.5 -2q-17 -3 -33.5 -6t-33.5 -6q-9 -2 -17.5 -5t-16.5 -8t-15.5 -9.5
t-14.5 -10.5q-16 -12 -31 -28q-10 -10 -18.5 -20t-18.5 -20q-6 -5 -11 -11.5t-7 -14.5l-3 -6q-8 -11 -12.5 -18.5t-7.5 -14t-6 -14.5t-7 -20q-2 -8 -2 -11q-2 -15 -5 -29t-7 -28t-6.5 -27.5t-4.5 -27.5t0 -28q0 -3 2 -9q5 -7 5 -15q0 -6 0.5 -12t-0.5 -11q-2 -9 -1 -17
t3 -16q1 -5 1.5 -10t0.5 -10q2 -21 13 -34q4 -5 6 -12q4 -11 6 -23l4 -24q3 -15 12 -27q8 -10 15 -21l14 -22q10 -21 29 -33q6 -5 12.5 -8t13.5 -7q11 -6 23 -12t24 -11q29 -14 57 -13h14q19 2 33 -6l4 -2q25 -11 48 -1q11 4 25 4q15 -1 29 3t28 7q13 8 27 12t27 12
q7 4 13.5 7.5t11.5 8.5q2 2 5 1t4 -4q6 -15 -4 -25q-2 -2 -4.5 -3.5t-4.5 -3.5q-8 -6 -17 -16q-4 -7 -13 -12q-11 -7 -23 -12.5t-25 -8.5q-17 -3 -35 -14q-7 -3 -13 -5t-13 -2q-5 1 -10.5 0.5t-10.5 -0.5q-3 0 -6.5 0.5t-5.5 -1.5q-10 -4 -23 -2q-6 1 -12 0q-12 -3 -24 -1
l-24 4q-11 2 -22 5.5t-23 3.5q-8 3 -16.5 3.5t-16.5 2.5q-12 2 -21 7q-6 4 -12.5 6.5t-12.5 6.5q-11 7 -19 14q-6 5 -11.5 10t-12.5 8q-6 5 -11 11q-5 8 -12 15.5t-14 15.5q-3 4 -6.5 8t-7.5 9q-6 10 -13 19t-15 18q-9 12 -16 24.5t-13 26.5q-2 4 -3.5 7.5t-3.5 7.5
q-8 11 -11.5 23.5t-6.5 25.5q-3 11 -6 21t-7 21q-12 37 -9 78q2 26 6.5 52t11.5 51q0 3 2 7q4 20 11 38t15 36q8 17 16 33t17 31q6 11 13 19q13 15 27 29t30 25q13 8 24.5 17.5t22.5 20.5t28 17q8 2 16 6t16 9q21 9 42 12q18 3 36 4t37 3q14 2 28.5 1.5t29.5 -0.5
q11 0 22 -3l2 -1q8 -4 17.5 -4t17.5 -4q15 -7 34 -10q10 -2 19 -7t17 -10q8 -6 16.5 -10.5t16.5 -9.5q13 -7 24.5 -15t21.5 -21q7 -9 18 -15q16 -10 28.5 -25.5t19.5 -34.5q4 -10 7.5 -20t8.5 -20q3 -5 4 -11t3 -11q4 -14 7 -28.5t6 -28.5t4.5 -27.5t-0.5 -27.5
q0 -5 -0.5 -8.5t-0.5 -8.5q1 -29 -5 -63q-1 -5 -5.5 -17.5t-7.5 -19.5q-4 -7 -7 -14t-6 -15q-5 -14 -11 -25.5t-14 -22.5q-10 -16 -26 -22q-3 0 -4 -1q-15 -4 -28 -11t-25 -16q-10 -8 -25 -11q-20 -5 -40 -8.5t-40 -7.5q-10 -2 -19.5 -2.5t-19.5 0.5q-7 0 -13 3t-11 8t-5 10
q-1 3 -0.5 6t-0.5 6q0 14 1.5 27t3.5 27l-3 3h-2q0 -1 -0.5 -1t-0.5 -1q-4 -4 -8 -7.5t-7 -8.5q-9 -12 -19 -21.5t-20 -20.5q-5 -5 -9 -6q-11 -5 -20.5 -9.5t-20.5 -7.5q-22 -7 -41 0q-10 3 -18 -1q-1 -1 -2 -1t-2 -1q-7 -2 -11 5q-3 6 -6 12.5t-6 12.5q-10 17 -19 31
q-18 22 -19 48v7q-4 16 -4 31.5v31.5q0 12 5 22q5 8 8.5 15.5t8.5 14.5q10 18 20.5 35.5t18.5 36.5q7 17 20 33q12 16 34 26q8 4 15.5 8.5t15.5 9.5t16.5 9t18.5 5q2 1 3 1t3 1q5 4 11.5 5.5t11.5 3.5q9 4 18 3.5t17 -2.5q5 -1 8.5 -2.5t7.5 -3.5q9 -5 18 -9zM481 374
q0 12 -2.5 27t-7.5 27q-3 6 -8 11t-10.5 6.5t-10.5 7.5q0 1 -2 1q-9 1 -17.5 0.5t-17.5 -3.5q-11 -5 -19.5 -11.5t-18.5 -12.5q-4 -2 -7 -5l-6 -6q-16 -11 -26 -27q-5 -8 -9.5 -16t-10.5 -16q-2 -2 -4 -8q-5 -14 -9.5 -28.5t-9.5 -28.5q-1 -4 -1.5 -7t-1.5 -7q-4 -14 -1 -30
q2 -8 2.5 -15t0.5 -15q1 -4 0.5 -7t0.5 -7q1 -11 3 -21t9 -18q3 -4 6 -7.5t7 -6.5q5 -3 9.5 -5.5t8.5 -5.5q9 -7 20 -2q5 2 10 5q14 10 27.5 21t24.5 28q6 9 14 17q14 14 19 38q4 17 12 34q2 3 3 6.5t3 6.5q7 13 8 26q2 15 7 27q5 10 5 27zM230 281q0 2 -2 4q-2 0 -3 -1
q-3 -2 -3.5 -4.5t-1.5 -5.5l1 -1q3 -2 4 -1q5 3 5 9zM582 598q-1 1 -2 1.5t-2 2.5l-2 -4q0 -6 4 -4z" />
    <glyph glyph-name="bracketleft" unicode="[" horiz-adv-x="249" 
d="M13 -72q-2 13 -2.5 26t-0.5 29q0 7 -0.5 13.5t-1.5 14.5t-1.5 15t-0.5 15q0 10 0.5 19.5t0.5 20.5q-1 8 -1 16t-2 16q-3 12 -3 23.5v23.5q0 5 4 13q1 5 2 9t3 9q6 22 -4 39q-5 8 -5.5 16.5t1.5 16.5q4 12 4 25q-1 22 -1 43t-2 42q-1 4 -0.5 8t0.5 8q3 20 3.5 38.5
t-0.5 38.5q-1 26 -1 50.5t-1 50.5v7q-5 25 -3 51.5t10 51.5t23 46.5t38 37.5q15 10 28 15t26.5 6.5t28.5 1.5t33 1q11 1 21 -0.5t20 -3.5q7 -1 9 -10q3 -6 -5 -12q-13 -10 -27 -11q-11 -1 -21 -2.5t-21 -2.5q-19 0 -37 -13q-8 -6 -15 -11.5t-15 -11.5q-7 -7 -8 -14
q-2 -7 -3 -13.5t1 -13.5q2 -3 1.5 -6t-0.5 -6q-2 -14 -3 -28t-1 -28q0 -8 -1 -15t-2 -15q-1 -10 -0.5 -19t0.5 -19q0 -19 -2 -37t-4 -37q-2 -16 -1.5 -31t1.5 -30q2 -14 2 -27v-27v-61q0 -20 -0.5 -40.5t-1.5 -41.5q-1 -23 -2 -45.5t1 -45.5q1 -23 1.5 -58t6.5 -69.5
t21.5 -60.5t47.5 -31q4 0 7 -1t7 -2q19 -8 43 -5q10 1 21 0q5 0 7 -5q4 -14 -6 -24l-6 -3q-4 0 -7.5 -0.5t-6.5 0.5q-33 3 -66 0q-26 -3 -46 5q-9 4 -16.5 5.5t-14.5 3.5t-14 5.5t-14 11.5q-11 13 -17 25t-9 24z" />
    <glyph glyph-name="bracketright" unicode="]" horiz-adv-x="260" 
d="M205 706q2 -13 2.5 -26t0.5 -29q0 -7 0.5 -13.5t1.5 -14.5t1.5 -15t0.5 -15q0 -10 -0.5 -19.5t-0.5 -20.5q1 -8 1 -16t2 -16q3 -12 3 -23.5v-23.5q0 -5 -4 -13q-1 -5 -2 -9t-3 -9q-6 -22 4 -39q5 -8 5.5 -16.5t-1.5 -16.5q-4 -12 -4 -25q1 -22 1 -43t2 -42q1 -4 0.5 -8
t-0.5 -8q-3 -20 -3.5 -38.5t0.5 -38.5q1 -26 1 -50.5t1 -50.5v-7q4 -26 2.5 -52.5t-9.5 -51t-23.5 -46t-37.5 -37.5q-15 -10 -28.5 -15t-27 -6.5t-28 -1.5t-32.5 -1q-11 -1 -21 0.5t-20 3.5q-7 1 -9 10q-3 6 5 12q13 10 27 11q11 1 21 2.5t21 2.5q19 0 37 13q8 6 15 11.5
t15 11.5q7 7 8 14q2 7 3 13.5t-1 13.5q-2 3 -1.5 6t0.5 6q2 14 3 28t1 28q0 8 1 15t2 15q1 10 0.5 19t-0.5 19q0 19 2 37t4 37q2 16 1.5 31t-1.5 30q-2 14 -2 27v27v61q0 20 0.5 40.5t1.5 41.5q1 23 2 45.5t-1 45.5q-1 23 -1.5 58t-6.5 69.5t-21.5 60.5t-47.5 31q-4 0 -7 1
t-7 2q-19 8 -43 5q-11 -2 -21 0q-5 0 -7 5q-2 7 -0.5 13t6.5 11l6 3q4 0 7.5 0.5t6.5 -0.5q33 -3 66 0q26 3 46 -5q9 -4 16.5 -5.5t14.5 -3.5t14 -5.5t14 -11.5q11 -13 17 -25t9 -24z" />
    <glyph glyph-name="backslash" unicode="\" horiz-adv-x="268" 
d="M29 771q2 0 3.5 -0.5t3.5 -0.5q20 0 25 -16q5 -13 8 -23q3 -13 11 -28q10 -16 13.5 -32t2.5 -33q-2 -23 6 -40q8 -20 13 -39t10 -39l8 -24t6 -25q0 -4 1.5 -7l3.5 -7q8 -11 6 -28q-3 -22 5 -47q7 -20 12 -41t7 -41q0 -4 2 -12q2 -11 4.5 -20.5t4.5 -19.5q2 -11 4.5 -20.5
t4.5 -19.5q4 -25 15 -49q8 -19 13 -37.5t10 -37.5q4 -14 8 -26.5t8 -25.5q3 -8 6 -15t5 -15q2 -6 3 -12l2 -12q1 -11 -3 -19.5t-9 -18.5l-5 -2q-15 0 -27 6q-9 3 -10 10q-5 14 -10.5 29t-10.5 29q-12 27 -18 58q-2 12 -4 19q-5 11 -7.5 21.5t-4.5 21.5q-5 20 -8 41t-7 41
q-1 5 -2 9.5t-3 9.5q-5 11 -8 21t-5 21q-3 16 -7.5 31t-9.5 30q-7 19 -9.5 37t-4.5 36v5q2 17 -3 33t-12 33q-1 5 -8 10q-14 16 -17 32q-1 4 -3 14q-2 22 -6 43.5t-9 43.5q-3 17 -6.5 33.5t-6.5 33.5q-2 10 -6 19.5t-7 19.5q-2 8 -3.5 14.5t-3.5 14.5q-1 3 0 6.5t2 6.5
q3 3 5 3q5 -1 11 -1.5t11 -1.5z" />
    <glyph glyph-name="braceleft" unicode="{" horiz-adv-x="282" 
d="M267 761q-5 -2 -9.5 -2.5t-8.5 -2.5q-25 -9 -40 -29q-5 -7 -8.5 -15t-6.5 -16q-2 -8 -4 -15t-4 -15q0 -2 -2 -6q-2 -18 -3.5 -36.5t1.5 -36.5q3 -22 2 -39q-1 -9 -0.5 -18t2.5 -17q2 -5 1.5 -9.5t-1.5 -9.5q-2 -6 -1 -9q3 -7 2 -13t-3 -12q-1 -5 -2.5 -10.5t0.5 -10.5
q-2 -12 -3 -24t-3 -25q0 -3 -0.5 -5.5t-1.5 -5.5q-2 -5 -3.5 -9t-5.5 -8l-10 -10q-4 -4 -7 -6q-6 -4 -11 -9.5t-12 -9.5t-14 -6t-15 -4q-8 -4 -13 -6q-1 -1 -1 -2q3 -3 2 -3q8 -5 14.5 -9t14.5 -7q18 -8 31 -28q2 -2 3 -5t3 -5q5 -11 17 -19q2 -2 3.5 -3t3.5 -3q10 -8 9 -21
q-1 -5 -1 -9v-9q2 -21 1 -41.5t-3 -40.5q-2 -21 -2.5 -41.5t0.5 -40.5q0 -3 0.5 -6t0.5 -6q1 -8 1.5 -17t-1.5 -18q-1 -5 -1 -9v-9v-19.5t1.5 -10.5t4.5 -8l9 -12q3 -5 5.5 -9t5.5 -9q2 -3 4.5 -5.5t4.5 -5.5q14 -14 33 -17q10 -1 15 -13q4 -7 1 -14.5t-11 -9.5
q-10 -4 -23 -1q-8 2 -17 3.5t-17 1.5q-2 0 -4.5 1t-4.5 2q-23 9 -40.5 25t-30.5 37q-5 10 -8.5 19.5t-5.5 20.5q-2 8 -2.5 15t-1.5 15q-2 12 1 21q7 22 0 39l-1 2q-2 17 -3.5 34t3.5 34q2 8 2.5 17t1.5 18q0 7 1 11q1 15 0 28q-2 10 -1 14q0 18 -5.5 34t-13.5 31
q-10 19 -34 27q-9 3 -18.5 6.5t-18.5 6.5q-6 2 -7 6q-10 18 8 31q6 2 8 4l10 4t10 5q7 3 11 5.5t7 4.5t6 5.5t8 9.5q6 8 8 12q5 12 8.5 25t2.5 27q-1 11 2 23q3 10 3 21q0 18 -1 36t-3 36t-2 35.5t1 35.5q0 2 0.5 4.5t0.5 4.5q-2 13 0.5 25.5t3.5 25.5q0 6 1 9q6 18 15 34
t23 30q8 8 12 11q8 5 17 10.5t17 10.5q4 4 10 6q11 3 22.5 5.5t23.5 2.5q21 0 35 -11q4 -4 2 -9z" />
    <glyph glyph-name="braceright" unicode="}" horiz-adv-x="312" 
d="M4 -145q5 2 9.5 2.5t8.5 2.5q25 9 40 29q5 7 8.5 15t6.5 16q2 8 4 15t4 15q0 2 2 6q2 18 3.5 36.5t-1.5 36.5q-3 22 -2 39q1 9 0.5 18t-2.5 17q-2 5 -1.5 9.5t1.5 9.5q2 6 1 9q-3 7 -2 13t3 12q1 5 2.5 10.5t-0.5 10.5q2 12 3 24t3 25q0 3 0.5 5.5t1.5 5.5q2 5 3.5 9
t5.5 8l10 10q4 4 7 6q6 4 11 9.5t12 9.5t14 6t15 4q8 4 13 6q1 1 1 2q-3 3 -2 3q-8 5 -14.5 9t-14.5 7q-18 8 -31 28q-2 2 -3 5t-3 5q-5 11 -17 19q-2 2 -3.5 3t-3.5 3q-11 7 -9 21q1 5 1 9v9q-2 21 -1 41.5t3 40.5q2 21 2.5 41.5t-0.5 40.5q0 3 -0.5 6t-0.5 6q-1 8 -1.5 17
t1.5 18q1 5 1 9v9v19.5t-1.5 10.5t-4.5 8l-9 12q-3 5 -5.5 9t-5.5 9q-2 3 -4.5 5.5t-4.5 5.5q-14 14 -33 17q-10 1 -15 13q-4 7 -1 14.5t11 9.5q10 4 23 1q8 -2 17 -3.5t17 -1.5q2 0 4.5 -1t4.5 -2q23 -9 40.5 -25t30.5 -37q5 -10 8.5 -19.5t5.5 -20.5q2 -8 2.5 -15t1.5 -15
q2 -12 -1 -21q-7 -22 0 -39l1 -2q2 -17 3.5 -34t-3.5 -34q-2 -8 -2.5 -17t-1.5 -18q0 -7 -1 -11q-1 -15 0 -28q2 -10 1 -14q0 -18 5.5 -34t13.5 -31q10 -19 34 -27q9 -3 18.5 -6.5t18.5 -6.5q6 -2 7 -6q10 -18 -8 -31q-6 -2 -8 -4l-10 -4t-10 -5q-7 -3 -11 -5.5t-7 -4.5
t-6 -5.5t-8 -9.5q-6 -8 -8 -12q-5 -12 -8.5 -25t-2.5 -27q1 -11 -2 -23q-3 -11 -3 -21q0 -18 1 -36t3 -36t2 -35.5t-1 -35.5q0 -2 -0.5 -4.5t-0.5 -4.5q2 -13 -0.5 -25.5t-3.5 -25.5q0 -6 -1 -9q-6 -18 -15 -34t-23 -30q-8 -8 -12 -11q-8 -5 -17 -10.5t-17 -10.5
q-4 -4 -10 -6q-11 -3 -22.5 -5.5t-23.5 -2.5q-21 0 -35 11q-4 4 -2 9z" />
    <glyph glyph-name="bar" unicode="|" horiz-adv-x="132" 
d="M77 -174q-15 -4 -29 -2.5t-27 -4.5q-3 4 -5 8q-2 6 -3 12t-2 13q-1 18 2 38q4 17 3.5 34.5t-7.5 34.5q-5 14 -5.5 27t1.5 27t3.5 28.5t2.5 28.5q1 16 0 31t-6 31q-2 4 -1.5 7.5t0.5 8.5v64q0 3 0.5 6.5t0.5 6.5t1 6t0 6q-1 8 0 16.5t2 17.5q6 36 0 73q-4 17 -3.5 35
t0.5 36q0 4 0.5 7.5t-0.5 7.5q-2 17 -2 33.5v33.5v31.5t-2 32.5q-2 23 -0.5 46.5t5.5 46.5q2 11 4 23t3 23q0 10 -0.5 19.5t-5.5 18.5q-3 8 -1 16q3 10 -1 18q-1 2 0 5.5t2 5.5q0 2 3.5 4t6.5 1q12 -1 24.5 -1.5t24.5 -1.5q4 0 7 -3t4 -5q0 -4 0.5 -8t0.5 -8q-2 -7 -1 -13.5
t3 -13.5l1 -2q8 -17 7.5 -33t-4.5 -33l-4 -26t-2 -26q-1 -14 -2 -28.5t-3 -28.5q-2 -17 -1.5 -32.5t2.5 -31.5q5 -27 5.5 -54t-0.5 -54q0 -16 -1 -31.5t-1 -32.5v-22.5t1 -22.5q5 -35 2 -64q-2 -9 3 -14q6 -7 6 -19q-1 -12 0 -23.5t0 -22.5q-2 -26 -1.5 -51.5t0.5 -51.5
q0 -22 -3 -43q-2 -14 -2.5 -27.5t-1.5 -27.5q-1 -8 -1.5 -16t-1.5 -16q-1 -10 2 -20q8 -24 1 -44q-1 -2 -2 -5t-2 -5z" />
    <glyph glyph-name="Euro" unicode="&#x20ac;" horiz-adv-x="517" 
d="M368 285q2 -5 0 -12q-2 -5 -5.5 -10.5t-5.5 -10.5q-5 -13 -14 -15.5t-20 -2.5q-10 4 -19.5 3.5t-19.5 -1.5q-16 -2 -32 -2.5t-32 0.5q-4 0 -7.5 1t-8.5 1q-7 1 -13.5 1.5t-14.5 1.5q-5 0 -5 -6q1 -8 1 -15.5t1 -15.5q0 -3 0.5 -6t0.5 -5q-1 -14 2.5 -27t7.5 -26
q4 -11 9.5 -21.5t10.5 -20.5q2 -5 5 -8t6 -7q7 -12 21 -15q6 -2 12 -4.5t11 -5.5q7 -3 8 -8q3 -5 9 -7l42 -6q11 -2 20 -0.5t19 4.5q8 3 14 9q12 12 18 27q4 9 8.5 18t10.5 17q2 3 4 11q5 12 9.5 24t9.5 24q2 4 5 4q9 -2 18.5 -4t17.5 -6q6 -3 6 -9q1 -6 0 -12
q-3 -29 -12 -54q-11 -27 -15 -54q-2 -8 -5 -14.5t-7 -13.5q-1 -3 -8 -5h-14q-8 -1 -17 -2t-17 -4q-11 -4 -21 -5t-21 -1q-14 1 -27 1h-27q-24 0 -46 3q-2 0 -5 0.5t-5 0.5q-14 -2 -24.5 4.5t-21.5 14.5q-18 14 -33 29.5t-30 32.5q-2 2 -3 5t-3 5q-2 4 -4.5 7.5t-4.5 6.5
q-7 11 -11.5 22t-8.5 22q-5 18 -9.5 35.5t-9.5 35.5l-3 18q-3 5 -7 5q-5 0 -8.5 -0.5t-8.5 -0.5q-7 -1 -13.5 -1.5t-14.5 -1.5q-2 0 -4.5 0.5t-4.5 0.5q-2 1 -3.5 3.5t-0.5 4.5q2 6 4 8q1 4 6 6q14 9 20 23q4 9 16 9q3 -1 6.5 -0.5t6.5 0.5t3 3q1 8 1 15.5v15.5q0 6 -6 6
q-7 0 -11 -1q-2 0 -4.5 -0.5t-4.5 -0.5q-3 2 -5.5 3.5t-4.5 3.5q-4 1 -4 8q2 7 5 12q4 5 7.5 9.5t7.5 9.5q7 10 18 9q2 -1 3.5 -0.5t3.5 0.5l3 3q2 8 3.5 15t3.5 15q1 4 3 14q5 23 14.5 44.5t20.5 41.5q1 2 2 4.5t2 4.5q4 9 9.5 16.5t12.5 15.5l10 12t10 11l12 12l10 8t9 9
q5 5 11 8q14 9 26 16q8 5 17 7t19 3q20 0 34 5q3 1 10 1h30t30 -4q6 -1 12 -1.5t12 -0.5q25 2 46 -4q4 -1 11 -1q4 -4 5 -7.5t2 -7.5q2 -17 5.5 -33.5t7.5 -33.5q4 -21 6 -42.5t0 -43.5q0 -7 -8 -9q-5 -1 -9.5 -1.5t-9.5 -1.5q-12 -2 -14 9q-5 14 -9.5 27.5t-9.5 27.5
q-3 10 -9 16q-6 7 -11.5 13.5t-12.5 12.5q-5 5 -8.5 10t-5.5 11q-5 14 -24 21q-10 4 -20 5t-21 1q-8 0 -18 -5q-24 -12 -40 -32q-6 -8 -12 -15.5t-12 -15.5q-11 -12 -15 -27q-5 -11 -9 -21.5t-9 -21.5q-5 -13 -8.5 -25.5t-4.5 -26.5q0 -5 -1 -9.5t-2 -9.5q0 -5 2 -11
q0 -3 4 -5q3 -1 9 -1q22 -2 43 -1t42 0h15t15 -2q16 -2 28 1t25 -2q20 -7 37 -4q6 2 11 -3q2 -1 2.5 -3.5t-1.5 -4.5q-6 -5 -9.5 -11.5t-8.5 -12.5q-6 -6 -14 -6q-1 0 -1.5 -0.5t-1.5 -0.5q-20 4 -38.5 1t-38.5 -2q-25 1 -49 0.5t-49 -0.5q-5 -1 -9.5 -1h-9.5q-6 0 -6 -6
q-1 -4 -1 -11q-1 -5 -1 -8.5v-8.5q0 -2 2 -4t4 -2q2 -1 7 -1q17 -2 34 -2.5t34 -1.5q4 0 14 2q17 2 32 -1q8 -2 16.5 -2t16.5 1h19.5t19.5 -2z" />
    <glyph glyph-name="quotesinglbase" unicode="&#x201a;" 
d="M54 45h-9q-7 0 -11 4l-6 4t-5 5q-5 3 -8 8q-2 5 -4 9l-4 8q-7 18 0 34q2 5 3.5 9t3.5 9q3 8 11 11q9 3 18.5 5t20.5 1h7q5 -2 10 -3.5t10 -3.5q11 -3 15 -13q14 -22 16.5 -40t4.5 -40q1 -5 0 -9.5t-2 -9.5l-6 -36q-1 -9 -8 -17q-6 -8 -9 -11q-11 -8 -17 -18
q-2 -2 -2.5 -3t-2.5 -2q-11 -8 -22 -15t-25 -11q-6 -2 -12 -4.5t-13 -1.5q-8 0 -8 9q0 10 9 15q10 5 19 10.5t17 11.5q7 5 13 11.5t10 14.5q2 5 4 8.5t5 8.5q2 4 2.5 8.5t1.5 9.5q0 7 -3.5 12t-7.5 10q-2 2 -4 2q-3 0 -6 0.5t-6 0.5v-1z" />
    <glyph glyph-name="quotedblbase" unicode="&#x201e;" horiz-adv-x="292" 
d="M54 45h-9q-7 0 -11 4l-6 4t-5 5q-5 3 -8 8q-2 5 -4 9l-4 8q-7 18 0 34q2 5 3.5 9t3.5 9q3 8 11 11q9 3 18.5 5t20.5 1h7q5 -2 10 -3.5t10 -3.5q11 -3 15 -13q14 -22 16.5 -40t4.5 -40q1 -5 0 -9.5t-2 -9.5l-6 -36q-1 -9 -8 -17q-6 -8 -9 -11q-11 -8 -17 -18
q-2 -2 -2.5 -3t-2.5 -2q-11 -8 -22 -15t-25 -11q-6 -2 -12 -4.5t-13 -1.5q-8 0 -8 9q0 10 9 15q10 5 19 10.5t17 11.5q7 5 13 11.5t10 14.5q2 5 4 8.5t5 8.5q2 4 2.5 8.5t1.5 9.5q0 7 -3.5 12t-7.5 10q-2 2 -4 2q-3 0 -6 0.5t-6 0.5v-1zM191 45h-9q-7 0 -11 4l-6 4t-5 5
q-5 3 -8 8q-2 5 -4 9l-4 8q-7 18 0 34q2 5 3.5 9t3.5 9q3 8 11 11q9 3 18.5 5t20.5 1h7q5 -2 10 -3.5t10 -3.5q11 -3 15 -13q14 -22 16.5 -40t4.5 -40q1 -5 0 -9.5t-2 -9.5l-6 -36q-1 -9 -8 -17q-6 -8 -9 -11q-11 -8 -17 -18q-2 -2 -2.5 -3t-2.5 -2q-11 -8 -22 -15t-25 -11
q-6 -2 -12 -4.5t-13 -1.5q-8 0 -8 9q0 10 9 15q10 5 19 10.5t17 11.5q7 5 13 11.5t10 14.5q2 5 4 8.5t5 8.5q2 4 2.5 8.5t1.5 9.5q0 7 -3.5 12t-7.5 10q-2 2 -4 2q-3 0 -6 0.5t-6 0.5v-1z" />
    <glyph glyph-name="ellipsis" unicode="&#x2026;" horiz-adv-x="388" 
d="M0 91q1 5 1 8.5t1 7.5q2 21 18 29q2 1 4.5 2.5t4.5 3.5q15 9 32 6q32 -8 46 -33q11 -17 5 -41q0 -3 -3 -6q-6 -6 -10 -9q-16 -10 -34 -20q-7 -4 -16 -4q-7 0 -10 4l-7 7q-7 10 -15 14q-18 11 -17 31zM121 91q1 5 1 8.5t1 7.5q2 21 18 29q2 1 4.5 2.5t4.5 3.5q15 9 32 6
q32 -8 46 -33q11 -17 5 -41q0 -3 -3 -6q-6 -6 -10 -9q-16 -10 -34 -20q-7 -4 -16 -4q-7 0 -10 4l-7 7q-7 10 -15 14q-18 11 -17 31zM242 91q1 5 1 8.5t1 7.5q2 21 18 29q2 1 4.5 2.5t4.5 3.5q15 9 32 6q32 -8 46 -33q11 -17 5 -41q0 -3 -3 -6q-6 -6 -10 -9q-16 -10 -34 -20
q-7 -4 -16 -4q-7 0 -10 4l-7 7q-7 10 -15 14q-18 11 -17 31z" />
    <glyph glyph-name="dagger" unicode="&#x2020;" horiz-adv-x="319" 
d="M173 -174q-15 -4 -29 -2.5t-27 -4.5q-3 4 -5 8q-2 6 -3 12t-2 13q-1 18 2 38q4 17 3.5 34.5t-7.5 34.5q-5 14 -5.5 27t1.5 27t3.5 28.5t2.5 28.5q1 16 0 31t-6 31q-2 4 -1.5 7.5t0.5 8.5v64q0 3 0.5 6.5t0.5 6.5t1 6t0 6q-1 8 0 16.5t2 17.5q6 36 0 73q-4 17 -3.5 35
t0.5 36q0 4 0.5 7.5t-0.5 7.5q-2 17 -2 33.5v33.5v31.5t-2 32.5q-2 23 -0.5 46.5t5.5 46.5q2 11 4 23t3 23q0 10 -0.5 19.5t-5.5 18.5q-3 8 -1 16q3 10 -1 18q-1 2 0 5.5t2 5.5q0 2 3.5 4t6.5 1q12 -1 24.5 -1.5t24.5 -1.5q4 0 7 -3t4 -5q0 -4 0.5 -8t0.5 -8q-2 -7 -1 -13.5
t3 -13.5l1 -2q8 -17 7.5 -33t-4.5 -33l-4 -26t-2 -26q-1 -14 -2 -28.5t-3 -28.5q-2 -17 -1.5 -32.5t2.5 -31.5q5 -27 5.5 -54t-0.5 -54q0 -16 -1 -31.5t-1 -32.5v-22.5t1 -22.5q5 -35 2 -64q-2 -9 3 -14q6 -7 6 -19q-1 -12 0 -23.5t0 -22.5q-2 -26 -1.5 -51.5t0.5 -51.5
q0 -22 -3 -43q-2 -14 -2.5 -27.5t-1.5 -27.5q-1 -8 -1.5 -16t-1.5 -16q-1 -10 2 -20q8 -24 1 -44q-1 -2 -2 -5t-2 -5zM250 286q-10 -1 -19 -1t-19 -1q-26 -5 -51 -3h-12t-11 2q-3 1 -10 1q-16 -1 -31.5 0t-31.5 -1q-20 -3 -42 2q-13 3 -20 15q-1 1 -1 4q3 13 9 27q3 8 11 11
l6 2t5 1q10 -2 20 -1t20 -1q9 -2 18.5 -1t18.5 3q9 3 18 4t19 1q23 -1 46.5 0t47.5 2q13 2 25 -3q9 -3 10 -12v-7t2 -6q4 -5 -2 -9q-7 -5 -11 -12q-2 -5 -6 -9t-9 -8z" />
    <glyph glyph-name="daggerdbl" unicode="&#x2021;" horiz-adv-x="314" 
d="M273 238v-6.5t2 -6.5q3 -5 -1 -9q-6 -4 -11 -12q-5 -9 -15 -17q-10 0 -19.5 -0.5t-18.5 -1.5q-7 -1 -14 -1.5t-14 -1.5v-5q0 -11 0.5 -22.5t-0.5 -23.5q-2 -26 -1 -51.5t1 -51.5q0 -21 -3 -43q-2 -14 -2.5 -27.5t-2.5 -27.5q-1 -8 -1.5 -16t-1.5 -16q-2 -9 3 -20
q7 -23 1 -43q-1 -3 -2.5 -5.5t-2.5 -4.5q-14 -4 -28.5 -3t-27.5 -5l-3 4.5t-2 3.5q-2 7 -3 13l-2 12q-2 19 3 39q3 17 2.5 34t-6.5 34q-5 14 -5.5 27.5t1.5 27.5t3 28.5t2 28.5q1 15 0 30.5t-6 30.5q-1 4 -1 8v8v40h-17t-17 -2q-11 -2 -21 -1t-21 3q-7 2 -11.5 6t-8.5 9
q-3 2 -1 4q1 8 3 14t5 13q5 8 12 11q6 4 11 3q10 -2 19.5 -1t20.5 -1q15 -3 28 1q0 12 3 24q2 19 2.5 37t-3.5 36t-3.5 35.5t1.5 35.5v16q-1 2 -1 4.5t-1 4.5h-17t-17 -2q-11 -2 -21 -1t-21 3q-7 2 -11.5 6t-8.5 9q-3 2 -1 4q1 8 3 14t5 13q5 8 12 11q6 4 11 3
q10 -2 19.5 -1t20.5 -1q12 -3 25 0v31.5t-2 31.5q-2 24 0 47.5t6 46.5q2 11 3.5 22.5t2.5 22.5q2 22 -5 39q-3 9 -1 16q2 10 -2 18q-1 2 0 5l2 6q2 5 10 5q13 -1 25 -1.5t25 -1.5q3 -1 6.5 -3.5t3.5 -4.5q2 -11 1 -16q-2 -8 -0.5 -14.5t3.5 -13.5l1 -2q7 -17 6.5 -33
t-3.5 -33q-3 -13 -5 -25.5t-2 -26.5t-1.5 -28.5t-3.5 -28.5q-3 -26 0 -52q36 0 72 3q14 0 26 -4q9 -2 9 -12v-6.5t2 -6.5q3 -5 -1 -9q-6 -4 -11 -12q-5 -9 -15 -17q-10 0 -19.5 -0.5t-18.5 -1.5q-18 -3 -37 -3v-50q-1 -16 -1.5 -32t-1.5 -32v-23t2 -23q1 -6 1.5 -11.5
t0.5 -11.5q32 0 64 3q14 0 26 -4q9 -4 9 -12z" />
    <glyph glyph-name="perthousand" unicode="&#x2030;" horiz-adv-x="691" 
d="M287 432q-3 -8 -6.5 -15.5t-9.5 -12.5q-9 -9 -15 -23q-4 -7 -7.5 -13.5t-8.5 -12.5q-6 -10 -11.5 -20.5t-10.5 -21.5q-1 -3 -2 -5.5t-3 -5.5q-5 -9 -9.5 -19t-9.5 -21q-2 -5 -4.5 -9t-6.5 -9q-14 -16 -26.5 -35t-23.5 -39q-6 -11 -13 -23q-2 -4 -3.5 -7.5t-2.5 -8.5
q-4 -14 -10 -25t-14 -22q-5 -8 -9.5 -14.5t-9.5 -13.5q-5 -6 -10 -5q-5 2 -9 2.5t-9 3.5q-4 4 -3 9q0 8 4 13q5 11 13 23q3 6 7 11.5t8 10.5q6 8 10.5 15.5t9.5 15.5q6 12 11.5 23.5t13.5 22.5q4 4 5 7q3 11 8.5 18.5t10.5 16.5q8 13 14 27t13 28q2 4 3.5 8t3.5 8
q4 8 8.5 14.5t9.5 12.5q10 10 18 26q5 11 10.5 20.5t10.5 20.5q3 7 6.5 13t5.5 13q6 17 14.5 31.5t17.5 28.5q2 5 4.5 9t4.5 9q8 26 26 50q1 1 1 4q0 2 -3 2q-7 -1 -13.5 -1t-13.5 -2q-16 -3 -29 -2h-6.5t-6.5 1q-12 2 -24 3.5t-25 3.5q-1 1 -4 -4v-18q0 -21 -5.5 -39.5
t-13.5 -36.5q-4 -7 -5 -14q-4 -12 -9.5 -23t-10.5 -22q-4 -8 -7 -10q-12 -12 -22 -17q-11 -5 -21 -9t-21 -6q-18 -2 -33 12q-2 2 -2.5 3.5t-1.5 3.5q-3 7 -6.5 13t-5.5 14q-6 14 -15 23q-2 2 -2.5 3.5t-2.5 3.5q-3 4 -3 10q1 11 2 20.5t2 19.5q1 6 1 11.5t1 11.5
q2 13 4 25.5t7 23.5q1 2 1 3.5t1 3.5q7 11 13 23.5t14 23.5q4 6 9 10l10 8q10 7 19.5 12.5t20.5 8.5q9 5 18 1q14 -3 25 -10q3 -3 6.5 -5.5t7.5 -4.5q10 -9 26 -16q5 -2 9 -4.5t8 -4.5q19 -9 36 -8q10 1 19.5 2t18.5 1q17 2 29 7q4 2 7 2q21 6 39 21q5 5 11.5 8.5t11.5 7.5
q6 -1 10 -4t8 -8q7 -9 3 -17q0 -3 -3 -6q-8 -10 -13 -21t-11 -22q-13 -20 -26 -43q-2 -2 -4 -8q-5 -10 -10.5 -18t-11.5 -16q-5 -5 -11 -15.5t-10 -19.5q-3 -8 -5.5 -15t-5.5 -15zM153 562q2 13 -1.5 25.5t-9.5 23.5q-2 4 -3 5q-3 3 -6 5t-8 -1q-2 -2 -5.5 -2h-6.5
q-14 -2 -21 -16l-10 -18l-10 -18q-3 -6 -5.5 -12t-1.5 -14q0 -3 -2 -9q-2 -8 -4 -16.5t-4 -16.5q-3 -11 -1 -24q2 -6 2 -9q3 -28 24 -44q6 -3 11 -1q7 3 12 10q3 5 6 9.5t7 9.5q7 8 11.5 17t7.5 19q2 3 2.5 6t1.5 5q8 15 10.5 31.5t3.5 34.5zM445 235q1 -10 -2 -24
q-3 -17 -6.5 -33t-6.5 -33q-6 -29 -26 -53q-7 -8 -14 -15l-14 -14q-9 -8 -18.5 -13t-20.5 -8q-29 -7 -52 25q-4 7 -7 14t-4 15q-2 13 -4.5 25.5t-5.5 24.5q-2 5 -2.5 9t-1.5 9q-1 8 -1 15t2 15q1 2 1 4.5t1 4.5q5 30 19 50q6 8 10.5 17.5t8.5 19.5q6 15 16 22l12 8t12 7
q20 11 39 11q6 0 9 -3q4 -5 8 -6t9 -3q11 -5 19 -16q9 -13 13 -27t6 -30q1 -5 1 -9v-9zM415 201q5 19 4 30q-1 10 -1.5 16.5t-0.5 13.5q-2 9 -6 11q-3 2 -6 5l-6 6q-13 14 -29 5q-5 -2 -10 -6t-8 -12q-1 -4 -6 -9q-9 -11 -15.5 -24t-7.5 -30q0 -2 -0.5 -3t-0.5 -3
q-2 -17 -3.5 -35t-5.5 -35q-2 -12 4 -19q4 -5 7 -10.5t8 -10.5q5 -8 13 -5q5 2 9 3.5t8 3.5q14 7 22 24q4 8 7 15t8 14q2 3 4 11q5 24 12 44zM645 235q1 -10 -2 -24q-3 -17 -6.5 -33t-6.5 -33q-6 -29 -26 -53q-7 -8 -14 -15l-14 -14q-9 -8 -18.5 -13t-20.5 -8q-29 -7 -52 25
q-4 7 -7 14t-4 15q-2 13 -4.5 25.5t-5.5 24.5q-2 5 -2.5 9t-1.5 9q-1 8 -1 15t2 15q1 2 1 4.5t1 4.5q5 30 19 50q6 8 10.5 17.5t8.5 19.5q6 15 16 22l12 8t12 7q20 11 39 11q6 0 9 -3q4 -5 8 -6t9 -3q11 -5 19 -16q9 -13 13 -27t6 -30q1 -5 1 -9v-9zM615 201q5 19 4 30
q-1 10 -1.5 16.5t-0.5 13.5q-2 9 -6 11q-4 3 -12 11q-13 14 -29 5q-5 -2 -10 -6t-8 -12q-1 -4 -6 -9q-9 -11 -15.5 -24t-7.5 -30q0 -2 -0.5 -3t-0.5 -3q-2 -17 -3.5 -35t-5.5 -35q-2 -12 4 -19q4 -5 7 -10.5t8 -10.5q5 -8 13 -5q5 2 9 3.5t8 3.5q14 7 22 24q4 8 7 15t8 14
q2 3 4 11q5 24 12 44z" />
    <glyph glyph-name="bullet" unicode="&#x2022;" horiz-adv-x="168" 
d="M81 320q6 -5 12 -9.5t12 -9.5q13 -11 17 -29q4 -17 0 -33t-12 -32q-1 -3 -6 -8q-5 -4 -9.5 -8.5t-11.5 -10.5q-6 -1 -15.5 -0.5t-19.5 -4.5q-6 -3 -13 -1.5t-12 6.5q-8 6 -11 9q-9 7 -13 12t-6.5 9.5t-3.5 10.5t-2 17v12t1 12q1 3 2 6.5t3 5.5q15 16 23 33q2 5 6 8t9 5
q18 7 34 4q4 -1 8 -1.5t8 -2.5z" />
    <glyph glyph-name="dieresis" unicode="&#xa8;" horiz-adv-x="28" 
d="M81 640q4 -5 7.5 -10.5t6.5 -10.5q6 -10 3 -25q-2 -7 -5 -13t-4 -14q0 -3 -2 -3q-5 -2 -8 -5.5t-7 -5.5q-5 -4 -10.5 -5t-11.5 -1q-5 0 -9 3q-3 2 -6 3.5t-6 3.5q-24 13 -27 41q-3 7 -1.5 12.5t4.5 11.5q3 7 9 10q5 1 13 5q5 1 12 8q4 5 7 6t9 1q10 0 17 -4q5 -3 9 -8z
M247 618q3 -12 0 -23t-8 -22q-1 -2 -4 -5t-6.5 -6t-8.5 -7q-4 -1 -10.5 -0.5t-13.5 -3.5q-8 -3 -17 4q-3 2 -7 6q-12 10 -14 14t-3 19q-1 5 -0.5 8.5t0.5 8.5t3 8q9 9 16 23q3 6 11 9q11 5 23 3q3 -1 11 -3q4 -3 8 -6.5t8 -6.5q9 -6 12 -20z" />
    <glyph glyph-name="degree" unicode="&#xb0;" horiz-adv-x="25" 
d="M89 521q-15 -1 -30 9l-24 15q-10 7 -16 15.5t-8 20.5q-2 8 -4 14.5t-4 14.5q-2 5 -2.5 10t-0.5 10t2 9q6 10 11 19.5t13 18.5q13 15 31 19q5 2 11 3t12 3q14 3 27.5 1.5t27.5 -5.5q2 -1 3 -2t3 -2q15 -8 28 -17q17 -11 23.5 -28.5t-1.5 -40.5q-2 -5 -3.5 -10t-3.5 -10
q-3 -14 -10 -24.5t-18 -20.5q-5 -4 -10.5 -7.5t-10.5 -6.5q-3 -3 -9 -3q-9 -2 -18 -3t-19 -2zM144 620v3q1 11 -4 19t-12 16q-3 3 -10 5q-8 3 -15 3t-15 -1q-16 -3 -22 -19q-1 -3 -1.5 -6.5t-3.5 -6.5q-4 -4 -4.5 -9t-0.5 -10q0 -8 0.5 -14.5t1.5 -13.5q0 -7 5 -10
q3 -3 6 -5.5t6 -4.5q13 -8 20.5 -8t20.5 8q4 2 10 6q9 8 12 14q3 8 5.5 16t0.5 18z" />
    <glyph glyph-name="plusminus" unicode="&#xb1;" horiz-adv-x="505" 
d="M470 333q4 -10 -1 -20q-5 -5 -8.5 -11t-7.5 -11q-30 -14 -60 -10q-8 2 -16.5 2t-16.5 1q-8 0 -17 0.5t-18 -0.5q-10 -1 -19.5 -1.5t-19.5 0.5q-8 0 -8 -7q-2 -11 -2.5 -22.5t-1.5 -22.5q-1 -5 -1 -10.5v-10.5q-2 -20 -2 -39.5t1 -39.5q1 -4 1 -7.5v-6.5q-2 -10 -7 -15
q-4 -5 -7.5 -9t-8.5 -8q-3 -3 -7.5 -5t-9.5 0q-2 2 -4 5.5t-4 5.5q-9 9 -9 25v29v14q-2 13 -2 26v27q0 5 -0.5 10.5t-0.5 10.5q-1 5 -1 10.5v10.5q1 5 1 8.5v8.5q0 12 -13 12q-26 1 -50.5 1.5t-50.5 0.5q-3 0 -6.5 -0.5t-7.5 0.5q-20 3 -42 -2q-2 -1 -6 1q-9 4 -14 15
q-2 4 -2 7q2 12 7 22q5 5 9.5 8.5t12.5 4.5q11 0 23 1t23 2q5 1 8.5 0.5t8.5 -1.5q35 -6 67 1q4 1 8 1h8q3 1 6 1t6 1q2 0 4 2t2 4q1 3 1 9t0.5 12t0.5 12q-1 12 1.5 24t0.5 25q-2 11 -1 23t-1 23q-1 18 8 34q5 11 15.5 15.5t21.5 2.5q4 -2 7 -5q10 -13 10 -29v-32
q-3 -57 0 -113q2 -6 8 -8q14 -1 29 -1.5t29 -1.5q3 0 6 0.5t6 0.5q27 -5 54 0q6 0 9 -1q11 -2 22 -3t22 -1q5 0 7 -6zM449 39q1 -4 1 -7t3 -6q4 -6 -3 -9q-11 -5 -16 -12q-4 -5 -10 -9l-12 -8q-14 -1 -28 -1t-28 -1q-20 -2 -38.5 -2.5t-37.5 -0.5h-17.5t-17.5 2q-8 2 -14 1
q-23 -1 -46.5 0t-46.5 -1q-30 -3 -62 2q-20 3 -30 15q-2 1 -2 4q5 15 13 27q6 8 17 11q7 3 17 3q14 -2 29 -1t29 -1t27.5 -1t27.5 4q14 2 27.5 3t27.5 1q35 -1 69.5 0t69.5 2q19 1 37 -3q14 -4 14 -12z" />
    <glyph glyph-name="acute" unicode="&#xb4;" horiz-adv-x="25" 
d="M87 694q10 2 17.5 0.5t15.5 -4.5q12 -5 21.5 -12.5t18.5 -16.5q3 -4 1 -9q-3 -6 -8 -11t-10 -8.5t-10 -7.5q-8 -6 -14 -12l-12 -12q-10 -11 -20 -21l-21 -21q-2 -2 -3.5 -3t-3.5 -3q-8 -4 -14 -9t-13 -10q-3 -3 -7 -5.5t-8 -4.5q-6 -3 -11.5 0.5t-5.5 10.5t1 13.5t5 13.5
q7 11 12.5 21t12.5 21t13.5 20.5t13.5 20.5q5 7 10 16q5 8 9.5 16.5t9.5 16.5z" />
    <glyph glyph-name="cedilla" unicode="&#xb8;" horiz-adv-x="25" 
d="M101 -54q2 0 4.5 -0.5t4.5 -0.5q11 0 22 -2l22 -4q2 0 3.5 -1t3.5 -2q9 -3 10 -12q1 -2 1 -4.5t1 -4.5q1 -5 6 -12q9 -10 9 -26v-9q0 -11 -6 -18q-11 -14 -24 -25t-30 -18q-18 -7 -41 -7q-5 0 -8.5 0.5t-7.5 1.5q-15 3 -31 0q-6 -1 -11.5 0t-10.5 3q-11 4 -15.5 12.5
t-1.5 19.5q1 7 10 9q12 2 20 -4q12 -7 25 -6q9 0 18 -3q9 -2 17.5 0.5t16.5 5.5q3 2 5 5q2 2 3 5t3 5q8 20 -7 35l-8 8q-15 14 -35 6l-15 -6q-2 -1 -4.5 -1t-4.5 -1q-3 0 -6 3t-3 6q1 7 1.5 14t5.5 13q6 11 10 21.5t7 21.5q5 12 9 24.5t10 23.5q2 5 3 10t3 10q4 11 16 10
q3 0 6 -0.5t6 -0.5q8 -3 16 0q4 1 7 -2.5t1 -6.5q-8 -16 -12.5 -32t-12.5 -31q-1 -2 -2 -4.5t-1 -4.5q0 -5 -2.5 -8.5t-4.5 -8.5q-1 -2 -1 -7z" />
    <glyph glyph-name="periodcentered" unicode="&#xb7;" horiz-adv-x="146" 
d="M0 248q1 5 1 8.5t1 7.5q2 21 18 29q2 1 4.5 2.5t4.5 3.5q15 9 32 6q32 -8 46 -33q11 -17 5 -41q0 -3 -3 -6q-6 -6 -10 -9q-16 -10 -34 -20q-7 -4 -16 -4q-7 0 -10 4l-7 7q-7 10 -15 14q-18 11 -17 31z" />
    <glyph glyph-name="Scaron" unicode="&#x160;" horiz-adv-x="475" 
d="M120 889q-5 8 1 16q3 4 6.5 7t6.5 6t5 1q5 -4 11 -6t11 -7q11 -8 21 -17.5t21 -18.5q11 -10 21.5 -19.5t23.5 -19.5q3 3 6 5.5t5 4.5q5 4 8.5 8t8.5 8q9 8 18 15t18 15q8 9 23 16q7 3 14 8q5 4 9 3t8 -3q3 -2 9 -8q1 -2 1 -7q-2 -6 -4 -8q-3 -7 -7 -9q-11 -11 -21 -23.5
t-19 -25.5q-8 -10 -15 -19.5t-14 -20.5q-6 -10 -13 -19.5t-12 -20.5q-4 -7 -15 -9q-2 0 -2.5 0.5t-2.5 0.5q-12 -2 -20 4t-13 16q-2 3 -3 6.5t-3 6.5l-4 8t-4 9q-3 3 -9 11q-2 2 -5 4.5t-5 5.5t-2.5 5.5t-2.5 4.5q-5 6 -11 11l-12 10q-12 9 -20.5 21t-16.5 24zM380 541l-3 9
q-4 10 -7.5 19.5t-8.5 19.5q-8 13 -20 22q-10 8 -18.5 15.5t-17.5 15.5q-7 7 -19 12t-24.5 8t-25.5 6q-2 1 -4.5 0.5t-4.5 1.5q-14 4 -27 -4t-26 -15.5t-25 -18.5q-4 -4 -8 -7.5t-8 -8.5q-7 -8 -11.5 -17.5t-6.5 -20.5q-1 -5 -2 -9t-2 -9q-2 -14 3 -25q9 -20 21 -39
q10 -17 27 -28q10 -5 19.5 -10.5t18.5 -12.5q8 -7 21 -10l36 -9q5 -1 8.5 -1.5t8.5 -1.5q7 0 10 -8q4 -8 5 -12q4 -3 12 -3q20 2 34 -12q4 -3 8 -5.5t8 -4.5q17 -9 31 -21.5t26 -26.5q7 -8 13 -15.5t12 -15.5q4 -4 6 -7q3 -5 4.5 -10t-0.5 -10q-4 -9 -3 -17.5t5 -16.5
q5 -9 2 -18l-4 -24t-3 -24q-1 -8 -2.5 -15t-3.5 -15q-8 -27 -23 -46q-8 -9 -16 -18.5t-16 -18.5q-11 -14 -27 -17q-5 -1 -8.5 -2.5t-7.5 -3.5q-12 -5 -17 -15q-5 -9 -17 -11q-15 -3 -30.5 -5.5t-31.5 -0.5q-11 2 -22.5 1.5t-22.5 0.5h-14t-14 1q-11 0 -23 3q-9 2 -17.5 3.5
t-16.5 3.5q-22 3 -36 11q-15 6 -30 6q-3 0 -6 -1t-5 0q-10 2 -14.5 5t-5.5 14q0 4 -0.5 7.5t-0.5 6.5q1 9 -1 18t-4 17q-1 4 -3 14q0 8 0.5 17t-1.5 18q-3 16 -3 32q0 8 7 11q12 7 27 2q3 -3 3 -4q2 -4 2 -6q1 -5 1 -8.5t1 -8.5q3 -16 13 -26q9 -9 17 -18.5t17 -17.5
q12 -15 34 -25q8 -3 16.5 -7t17.5 -9q7 -3 14 -5t15 -2q11 -1 23 -1t23 3q4 2 7 1t7 -1q20 -3 37 1q7 1 13 6q9 7 16.5 14.5t12.5 18.5t10 19q3 5 6 9.5t6 9.5q5 7 5 13q2 14 3 27t2 27q1 12 -5 25q-6 9 -12.5 17t-14.5 15l-30 27q-14 13 -32 17q-14 2 -26.5 7t-24.5 11
q-5 3 -9.5 5t-9.5 4q-8 4 -17 7.5t-17 7.5q-13 5 -28 17q-6 5 -13 10q-13 8 -16 22q-1 7 -9 9q-8 1 -14 3.5t-12 6.5q-9 4 -12 15q-2 9 -5.5 17.5t-8.5 16.5l-9 24q-3 9 -3 18q-1 11 -1.5 20.5t-1.5 19.5q0 14 5 23l4 6t4 5q10 15 12 33q0 23 18 44q4 5 7.5 10t8.5 10
q18 17 44 25q23 7 42 8q10 0 18 4q25 9 53 4q23 -5 44 -6q11 -1 21 -3.5t20 -6.5q4 -1 7.5 -2t8.5 -2q15 -2 27 -7q3 -1 6.5 -1.5t6.5 -1.5q13 -1 16 -14q1 -8 1.5 -15t-0.5 -15q-2 -10 -2 -19t3 -18q0 -2 0.5 -2.5t0.5 -2.5q1 -27 6 -56q2 -6 -5 -6h-22zM75 484q-1 1 -1 2
t-1 2q-2 1 -4 -1q0 -4 2 -4q1 -1 1.5 0t2.5 1z" />
    <glyph glyph-name="guilsinglleft" unicode="&#x2039;" horiz-adv-x="358" 
d="M313 457q-4 -2 -7 -4.5t-7 -2.5q-11 -2 -20.5 -9t-19.5 -16q-7 -7 -13.5 -13t-13.5 -11q-5 -3 -9.5 -8.5t-9.5 -12.5q-7 -13 -14 -22q-12 -15 -23 -18q-8 -3 -17 -6.5t-17 -6.5q-6 -2 -10 -8q-4 -5 -10 -8q-11 -7 -21.5 -17.5t-21.5 -23.5q-1 -2 -1 -5t2 -5q7 -12 17 -15
q9 -2 17 -8.5t16 -14.5q14 -14 28 -25.5t28 -21.5q12 -9 24 -18.5t23 -20.5q3 -2 5.5 -4t4.5 -5q14 -17 28 -28.5t29 -20.5q2 -2 3.5 -2t3.5 -2q13 -10 13 -39q1 -3 0.5 -6t-0.5 -6q1 -16 -3.5 -22.5t-10.5 -4.5t-11.5 5t-10.5 7t-10.5 8.5t-10.5 11.5t-10.5 10.5t-10.5 9.5
q-13 16 -30 19q-11 2 -22 11q-12 8 -24 17.5t-24 18.5l-22 18t-22 21l-1 1q-19 12 -37 27t-36 26q-8 4 -12 3q-7 -1 -9 15q-1 7 -1.5 13t-0.5 13q-2 8 -1.5 17t1.5 17q2 8 5 15q3 5 8 9q11 8 20.5 16.5t19.5 19.5q5 5 9 8t9 6q9 5 17.5 9.5t16.5 8.5q13 5 22 14
q10 10 19.5 17t20.5 14q5 3 9 6.5t9 7.5q15 14 30.5 28t30.5 28q5 5 9 8t9 7t9 7.5t9 8.5q10 11 23 13q3 1 5 -3t3 -9q3 -22 2 -41q-1 -6 -1.5 -12.5t-1.5 -13.5z" />
    <glyph glyph-name="guilsinglright" unicode="&#x203a;" horiz-adv-x="363" 
d="M7 73q4 2 7 4.5t7 2.5q11 2 20.5 9t19.5 16q7 7 13.5 13t13.5 11q5 3 9.5 8.5t9.5 12.5q6 13 14 22q12 15 23 18q8 3 17 6.5t17 6.5q6 2 10 8q4 5 10 8q11 7 21.5 17.5t21.5 23.5q1 2 1 5t-2 5q-7 12 -17 15q-9 2 -17 8.5t-16 14.5q-14 14 -28 25.5t-28 21.5
q-12 9 -24 18.5t-23 20.5q-3 2 -5.5 4t-4.5 5q-14 17 -28 28.5t-29 20.5q-2 2 -3.5 2t-3.5 2q-13 10 -13 39q-1 3 -0.5 6t0.5 6q-1 16 3.5 22.5t10.5 4.5t11.5 -5t10.5 -7t10.5 -8.5t10.5 -11.5t10.5 -10.5t10.5 -9.5q13 -16 30 -19q11 -2 22 -11q12 -8 24 -17.5t24 -18.5
l22 -18t22 -21l1 -1q19 -12 37 -27t36 -26q8 -4 12 -3q7 1 9 -15q1 -7 1.5 -13t0.5 -13q2 -8 1.5 -17t-1.5 -17q-2 -8 -5 -15q-3 -6 -8 -9q-11 -8 -20.5 -16.5t-19.5 -19.5q-5 -5 -9 -8t-9 -6q-9 -5 -17.5 -9.5t-16.5 -8.5q-13 -5 -22 -14q-10 -10 -19.5 -17t-20.5 -14
q-5 -3 -9 -6.5t-9 -7.5q-15 -14 -30.5 -28t-30.5 -28q-5 -5 -9 -8t-9 -7t-9 -7.5t-9 -8.5q-10 -11 -23 -13q-3 -1 -5 3t-3 9q-3 22 -2 41q1 6 1.5 12.5t1.5 13.5z" />
    <glyph glyph-name="Zcaron" unicode="&#x17d;" horiz-adv-x="608" 
d="M187 878q-5 8 1 16q3 4 6.5 7t6.5 6t5 1q5 -4 11 -6t11 -7q11 -8 21 -17.5t21 -18.5q11 -10 21.5 -19.5t23.5 -19.5q3 3 6 5.5t5 4.5q5 4 8.5 8t8.5 8q9 8 18 15t18 15q8 9 23 16q7 3 14 8q5 4 9 3t8 -3q3 -2 9 -8q1 -2 1 -7q-2 -6 -4 -8q-3 -7 -7 -9q-11 -11 -21 -23.5
t-19 -25.5q-8 -10 -15 -19.5t-14 -20.5q-6 -10 -13 -19.5t-12 -20.5q-4 -7 -15 -9q-2 0 -2.5 0.5t-2.5 0.5q-12 -2 -20 4t-13 16q-2 3 -3 6.5t-3 6.5l-4 8t-4 9q-3 3 -9 11q-2 2 -5 4.5t-5 5.5t-2.5 5.5t-2.5 4.5q-5 6 -11 11l-12 10q-12 9 -20.5 21t-16.5 24zM51 562
q-5 1 -7 4q-8 6 -9.5 16t0 21t4 21.5t4.5 18.5q1 3 1 11q-1 9 1 17.5t4 17.5q1 7 12 14q4 2 6 1q11 -5 22 -4t22 -4q11 -1 23 -2t24 0q14 2 29 1.5t29 -2.5q22 -2 43.5 -2.5t43.5 -0.5q25 1 50 0t50 -5q12 -2 23.5 -2t23.5 2q11 2 23 2.5t23 0.5q18 0 29 2t22 -11
q8 -10 10.5 -21.5t-5.5 -20.5l-15 -18q-10 -13 -19 -25.5t-18 -25.5q-10 -12 -19.5 -23.5t-20.5 -22.5q-8 -8 -15 -16.5t-14 -17.5q-15 -23 -31.5 -44t-33.5 -42q-18 -21 -32 -46q-9 -17 -20.5 -31t-24.5 -28q-20 -21 -27.5 -42t-20.5 -44q-7 -14 -17.5 -25.5l-21 -23
l-21 -23t-17.5 -25.5q-6 -12 -8.5 -26t8.5 -25q7 -8 17.5 -10t22.5 -1.5l24 1t21 -0.5q22 -3 46 0q18 2 38.5 2.5t41.5 1t41 3.5t38 10t28.5 23.5t19 34.5t18.5 33t27 20q9 3 21 1.5t14 -12.5q2 -8 -4.5 -16t-9.5 -15q-6 -15 -8.5 -35.5t-7 -40t-14 -35.5t-30.5 -23
q-12 -3 -25.5 -3.5t-27.5 0.5t-28 2.5t-26 1.5q-14 -1 -29 -1h-29h-35q-12 1 -23.5 1t-23.5 1h-8t-8 1q-28 6 -59 4q-14 0 -27 -3q-5 -2 -9.5 -2h-9.5q-24 1 -48 1.5t-48 0.5q-10 -1 -19 1.5t-17 5.5t-8 11q0 9 2.5 17.5t8.5 14.5q12 12 18 27q5 11 12 17q8 7 14 15t11 16
q5 7 10 13t10 13q12 17 23.5 32.5t23.5 32.5q6 8 11.5 17t12.5 17q5 5 8.5 10t8.5 10q8 10 15.5 20t12.5 23q9 15 18 30.5t23 28.5q15 14 30 32q2 2 4 6q2 6 3 7q7 7 11.5 15.5t8.5 18.5t17 15q6 1 6 9q0 1 0.5 2t0.5 2q0 10 8 13q11 5 8 15v2q0 10 7 11q2 1 3.5 1t3.5 1
q7 2 8 7q1 2 3 4q4 10 13 16q6 5 10.5 11t9.5 12q6 11 12 20t13 20q2 3 3 7t3 8q3 12 -9 12q-5 -1 -8.5 -1t-8.5 -1q-17 -2 -33.5 -2t-33.5 1q-11 1 -21.5 0.5t-21.5 -0.5h-14q-10 0 -19.5 -1t-19.5 -4q-21 -6 -46 -4q-26 2 -53 -7.5t-43 -29.5q-5 -6 -9 -14t-9.5 -14.5
t-12.5 -9.5t-16 2z" />
    <glyph glyph-name="quoteleft" unicode="&#x2018;" 
d="M159 652q1 -4 1.5 -7t0.5 -6q0 -5 -3 -5q-8 -3 -16 -2.5t-14 8.5q-6 7 -11.5 13.5t-11.5 12.5l-4.5 4.5t-4.5 3.5q-12 5 -20 14l-2 2q-11 6 -19.5 14.5t-16.5 18.5q-3 4 -9 6q-10 4 -15 15q-2 8 -8 13l-4.5 4.5t-1.5 5.5q2 11 10 15q24 12 51 18q4 0 6 1q10 2 17.5 -2
t14.5 -11q2 -2 4 -8q2 -5 2.5 -10t1.5 -10q0 -10 6 -17q5 -6 8.5 -12.5t7.5 -13.5q4 -8 8 -15.5t9 -14.5q7 -8 11 -16.5t2 -18.5z" />
    <glyph glyph-name="quoteright" unicode="&#x2019;" 
d="M2 652q-2 10 2 18.5t11 16.5q5 7 9 14.5t8 15.5q4 7 7.5 13.5t8.5 12.5q6 7 6 17q1 5 1.5 10t2.5 10q2 6 4 8q7 7 14.5 11t17.5 2q2 -1 6 -1q27 -6 51 -18q8 -4 10 -15q1 -3 -1.5 -5.5l-4.5 -4.5q-6 -5 -8 -13q-5 -11 -15 -15q-6 -2 -9 -6q-8 -10 -16.5 -18.5
t-19.5 -14.5l-2 -2q-8 -9 -20 -14q-2 -1 -4.5 -3.5l-4.5 -4.5q-6 -6 -11.5 -12.5t-11.5 -13.5q-6 -8 -14 -8.5t-16 2.5q-3 0 -3 5q0 3 0.5 6t1.5 7z" />
    <glyph glyph-name="quotedblleft" unicode="&#x201c;" horiz-adv-x="315" 
d="M159 652q1 -4 1.5 -7t0.5 -6q0 -5 -3 -5q-8 -3 -16 -2.5t-14 8.5q-6 7 -11.5 13.5t-11.5 12.5l-4.5 4.5t-4.5 3.5q-12 5 -20 14l-2 2q-11 6 -19.5 14.5t-16.5 18.5q-3 4 -9 6q-10 4 -15 15q-2 8 -8 13l-4.5 4.5t-1.5 5.5q2 11 10 15q24 12 51 18q4 0 6 1q10 2 17.5 -2
t14.5 -11q2 -2 4 -8q2 -5 2.5 -10t1.5 -10q0 -10 6 -17q5 -6 8.5 -12.5t7.5 -13.5q4 -8 8 -15.5t9 -14.5q7 -8 11 -16.5t2 -18.5zM287 652q1 -4 1.5 -7t0.5 -6q0 -5 -3 -5q-8 -3 -16 -2.5t-14 8.5q-6 7 -11.5 13.5t-11.5 12.5l-4.5 4.5t-4.5 3.5q-12 5 -20 14l-2 2
q-11 6 -19.5 14.5t-16.5 18.5q-3 4 -9 6q-10 4 -15 15q-2 8 -8 13l-4.5 4.5t-1.5 5.5q2 11 10 15q24 12 51 18q4 0 6 1q10 2 17.5 -2t14.5 -11q2 -2 4 -8q2 -5 2.5 -10t1.5 -10q0 -10 6 -17q5 -6 8.5 -12.5t7.5 -13.5q4 -8 8 -15.5t9 -14.5q7 -8 11 -16.5t2 -18.5z" />
    <glyph glyph-name="quotedblright" unicode="&#x201d;" horiz-adv-x="315" 
d="M130 652q-2 10 2 18.5t11 16.5q5 7 9 14.5t8 15.5q4 7 7.5 13.5t8.5 12.5q6 7 6 17q1 5 1.5 10t2.5 10q2 6 4 8q7 7 14.5 11t17.5 2q2 -1 6 -1q27 -6 51 -18q8 -4 10 -15q1 -3 -1.5 -5.5l-4.5 -4.5q-6 -5 -8 -13q-5 -11 -15 -15q-6 -2 -9 -6q-8 -10 -16.5 -18.5
t-19.5 -14.5l-2 -2q-8 -9 -20 -14q-2 -1 -4.5 -3.5l-4.5 -4.5q-6 -6 -11.5 -12.5t-11.5 -13.5q-6 -8 -14 -8.5t-16 2.5q-3 0 -3 5q0 3 0.5 6t1.5 7zM2 652q-2 10 2 18.5t11 16.5q5 7 9 14.5t8 15.5q4 7 7.5 13.5t8.5 12.5q6 7 6 17q1 5 1.5 10t2.5 10q2 6 4 8q7 7 14.5 11
t17.5 2q2 -1 6 -1q27 -6 51 -18q8 -4 10 -15q1 -3 -1.5 -5.5l-4.5 -4.5q-6 -5 -8 -13q-5 -11 -15 -15q-6 -2 -9 -6q-8 -10 -16.5 -18.5t-19.5 -14.5l-2 -2q-8 -9 -20 -14q-2 -1 -4.5 -3.5l-4.5 -4.5q-6 -6 -11.5 -12.5t-11.5 -13.5q-6 -8 -14 -8.5t-16 2.5q-3 0 -3 5
q0 3 0.5 6t1.5 7z" />
    <glyph glyph-name="emdash" unicode="&#x2014;" horiz-adv-x="550" 
d="M458 291q-17 -1 -33.5 -1t-34.5 -1q-45 -4 -89 -3h-21t-19 2q-5 1 -10 1h-8q-28 -1 -55.5 0t-56.5 -1q-19 -2 -37 -1t-37 3q-24 3 -36 14q-1 1 -1 3q2 7 6.5 13t9.5 13t20 10q5 1 9.5 2t9.5 1q17 -2 35 -1t35 -1t33 -1t32 3q17 2 33 3t33 1q42 -1 83 0t83 2q22 2 45 -3
l10 -4t6 -7v-6.5t5 -5.5q4 -6 -5 -8q-5 -2 -9.5 -5t-9.5 -7q-7 -8 -26 -15z" />
    <glyph glyph-name="endash" unicode="&#x2013;" horiz-adv-x="391" 
d="M315 286q-12 -1 -23 -1t-23 -1q-30 -5 -60 -3h-14.5t-12.5 2q-3 1 -6.5 1h-5.5q-19 -1 -37.5 0t-37.5 -1q-23 -3 -50 2q-15 3 -24 15q-1 1 -1 4q3 12 11 27q3 8 13 11q4 1 7 2t6 1q11 -2 23.5 -1t23.5 -1t22 -1t22 3q11 3 22 4t22 1q28 -1 55.5 0t56.5 2q15 2 30 -3
q10 -4 11 -12v-7t3 -6q4 -6 -3 -9q-3 -2 -6.5 -5t-6.5 -7q-2 -5 -7 -9z" />
    <glyph glyph-name="scaron" unicode="&#x161;" horiz-adv-x="372" 
d="M87.0498 605.694q-3.41699 5.4668 0.683594 10.9336q2.05078 2.7334 4.44238 4.7832t4.44238 4.10059q2.0498 2.0498 3.41699 0.682617q3.41699 -2.7334 7.51758 -4.09961q4.10059 -1.36719 7.51758 -4.78418q7.51758 -5.4668 14.3516 -11.958
q6.83398 -6.49219 14.3516 -12.6416q7.51758 -6.83398 14.6934 -13.3262q7.17578 -6.49121 16.0596 -13.3252q2.05078 2.0498 4.10059 3.75879q2.05078 1.70801 3.41699 3.0752q3.41699 2.7334 5.80957 5.4668q2.3916 2.7334 5.80859 5.4668q6.15039 5.4668 12.3018 10.25
q6.15039 4.7832 12.3008 10.25q5.46777 6.15039 15.7188 10.9336q4.78418 2.0498 9.56738 5.4668q3.41797 2.7334 6.15137 2.0498q2.7334 -0.682617 5.4668 -2.0498q2.05078 -1.36621 6.15137 -5.4668q0.682617 -1.36621 0.682617 -4.7832
q-1.36621 -4.10059 -2.7334 -5.4668q-2.0498 -4.7832 -4.7832 -6.15039q-7.51758 -7.5166 -14.3525 -16.0586q-6.83398 -8.54199 -12.9844 -17.4248q-5.46777 -6.83398 -10.251 -13.3262q-4.78418 -6.49121 -9.56836 -14.0078q-4.09961 -6.83398 -8.88379 -13.3262
q-4.78418 -6.49121 -8.20117 -14.0078q-2.7334 -4.78418 -10.251 -6.15039q-1.36719 0 -1.70898 0.341797t-1.70801 0.341797q-8.20117 -1.36719 -13.668 2.73242q-5.46777 4.10059 -8.88477 10.9336q-1.36719 2.05078 -2.0498 4.44238q-0.683594 2.3916 -2.05078 4.44141
q-1.36621 2.7334 -2.7334 5.4668t-2.7334 6.15039q-2.05078 2.0498 -6.15137 7.5166q-1.36621 1.36719 -3.41699 3.0752q-2.0498 1.70801 -3.41699 3.75879q-1.36621 2.0498 -1.70801 3.75781q-0.341797 1.70898 -1.70898 3.0752q-3.41699 4.10059 -7.51758 7.5166
l-8.20117 6.83398q-8.2002 6.15039 -14.0098 14.3506q-5.80859 8.2002 -11.2764 16.4004zM93 342q2 -5 5 -8.5t5 -7.5q6 -12 18 -18q5 -2 10 -5.5t10 -6.5q8 -4 15.5 -6.5t15.5 -2.5q9 0 16 -4q10 -4 19 -9t15 -14q4 -6 11 -9q17 -6 31 -21q6 -6 12.5 -11.5t13.5 -11.5
q10 -8 18 -18q5 -7 7.5 -13.5t3.5 -14.5q0 -8 1 -16.5t2 -16.5q3 -11 -4 -25q-2 -2 -2.5 -5t-2.5 -5q-5 -8 -9 -15.5t-6 -16.5q-5 -9 -11 -17.5t-16 -13.5q-8 -5 -15.5 -8.5t-15.5 -8.5q-11 -5 -27 -7q-12 0 -24 -2.5t-24 -6.5q-7 -2 -13.5 -3t-13.5 -2q-8 -1 -15.5 -0.5
t-15.5 3.5q-8 2 -15.5 4.5t-15.5 4.5q-4 1 -7 1.5t-7 0.5q-5 2 -8 -2q-6 -9 -14 -12.5t-16 -2t-14 7.5t-6 17q-2 17 0 32.5t2 32.5q1 13 -3.5 27t-1.5 27q2 11 12 12.5t18 -3.5q6 -4 9 -10.5t4.5 -14.5l3 -16t3.5 -14q4 -8 7 -12q10 -18 29 -22q12 -3 24.5 -6.5t25.5 -6.5
h11q7 2 14 3t13 4t12 5t12 5q5 2 9 5t9 6q6 4 6 9q3 11 3.5 21t-0.5 21q0 12 -7 20l-6 8t-6 9q-16 22 -38 29q-16 6 -30.5 13.5t-28.5 15.5q-5 1 -10 6q-10 8 -20.5 14t-21.5 11q-13 5 -21.5 14t-15.5 21q-8 15 -10 36q0 7 -0.5 13.5t0.5 14.5v9t2 9q7 27 23 54q4 6 9 10
t10 9q5 2 9.5 3t9.5 2q21 6 36 21q12 12 27 11q2 -1 5 0q21 5 41 1.5t40 -7.5q5 -2 10.5 -2.5t10.5 -2.5q6 -1 10 4q2 4 5 4q20 5 34 -3q11 -6 11 -19q-1 -2 -1 -4.5t-1 -4.5q0 -9 -0.5 -18t-1.5 -17q0 -16 0.5 -32t0.5 -32q0 -10 -12 -12q-5 -2 -11 -2h-12q-2 -1 -5 2t-4 5
q-2 11 -5 20.5t-7 19.5q-2 5 -4.5 9.5t-4.5 9.5q-8 13 -21 21q-5 2 -8.5 4.5t-8.5 4.5q-8 5 -17 6.5t-19 2.5q-12 0 -23 -4l-12 -6q-26 -13 -27 -39q-2 -10 -3.5 -19.5t-3.5 -19.5z" />
    <glyph glyph-name="zcaron" unicode="&#x17e;" horiz-adv-x="403" 
d="M91.4443 611.708q-4.07324 5.60059 0.814453 11.2002q2.44434 2.7998 5.2959 4.90039q2.85156 2.09961 5.29492 4.2002q2.44434 2.09961 4.07422 0.699219q4.07324 -2.7998 8.96094 -4.19922q4.88867 -1.40039 8.96191 -4.90039q8.96191 -5.60059 17.1084 -12.25
q8.14746 -6.65039 17.1094 -12.9502q8.96094 -7 17.5156 -13.6504t19.1455 -13.6504q2.44434 2.09961 4.8877 3.84961q2.44434 1.75 4.07422 3.15039q4.07324 2.7998 6.9248 5.60059q2.85059 2.7998 6.9248 5.59961q7.33203 5.60059 14.6641 10.5
q7.33203 4.90039 14.665 10.5q6.51758 6.30078 18.7373 11.2002q5.70312 2.10059 11.4062 5.60059q4.07324 2.7998 7.33203 2.09961q3.25879 -0.699219 6.51758 -2.09961q2.44434 -1.40039 7.33203 -5.60059q0.81543 -1.39941 0.81543 -4.89941
q-1.62988 -4.2002 -3.25879 -5.60059q-2.44434 -4.89941 -5.70312 -6.2998q-8.96191 -7.7002 -17.1084 -16.4502q-8.14746 -8.75 -15.4795 -17.8506q-6.51758 -7 -12.2207 -13.6504q-5.70312 -6.64941 -11.4053 -14.3496q-4.88867 -7.00098 -10.5908 -13.6504
q-5.70312 -6.65039 -9.77734 -14.3506q-3.25781 -4.90039 -12.2197 -6.2998q-1.62988 0 -2.03711 0.349609q-0.407227 0.350586 -2.03613 0.350586q-9.77734 -1.40039 -16.2949 2.7998t-10.5908 11.2002q-1.62891 2.09961 -2.44434 4.5498q-0.814453 2.4502 -2.44336 4.5498
q-1.62988 2.80078 -3.25879 5.60059q-1.62988 2.7998 -3.25879 6.2998q-2.44434 2.10059 -7.33203 7.7002q-1.62988 1.40039 -4.07422 3.15039q-2.44336 1.75 -4.07324 3.84961q-1.62988 2.10059 -2.03711 3.85059t-2.03613 3.14941q-4.07422 4.2002 -8.96191 7.7002
t-9.77637 7q-9.77637 6.30078 -16.7012 14.7012q-6.9248 8.39941 -13.4424 16.7998zM23 466q13 0 25.5 1t25.5 4q9 2 18.5 1.5t18.5 -1.5q8 -2 11 -3q10 -1 16.5 -2t11.5 -1.5t10 0t14 1.5q21 3 42 0q6 -2 12.5 -1.5t12.5 0.5q14 1 33 1.5t31 -6.5q5 -3 7.5 -6.5t5.5 -7.5
q7 -7 14 -12t2 -16q-2 -7 -8.5 -15t-12.5 -13q-3 -3 -5 -6.5t-4 -7.5q-7 -11 -13.5 -21t-11.5 -21q-11 -21 -29 -42q-5 -6 -9 -12.5t-9 -12.5q-6 -10 -16 -23q-12 -15 -23 -30.5t-19 -33.5q-6 -15 -15 -27q-7 -8 -12.5 -16.5t-10.5 -18.5q-5 -11 -12 -20l-14 -18
q-5 -7 -9.5 -13.5t-9.5 -13.5q-1 -2 0 -4t3 -2q5 0 10.5 -1t10.5 0q10 1 19 0.5t18 -1.5q30 -3 56 4q10 2 19.5 4t19.5 3q13 0 21 8q10 10 20 17.5t18 19.5q5 8 10 15t16 8q14 0 18.5 -7t4 -17t-4 -21t-4.5 -18q-2 -15 -11.5 -28t-23.5 -20q-16 -8 -33.5 -6.5t-34.5 -0.5
q-4 0 -8 -0.5t-8 -0.5q-12 1 -23.5 0.5t-23.5 -1.5q-21 -1 -42 1t-41 6q-19 2 -37.5 1.5t-36.5 1.5q-14 2 -20 15t-1 26q4 12 13 24.5t17 22.5q2 3 4.5 6.5t4.5 6.5q7 10 14 19t13 20q9 13 12 30q3 16 15 26q8 7 14 14.5t15 12.5q2 2 3.5 4.5t3.5 4.5q8 11 17 25q2 2 4 6
q5 9 10.5 17.5t10.5 16.5l21 36q8 14 15 26.5t15 26.5q2 2 3 5t3 5q2 7 -4 7q-13 -1 -25.5 -0.5t-26.5 0.5q-11 1 -21 1t-21 2q-15 2 -28 -1q-12 -3 -22 -10.5t-20 -15.5t-21.5 -13.5t-24.5 -3.5q-7 1 -9.5 6t-2.5 11.5t1 13.5t2 12q1 4 1 12q1 9 1 13t1 6.5t4 5.5t9 10z
" />
    <glyph glyph-name="section" unicode="&#xa7;" horiz-adv-x="440" 
d="M74 465q-42 47 -41 106q2 19 -1 35v6.5t2 7.5q7 22 16 38q10 16 23 24q8 5 15.5 10t15.5 10q13 8 26.5 12.5t28.5 5.5q19 2 37.5 1t37.5 -2q10 0 19 -3q3 -1 6.5 -2t6.5 -3q18 -10 34 -20q12 -6 18 -18q2 -4 4.5 -8t5.5 -8q6 -9 8.5 -18.5t4.5 -20.5q1 -9 0 -17
q-3 -13 -14 -17q-11 -6 -23 -10q-6 -2 -13 0t-10 7q-6 9 -11.5 18t-11.5 18q-1 3 -3 11t-2 14q-1 8 -4.5 13.5t-7.5 11.5q-4 3 -8 5l-39 9q-5 2 -11 0q-10 -3 -19 -6t-19 -6q-4 -1 -7 -6l-7.5 -7.5t-6.5 -7.5q-3 -3 -3 -7q-2 -11 -5 -20t-4 -20v-29q0 -16 13 -29q3 -5 8 -8
q8 -8 16 -15.5t16 -15.5q6 -8 14 -12.5t17 -8.5q33 -14 66 -30q22 -11 36 -28q7 -8 15 -14l16 -12q7 -5 13.5 -9.5t13.5 -9.5q12 -8 13 -20l3 -9q2 -6 6.5 -10t5.5 -10q0 -6 2 -10.5t4 -9.5l2 -6t1 -6q-1 -10 0 -19.5t2 -19.5q3 -18 -5 -32q-2 -5 -3 -10l-2 -10
q-1 -25 -18 -48q-6 -8 -12 -16.5t-14 -16.5q-6 -5 -9 -11t-8 -11q1 -3 3 -7q12 -15 13 -30q0 -6 8 -11q3 -2 6.5 -3.5t5.5 -6.5q3 -7 7 -13.5t3 -14.5q-1 -3 -0.5 -6t-0.5 -6q-2 -10 -3 -20t-1 -21q0 -16 -9 -29q-8 -10 -16 -19.5t-17 -17.5q-4 -4 -8 -7l-8 -6
q-9 -5 -16 -10q-2 -1 -3 -2t-3 -1q-14 -4 -26 -10.5t-26 -11.5q-9 -3 -17 -7q-9 -5 -18 -1q-5 2 -10 3l-10 2q-9 1 -18 3t-19 2q-2 -1 -4.5 0t-4.5 2t-4.5 2t-4.5 2q-11 1 -18.5 6.5t-15.5 11.5q-10 8 -18.5 16.5t-14.5 19.5q-2 4 -3 7.5t-2 8.5q-4 25 5 50q1 2 2 4.5t2 4.5
q5 8 13 8q18 3 33 -2l12 -6q5 -2 8.5 -5t7.5 -6q12 -8 12 -23q0 -2 0.5 -3t0.5 -2q-3 -9 0.5 -16t8.5 -14q12 -16 29 -27q9 -6 20 -3q9 2 17.5 4t17.5 2q1 0 2 0.5t2 0.5q14 8 24 17.5t12 25.5q1 10 5 23q2 9 -1 21q-2 5 -3.5 9t-3.5 8t-3 7.5t-3 8.5q-11 37 -46 52
q-7 3 -13.5 6.5t-13.5 6.5q-12 6 -24.5 11.5t-23.5 13.5q-6 3 -11 2q-8 -1 -9.5 0.5t-3.5 6.5q-2 8 -7.5 15t-12.5 12q-5 5 -10.5 9.5t-10.5 9.5q-2 3 -5 5t-5 4q-8 6 -12 8q-17 8 -26 21.5t-17 29.5q-4 9 -7 17.5t-7 17.5q-8 19 -5 39q2 11 3.5 23t3.5 23q0 3 2 7
q3 9 6 18.5t6 19.5q10 29 29 47q11 10 23 23zM105 433l-2 -1q-11 -8 -18 -19t-15 -21q-1 -7 -1.5 -14t-1.5 -14q-1 -5 -1.5 -9t-0.5 -9q-3 -26 11 -49l9 -15q5 -10 17 -22l18 -16l18 -16t17 -15t18 -13q17 -10 34 -18.5t35 -16.5q9 -5 17 -9.5t16 -11.5q3 -3 6.5 -5.5
t6.5 -4.5q5 -4 11 0q4 1 8 5q4 5 7.5 10.5t6.5 11.5q6 8 7 14q2 8 2.5 15t1.5 15q2 23 -8 41q-4 8 -6.5 15.5t-4.5 15.5q-5 13 -15 24q-4 5 -8 9.5t-9 9.5q-6 8 -12.5 15t-17.5 10q-4 2 -7 5q-6 5 -11.5 9t-10.5 8q-6 5 -12 9.5t-13 8.5q-11 6 -21.5 11.5t-20.5 13.5
q-7 5 -13 5q-13 0 -26 10q-3 2 -5.5 4t-5.5 4z" />
    <glyph glyph-name="brokenbar" unicode="&#xa6;" horiz-adv-x="152" 
d="M106 -80q-1 -5 0 -10.5t0 -10.5q-2 -13 -1.5 -25t0.5 -24q0 -11 -3 -21q-2 -6 -2.5 -12.5t-1.5 -12.5q-1 -5 -1.5 -8.5t-1.5 -7.5t2 -9q8 -11 1 -21l-4 -4q-15 -2 -29 -1.5t-27 -2.5q-3 2 -5 4q-4 8 -5 12q-1 8 2 18q8 18 -4 32q-5 7 -5.5 13t1.5 13t3.5 13.5t2.5 13.5
q1 8 0 14.5t-6 14.5q-2 2 -1.5 3.5t0.5 3.5v31q0 2 0.5 3t0.5 3t1 3t0 3q-1 4 0 7.5t2 8.5q6 17 0 34q-4 8 -3.5 16.5t0.5 17.5q0 2 0.5 3.5t-0.5 3.5q-2 8 -2 15.5v15.5v15.5t-2 15.5q-2 11 -0.5 22t5.5 22q2 5 4 10.5t3 10.5q0 5 -0.5 9.5t-5.5 9.5q-3 3 -1 7q3 5 -1 9
l2 5q0 1 3.5 1.5t6.5 0.5q12 0 24.5 -0.5t24.5 -0.5q9 0 11 -4q0 -2 0.5 -4t0.5 -4q-2 -4 2 -12q1 -1 1 -2q8 -8 7.5 -15.5t-4.5 -15.5l-4 -12t-2 -12q-1 -7 -2 -13.5t-3 -13.5q-4 -13 1 -30q5 -13 5.5 -25.5t-0.5 -25.5q0 -8 -1 -15t-1 -15v-11.5t1 -10.5q5 -16 2 -30
q-2 -4 3 -7q6 -2 6 -9zM23 686q2 6 4 11.5t3 10.5q0 5 -0.5 9t-5.5 9q-2 4 -1 8q3 4 -1 8q-1 2 2 5q0 2 3.5 2.5t6.5 0.5q12 -1 24.5 -1t24.5 -1q9 0 11 -4q0 -2 0.5 -3.5t0.5 -3.5q-2 -5 2 -13q1 0 1 -1q8 -8 7.5 -15.5t-4.5 -15.5l-4 -12t-2 -13q-1 -7 -2 -13.5t-3 -13.5
q-4 -13 1 -30q5 -13 5.5 -25.5t-0.5 -25.5q0 -8 -1 -15t-1 -15v-10.5t1 -10.5q5 -17 2 -31q-2 -4 3 -6q6 -4 6 -9q-1 -5 0 -11t0 -11q-2 -12 -1.5 -24t0.5 -25q0 -10 -3 -20q-2 -7 -2.5 -13t-1.5 -13l-3 -15q-1 -4 2 -10q8 -10 1 -20q-1 -2 -2 -2.5t-2 -2.5q-15 -2 -29 -1.5
t-27 -1.5q-2 2 -3 2t-2 1q-4 8 -5 12q-1 8 2 19q8 17 -4 32q-8 10 -4 26q2 7 3.5 13t2.5 13q1 8 0 15t-6 15q-2 2 -1.5 3.5t0.5 3.5v30q0 2 0.5 3.5t0.5 3.5t1 2.5t0 2.5q-1 5 0 8.5t2 7.5q6 17 0 35q-4 8 -3.5 16.5t0.5 16.5q0 2 0.5 4t-0.5 4q-2 8 -2 15.5v15.5v15t-2 15
q-2 11 -0.5 22t5.5 22z" />
    <glyph glyph-name="copyright" unicode="&#xa9;" horiz-adv-x="658" 
d="M608 354q3 -30 -3 -58q-3 -13 -7 -25t-10 -24q-11 -21 -17 -41q-5 -14 -13 -24.5t-19 -21.5l-16 -16q-1 -1 -1.5 -2t-1.5 -2q-5 -3 -5.5 -8.5t-5.5 -8.5q-8 -7 -12 -14q-4 -6 -11 -9q-13 -5 -25.5 -10.5t-26.5 -10.5q-11 -4 -22.5 -8.5t-22.5 -9.5q-11 -4 -20.5 -6.5
t-20.5 -3.5q-8 -1 -16.5 -1.5t-17.5 -1.5q-8 2 -15.5 1t-15.5 -1q-10 0 -14 1q-8 1 -14.5 1t-13.5 1t-13.5 3.5t-13.5 4.5q-5 2 -9 2.5t-9 1.5q-13 3 -23 12q-5 3 -9.5 6.5t-9.5 6.5l-10 8t-9 9q-4 6 -9 10l-10 8q-26 19 -45 43q-6 7 -12 13.5t-12 12.5q-5 7 -10 16
q-3 7 -6.5 13.5t-7.5 13.5l-3 6q-2 5 -2.5 9t-2.5 9q-2 4 -5 7.5t-6 7.5q-4 8 -4 13v10q2 17 4 33.5t5 33.5q2 16 6 32t7 32q4 22 13 42t22 39q2 2 3 3.5t3 3.5l8 10l8 10q6 11 14.5 20t17.5 17q7 6 13 12t14 11t15.5 10t16.5 8q4 2 7.5 3.5t7.5 3.5q47 20 99 25q8 0 12 1
q11 3 23 3.5t23 -1.5q12 -2 23.5 -4t22.5 -4q16 -3 27 -10q11 -5 22.5 -11t22.5 -14q10 -8 20.5 -15t21.5 -15q6 -5 12.5 -10t12.5 -10q16 -15 23 -32q4 -9 9 -17l10 -16q6 -9 11.5 -18.5t9.5 -20.5q2 -5 3.5 -10t2.5 -10q3 -20 6.5 -39t5.5 -39zM562 333q3 15 2 28
q-2 15 -3.5 31t-8.5 30q-2 2 -2 4.5t-1 4.5q-5 14 -10 27.5t-10 27.5q-5 15 -15 21q-15 12 -23 25q-5 7 -11 12.5t-14 9.5l-36 21q-21 12 -43.5 19t-47.5 7q-8 0 -12 1q-8 2 -16 2t-16 -1q-10 0 -19 -0.5t-19 -0.5q-14 -1 -29 -9l-34 -18t-34 -17q-22 -10 -36 -32
q-4 -6 -10 -14q-11 -15 -17 -30l-9.5 -19t-11.5 -17q-5 -8 -9.5 -15.5t-6.5 -15.5q-3 -12 -5 -23.5t-2 -23.5q0 -5 2 -13q5 -10 6.5 -20t0.5 -21t1 -21t5 -21q3 -9 6.5 -17.5t5.5 -17.5q10 -34 40 -56q4 -3 7 -5.5t6 -5.5q8 -7 16 -13.5t16 -13.5q10 -9 21 -15.5t22 -12.5
q11 -5 21.5 -9.5t22.5 -6.5q4 -1 7.5 -2t8.5 -3q19 4 36.5 5.5t35.5 -0.5q7 -2 13.5 -2t13.5 -1q9 -1 19 2q8 4 15 7t15 6q8 4 14.5 9.5t14.5 10.5q2 1 3 2t3 2q9 5 16.5 12t14.5 15q6 7 12 13t13 11q12 8 18 19t10 24q1 3 1 6t1 5q2 9 4.5 18t5.5 18q5 14 9 28t6 29z
M420 278q8 3 13 -2q4 -6 3 -13q-3 -14 -13 -22q-5 -5 -10 -9.5t-10 -9.5q-4 -4 -10 -7q-5 -3 -11 -6t-11 -6q-9 -5 -18 -8.5t-19 -6.5q-2 0 -3.5 -0.5t-3.5 -0.5h-29.5t-28.5 5q-5 2 -9 2.5t-9 1.5q-15 4 -27.5 10.5t-23.5 17.5q-6 7 -13 13.5t-13 12.5q-23 23 -26 57
q-1 8 -2 15t-2 15q-2 6 0 12q2 8 2 16t-2 16t1 14q2 5 2.5 9t1.5 9q7 28 31 49l4 4l4 4q13 15 33 21q2 1 2.5 1t2.5 1q16 9 33 12l34 6q8 2 12 1q16 -2 32 -2t33 -4q7 -2 13.5 -3t13.5 -2q5 -1 8.5 -2t7.5 -3q6 -4 7 -9q2 -7 3 -13.5t1 -14.5q-1 -5 -1 -11v-14q1 -5 1 -12
v-14q0 -8 -8 -13q-6 -2 -9 -2q-2 0 -4 1t-2 2q-2 14 -9 25.5t-14 23.5q-1 3 -5 7q-8 12 -19 19t-26 7q-8 -1 -15 0t-15 0q-17 -1 -34 -9q-11 -5 -18.5 -13.5t-9.5 -21.5q-2 -5 -3.5 -9.5t-5.5 -8.5q-5 -5 -3 -11q3 -14 -2 -30q-1 -4 -1.5 -7t-1.5 -7q-3 -19 0.5 -37
t14.5 -34q2 -3 4 -9q2 -5 4 -10.5t4 -11.5q7 -16 25 -26q4 -3 9 -3q5 -2 10.5 -2.5t10.5 -1.5q17 -4 32.5 0t30.5 12l16 10t15 13q3 3 5.5 5t5.5 5q5 5 14 7z" />
    <glyph glyph-name="guillemotleft" unicode="&#xab;" horiz-adv-x="567" 
d="M313 457q-4 -2 -7 -4.5t-7 -2.5q-11 -2 -20.5 -9t-19.5 -16q-7 -7 -13.5 -13t-13.5 -11q-5 -3 -9.5 -8.5t-9.5 -12.5q-7 -13 -14 -22q-12 -15 -23 -18q-8 -3 -17 -6.5t-17 -6.5q-6 -2 -10 -8q-4 -5 -10 -8q-11 -7 -21.5 -17.5t-21.5 -23.5q-1 -2 -1 -5t2 -5q7 -12 17 -15
q9 -2 17 -8.5t16 -14.5q14 -14 28 -25.5t28 -21.5q12 -9 24 -18.5t23 -20.5q3 -2 5.5 -4t4.5 -5q14 -17 28 -28.5t29 -20.5q2 -2 3.5 -2t3.5 -2q13 -10 13 -39q1 -3 0.5 -6t-0.5 -6q1 -16 -3.5 -22.5t-10.5 -4.5t-11.5 5t-10.5 7t-10.5 8.5t-10.5 11.5t-10.5 10.5t-10.5 9.5
q-13 16 -30 19q-11 2 -22 11q-12 8 -24 17.5t-24 18.5l-22 18t-22 21l-1 1q-19 12 -37 27t-36 26q-8 4 -12 3q-7 -1 -9 15q-1 7 -1.5 13t-0.5 13q-2 8 -1.5 17t1.5 17q2 8 5 15q3 5 8 9q11 8 20.5 16.5t19.5 19.5q5 5 9 8t9 6q9 5 17.5 9.5t16.5 8.5q13 5 22 14
q10 10 19.5 17t20.5 14q5 3 9 6.5t9 7.5q15 14 30.5 28t30.5 28q5 5 9 8t9 7t9 7.5t9 8.5q10 11 23 13q3 1 5 -3t3 -9q3 -22 2 -41q-1 -6 -1.5 -12.5t-1.5 -13.5zM517 457q-4 -2 -7 -4.5t-7 -2.5q-11 -2 -20.5 -9t-19.5 -16q-7 -7 -13.5 -13t-13.5 -11q-5 -3 -9.5 -8.5
t-9.5 -12.5q-7 -13 -14 -22q-12 -15 -23 -18q-8 -3 -17 -6.5t-17 -6.5q-6 -2 -10 -8q-4 -5 -10 -8q-11 -7 -21.5 -17.5t-21.5 -23.5q-1 -2 -1 -5t2 -5q7 -12 17 -15q9 -2 17 -8.5t16 -14.5q14 -14 28 -25.5t28 -21.5q12 -9 24 -18.5t23 -20.5q3 -2 5.5 -4t4.5 -5
q14 -17 28 -28.5t29 -20.5q2 -2 3.5 -2t3.5 -2q13 -10 13 -39q1 -3 0.5 -6t-0.5 -6q1 -16 -3.5 -22.5t-10.5 -4.5t-11.5 5t-10.5 7t-10.5 8.5t-10.5 11.5t-10.5 10.5t-10.5 9.5q-13 16 -30 19q-11 2 -22 11q-12 8 -24 17.5t-24 18.5l-22 18t-22 21l-1 1q-19 12 -37 27
t-36 26q-8 4 -12 3q-7 -1 -9 15q-1 7 -1.5 13t-0.5 13q-2 8 -1.5 17t1.5 17q2 8 5 15q3 5 8 9q11 8 20.5 16.5t19.5 19.5q5 5 9 8t9 6q9 5 17.5 9.5t16.5 8.5q13 5 22 14q10 10 19.5 17t20.5 14q5 3 9 6.5t9 7.5q15 14 30.5 28t30.5 28q5 5 9 8t9 7t9 7.5t9 8.5q10 11 23 13
q3 1 5 -3t3 -9q3 -22 2 -41q-1 -6 -1.5 -12.5t-1.5 -13.5z" />
    <glyph glyph-name="guillemotright" unicode="&#xbb;" horiz-adv-x="567" 
d="M211 73q4 2 7 4.5t7 2.5q11 2 20.5 9t19.5 16q7 7 13.5 13t13.5 11q5 3 9.5 8.5t9.5 12.5q6 13 14 22q12 15 23 18q8 3 17 6.5t17 6.5q6 2 10 8q4 5 10 8q11 7 21.5 17.5t21.5 23.5q1 2 1 5t-2 5q-7 12 -17 15q-9 2 -17 8.5t-16 14.5q-14 14 -28 25.5t-28 21.5
q-12 9 -24 18.5t-23 20.5q-3 2 -5.5 4t-4.5 5q-14 17 -28 28.5t-29 20.5q-2 2 -3.5 2t-3.5 2q-13 10 -13 39q-1 3 -0.5 6t0.5 6q-1 16 3.5 22.5t10.5 4.5t11.5 -5t10.5 -7t10.5 -8.5t10.5 -11.5t10.5 -10.5t10.5 -9.5q13 -16 30 -19q11 -2 22 -11q12 -8 24 -17.5t24 -18.5
l22 -18t22 -21l1 -1q19 -12 37 -27t36 -26q8 -4 12 -3q7 1 9 -15q1 -7 1.5 -13t0.5 -13q2 -8 1.5 -17t-1.5 -17q-2 -8 -5 -15q-3 -6 -8 -9q-11 -8 -20.5 -16.5t-19.5 -19.5q-5 -5 -9 -8t-9 -6q-9 -5 -17.5 -9.5t-16.5 -8.5q-13 -5 -22 -14q-10 -10 -19.5 -17t-20.5 -14
q-5 -3 -9 -6.5t-9 -7.5q-15 -14 -30.5 -28t-30.5 -28q-5 -5 -9 -8t-9 -7t-9 -7.5t-9 -8.5q-10 -11 -23 -13q-3 -1 -5 3t-3 9q-3 22 -2 41q1 6 1.5 12.5t1.5 13.5zM7 73q4 2 7 4.5t7 2.5q11 2 20.5 9t19.5 16q7 7 13.5 13t13.5 11q5 3 9.5 8.5t9.5 12.5q6 13 14 22
q12 15 23 18q8 3 17 6.5t17 6.5q6 2 10 8q4 5 10 8q11 7 21.5 17.5t21.5 23.5q1 2 1 5t-2 5q-7 12 -17 15q-9 2 -17 8.5t-16 14.5q-14 14 -28 25.5t-28 21.5q-12 9 -24 18.5t-23 20.5q-3 2 -5.5 4t-4.5 5q-14 17 -28 28.5t-29 20.5q-2 2 -3.5 2t-3.5 2q-13 10 -13 39
q-1 3 -0.5 6t0.5 6q-1 16 3.5 22.5t10.5 4.5t11.5 -5t10.5 -7t10.5 -8.5t10.5 -11.5t10.5 -10.5t10.5 -9.5q13 -16 30 -19q11 -2 22 -11q12 -8 24 -17.5t24 -18.5l22 -18t22 -21l1 -1q19 -12 37 -27t36 -26q8 -4 12 -3q7 1 9 -15q1 -7 1.5 -13t0.5 -13q2 -8 1.5 -17
t-1.5 -17q-2 -8 -5 -15q-3 -6 -8 -9q-11 -8 -20.5 -16.5t-19.5 -19.5q-5 -5 -9 -8t-9 -6q-9 -5 -17.5 -9.5t-16.5 -8.5q-13 -5 -22 -14q-10 -10 -19.5 -17t-20.5 -14q-5 -3 -9 -6.5t-9 -7.5q-15 -14 -30.5 -28t-30.5 -28q-5 -5 -9 -8t-9 -7t-9 -7.5t-9 -8.5q-10 -11 -23 -13
q-3 -1 -5 3t-3 9q-3 22 -2 41q1 6 1.5 12.5t1.5 13.5z" />
    <glyph glyph-name="uni00AD" unicode="&#xad;" horiz-adv-x="391" 
d="M315 286q-12 -1 -23 -1t-23 -1q-30 -5 -60 -3h-14.5t-12.5 2q-3 1 -6.5 1h-5.5q-19 -1 -37.5 0t-37.5 -1q-23 -3 -50 2q-15 3 -24 15q-1 1 -1 4q3 12 11 27q3 8 13 11q4 1 7 2t6 1q11 -2 23.5 -1t23.5 -1t22 -1t22 3q11 3 22 4t22 1q28 -1 55.5 0t56.5 2q15 2 30 -3
q10 -4 11 -12v-7t3 -6q4 -6 -3 -9q-3 -2 -6.5 -5t-6.5 -7q-2 -5 -7 -9z" />
    <glyph glyph-name="registered" unicode="&#xae;" horiz-adv-x="655" 
d="M612 342q8 -14 -5 -22q-5 -5 -5 -10q-3 -15 -8 -29.5t-7 -29.5q-2 -10 -4 -16q-7 -14 -13.5 -26.5t-17.5 -23.5q-2 -2 -2.5 -3.5t-2.5 -3.5q-20 -27 -45 -48q-12 -10 -13 -21q-6 -3 -11.5 -6.5t-11.5 -5.5q-11 -5 -20.5 -9t-20.5 -8q-22 -8 -41 -18q-8 -3 -15.5 -5
t-15.5 -2q-6 0 -14 -2q-14 -2 -27 -1.5t-27 2.5l-72 6q-14 0 -24 7q-5 3 -9 6.5t-9 5.5q-13 9 -25.5 17.5t-24.5 16.5q-25 16 -45 41q-18 23 -29 45q-2 4 -3 7l-2 6q-5 13 -10 25.5t-10 24.5q-2 7 -3.5 13.5t-3.5 13.5q-1 5 -2 8.5t-3 7.5q-6 10 -8 20.5t-2 21.5t2 22t5 22
q2 7 4.5 13t0.5 14q0 2 1 2q7 20 11.5 40.5t13.5 39.5q2 4 6 10q5 5 10 11t9 13l2 2l33.5 33.5t36.5 30.5q49 30 105 39q13 3 26 3.5t27 1.5q12 0 23.5 -0.5t23.5 0.5q11 1 21 -1l20 -4q9 -2 17 -5.5t16 -6.5q6 -2 11.5 -4t10.5 -4q8 -3 16 -7t15 -10q12 -11 24.5 -21
t26.5 -20q27 -21 42 -52q2 -6 5 -11.5t6 -11.5t6.5 -11.5t5.5 -11.5t3 -12t3 -13q2 -5 4 -11t4 -11q16 -34 15 -68q0 -2 -0.5 -3.5t0.5 -2.5zM561 382q1 11 -4 27q-1 4 -2.5 7.5t-3.5 7.5q-5 10 -10 19.5t-10 20.5q-6 14 -12 26.5t-12 26.5q-6 16 -18 27q-8 9 -18 15
t-20.5 11t-21.5 10q-11 7 -23.5 11.5t-25.5 8.5q-32 10 -69 13q-8 1 -16.5 0.5t-16.5 -0.5t-15 -5q-8 -5 -15.5 -9.5t-15.5 -6.5q-17 -4 -32 -10t-30 -11q-7 -2 -13.5 -4.5t-12.5 -6.5q-24 -16 -38 -37q-4 -5 -7 -10.5t-8 -10.5q-4 -3 -6 -10q-2 -5 -3 -10t-3 -10l-4 -14
t-10 -12q-3 -2 -3 -6l-4 -12t-2 -13q0 -5 -0.5 -9.5t-1.5 -9.5q0 -6 -0.5 -12.5t0.5 -12.5q2 -13 2 -25t1 -24q0 -5 0.5 -9.5t0.5 -9.5q0 -10 5 -15q13 -18 18 -40q2 -7 4.5 -13.5t7.5 -11.5q5 -7 8.5 -14.5t6.5 -15.5l2 -6t2 -7q3 -9 10 -13q3 -2 5.5 -4t6.5 -3
q7 -2 12 -6.5t10 -9.5t8.5 -9t8.5 -8q5 -5 10.5 -9t11.5 -8q21 -14 44 -13q16 0 31.5 0.5t31.5 2.5q15 1 27 3q22 -3 41 3q3 1 11 1q33 1 59 20l18 12t17 12q14 9 23.5 21.5t16.5 26.5q6 14 12 26.5t14 25.5q5 11 8 20q2 4 2.5 7.5t2.5 7.5q3 8 4 17t1 18v30t2 31zM465 226
q5 -4 4 -11q-1 -5 -8 -8h-2q-40 -3 -74 8q-9 3 -16.5 8.5t-12.5 14.5t-9.5 17.5t-8.5 17.5q-5 13 -12.5 24t-15.5 22q-2 4 -10 6q-5 0 -9.5 0.5t-9.5 0.5l-3 -3q-1 -2 -1 -7q2 -13 1.5 -25.5t-1.5 -25.5v-12q1 -13 14 -17q5 -2 9 -2.5t9 -2.5q7 -3 9 -13q2 -5 -3 -8
q-6 -4 -11 -4h-4q-9 4 -17.5 3t-17.5 -3q-3 0 -6.5 -0.5t-6.5 0.5q-10 1 -19 0.5t-19 -1.5q-10 -2 -19.5 -1t-20.5 2q-5 0 -5 7q0 6 1 9q0 5 3 5q12 5 23 6q6 1 11 8q4 6 6 12q4 12 4 26q-1 14 -1 28v28v7q-3 14 -4 28t-1 28q0 9 -2 14t-1.5 9t1.5 9q2 8 -1.5 16.5
t-10.5 11.5q-5 2 -11 4.5t-11 4.5l-3 9q-4 9 2 15.5t14 7.5h5q30 1 60.5 1.5t61.5 1.5q19 0 36 -7q15 -7 29 -8q21 -1 32 -21q5 -8 7.5 -15t5.5 -15q1 -2 1 -3.5t1 -3.5v-21q0 -17 -11 -28q-10 -10 -19.5 -20t-22.5 -17q-2 -1 -2.5 -2t-2.5 -2q2 -2 2.5 -4t2.5 -4
q17 -22 28 -49q11 -25 33 -38l21 -12zM355 392q6 11 5 22q-2 10 -5.5 19t-10.5 17q-1 4 -6 7q-23 14 -47 3q-5 -3 -10 -9q-4 -8 -7 -16t-2 -17q1 -5 0.5 -9.5t-0.5 -9.5v-15t1 -15q2 -10 11 -10h14t14 1q8 0 11 2q9 6 17.5 13t14.5 17z" />
    <glyph glyph-name="mu" unicode="&#xb5;" horiz-adv-x="572" 
d="M182 103q3 -10 9 -19q7 -9 19.5 -15.5t27 -10.5t29 -6.5t25.5 -3.5h6.5t6.5 1q21 6 39 18q17 12 17 31q1 12 2 23.5t2 23.5q1 5 1 10.5t2 10.5q3 13 -1 25q-4 14 -1 23q7 24 4 51q-1 2 -0.5 4.5t0.5 4.5q0 24 0.5 47.5t-2.5 46.5q-2 19 -3.5 38t15.5 32q12 8 26 10t28 2
q15 1 25.5 -1.5t25.5 -0.5q6 1 17.5 1.5t13.5 -7.5q1 -6 -2.5 -9.5t-8.5 -6t-10.5 -4.5t-9.5 -4q-14 -9 -19.5 -26.5t-6.5 -34.5q-1 -8 -1.5 -15.5t-1.5 -15.5q-3 -17 -3 -34.5t1 -35.5v-35v-33t3 -32v-7v-50q-1 -5 -2 -9t-4 -8q-16 -17 -17 -40q-3 -26 -27 -35
q-10 -5 -16 -11q-14 -16 -35 -14q-14 2 -28 2.5t-28 2.5q-28 3 -51 16q-27 13 -47 30q-3 3 -6.5 5.5t-6.5 4.5q-2 2 -4.5 0.5t-2.5 -4.5q0 -14 -3.5 -26.5t-8.5 -23.5q-5 -2 -9 -3t-8 -3q-17 -8 -39 -3q-5 2 -10 3.5t-10 3.5q-10 4 -18.5 9t-18.5 10q-8 4 -15 9.5t-13 11.5
q-8 8 -15 16.5t-15 17.5q0 4 -0.5 8.5t-0.5 9.5q0 3 1 4q2 5 10 7t13 -1q2 -1 5 -4q4 -5 9.5 -8.5t10.5 -7.5q7 -4 14 -2t11 8l3 6q8 17 10 36v8.5t1 8.5q5 27 3 56q-1 11 -1.5 22t-0.5 22q1 23 -1 46.5t-2 47.5q0 5 -1 11l-2 12q-2 10 -2.5 19.5t0.5 20.5q0 5 -1 11t-1 12
q2 18 15 28.5t30 8.5q12 -2 25 -0.5l26 3t25.5 1.5t24.5 -3q6 -2 12 -8t4 -14q-2 -9 -7.5 -9.5t-12.5 -2.5q-4 -2 -7 -3t-7 -2q-12 -4 -18.5 -13t-9.5 -21q-1 -2 -1 -7q-3 -15 -5 -30t-2 -30q0 -14 -0.5 -26.5t-1.5 -25.5q-2 -15 0 -30q2 -27 3 -63t12 -64z" />
    <glyph glyph-name="Aacute" unicode="&#xc1;" horiz-adv-x="767" 
d="M6 38q9 4 17 7t17 2q14 0 24.5 6.5t19.5 16.5q9 11 15.5 23t11.5 26q2 7 4.5 13t8.5 11q3 7 6 13t5 13q2 3 3 6.5t3 6.5q6 10 10.5 20.5t9.5 21.5q4 8 6.5 17t3.5 18t6 15q11 14 8 26q5 5 7 8q2 2 3 3.5t3 3.5q5 5 5.5 11.5t5.5 11.5q4 5 7 9t3 11q0 3 2 7q4 6 6.5 12
t3.5 14q1 1 1 2q12 14 14 36q4 6 6 12t5 12q11 20 20.5 40t15.5 43q2 8 4.5 16.5t7.5 16.5q3 5 5 10q4 14 10 27.5t12 26.5q3 5 5 11t5 11q2 5 5 10t5 10q4 5 8 4l6 -2t6 0q12 3 23.5 1t22.5 -3q9 -2 12 -10q5 -12 8.5 -24.5t7.5 -24.5q5 -14 9 -28l8 -28q2 -10 10 -21
q5 -6 7.5 -13t4.5 -15q1 -8 3.5 -14.5t5.5 -14.5q5 -11 10 -28q4 -15 12 -31q10 -17 13 -40q2 -23 14 -43q5 -7 8 -14.5t4 -16.5q0 -2 1 -4l2 -4q6 -19 12 -37t12 -37q5 -14 9.5 -27.5t10.5 -27.5q3 -8 8 -16l10 -16q6 -8 7 -17q1 -8 3 -16.5t3 -16.5q0 -4 2 -8
q8 -11 16.5 -18.5t22.5 -9.5q11 -2 21.5 -5.5t21.5 -3.5q3 0 9 -2q11 -3 11 -13q-1 -6 -1.5 -12t-2.5 -11q-1 -4 -4 -5.5t-6 -2.5q-4 -2 -7 0q-8 1 -16.5 0.5t-16.5 -0.5q-9 0 -17.5 0.5t-17.5 1.5q-20 1 -39.5 1.5t-39.5 1.5q-4 0 -7.5 -0.5t-6.5 -0.5q-8 -1 -19 -3t-21 -1
t-16 6t-5 18q1 15 12.5 20.5t23.5 10.5q8 3 10.5 7t-0.5 15q-1 5 -5 15q-7 17 -13 33t-12 33l-2 4l-2 4q-6 14 -11 27.5t-8 28.5q-2 10 -4 15q-3 12 -15 12q-3 0 -6 -0.5t-6 -0.5q-11 -1 -22 -0.5t-22 1.5q-20 1 -40 1.5t-40 1.5h-21q-12 -2 -24.5 -2.5t-24.5 0.5
q-23 2 -31 -20q-7 -20 -15 -39t-16 -39t-14 -39t-12 -39q0 -2 -0.5 -3.5t-0.5 -3.5q-1 -2 0.5 -5.5t3.5 -4.5q18 -10 40 -13q5 -1 9.5 -1.5t9.5 -1.5q2 0 3.5 -2t1.5 -4q1 -10 -1.5 -18.5t-10.5 -16.5q-14 0 -27.5 -0.5t-27.5 1.5q-9 1 -17 0q-10 -1 -19.5 -1h-19.5
q-25 1 -49 0l-54 -3q-5 0 -7 1q-2 0 -4 2q-2 4 -3.5 7.5t-0.5 8.5q2 5 3 11t3 12zM366 561q-1 -2 -2 -3t-2 -3q-10 -23 -19.5 -45.5t-16.5 -45.5q-2 -6 -4.5 -12t-5.5 -12q-6 -14 -11 -29t-13 -29q-1 -1 -1 -2q-6 -16 -12.5 -31.5t-12.5 -32.5q-1 -2 -3 -8q0 -7 5 -7
q6 0 12 -0.5t12 -0.5q19 0 37.5 0.5t37.5 1.5q2 0 4.5 -0.5t4.5 0.5q11 2 22 2t22 1q8 0 16.5 0.5t16.5 1.5q2 1 3 2t3 2q-2 4 -2.5 7.5t-2.5 6.5q-5 13 -10.5 25.5t-10.5 26.5q-8 20 -15.5 40t-12.5 41q-7 27 -16 53t-23 50zM407 891q10 2 17.5 0.5t15.5 -4.5
q12 -5 21.5 -12.5t18.5 -16.5q3 -4 1 -9q-3 -6 -8 -11t-10 -8.5t-10 -7.5q-8 -6 -14 -12l-12 -12q-10 -11 -20 -21l-21 -21q-2 -2 -3.5 -3t-3.5 -3q-8 -4 -14 -9t-13 -10q-3 -3 -7 -5.5t-8 -4.5q-6 -3 -11.5 0.5t-5.5 10.5t1 13.5t5 13.5q7 11 12.5 21t12.5 21t13.5 20.5
t13.5 20.5q5 7 10 16q5 8 9.5 16.5t9.5 16.5z" />
    <glyph glyph-name="Acircumflex" unicode="&#xc2;" horiz-adv-x="767" 
d="M363 835l3 -3q3 -5 4.5 -10.5t-0.5 -11.5q-3 -10 -6 -19.5t-8 -18.5q-5 -13 -15 -20q-9 -8 -14 -21q-3 -9 -7.5 -17t-9.5 -16q-5 -9 -11.5 -16t-14.5 -14q-3 -3 -6 -3h-7q-11 2 -21 4.5t-20 5.5q-12 3 -21 15q-6 7 0 15q3 3 9 7q8 6 10 10q2 2 3.5 4.5t3.5 5.5
q7 10 14 18.5t18 14.5q7 4 14 13q5 7 10.5 12.5t12.5 10.5q9 7 16 16q5 5 9.5 9t9.5 9q4 4 8 4q4 -1 7.5 -2t8.5 -2zM532 717q2 -6 -1 -9q-9 -9 -18.5 -16.5t-20.5 -12.5q-8 -4 -16 -5.5t-18 0.5q-5 9 -9.5 17.5t-9.5 16.5q-2 4 -4.5 7.5t-5.5 8.5q-7 10 -13.5 20t-13.5 21
t-12.5 21t-12.5 21q-4 6 -5 13t-1 14q0 6 6 9.5t11 1.5q8 -5 15 -10t13 -10t14 -10q4 -2 7 -5l21 -21t20 -21q11 -12 26 -24q5 -4 10 -7.5t10 -8.5t8 -11zM6 38q9 4 17 7t17 2q14 0 24.5 6.5t19.5 16.5q9 11 15.5 23t11.5 26q2 7 4.5 13t8.5 11q3 7 6 13t5 13q2 3 3 6.5
t3 6.5q6 10 10.5 20.5t9.5 21.5q4 8 6.5 17t3.5 18t6 15q11 14 8 26q5 5 7 8q2 2 3 3.5t3 3.5q5 5 5.5 11.5t5.5 11.5q4 5 7 9t3 11q0 3 2 7q4 6 6.5 12t3.5 14q1 1 1 2q12 14 14 36q4 6 6 12t5 12q11 20 20.5 40t15.5 43q2 8 4.5 16.5t7.5 16.5q3 5 5 10q4 14 10 27.5
t12 26.5q3 5 5 11t5 11q2 5 5 10t5 10q4 5 8 4l6 -2t6 0q12 3 23.5 1t22.5 -3q9 -2 12 -10q5 -12 8.5 -24.5t7.5 -24.5q5 -14 9 -28l8 -28q2 -10 10 -21q5 -6 7.5 -13t4.5 -15q1 -8 3.5 -14.5t5.5 -14.5q5 -11 10 -28q4 -15 12 -31q10 -17 13 -40q2 -23 14 -43q5 -7 8 -14.5
t4 -16.5q0 -2 1 -4l2 -4q6 -19 12 -37t12 -37q5 -14 9.5 -27.5t10.5 -27.5q3 -8 8 -16l10 -16q6 -8 7 -17q1 -8 3 -16.5t3 -16.5q0 -4 2 -8q8 -11 16.5 -18.5t22.5 -9.5q11 -2 21.5 -5.5t21.5 -3.5q3 0 9 -2q11 -3 11 -13q-1 -6 -1.5 -12t-2.5 -11q-1 -4 -4 -5.5t-6 -2.5
q-4 -2 -7 0q-8 1 -16.5 0.5t-16.5 -0.5q-9 0 -17.5 0.5t-17.5 1.5q-20 1 -39.5 1.5t-39.5 1.5q-4 0 -7.5 -0.5t-6.5 -0.5q-8 -1 -19 -3t-21 -1t-16 6t-5 18q1 15 12.5 20.5t23.5 10.5q8 3 10.5 7t-0.5 15q-1 5 -5 15q-7 17 -13 33t-12 33l-2 4l-2 4q-6 14 -11 27.5t-8 28.5
q-2 10 -4 15q-3 12 -15 12q-3 0 -6 -0.5t-6 -0.5q-11 -1 -22 -0.5t-22 1.5q-20 1 -40 1.5t-40 1.5h-21q-12 -2 -24.5 -2.5t-24.5 0.5q-23 2 -31 -20q-7 -20 -15 -39t-16 -39t-14 -39t-12 -39q0 -2 -0.5 -3.5t-0.5 -3.5q-1 -2 0.5 -5.5t3.5 -4.5q18 -10 40 -13q5 -1 9.5 -1.5
t9.5 -1.5q2 0 3.5 -2t1.5 -4q1 -10 -1.5 -18.5t-10.5 -16.5q-14 0 -27.5 -0.5t-27.5 1.5q-9 1 -17 0q-10 -1 -19.5 -1h-19.5q-25 1 -49 0l-54 -3q-5 0 -7 1q-2 0 -4 2q-2 4 -3.5 7.5t-0.5 8.5q2 5 3 11t3 12zM366 561q-1 -2 -2 -3t-2 -3q-10 -23 -19.5 -45.5t-16.5 -45.5
q-2 -6 -4.5 -12t-5.5 -12q-6 -14 -11 -29t-13 -29q-1 -1 -1 -2q-6 -16 -12.5 -31.5t-12.5 -32.5q-1 -2 -3 -8q0 -7 5 -7q6 0 12 -0.5t12 -0.5q19 0 37.5 0.5t37.5 1.5q2 0 4.5 -0.5t4.5 0.5q11 2 22 2t22 1q8 0 16.5 0.5t16.5 1.5q2 1 3 2t3 2q-2 4 -2.5 7.5t-2.5 6.5
q-5 13 -10.5 25.5t-10.5 26.5q-8 20 -15.5 40t-12.5 41q-7 27 -16 53t-23 50z" />
    <glyph glyph-name="Adieresis" unicode="&#xc4;" horiz-adv-x="767" 
d="M6 38q9 4 17 7t17 2q14 0 24.5 6.5t19.5 16.5q9 11 15.5 23t11.5 26q2 7 4.5 13t8.5 11q3 7 6 13t5 13q2 3 3 6.5t3 6.5q6 10 10.5 20.5t9.5 21.5q4 8 6.5 17t3.5 18t6 15q11 14 8 26q5 5 7 8q2 2 3 3.5t3 3.5q5 5 5.5 11.5t5.5 11.5q4 5 7 9t3 11q0 3 2 7q4 6 6.5 12
t3.5 14q1 1 1 2q12 14 14 36q4 6 6 12t5 12q11 20 20.5 40t15.5 43q2 8 4.5 16.5t7.5 16.5q3 5 5 10q4 14 10 27.5t12 26.5q3 5 5 11t5 11q2 5 5 10t5 10q4 5 8 4l6 -2t6 0q12 3 23.5 1t22.5 -3q9 -2 12 -10q5 -12 8.5 -24.5t7.5 -24.5q5 -14 9 -28l8 -28q2 -10 10 -21
q5 -6 7.5 -13t4.5 -15q1 -8 3.5 -14.5t5.5 -14.5q5 -11 10 -28q4 -15 12 -31q10 -17 13 -40q2 -23 14 -43q5 -7 8 -14.5t4 -16.5q0 -2 1 -4l2 -4q6 -19 12 -37t12 -37q5 -14 9.5 -27.5t10.5 -27.5q3 -8 8 -16l10 -16q6 -8 7 -17q1 -8 3 -16.5t3 -16.5q0 -4 2 -8
q8 -11 16.5 -18.5t22.5 -9.5q11 -2 21.5 -5.5t21.5 -3.5q3 0 9 -2q11 -3 11 -13q-1 -6 -1.5 -12t-2.5 -11q-1 -4 -4 -5.5t-6 -2.5q-4 -2 -7 0q-8 1 -16.5 0.5t-16.5 -0.5q-9 0 -17.5 0.5t-17.5 1.5q-20 1 -39.5 1.5t-39.5 1.5q-4 0 -7.5 -0.5t-6.5 -0.5q-8 -1 -19 -3t-21 -1
t-16 6t-5 18q1 15 12.5 20.5t23.5 10.5q8 3 10.5 7t-0.5 15q-1 5 -5 15q-7 17 -13 33t-12 33l-2 4l-2 4q-6 14 -11 27.5t-8 28.5q-2 10 -4 15q-3 12 -15 12q-3 0 -6 -0.5t-6 -0.5q-11 -1 -22 -0.5t-22 1.5q-20 1 -40 1.5t-40 1.5h-21q-12 -2 -24.5 -2.5t-24.5 0.5
q-23 2 -31 -20q-7 -20 -15 -39t-16 -39t-14 -39t-12 -39q0 -2 -0.5 -3.5t-0.5 -3.5q-1 -2 0.5 -5.5t3.5 -4.5q18 -10 40 -13q5 -1 9.5 -1.5t9.5 -1.5q2 0 3.5 -2t1.5 -4q1 -10 -1.5 -18.5t-10.5 -16.5q-14 0 -27.5 -0.5t-27.5 1.5q-9 1 -17 0q-10 -1 -19.5 -1h-19.5
q-25 1 -49 0l-54 -3q-5 0 -7 1q-2 0 -4 2q-2 4 -3.5 7.5t-0.5 8.5q2 5 3 11t3 12zM366 561q-1 -2 -2 -3t-2 -3q-10 -23 -19.5 -45.5t-16.5 -45.5q-2 -6 -4.5 -12t-5.5 -12q-6 -14 -11 -29t-13 -29q-1 -1 -1 -2q-6 -16 -12.5 -31.5t-12.5 -32.5q-1 -2 -3 -8q0 -7 5 -7
q6 0 12 -0.5t12 -0.5q19 0 37.5 0.5t37.5 1.5q2 0 4.5 -0.5t4.5 0.5q11 2 22 2t22 1q8 0 16.5 0.5t16.5 1.5q2 1 3 2t3 2q-2 4 -2.5 7.5t-2.5 6.5q-5 13 -10.5 25.5t-10.5 26.5q-8 20 -15.5 40t-12.5 41q-7 27 -16 53t-23 50zM351 807q4 -5 7.5 -10.5t6.5 -10.5q6 -10 3 -25
q-2 -7 -5 -13t-4 -14q0 -3 -2 -3q-5 -2 -8 -5.5t-7 -5.5q-5 -4 -10.5 -5t-11.5 -1q-5 0 -9 3q-3 2 -6 3.5t-6 3.5q-24 13 -27 41q-3 7 -1.5 12.5t4.5 11.5q3 7 9 10q5 1 13 5q5 1 12 8q4 5 7 6t9 1q10 0 17 -4q5 -3 9 -8zM517 785q3 -12 0 -23t-8 -22q-1 -2 -4 -5t-6.5 -6
t-8.5 -7q-4 -1 -10.5 -0.5t-13.5 -3.5q-8 -3 -17 4q-3 2 -7 6q-12 10 -14 14t-3 19q-1 5 -0.5 8.5t0.5 8.5t3 8q9 9 16 23q3 6 11 9q11 5 23 3q3 -1 11 -3q4 -3 8 -6.5t8 -6.5q9 -6 12 -20z" />
    <glyph glyph-name="Ccedilla" unicode="&#xc7;" horiz-adv-x="642" 
d="M591 483q-5 -1 -8.5 -1.5t-8.5 -1.5q-14 -3 -21 11q-3 4 -4 8q-4 12 -9.5 23t-10.5 22q-5 13 -13 23.5t-17 21.5q-7 8 -15.5 15t-18.5 13q-2 2 -5 3t-5 3q-14 10 -28.5 16.5t-31.5 7.5q-6 1 -11 3.5t-10 5.5q-11 8 -21.5 8.5t-21.5 -2.5q-10 -3 -20 -5t-21 -4
q-14 -3 -23 -10q-12 -7 -23.5 -13.5t-23.5 -12.5q-19 -11 -32 -24q-12 -15 -30 -16q-1 0 -3 -1q0 -1 -0.5 -2.5t-0.5 -3.5q1 -18 -10 -38q-10 -15 -16 -36q-2 -5 -4.5 -8.5t-4.5 -8.5t-4.5 -9t-5.5 -9q-10 -21 -11 -40v-26q0 -23 -3 -44q-3 -16 -2.5 -31.5t2.5 -31.5
q1 -5 2 -10.5t2 -10.5q2 -16 6.5 -31t10.5 -30t16 -28q14 -20 22.5 -37t26.5 -34q31 -29 67 -49t79 -20h24t23 2q13 0 28 5l24 8t25 8q11 4 20.5 8.5t18.5 11.5q4 2 8 4.5t8 5.5q4 2 7.5 5t7.5 6l7.5 7.5t8.5 5.5q3 2 5.5 4.5l5.5 5.5q4 4 7.5 8t8.5 8q3 3 7 6t8 5
q8 4 13 -3q10 -11 4 -23q-7 -17 -18 -27q-3 -2 -5.5 -5t-4.5 -5q-5 -5 -6 -10q-5 -12 -17 -14q-5 -1 -10 -3l-10 -4q-8 -5 -17 -10t-17 -11q-15 -11 -36 -16q-14 -5 -27.5 -9.5t-28.5 -6.5q-4 -1 -7.5 -2t-8.5 -3q-13 -5 -26.5 -7.5t-27.5 -4.5t-28 -2.5t-28 1.5
q-5 1 -8.5 0.5t-8.5 -1.5q-15 -1 -32 5q-6 3 -17.5 9.5t-24 14t-23.5 14.5t-16 12q-19 17 -36.5 34.5t-34.5 37.5q-10 12 -19.5 24.5t-17.5 26.5q-9 17 -15 34.5t-10 35.5q-3 11 -5 23t-2 24q0 8 -1 15t-1 15q-1 11 -1 23t2 24q0 4 0.5 8t-0.5 8q-1 11 1 22t3 22q0 3 1 6
t2 5q6 17 11.5 33.5t12.5 32.5q7 18 18 33q9 14 17 28.5t16 28.5q4 8 8.5 15t9.5 15q10 14 22 24q5 4 9.5 8.5l9.5 9.5q10 9 20 11q6 2 11.5 3t11.5 2q14 2 28 6l28 8q5 2 8.5 3t7.5 3q12 8 29 6q8 0 12 -1q7 -2 13.5 -1.5t14.5 1.5q11 1 22 1.5t22 -0.5q28 0 52 -12
q30 -14 63 -15q9 -1 17.5 -2.5t16.5 -6.5q8 -4 17 -6.5t19 -1.5q5 0 7 -1t7 -6q1 -1 1 -4q1 -23 9 -46v-5q0 -14 3.5 -28.5t5.5 -28.5q2 -12 2 -23.5t2 -23.5zM228.367 -56.4492q1.76953 0 3.98242 -0.449219q2.21191 -0.448242 3.98145 -0.448242
q9.7334 0 19.4658 -1.79492q9.7334 -1.79395 19.4668 -3.58887q1.76953 0 3.09668 -0.896484q1.32715 -0.897461 3.09668 -1.79492q7.96387 -2.69141 8.84863 -10.7666q0.884766 -1.79395 0.884766 -4.03711t0.884766 -4.03809q0.884766 -4.48633 5.30859 -10.7666
q7.96387 -8.97168 7.96387 -23.3271v-8.0752q0 -9.86914 -5.30957 -16.1494q-9.73242 -12.5615 -21.2354 -22.4307q-11.5029 -9.87012 -26.5449 -16.1504q-15.9268 -6.28027 -36.2783 -6.28027q-4.42383 0 -7.52051 0.448242q-3.09668 0.449219 -6.63672 1.34668
q-13.2715 2.69141 -27.4297 0q-5.30859 -0.897461 -10.1748 0q-4.86719 0.896484 -9.29102 2.69141q-9.7334 3.58887 -13.7148 11.2148q-3.98145 7.62695 -1.32715 17.4961q0.884766 6.28027 8.84863 8.07422q10.6172 1.79492 17.6963 -3.58789
q10.6182 -6.28125 22.1211 -5.38379q7.96289 0 15.9268 -2.69141q7.96289 -1.79492 15.4844 0.448242q7.52051 2.24316 14.5996 4.93457q2.6543 1.79492 4.42383 4.48633q1.76953 1.79395 2.6543 4.48633q0.884766 2.69141 2.6543 4.48535q7.0791 17.9453 -6.19336 31.4033
l-7.0791 7.17773q-13.2715 12.5605 -30.9688 5.38281l-13.2725 -5.38281q-1.76953 -0.897461 -3.98145 -0.897461t-3.98145 -0.897461q-2.6543 0 -5.30957 2.69238q-2.6543 2.69141 -2.6543 5.38281q0.884766 6.28027 1.32715 12.5605q0.442383 6.28125 4.86719 11.6641
q5.30859 9.86914 8.84766 19.29q3.54004 9.4209 6.19434 19.29q4.42383 10.7676 7.96289 21.9824q3.54004 11.2148 8.84863 21.084q1.76953 4.48633 2.6543 8.97266t2.6543 8.97266q3.54004 9.86914 14.1572 8.97168q2.6543 0 5.30957 -0.448242
q2.6543 -0.449219 5.30859 -0.449219q7.0791 -2.69141 14.1572 0q3.53906 0.897461 6.19336 -2.24316q2.65527 -3.13965 0.885742 -5.83105q-7.0791 -14.3555 -11.0605 -28.7109t-11.0605 -27.8145q-0.884766 -1.79395 -1.76953 -4.03711t-0.884766 -4.03711
q0 -4.48633 -2.21191 -7.62695q-2.21289 -3.14062 -3.98242 -7.62598q-0.884766 -1.79492 -0.884766 -6.28027z" />
    <glyph glyph-name="Eacute" unicode="&#xc9;" horiz-adv-x="569" 
d="M517 58q-11 -32 -40 -47t-61 -13q-20 2 -40.5 3t-41.5 2q-8 0 -15 -0.5t-15 -0.5q-8 -1 -15 -1.5t-15 -0.5q-44 0 -87 -3q-17 -2 -33 0q-8 2 -16 2h-16h-51.5t-51.5 -3q-7 -1 -14 7q-3 6 -4 12.5t-1 12.5q0 3 3 6l6 2t5 1q12 3 24 7t23 8q10 4 14 8q7 5 7 12
q-1 11 2.5 21.5t8.5 20.5q2 3 3 5.5t2 5.5q2 6 1 11q-1 6 -1.5 12t-2.5 11q-3 12 -2.5 23.5t2.5 23.5q4 21 3 42q-2 38 10 71q3 10 -4 17q-5 5 -5 10q-1 11 -1.5 21t0.5 21q2 14 -1 23q-10 36 -4 75q3 19 3.5 37.5t-1.5 36.5q-1 14 -2.5 27t-7.5 27q-6 4 -10 8q-7 7 -18 14
t-18 13.5t-5 13.5t20 15q17 8 40.5 8.5t42.5 -2.5q29 -3 55 1q14 2 26.5 2.5t25.5 0.5q15 0 30 0.5t31 -0.5q14 -1 28 -0.5t28 2.5q17 1 39 -2q15 -3 29.5 -5t26.5 -7t20 -14.5t11 -27.5q2 -11 4.5 -21.5t5.5 -21.5q2 -12 1.5 -24.5t-1.5 -24.5q0 -6 -6 -12q-2 -2 -4 -3
q-13 -5 -25 1q-3 0 -5 4q-1 2 -2 4.5t-2 4.5q-2 9 -5.5 16.5t-6.5 15.5q-5 10 -10.5 19t-13.5 16q-1 2 -2 2.5t-2 2.5q-5 8 -12.5 12.5t-16.5 7.5t-18.5 5.5t-19.5 4.5q-17 3 -33 0q-22 -4 -48 -1q-27 3 -50 -11q-4 -2 -6 -6q-4 -7 -6.5 -14t-3.5 -15q-2 -8 -2.5 -17
t-1.5 -18l-3 -30v-16q1 -9 1 -18v-17v-19q0 -9 -0.5 -18t-2.5 -17t-0.5 -14.5t4.5 -12.5q2 -5 8 -5q14 -2 28 -2t28 2q7 2 14 3t15 3q11 1 21.5 0.5t20.5 -3.5q5 -1 9.5 -1.5t9.5 0.5q11 2 15.5 8.5t6.5 14.5t4.5 15.5t10.5 11.5q14 7 19.5 -1t7 -22t1 -29.5t-0.5 -21.5
q0 -8 2.5 -20t3 -25t-4 -23.5t-17.5 -13.5q-10 -3 -15.5 2t-9.5 12.5t-8.5 15.5t-11.5 13q-10 6 -20 6.5t-21 1.5q-18 2 -36 3.5t-37 0.5q-9 -1 -18 -4l-18 -6q-2 0 -4 -5q0 -1 -0.5 -2t0.5 -3q4 -12 2.5 -24t0.5 -24q1 -5 1 -9.5t1 -9.5q4 -36 -6 -69q-2 -4 -2 -8v-8
q-2 -10 -2 -19t-2 -19q-2 -18 1 -32q3 -12 3 -23q1 -12 13 -19q14 -7 27 -7q20 0 40.5 -1.5t41.5 0.5h9q20 -2 39.5 0t39.5 4q12 2 20 7l12 6t12 5q11 5 17 14l12 18q8 11 10 21l9 36q1 6 4 11q2 6 6 7q7 2 13.5 3t13.5 0q3 0 3 -3q1 -5 1 -10v-10q2 -14 -4 -25.5t-10 -25.5
q-2 -11 -1.5 -22t-1.5 -22zM317 891q10 2 17.5 0.5t15.5 -4.5q12 -5 21.5 -12.5t18.5 -16.5q3 -4 1 -9q-3 -6 -8 -11t-10 -8.5t-10 -7.5q-8 -6 -14 -12l-12 -12q-10 -11 -20 -21l-21 -21q-2 -2 -3.5 -3t-3.5 -3q-8 -4 -14 -9t-13 -10q-3 -3 -7 -5.5t-8 -4.5q-6 -3 -11.5 0.5
t-5.5 10.5t1 13.5t5 13.5q7 11 12.5 21t12.5 21t13.5 20.5t13.5 20.5q5 7 10 16q5 8 9.5 16.5t9.5 16.5z" />
    <glyph glyph-name="Edieresis" unicode="&#xcb;" horiz-adv-x="569" 
d="M517 58q-11 -32 -40 -47t-61 -13q-20 2 -40.5 3t-41.5 2q-8 0 -15 -0.5t-15 -0.5q-8 -1 -15 -1.5t-15 -0.5q-44 0 -87 -3q-17 -2 -33 0q-8 2 -16 2h-16h-51.5t-51.5 -3q-7 -1 -14 7q-3 6 -4 12.5t-1 12.5q0 3 3 6l6 2t5 1q12 3 24 7t23 8q10 4 14 8q7 5 7 12
q-1 11 2.5 21.5t8.5 20.5q2 3 3 5.5t2 5.5q2 6 1 11q-1 6 -1.5 12t-2.5 11q-3 12 -2.5 23.5t2.5 23.5q4 21 3 42q-2 38 10 71q3 10 -4 17q-5 5 -5 10q-1 11 -1.5 21t0.5 21q2 14 -1 23q-10 36 -4 75q3 19 3.5 37.5t-1.5 36.5q-1 14 -2.5 27t-7.5 27q-6 4 -10 8q-7 7 -18 14
t-18 13.5t-5 13.5t20 15q17 8 40.5 8.5t42.5 -2.5q29 -3 55 1q14 2 26.5 2.5t25.5 0.5q15 0 30 0.5t31 -0.5q14 -1 28 -0.5t28 2.5q17 1 39 -2q15 -3 29.5 -5t26.5 -7t20 -14.5t11 -27.5q2 -11 4.5 -21.5t5.5 -21.5q2 -12 1.5 -24.5t-1.5 -24.5q0 -6 -6 -12q-2 -2 -4 -3
q-13 -5 -25 1q-3 0 -5 4q-1 2 -2 4.5t-2 4.5q-2 9 -5.5 16.5t-6.5 15.5q-5 10 -10.5 19t-13.5 16q-1 2 -2 2.5t-2 2.5q-5 8 -12.5 12.5t-16.5 7.5t-18.5 5.5t-19.5 4.5q-17 3 -33 0q-22 -4 -48 -1q-27 3 -50 -11q-4 -2 -6 -6q-4 -7 -6.5 -14t-3.5 -15q-2 -8 -2.5 -17
t-1.5 -18l-3 -30v-16q1 -9 1 -18v-17v-19q0 -9 -0.5 -18t-2.5 -17t-0.5 -14.5t4.5 -12.5q2 -5 8 -5q14 -2 28 -2t28 2q7 2 14 3t15 3q11 1 21.5 0.5t20.5 -3.5q5 -1 9.5 -1.5t9.5 0.5q11 2 15.5 8.5t6.5 14.5t4.5 15.5t10.5 11.5q14 7 19.5 -1t7 -22t1 -29.5t-0.5 -21.5
q0 -8 2.5 -20t3 -25t-4 -23.5t-17.5 -13.5q-10 -3 -15.5 2t-9.5 12.5t-8.5 15.5t-11.5 13q-10 6 -20 6.5t-21 1.5q-18 2 -36 3.5t-37 0.5q-9 -1 -18 -4l-18 -6q-2 0 -4 -5q0 -1 -0.5 -2t0.5 -3q4 -12 2.5 -24t0.5 -24q1 -5 1 -9.5t1 -9.5q4 -36 -6 -69q-2 -4 -2 -8v-8
q-2 -10 -2 -19t-2 -19q-2 -18 1 -32q3 -12 3 -23q1 -12 13 -19q14 -7 27 -7q20 0 40.5 -1.5t41.5 0.5h9q20 -2 39.5 0t39.5 4q12 2 20 7l12 6t12 5q11 5 17 14l12 18q8 11 10 21l9 36q1 6 4 11q2 6 6 7q7 2 13.5 3t13.5 0q3 0 3 -3q1 -5 1 -10v-10q2 -14 -4 -25.5t-10 -25.5
q-2 -11 -1.5 -22t-1.5 -22zM228 840q4 -5 7.5 -10.5t6.5 -10.5q6 -10 3 -25q-2 -7 -5 -13t-4 -14q0 -3 -2 -3q-5 -2 -8 -5.5t-7 -5.5q-5 -4 -10.5 -5t-11.5 -1q-5 0 -9 3q-3 2 -6 3.5t-6 3.5q-24 13 -27 41q-3 7 -1.5 12.5t4.5 11.5q3 7 9 10q5 1 13 5q5 1 12 8q4 5 7 6t9 1
q10 0 17 -4q5 -3 9 -8zM394 818q3 -12 0 -23t-8 -22q-1 -2 -4 -5t-6.5 -6t-8.5 -7q-4 -1 -10.5 -0.5t-13.5 -3.5q-8 -3 -17 4q-3 2 -7 6q-12 10 -14 14t-3 19q-1 5 -0.5 8.5t0.5 8.5t3 8q9 9 16 23q3 6 11 9q11 5 23 3q3 -1 11 -3q4 -3 8 -6.5t8 -6.5q9 -6 12 -20z" />
    <glyph glyph-name="Iacute" unicode="&#xcd;" horiz-adv-x="317" 
d="M285 12q-14 -4 -26.5 -4.5t-25.5 0.5l-24 3q-15 2 -30 2t-31 -1q-17 -1 -33.5 -0.5t-33.5 0.5h-22.5t-22.5 -2q-7 -1 -14 -0.5t-14 0.5q-8 0 -8 9q1 12 16 23t28 13q21 3 35 21q20 26 20 58v33q0 3 0.5 6t-0.5 6q-2 12 -1 24t3 25q1 5 1.5 9t-0.5 9q-2 11 -1.5 22t2.5 22
q1 7 1.5 13t1.5 13q0 10 -1 14q-5 14 -4.5 26.5t1.5 26.5q1 11 1.5 22.5t2.5 22.5q2 15 -1 28q-3 11 -1 25v25t1 24q1 8 0.5 14.5t-4.5 13.5q-3 7 -3 16q-1 5 -1.5 10.5t-0.5 10.5q0 9 -2.5 18t-6.5 18q-2 5 -5 8t-7 5q-14 7 -25 7q-8 1 -22 1t-18 9q-3 8 3.5 16.5
t12.5 12.5q13 7 32.5 2.5t34.5 -4.5q2 0 4.5 -0.5t4.5 0.5q15 4 30.5 3t30.5 -3q3 0 14.5 0.5t25.5 1t28.5 -0.5t23.5 -5t11 -11.5t-9 -19.5q-5 -5 -11 -7t-13 -3.5t-13 -3.5t-10 -7q-5 -6 -8.5 -16t-5.5 -21t-3.5 -22t-1.5 -18q-1 -15 -1.5 -29.5t0.5 -29.5q1 -3 1 -6.5
t1 -7.5q3 -8 3.5 -16t0.5 -16q1 -10 1 -19t2 -18q1 -3 0.5 -5t-1.5 -5q-1 -4 -1.5 -7.5t-1.5 -8.5l-2 -30t1 -30q1 -11 -3 -21q-5 -9 0 -18t3 -20q-3 -29 2 -61q3 -22 -1 -42q-3 -15 -1 -33q1 -7 1.5 -13.5t1.5 -14.5q0 -4 1 -7.5t2 -8.5q2 -6 6 -10.5t9 -9.5q12 -8 25 -14
t27 -11q5 -2 11.5 -3.5t8.5 -6.5q1 -2 0 -11.5t-2 -9.5zM235 886q10 2 17.5 0.5t15.5 -4.5q12 -5 21.5 -12.5t18.5 -16.5q3 -4 1 -9q-3 -6 -8 -11t-10 -8.5t-10 -7.5q-8 -6 -14 -12l-12 -12q-10 -11 -20 -21l-21 -21q-2 -2 -3.5 -3t-3.5 -3q-8 -4 -14 -9t-13 -10
q-3 -3 -7 -5.5t-8 -4.5q-6 -3 -11.5 0.5t-5.5 10.5t1 13.5t5 13.5q7 11 12.5 21t12.5 21t13.5 20.5t13.5 20.5q5 7 10 16q5 8 9.5 16.5t9.5 16.5z" />
    <glyph glyph-name="Icircumflex" unicode="&#xce;" horiz-adv-x="317" 
d="M156 856l3 -3q3 -5 4.5 -9t-0.5 -9q-3 -8 -6 -15t-8 -15q-4 -9 -16 -16q-9 -6 -14 -17q-3 -8 -7.5 -14t-9.5 -13q-12 -14 -27 -24q-4 -2 -6 -2h-7q-11 2 -21.5 4t-20.5 4q-13 1 -22 12q-6 6 0 12l9 6q8 4 11 8l3.5 3.5t3.5 4.5q7 8 14 14.5t18 11.5q8 4 15 11q9 10 23 18
q9 5 17 13q5 5 9.5 8t9.5 7l4 2t4 1q5 -1 8.5 -2t8.5 -1zM329 761q2 -5 -1 -8q-9 -7 -19 -13t-21 -10q-17 -7 -35 -4q-5 8 -9.5 14.5t-9.5 12.5q-2 3 -4.5 6t-6.5 7l-27 33q-7 8 -13 17t-13 17q-4 5 -5 10.5t-1 11.5q0 5 6 8t11 1l16 -8q7 -5 13 -9t14 -8q4 0 8 -4
q11 -8 21 -16t21 -17q6 -6 12.5 -10.5t13.5 -9.5q5 -3 10.5 -6t10.5 -7q5 -3 8 -8zM285 12q-14 -4 -26.5 -4.5t-25.5 0.5l-24 3q-15 2 -30 2t-31 -1q-17 -1 -33.5 -0.5t-33.5 0.5h-22.5t-22.5 -2q-7 -1 -14 -0.5t-14 0.5q-8 0 -8 9q1 12 16 23t28 13q21 3 35 21q20 26 20 58
v33q0 3 0.5 6t-0.5 6q-2 12 -1 24t3 25q1 5 1.5 9t-0.5 9q-2 11 -1.5 22t2.5 22q1 7 1.5 13t1.5 13q0 10 -1 14q-5 14 -4.5 26.5t1.5 26.5q1 11 1.5 22.5t2.5 22.5q2 15 -1 28q-3 11 -1 25v25t1 24q1 8 0.5 14.5t-4.5 13.5q-3 7 -3 16q-1 5 -1.5 10.5t-0.5 10.5q0 9 -2.5 18
t-6.5 18q-2 5 -5 8t-7 5q-14 7 -25 7q-8 1 -22 1t-18 9q-3 8 3.5 16.5t12.5 12.5q13 7 32.5 2.5t34.5 -4.5q2 0 4.5 -0.5t4.5 0.5q15 4 30.5 3t30.5 -3q3 0 14.5 0.5t25.5 1t28.5 -0.5t23.5 -5t11 -11.5t-9 -19.5q-5 -5 -11 -7t-13 -3.5t-13 -3.5t-10 -7q-5 -6 -8.5 -16
t-5.5 -21t-3.5 -22t-1.5 -18q-1 -15 -1.5 -29.5t0.5 -29.5q1 -3 1 -6.5t1 -7.5q3 -8 3.5 -16t0.5 -16q1 -10 1 -19t2 -18q1 -3 0.5 -5t-1.5 -5q-1 -4 -1.5 -7.5t-1.5 -8.5l-2 -30t1 -30q1 -11 -3 -21q-5 -9 0 -18t3 -20q-3 -29 2 -61q3 -22 -1 -42q-3 -15 -1 -33
q1 -7 1.5 -13.5t1.5 -14.5q0 -4 1 -7.5t2 -8.5q2 -6 6 -10.5t9 -9.5q12 -8 25 -14t27 -11q5 -2 11.5 -3.5t8.5 -6.5q1 -2 0 -11.5t-2 -9.5z" />
    <glyph glyph-name="Oacute" unicode="&#xd3;" horiz-adv-x="711" 
d="M2 386q1 17 2 33t5 32q0 5 2 9l8 22l8 22q2 7 4 13.5t2 14.5q0 5 5 12l1 2q12 13 24 25.5t25 25.5q5 5 10.5 9t11.5 8q23 13 36 29q17 20 41 27q6 2 12.5 4.5t12.5 7.5q5 3 9.5 4.5t9.5 3.5l33 12q5 2 10.5 3t10.5 1q9 0 14 2t11 2t12 1q4 0 7.5 -0.5t6.5 0.5q8 3 16 2
t16 -3t15 -2.5t15 -1.5q18 -2 35.5 -6.5t33.5 -13.5q3 -2 5.5 -3t5.5 -2q20 -6 36 -17.5t30 -25.5q11 -9 20 -20q10 -11 19.5 -21.5t20.5 -20.5q14 -14 25.5 -30t18.5 -36q2 -5 4 -9.5t4 -9.5q13 -31 13 -59q0 -23 6 -44t5.5 -42t-5.5 -42q-1 -4 -1.5 -7.5t-1.5 -8.5
q-4 -15 -8.5 -29t-12.5 -28l-6 -12q-4 -11 -8.5 -21.5t-11.5 -20.5q-4 -5 -6 -15q-1 -8 -4 -14t-8 -11q-5 -7 -10.5 -13t-10.5 -12t-9 -11.5t-8 -10.5q-22 -30 -59 -46q-12 -5 -23.5 -10.5t-22.5 -11.5q-46 -28 -97 -32q-11 -1 -21 -1.5t-21 1.5q-21 3 -41.5 5.5t-41.5 7.5
l-8 2l-8 2q-26 6 -45 24q-10 10 -21.5 18t-23.5 16q-8 5 -15.5 10t-15.5 10q-16 10 -27 22q-7 7 -13 14l-12 14q-8 9 -13 25l-10 30l-10 30q-4 12 -6.5 24.5t-5.5 25.5q0 2 -0.5 3.5t-0.5 3.5q0 14 -2.5 26.5t-1.5 26.5q0 7 -1 10q-2 10 -2.5 19.5t1.5 19.5q1 3 1 7z
M111 255q2 -4 4 -5q10 -6 15 -20q5 -15 14 -32q7 -15 17 -27t17 -27q10 -11 19 -22t22 -19l21 -15q6 -3 11 -8q7 -8 15.5 -12.5t18.5 -8.5q28 -12 62 -19q8 -2 15.5 -1.5t15.5 2.5q9 2 18 3.5t18 4.5q9 2 17.5 6.5t16.5 7.5q22 9 33 26q5 5 10 13q4 8 11 15l15 15q2 3 4 5.5
t4 5.5q12 22 21 48t13 49q7 46 12 93q3 22 -2 46q-3 13 -4 25.5t3 25.5q2 9 -4 13q-5 5 -7.5 10.5t-4.5 11.5l-4 10t-3 10q-2 10 -6 18t-10 16q-12 16 -21 36q-4 13 -16 23q-4 4 -7.5 7t-8.5 7q-3 3 -7 5.5t-7 6.5q-10 13 -22.5 21t-26.5 13q-8 4 -17 7t-18 7
q-8 4 -16.5 6.5t-16.5 4.5q-7 2 -14 3t-14 0q-15 0 -32 -5q-14 -3 -26.5 -8t-26.5 -9q-4 0 -7 -3q-9 -7 -18.5 -13.5t-17.5 -15.5l-22 -26t-20 -27q-10 -16 -18 -35q-7 -18 -11 -36t-7 -37q-3 -12 -3 -25q0 -21 1 -41.5t3 -40.5q1 -14 1 -27t-2 -27q-3 -17 0 -35zM605 285
l-1 -1l1 -1v2zM387 896q10 2 17.5 0.5t15.5 -4.5q12 -5 21.5 -12.5t18.5 -16.5q3 -4 1 -9q-3 -6 -8 -11t-10 -8.5t-10 -7.5q-8 -6 -14 -12l-12 -12q-10 -11 -20 -21l-21 -21q-2 -2 -3.5 -3t-3.5 -3q-8 -4 -14 -9t-13 -10q-3 -3 -7 -5.5t-8 -4.5q-6 -3 -11.5 0.5t-5.5 10.5
t1 13.5t5 13.5q7 11 12.5 21t12.5 21t13.5 20.5t13.5 20.5q5 7 10 16q5 8 9.5 16.5t9.5 16.5z" />
    <glyph glyph-name="Ocircumflex" unicode="&#xd4;" horiz-adv-x="711" 
d="M2 386q1 17 2 33t5 32q0 5 2 9l8 22l8 22q2 7 4 13.5t2 14.5q0 5 5 12l1 2q12 13 24 25.5t25 25.5q5 5 10.5 9t11.5 8q23 13 36 29q17 20 41 27q6 2 12.5 4.5t12.5 7.5q5 3 9.5 4.5t9.5 3.5l33 12q5 2 10.5 3t10.5 1q9 0 14 2t11 2t12 1q4 0 7.5 -0.5t6.5 0.5q8 3 16 2
t16 -3t15 -2.5t15 -1.5q18 -2 35.5 -6.5t33.5 -13.5q3 -2 5.5 -3t5.5 -2q20 -6 36 -17.5t30 -25.5q11 -9 20 -20q10 -11 19.5 -21.5t20.5 -20.5q14 -14 25.5 -30t18.5 -36q2 -5 4 -9.5t4 -9.5q13 -31 13 -59q0 -23 6 -44t5.5 -42t-5.5 -42q-1 -4 -1.5 -7.5t-1.5 -8.5
q-4 -15 -8.5 -29t-12.5 -28l-6 -12q-4 -11 -8.5 -21.5t-11.5 -20.5q-4 -5 -6 -15q-1 -8 -4 -14t-8 -11q-5 -7 -10.5 -13t-10.5 -12t-9 -11.5t-8 -10.5q-22 -30 -59 -46q-12 -5 -23.5 -10.5t-22.5 -11.5q-46 -28 -97 -32q-11 -1 -21 -1.5t-21 1.5q-21 3 -41.5 5.5t-41.5 7.5
l-8 2l-8 2q-26 6 -45 24q-10 10 -21.5 18t-23.5 16q-8 5 -15.5 10t-15.5 10q-16 10 -27 22q-7 7 -13 14l-12 14q-8 9 -13 25l-10 30l-10 30q-4 12 -6.5 24.5t-5.5 25.5q0 2 -0.5 3.5t-0.5 3.5q0 14 -2.5 26.5t-1.5 26.5q0 7 -1 10q-2 10 -2.5 19.5t1.5 19.5q1 3 1 7z
M111 255q2 -4 4 -5q10 -6 15 -20q5 -15 14 -32q7 -15 17 -27t17 -27q10 -11 19 -22t22 -19l21 -15q6 -3 11 -8q7 -8 15.5 -12.5t18.5 -8.5q28 -12 62 -19q8 -2 15.5 -1.5t15.5 2.5q9 2 18 3.5t18 4.5q9 2 17.5 6.5t16.5 7.5q22 9 33 26q5 5 10 13q4 8 11 15l15 15q2 3 4 5.5
t4 5.5q12 22 21 48t13 49q7 46 12 93q3 22 -2 46q-3 13 -4 25.5t3 25.5q2 9 -4 13q-5 5 -7.5 10.5t-4.5 11.5l-4 10t-3 10q-2 10 -6 18t-10 16q-12 16 -21 36q-4 13 -16 23q-4 4 -7.5 7t-8.5 7q-3 3 -7 5.5t-7 6.5q-10 13 -22.5 21t-26.5 13q-8 4 -17 7t-18 7
q-8 4 -16.5 6.5t-16.5 4.5q-7 2 -14 3t-14 0q-15 0 -32 -5q-14 -3 -26.5 -8t-26.5 -9q-4 0 -7 -3q-9 -7 -18.5 -13.5t-17.5 -15.5l-22 -26t-20 -27q-10 -16 -18 -35q-7 -18 -11 -36t-7 -37q-3 -12 -3 -25q0 -21 1 -41.5t3 -40.5q1 -14 1 -27t-2 -27q-3 -17 0 -35zM605 285
l-1 -1l1 -1v2zM346 881l3 -3q3 -5 4.5 -9t-0.5 -9q-3 -8 -6 -15t-8 -15q-4 -9 -16 -16q-9 -6 -14 -17q-3 -8 -7.5 -14t-9.5 -13q-12 -14 -27 -24q-4 -2 -6 -2h-7q-11 2 -21.5 4t-20.5 4q-13 1 -22 12q-6 6 0 12l9 6q8 4 11 8l3.5 3.5t3.5 4.5q7 8 14 14.5t18 11.5q8 4 15 11
q9 10 23 18q9 5 17 13q5 5 9.5 8t9.5 7l4 2t4 1q5 -1 8.5 -2t8.5 -1zM519 786q2 -5 -1 -8q-9 -7 -19 -13t-21 -10q-17 -7 -35 -4q-5 8 -9.5 14.5t-9.5 12.5q-2 3 -4.5 6t-6.5 7l-27 33q-7 8 -13 17t-13 17q-4 5 -5 10.5t-1 11.5q0 5 6 8t11 1l16 -8q7 -5 13 -9t14 -8
q4 0 8 -4q11 -8 21 -16t21 -17q6 -6 12.5 -10.5t13.5 -9.5q5 -3 10.5 -6t10.5 -7q5 -3 8 -8z" />
    </font>
</defs>
</svg>
