<?xml version="1.0" standalone="no"?>
<!DOCTYPE svg PUBLIC "-//W3C//DTD SVG 1.1//EN" "http://www.w3.org/Graphics/SVG/1.1/DTD/svg11.dtd" >
<svg xmlns="http://www.w3.org/2000/svg" xmlns:xlink="http://www.w3.org/1999/xlink" version="1.1">
<metadata>
Created by FontForge 20170812 at Thu Dec 13 15:59:40 2018
 By root
Copyright (c) 2018 by Craft Supply Co. All rights reserved.
</metadata>
<defs>
<font id="BlustyScriptFree-Regular" horiz-adv-x="535" >
  <font-face 
    font-family="Blusty Script Free"
    font-weight="400"
    font-stretch="normal"
    units-per-em="1000"
    panose-1="0 0 0 0 0 0 0 0 0 0"
    ascent="800"
    descent="-200"
    x-height="434"
    cap-height="690"
    bbox="-25 -124 768 729"
    underline-thickness="0"
    underline-position="0"
    unicode-range="U+0020-007A"
  />
    <missing-glyph />
    <glyph glyph-name="space" unicode=" " horiz-adv-x="309" 
 />
    <glyph glyph-name="A" unicode="A" horiz-adv-x="576" 
d="M392 257q-22 -2 -43 -3t-43 -3q20 42 34.5 85t28.5 87q2 -42 5.5 -83t17.5 -83zM196 182q-10 -22 -20 -43.5t-20 -42.5q-2 -5 -4 -8.5t-4 -7.5q-1 -4 -7 -6q-8 -3 -10 -12q0 -2 3 -5t5 -4q4 -1 8 -1h8q8 0 11 1q16 2 27 12t19 23q17 27 33.5 54t33.5 54q4 6 9 6
q27 3 54.5 5.5t54.5 5.5h2q5 0 8 -7q9 -29 18 -57.5t18 -56.5l10 -22l10 -22q13 -26 29.5 -34t43.5 -8q18 0 29 6.5t11 28.5q-2 42 -5.5 84t-9.5 84q-5 30 -12 59.5t-11 58.5q-6 39 -9.5 77.5t-8.5 77.5q-5 38 -9.5 75t-9.5 75q-2 21 -11 32t-21.5 16t-28 6t-31.5 1
q-12 -1 -23 -7t-19 -15t-13.5 -19.5t-7.5 -20.5q-5 -29 -11 -56.5t-16 -54.5q-8 -23 -16.5 -45.5t-16.5 -46.5q-14 -46 -29.5 -91t-34.5 -90q-3 -7 -8 -8q-23 -4 -46.5 -8t-46.5 -6q-5 -1 -10.5 -1.5t-10.5 -0.5q-20 0 -35 7q-1 1 -5 1q-2 0 -5.5 -0.5t-4.5 -2.5t-0.5 -5
t2.5 -4q5 -5 10.5 -9t10.5 -6q39 -9 78 -9h48q-1 -2 -1.5 -3.5t-1.5 -3.5z" />
    <glyph glyph-name="B" unicode="B" horiz-adv-x="595" 
d="M450 212q3 -28 -10 -59l-15 -42q-17 -45 -42 -68.5t-74 -23.5q-10 0 -21 3h-2q-13 4 -17.5 10.5t0.5 20.5q11 29 24.5 57t35.5 52l23 23t30 28t31.5 25.5t27.5 17.5q1 1 5 2q1 -12 2 -23.5t2 -22.5zM196 385q-5 20 -10.5 39.5t-11.5 39.5q-2 7 0 13q8 27 22 57t33.5 56.5
t44.5 46.5t54 27q4 2 7.5 2h5.5q15 0 14 -23q-2 -51 -19 -94t-42 -85q-4 -4 -5 -6q-11 -18 -25 -33.5t-29 -30.5q-8 -8 -15.5 -17t-15.5 -18q-2 7 -4 13.5t-4 12.5zM131 610q-7 24 -32 24h-11q-23 -1 -29 -24q-13 -51 -7 -106q3 -28 6.5 -55t7.5 -55q4 -29 4.5 -58.5
t-1.5 -58.5q-1 -19 -1 -37.5t3 -37.5q4 -20 10.5 -40t19.5 -37q8 -9 17.5 -12.5t21.5 -3.5t21 6t16 15t12 20t8 21q13 35 15.5 71.5t0.5 73.5q0 6 4 7q12 4 23 10.5t22 14.5q6 5 19 11.5t27.5 12.5t28.5 10.5t21 4.5q2 0 4 -2q29 -10 47 -35t29 -53q3 -8 2.5 -9t-8.5 -5
q-13 -7 -26 -12.5t-24 -13.5q-27 -18 -53 -41t-48 -51t-36 -59.5t-17 -64.5q-3 -20 14 -29q20 -12 41.5 -16.5t44.5 -4.5q26 0 46.5 2.5t39.5 8.5t37 17.5t38 29.5q9 8 17.5 17.5t17.5 17.5q9 10 17 20.5t13 22.5q4 10 9 15q23 33 29 75q2 18 2.5 35t-3.5 34q-5 18 -11 34.5
t-21 29.5q-1 1 -3 5q-6 10 -14.5 16t-18.5 11q-2 2 -4 2.5t-4 2.5q-16 16 -38 24q-14 5 -26.5 9t-26.5 9l21 18q14 11 23.5 24t14.5 30q7 26 9 53t-3 54q-9 50 -45.5 71.5t-83.5 21.5q-36 0 -67 -13.5t-56.5 -35.5t-46.5 -50t-38 -57q-2 6 -3 8z" />
    <glyph glyph-name="C" unicode="C" horiz-adv-x="524" 
d="M330 -8q17 2 35 3.5t35 3.5t33.5 7t31.5 13.5t26 21t17 29.5q3 9 6.5 18t7.5 18q2 6 4.5 11.5t4.5 10.5q3 5 0 8q-5 2 -9.5 3.5t-9.5 1.5h-2q-5 -1 -9.5 -5t-8.5 -7q-4 -4 -8 -10l-14 -16t-13 -16q-20 -27 -44.5 -35.5t-56.5 -8.5q-34 0 -61 22.5t-39 52.5
q-13 35 -22 71.5t-12 73.5q-1 14 -1.5 28t1.5 28q3 19 8 42.5t12 46.5t16 44.5t20 36.5q20 32 37 56.5t36.5 45t43.5 38.5t57 36q2 0 3 0.5t3 0.5q11 0 21 -12.5t12 -22.5q3 -19 2 -34q0 -8 -1 -16.5t-2 -16.5q0 -10 13 -10q8 0 15 6.5t12 15t9 18t6 15.5q8 29 -5 53.5
t-41 32.5q-21 7 -47 7q-45 0 -92 -22.5t-90 -56t-79.5 -72.5t-60.5 -73q-17 -23 -29 -48t-25 -51q-18 -35 -23.5 -72t-0.5 -75q9 -74 41 -129.5t103 -84.5q19 -8 35 -13t31.5 -7.5t31.5 -3t36 -0.5v-2z" />
    <glyph glyph-name="D" unicode="D" horiz-adv-x="611" 
d="M333 59q-11 -12 -25 -15q-5 -2 -8.5 -2h-8.5q-15 0 -28 7t-26 18q-10 9 -5 22q25 57 71 95.5t102 63.5q5 3 11 5.5t12 4.5q-8 -54 -34 -106t-61 -93zM172 530q-7 17 -14.5 32.5t-18.5 29.5q-8 11 -18 17t-24 6q-19 0 -29 -6.5t-15 -26.5q-1 -3 -2 -6.5t-1 -6.5
q0 -62 2.5 -122.5t6.5 -121.5q1 -20 2 -39l2 -38q3 -35 7 -70.5t4 -70.5q0 -11 6 -17.5t14.5 -10.5t18.5 -5t18 -1q16 0 33.5 5.5t22.5 23.5q2 8 4 15t5 14q8 20 11 40.5t4 41.5q1 31 0.5 61.5t-1.5 60.5q-1 32 -5.5 64t-12.5 63q-1 5 1 13q5 14 10.5 29t11.5 29
q14 38 40 73t65 49q3 1 7 1q7 0 18 -10t22.5 -23.5t21 -26.5t13.5 -19q9 -14 16 -27.5t12 -29.5q3 -11 9 -26q10 -26 14 -52.5t-1 -54.5q-3 -23 -8 -46l-10 -46q0 -3 -4 -5q-11 -7 -21.5 -13t-21.5 -12q-36 -19 -63.5 -35.5t-50.5 -36.5t-42 -45t-39 -61q-7 -18 3 -32
q12 -18 24.5 -28t26.5 -15t30 -6.5t35 -1.5q28 0 47 2t35.5 8t32.5 16t37 26q42 32 72 72t47 91q11 33 19.5 66t16.5 67q7 25 8 49.5t-6 49.5q-12 42 -32 78t-52 65q-19 17 -37.5 33.5t-41.5 27.5t-45 21t-48 12q-37 0 -66 -9.5t-53 -39.5q-21 -26 -38 -54.5t-28 -60.5
q-1 -2 -1 -3.5t-2 -3.5q-1 4 -2 7z" />
    <glyph glyph-name="E" unicode="E" horiz-adv-x="466" 
d="M170 405q-23 -18 -40 -40.5t-34 -44.5q-15 -19 -23.5 -41t-12.5 -45q-5 -23 -9 -46.5t1 -46.5q7 -39 27 -67.5t48.5 -47t63.5 -27t71 -8.5q47 0 88 16q26 11 50 23t47 25q7 4 12 10t9 12q7 11 12 21t11 21l6 15q3 6 -5 8h-4q-8 0 -12 -6q-8 -10 -16 -19.5t-16 -19.5
l-15.5 -15.5t-18.5 -11.5q-23 -8 -45.5 -16t-45.5 -16q-22 -7 -47 -7q-20 2 -34 13t-24 26q-25 38 -21 81q3 41 15.5 87t36.5 79q6 8 12.5 17t11.5 18q12 18 27 33.5t32 29.5q5 3 10 3h4q11 -4 25 -7t25 -3q10 0 19 3q11 3 13 10t-5 15q-3 3 -6.5 6t-7.5 5q-13 6 -21.5 15.5
t-16.5 20.5q-3 5 -6.5 9.5t-5.5 9.5t-4 10.5t-2 10.5q-1 11 -1.5 22.5t1.5 23.5q1 15 6 31.5t14 31t22 24t30 9.5q11 0 22.5 -3t22.5 -8q10 -3 10 -15q1 -11 -3 -19t-11 -16q-6 -6 -11 -14q-4 -10 3 -15q8 -4 14 -4t7 2q13 13 23.5 27t14.5 32q3 13 1.5 24.5t-12.5 21.5
q-14 13 -30.5 18t-34.5 5q-27 0 -52 -8t-49 -20q-44 -21 -71.5 -54t-42.5 -77q-11 -37 14 -65q5 -6 10.5 -11t12.5 -11q-26 -8 -47.5 -21.5t-41.5 -28.5z" />
    <glyph glyph-name="F" unicode="F" horiz-adv-x="416" 
d="M100 112q0 18 6 34q8 23 17.5 46.5t19.5 46.5q4 10 14 22v-21v-90.5t-2 -90.5q0 -5 -3.5 -11t-5.5 -12q-23 14 -34 33.5t-12 42.5zM308 602q58 9 112.5 19.5t111.5 22.5l26 6t26 8q8 2 14 6t12 9q13 9 -1 18q-8 7 -17 8q-23 4 -49 6q-19 3 -40 3q-19 0 -37 -2t-36 -5
q-70 -11 -139.5 -24.5t-137.5 -35.5q-66 -22 -89 -86q-5 -12 -2 -24q6 -27 29 -27q3 0 6 0.5t7 1.5q3 0 5.5 3t4.5 5q5 13 14 18q12 8 24 17t25 17q1 0 2 1l1 -2l-4 -48l-4 -48q-2 -35 -4.5 -70t-4.5 -70q-2 -7 -5 -12q-8 -13 -17.5 -25t-17.5 -25q-9 -14 -21 -35.5t-23 -45
t-19 -46.5t-10 -40q-3 -48 33 -85q14 -17 36.5 -23.5t43.5 -6.5q39 0 66.5 13.5t56.5 39.5q11 9 14 28q2 12 2.5 23.5t1.5 23.5q1 20 1 39.5t1 39.5q2 26 3.5 51t2.5 51q2 18 2 36t1 36q2 5 5 6q8 4 22 7q20 6 39 14.5t38 17.5q5 2 9 5.5t2 8.5q-2 6 -7 7t-10 1
q-9 0 -18 -0.5t-19 -0.5q-6 -1 -12.5 -1t-12.5 -1q-10 -2 -19.5 -3t-18.5 -3q-4 22 -7 43.5t-7 43.5q-5 22 -12 43t-18 42q11 2 20 3.5t19 2.5z" />
    <glyph glyph-name="G" unicode="G" 
d="M393 47q0 -10 -1 -25t-5 -28.5t-12 -23t-22 -9.5q-16 0 -24 16q-5 9 -6.5 19t0.5 21q5 32 22 56l39 54q1 2 5 6q2 -22 3 -43.5t1 -42.5zM391 173q0 -4 -2 -6q-22 -20 -38.5 -43.5t-31.5 -48.5q-11 -19 -16.5 -38.5t-4.5 -40.5q2 -33 22 -44t49 -11q31 0 56.5 10.5
t44.5 29t32 44t18 54.5q4 22 6.5 43.5t4.5 43.5q8 64 -4 125q-3 15 -9 33.5t-15.5 34t-23.5 26t-33 10.5q-14 0 -27 -4t-15 -21q-3 -12 -5.5 -23.5t-3.5 -23.5q-1 -10 -5 -16.5t-11 -12.5q-14 -12 -26.5 -24.5t-26.5 -24.5q-10 -8 -20 -15t-21 -15q-7 18 -14 34.5t-12 33.5
q-7 20 -9 39q-3 30 -0.5 60t7.5 59q15 95 71 174q38 56 103 72q2 0 2.5 0.5t2.5 0.5q4 0 7 -9q6 -17 -2 -36q-11 -28 -24 -52.5t-30 -48.5q-3 -7 3 -7q11 0 19.5 6.5t14.5 14.5q15 20 29 39.5t28 39.5q5 8 9 17.5t7 19.5q10 35 -24 46q-11 5 -22 6t-22 1
q-101 0 -172.5 -48.5t-124.5 -128.5q-56 -86 -76 -190q-5 -26 -6 -50.5t9 -49.5q13 -33 28 -56t35 -38t46.5 -21.5t61.5 -6.5q41 0 81.5 15t63.5 51q5 7 8.5 13.5t7.5 13.5q0 -14 0.5 -28t-0.5 -28z" />
    <glyph glyph-name="H" unicode="H" horiz-adv-x="555" 
d="M102 121q-1 3 -3 7q-9 31 -6 64q2 14 9.5 22.5t16.5 18.5q-2 -29 -5 -56.5t-12 -55.5zM505 621q8 -22 2 -41t-19 -37l4 40t13 38zM375 214q0 -22 5.5 -42.5t19.5 -37.5q25 -30 53 -59q7 -8 15.5 -13t17.5 -10q10 -5 18.5 -10t17.5 -10q12 -8 22.5 -10.5t24.5 -2.5
q7 1 9.5 5.5t-1.5 9.5q-4 7 -7.5 13.5t-8.5 12.5q-8 8 -10.5 17.5t-4.5 20.5q-2 10 -4.5 20t-4.5 20q-3 11 -6 22.5t-5 22.5t-1 21t-1 20q-5 34 -9.5 67t-10.5 66q-6 31 -11.5 61t-5.5 61q0 7 3 10q17 12 28.5 28t21.5 35q22 42 16 87q-3 26 -17 33.5t-37 7.5
q-12 0 -24 -3.5t-23 -11.5l-27 -21q-23 -17 -31 -47q-3 -9 -5.5 -18t-3.5 -18q-4 -29 -7 -58l-6 -58q-1 -3 -1 -5.5t-2 -4.5q-8 -8 -16.5 -16t-18.5 -15q-23 -17 -47 -33t-47 -33q-1 14 -1 28t-3 27q-8 35 -17 70t-20 70q-3 8 -11 33.5t-18 53.5t-19 50.5t-13 25.5
q-6 3 -13 3q-19 0 -24 -18q-3 -15 -5.5 -30.5t-3.5 -30.5q-2 -54 3.5 -108t13.5 -108q2 -17 4.5 -35t4.5 -36q1 -17 0.5 -33t-1.5 -32q0 -6 -6 -12q-9 -9 -18.5 -18t-18.5 -18q-15 -15 -18 -33q-2 -15 -4 -30.5t-4 -31.5q-3 -24 8 -42t34 -25q10 -2 20.5 -2.5t21.5 -0.5
q29 0 49 16t32.5 39.5t19 51t6.5 50.5q1 25 0.5 49.5t-1.5 49.5q0 3 4 7q32 20 64.5 39.5t65.5 38.5v-182z" />
    <glyph glyph-name="I" unicode="I" horiz-adv-x="286" 
d="M103 478q-10 13 -14.5 27.5t-8.5 29.5q-5 20 -2 39t12 36t23.5 30t33.5 20q2 0 4 1v-9t-1 -9l-10 -54l-10 -54l-6 -34t-5 -34l-2 -6q-4 5 -7.5 8.5t-6.5 8.5zM254 453q-1 34 -1.5 67t-2.5 67q-2 17 -5 32.5t-8 31.5q-4 15 -14.5 24t-25.5 13q-5 1 -11 1.5t-12 0.5
q-12 0 -26 -3q-26 -6 -46.5 -21.5t-33 -36.5t-16.5 -46.5t2 -51.5q7 -28 19.5 -51t38.5 -38q3 -3 3 -9q-1 -26 -2.5 -53t-0.5 -53q2 -31 5 -61l6 -60q2 -26 -0.5 -51t-14.5 -49q-2 -5 -4 -10.5t-4 -11.5q-4 -9 -8 -18.5t-8 -18.5q-7 -14 -11 -26q-3 -11 6 -15q8 -3 16 -3
q16 0 27 8q14 11 32.5 27t36.5 34t33 37t22 36q12 29 14 58t-1 59q-4 48 -5.5 95.5t-1.5 95.5h2z" />
    <glyph glyph-name="J" unicode="J" horiz-adv-x="469" 
d="M325 290q-1 -63 -11.5 -126t-45.5 -117q-2 -4 -11.5 -9t-21.5 -9.5t-23.5 -8t-17.5 -3.5q-8 0 -11 1q-14 4 -27.5 7.5t-27.5 8.5q-16 5 -27.5 22.5t-12.5 34.5q-1 62 43 106q50 53 111 90q20 12 39 24l38 24q2 1 3 1t3 1v-47zM296 556q12 -46 16.5 -92.5t9.5 -93.5
q1 -7 -5 -10q-24 -16 -48.5 -31t-49.5 -30q-32 -20 -61.5 -43.5t-56.5 -49.5q-52 -51 -51 -123q1 -20 9.5 -36.5t26.5 -26.5q31 -17 59.5 -26.5t63.5 -9.5t69 7.5t66 19.5q33 12 55 47t35.5 78.5t20.5 88t10 74.5q2 26 3 53t-2 54q-8 75 -33.5 133t-68.5 118l6 3
q11 5 22 10.5t22 10.5q4 2 8 4.5t3 8.5q-1 5 -5 7l-8 4q-13 3 -26 3h-9t-9 -1q-19 -2 -35.5 -9t-33.5 -14q-14 -6 -27.5 -10t-27.5 -9q-4 -2 -8 -2.5t-8 -2.5q-5 -2 -5 -7t5 -8q7 -2 13.5 -3.5t13.5 -3.5h7h15q5 -21 9.5 -41.5t9.5 -40.5z" />
    <glyph glyph-name="K" unicode="K" horiz-adv-x="496" 
d="M228 248l26 -24t24 -26q18 -22 35.5 -44.5t35.5 -44.5q11 -14 24 -26t24 -26q26 -28 60 -45q19 -9 37 -18t36 -17q15 -8 31 -11t32 -3t36.5 3t32.5 13q8 7 8 14t-10 11q-14 5 -27 9t-27 9h-5q-9 0 -13 3l-13.5 9t-21.5 14.5t-20 14t-10 9.5q-10 13 -20 24.5t-18 25.5
q-28 45 -64.5 79t-80.5 61q-19 13 -38 24.5t-41 20.5q7 4 14 7.5t14 7.5q91 58 154 138q16 20 28.5 41.5t26.5 42.5q12 17 19.5 37t12.5 40q4 16 7 32t1 33q-2 22 -15 34q-9 9 -21 9q-16 0 -23 -13q-15 -27 -29.5 -53.5t-29.5 -53.5q-45 -66 -94 -128.5t-112 -113.5
q0 4 -0.5 7t-0.5 6q-3 44 -6 87.5t-8 87.5q-2 23 -7 44.5t-10 43.5q-3 21 -25 23q-4 1 -12 1q-14 0 -25.5 -4t-13.5 -21q-5 -39 -7 -78l-4 -78q-2 -33 -3 -65.5t-3 -65.5q0 -6 -6 -8q-7 -2 -13 -6t-10 -12q-2 -7 -4.5 -14t-4.5 -15q-6 -24 18 -31q5 -2 9.5 -2.5t8.5 -1.5
q2 -23 4 -45.5t4 -45.5q0 -6 1.5 -11.5t3.5 -11.5q2 -5 4 -9t3 -9q3 -12 12 -16t20 -4t20.5 4t16.5 14q5 8 16 15q17 11 25.5 32t8.5 41v28q1 1 2 1z" />
    <glyph glyph-name="L" unicode="L" horiz-adv-x="293" 
d="M238 12q5 -2 11 -4t12 -3q24 -5 47 -8t47 -3t47 2t46 8q25 7 25 38q0 16 -13 16q-5 0 -11 -3q-3 -2 -5 -3.5t-5 -3.5q-4 -2 -7.5 -3.5t-7.5 -2.5q-13 0 -22 2t-21 7l-14 8t-15 6q-35 11 -68 28.5t-65 36.5q1 4 3 8q23 66 30 135q4 44 2.5 87.5t-7.5 87.5q-5 44 -11.5 87
t-13.5 87q-2 14 -5.5 27.5t-7.5 27.5q-3 10 -13 15q-10 6 -21 6q-12 0 -21.5 -7t-14.5 -21q-11 -35 -16.5 -71t-5.5 -74q0 -21 0.5 -42t1.5 -42q1 -25 2 -49t2 -49q2 -45 -2 -88.5t-15 -86.5q0 -4 -4 -6q-16 -5 -25 -15.5t-15 -24.5q-8 -21 -10.5 -43t-0.5 -45
q2 -20 13.5 -25t28.5 -5q35 0 61 22q5 4 9.5 8t9.5 8q16 -8 32 -15t33 -15z" />
    <glyph glyph-name="M" unicode="M" horiz-adv-x="673" 
d="M537 563l-4 -42t-5 -42q-8 -44 -15.5 -86.5t-9.5 -87.5q-2 -40 0.5 -79t14.5 -77q5 -15 12 -35.5t17.5 -40t23 -36t27.5 -24.5q7 -4 13.5 -7.5t12.5 -7.5q7 -4 13.5 -7.5t11.5 -8.5q9 -12 21 -12q7 0 13 3q11 5 14 10t-2 17q-7 13 -12 29q-2 9 -6 17.5t-8 16.5
q-4 7 -6 17q-2 18 -4 36.5t-4 37.5q-3 35 -2 71l2 72q1 32 3.5 63.5t2.5 63.5q1 26 -0.5 52t-3.5 52q-2 22 -5.5 44t-13 40t-26 29t-43.5 11q-26 -1 -45.5 -13.5t-35.5 -33.5q-13 -17 -25.5 -33t-25.5 -32q-2 4 -2 6q-12 39 -46.5 64t-75.5 25q-21 0 -40.5 -9t-36 -23.5
t-29.5 -32t-22 -35.5q-1 -1 -1 -1.5t-1 -1.5q-2 4 -2.5 7.5t-1.5 6.5q-3 14 -9 31t-15 32t-22 25t-31 10q-11 0 -21.5 -4.5t-12.5 -17.5q-2 -19 -4.5 -38t-4.5 -38q-3 -32 -6 -63t-3 -63q0 -42 1.5 -83t3.5 -83l3 -162q0 -17 14 -26l7 -3.5t7 -2.5q18 -6 37 -6q28 0 49.5 10
t29.5 41q6 21 8.5 42t2.5 43q0 59 -4 118.5t-12 117.5q-3 26 9 47q3 5 5 9.5t4 9.5q8 14 16.5 28.5t17.5 28.5q8 12 19.5 21.5t23.5 19.5l1.5 -3t0.5 -3q-1 -11 -0.5 -22t-0.5 -22q-2 -20 -5.5 -40.5t-5.5 -40.5l-4 -40l-4 -40q-1 -17 -1.5 -33t1.5 -33q2 -15 5.5 -29.5
t6.5 -29.5q3 -13 10.5 -21.5t17.5 -13.5t22 -7.5t23 -2.5q24 0 44.5 8.5t24.5 36.5q1 9 2 18.5t3 18.5l10 70t4 70q0 24 8.5 47t21.5 44t29 40t31 35q1 1 3 1q-1 -9 -1 -17.5t-2 -17.5z" />
    <glyph glyph-name="N" unicode="N" horiz-adv-x="534" 
d="M178 512l-27 84q-4 11 -9 20t-16 14q-1 0 -1 0.5t-1 0.5q-6 9 -16 9q-11 0 -22 -14t-13 -23q-10 -42 -15 -83t-4 -84q1 -21 1 -42t-2 -43q-1 -29 -2.5 -57t-0.5 -57q0 -11 2.5 -26t7 -30t11.5 -27.5t17 -19.5q20 -9 39 -9q20 0 38 9q5 2 9 5.5t5 8.5q17 51 20 103t3 106
q0 9 -1 18t0 18q8 51 25.5 98t40.5 92q10 20 25.5 33.5t35.5 23.5q2 1 5.5 2.5t6.5 0.5q8 -2 15 -6t11 -13q5 -14 9 -28t4 -29q0 -23 -0.5 -44.5t-0.5 -44.5q-8 -54 -14.5 -107.5t-8.5 -107.5q-2 -26 0 -50.5t6 -49.5q2 -17 5.5 -32.5t13.5 -29.5q4 -6 8 -12.5t8 -13.5
q26 -42 63.5 -55.5t82.5 -15.5q12 -1 15 8t-1 17q-6 13 -13 31q-5 14 -10 28.5t-10 28.5q-8 21 -8 40l-2 34t0 34q0 18 1 36t3 36t4.5 36.5t4.5 36.5q2 15 3 30.5t4 29.5q6 37 5.5 73t-8.5 71q-7 30 -23 52t-38.5 36t-50 20.5t-56.5 6.5q-51 0 -88.5 -22.5t-57.5 -71.5
q-8 -22 -17 -44t-17 -45q0 1 -2 -3q-1 3 -1 5t-1 4z" />
    <glyph glyph-name="O" unicode="O" horiz-adv-x="508" 
d="M227 410q6 -16 13 -31.5t18 -29.5q3 -3 5.5 -6.5t5.5 -6.5q13 -11 25 -23t26 -23q11 -8 29.5 -18.5t32.5 -10.5q7 0 11 1q8 0 10 5q2 2 1 5.5t-3 6.5l-4.5 4.5l-4.5 4.5q-13 11 -25 22l-24 22q0 1 -2 3q-20 39 -37.5 79t-29.5 83q-8 30 -4 58.5t18 56.5q13 26 37.5 40.5
t53.5 14.5q18 0 35.5 -6t24.5 -24q7 -17 13.5 -33t12.5 -33q15 -41 10 -89q-2 -39 -4.5 -67.5t-7.5 -54t-14.5 -53t-25.5 -64.5q-5 -13 -19.5 -39t-32.5 -52t-37 -45.5t-34 -19.5q-4 0 -9 3q-7 8 -14 15t-13 15q-13 18 -23 45t-16.5 56.5t-10 58.5t-3.5 51q0 26 0.5 52
t1.5 52q0 6 1 9h1q3 -8 6 -16.5t6 -17.5zM482 636q-7 17 -19.5 27t-27.5 15.5t-31.5 7.5t-32.5 2q-44 0 -83.5 -18t-61.5 -57l-3 -3t-4 -1h-2q-27 0 -51 -19.5t-43.5 -47t-33.5 -58t-20 -52.5q-11 -38 -14 -76t-5 -76q-1 -31 3 -60.5t9 -59.5q8 -40 29 -67.5t50 -44.5
t64.5 -24.5t71.5 -7.5q23 0 47 3.5t46 12t40.5 23t30.5 36.5q15 27 26.5 55t19.5 58q16 57 26.5 114.5t8.5 117.5q-1 32 -2.5 56t-5.5 45.5t-11.5 44.5t-20.5 54z" />
    <glyph glyph-name="P" unicode="P" horiz-adv-x="439" 
d="M345 380q-5 -13 -8.5 -25t-8.5 -25q-2 -6 -8.5 -17t-14.5 -22.5t-17 -19.5t-17 -8q-5 0 -13 12q-5 10 -7 20t3 21q31 78 98 119q1 1 3 2q-2 -32 -10 -57zM158 612q-3 5 -6.5 9t-6.5 9q-3 3 -6.5 5.5t-5.5 5.5q-7 10 -17 13.5t-21 3.5q-16 0 -23.5 -7.5t-10.5 -24.5
q-12 -73 -11 -144q1 -45 3.5 -90t5.5 -91q2 -35 5.5 -69t6.5 -69q3 -32 10.5 -63.5t15.5 -63.5q5 -13 16.5 -17t23.5 -4q14 0 26.5 5.5t12.5 22.5q1 7 1 13.5t1 13.5q4 31 8 61l8 60q3 20 6.5 40.5t3.5 41.5q2 48 0 95t-13 94q-3 10 3 19q5 10 9.5 20t9.5 20
q11 23 29.5 42.5t38.5 34.5q14 11 27 21t27 20q2 2 5 2q5 0 14.5 -5.5t12.5 -9.5q3 -2 2.5 -7.5t-0.5 -10.5v-8q-3 -30 -5.5 -59.5t-4.5 -59.5q0 -9 -7 -13q-12 -8 -25 -15t-24 -16q-15 -12 -31 -29t-29 -37t-21.5 -41.5t-8.5 -42.5q2 -34 22 -43.5t48 -9.5q78 0 134 57
q31 34 56.5 70.5t35.5 82.5q4 17 4.5 34.5t-1.5 34.5q-2 20 -3 39.5t-5 38.5q-5 29 -17 48t-30 30t-41 15t-50 4q-23 0 -48 -4t-42 -21q-2 -3 -5.5 -5t-6.5 -4q-22 -11 -41 -24.5t-34 -33.5q-5 -5 -9 -10l-8 -10q-4 9 -7 18t-7 18z" />
    <glyph glyph-name="Q" unicode="Q" horiz-adv-x="500" 
d="M223 555q-2 -18 0.5 -35.5t8.5 -34.5q8 -24 17 -48t19 -47q4 -10 12 -22.5t18.5 -24t22.5 -19.5t24 -8q2 0 4.5 0.5t4.5 0.5q14 2 6 15q-25 42 -45.5 85.5t-34.5 90.5q-22 69 12 137q3 7 8 12.5t10 10.5q9 10 22 10q4 0 12 -2l9 -3q24 -6 37.5 -23t18.5 -41q7 -27 12 -54
t7 -54q2 -23 3.5 -46t0.5 -46q-1 -37 -6.5 -73.5t-23.5 -70.5q-14 -27 -26 -47.5t-26 -38t-31.5 -33t-42.5 -31.5q-4 -2 -5 -2t-5 2q-18 15 -31 36t-22.5 44.5t-15 48t-8.5 46.5q-5 32 -6.5 64.5t-0.5 64.5q1 26 3.5 48t7.5 42.5t13.5 41t20.5 42.5q-1 -9 -2 -18.5t-2 -19.5
zM83 66q-6 -3 -11 -8q-7 -7 2 -12q2 -1 5 -2t5 0h14t15 2q20 5 37 5q20 0 39 -6t37 -16t35 -21.5t32 -23.5q37 -28 79.5 -46t89.5 -18q26 0 53 4t49 20q19 12 25 31t10 40q1 2 -1 4t-4 3q-3 1 -5.5 1.5t-5.5 0.5q-11 0 -16 -8q-11 -13 -32.5 -26.5t-40.5 -13.5q-8 0 -18 5
q-16 8 -30.5 16.5t-29.5 16.5q-19 10 -37 19.5t-36 20.5q-4 2 -6 2q13 8 26.5 15.5t25.5 16.5q31 23 52.5 53.5t37.5 66.5q21 47 26.5 94t-0.5 97q-8 62 -21 121.5t-40 116.5q-6 15 -19.5 26.5t-30 19.5t-34.5 12t-33 4q-19 0 -35 -6.5t-30 -21.5q-10 -10 -23 -10
q-49 -3 -84 -29t-57 -64.5t-33 -84t-14 -87.5q-2 -42 0.5 -83.5t13.5 -83.5q11 -45 28.5 -77t46.5 -66q-14 -3 -28.5 -7.5t-28.5 -12.5z" />
    <glyph glyph-name="R" unicode="R" horiz-adv-x="512" 
d="M200 470q-1 10 2 20q2 10 5.5 19.5t6.5 19.5q2 7 3.5 13.5t3.5 13.5q0 2 1 3.5t2 3.5q8 12 16.5 25t17.5 24q6 7 16 17.5t22 20.5t24.5 17t21.5 7t17.5 -2.5t13.5 -10.5l15 -27q8 -15 11 -30.5t5 -32.5q2 -23 -2.5 -43.5t-12.5 -40.5q-4 -8 -5 -13q-8 -35 -31 -69.5
t-51 -58.5l-27 -24q-4 -4 -7 -4q-9 -2 -18 -2.5t-18 -1.5q-8 40 -16 78.5t-16 77.5zM331 321q29 16 58.5 36.5t56 45.5t47.5 53.5t33 59.5q7 20 9.5 40.5t-2.5 41.5q-14 54 -55 81.5t-94 27.5q-32 0 -63.5 -8.5t-51.5 -34.5l-3.5 -3.5l-3.5 -3.5q-14 -13 -25 -26.5
t-19 -29.5q-2 -6 -5 -9q-8 -4 -11.5 -11l-7.5 -15l-6 -12t-7 -13q-2 3 -2.5 5t-1.5 4q-7 17 -14 32.5t-14 31.5q-6 12 -17 17t-23 5q-7 0 -11 -1q-14 -1 -20.5 -6.5t-10.5 -19.5q-8 -24 -10.5 -48.5t-4.5 -49.5q-2 -26 -2 -51v-51q0 -11 0.5 -22t1.5 -22q2 -16 4 -31l4 -30
q2 -31 3.5 -61.5t3.5 -60.5q1 -16 3.5 -33.5t8.5 -31.5t18 -23.5t32 -9.5q25 0 36 12.5t21 32.5q8 17 15.5 34t15.5 34q4 8 7.5 16.5t5.5 16.5t2.5 17t2.5 18q3 0 6 0.5t5 0.5q11 0 17 -4.5t14 -18.5l14 -22t15 -21q25 -28 39 -65q8 -21 18 -42t24 -40t31.5 -33.5
t39.5 -22.5q17 -7 35 -13.5t36 -13.5q20 -7 43 -7q18 0 35.5 5t27.5 22q4 8 0.5 14.5t-11.5 6.5q-5 0 -8 -0.5t-8 -1.5q-6 0 -7 1l-42 33q-11 8 -20 17t-14 23q-8 20 -16 39.5t-15 40.5q-11 34 -31 62t-45 53q-6 8 -18.5 14.5t-26 11.5t-27.5 8t-23 4q4 3 8 5z" />
    <glyph glyph-name="S" unicode="S" horiz-adv-x="429" 
d="M271 197q16 -47 13 -100q0 -6 -4 -16.5t-10.5 -22t-14 -20t-14.5 -10.5q-9 -2 -17.5 -4t-17.5 -2q-15 0 -30 6q-18 7 -26.5 16.5t-4.5 35.5q6 54 48 93q14 13 27.5 25.5t27.5 24.5q2 2 8 6l8 -16t7 -16zM240 242q-16 -14 -31.5 -27.5t-32.5 -25.5q-20 -16 -34 -35
t-25 -42q-12 -24 -10 -53q0 -23 20 -38q23 -16 46.5 -21.5t51.5 -5.5q38 0 73 8t64 36q8 9 16 17.5t16 17.5q23 27 30 63q8 36 6 73q-1 19 -9 37.5t-19.5 35t-26 31t-29.5 24.5l-44 30t-45 30q-23 16 -34 41t-19 51q-1 4 -1.5 7.5t-0.5 8.5q2 24 7 40t13 28.5t20.5 24
t28.5 24.5q10 8 27.5 17.5t36.5 18t37.5 14t30.5 5.5q11 0 17 -8.5t2 -19.5q-2 -7 -8 -17.5t-13.5 -20.5t-15 -19t-13.5 -14q-2 -1 -4 -5q2 -1 3 -2t3 -1q12 0 23.5 9t22 21.5t18.5 26.5t13 23q8 17 -6 31q-7 7 -19 12q-18 6 -36 6q-59 0 -116.5 -19t-109.5 -45
q-54 -26 -86 -73q-13 -20 -21.5 -42t-6.5 -47q1 -14 4 -29.5t9 -30t14.5 -27t20.5 -21.5q20 -16 40.5 -31.5t41.5 -30.5q17 -13 32.5 -27.5t30.5 -30.5z" />
    <glyph glyph-name="T" unicode="T" horiz-adv-x="448" 
d="M267 572q0 -32 -0.5 -64.5t0.5 -65.5q0 -29 2 -58.5t3 -58.5q0 -44 -0.5 -87t0.5 -86q0 -28 3 -55q2 -16 4.5 -31t4.5 -31q1 -14 14 -18q8 -4 17 -4.5t18 -0.5q23 1 41 15t24 37q5 19 9.5 38t9.5 37q11 42 14 84t-1 84q-3 31 -7.5 61t-9.5 60q-5 33 -11.5 65.5
t-12.5 65.5q-2 11 -6 22.5t-7 23.5q46 0 92 3t92 8q28 3 50 18q13 10 13 21t-14 20q-10 7 -23.5 11.5t-28.5 7t-30 3.5t-26 1q-16 1 -31.5 1h-30.5q-48 0 -99.5 -1.5t-102 -10.5t-97 -27.5t-84.5 -51.5q-14 -12 1 -24q3 -2 5.5 -3t5.5 -3q20 -8 44 -8q6 0 12.5 0.5t12.5 1.5
q20 2 39.5 6.5t39.5 9.5l26 6t27 6q-1 -8 -1.5 -14.5t-0.5 -13.5z" />
    <glyph glyph-name="U" unicode="U" horiz-adv-x="568" 
d="M408 314q0 -20 1 -47.5t4 -57t8 -56.5t13 -46q7 -15 18.5 -30.5t26.5 -28.5t31.5 -22.5t33.5 -12.5q7 0 13.5 0.5t13.5 1.5q8 2 10.5 8t-1.5 14q-2 5 -4 8.5t-4 8.5q-22 37 -20 85q1 41 1.5 81t0.5 81q1 22 1.5 43.5t0.5 42.5q2 52 0.5 103.5t-4.5 103.5q-2 18 -4 35.5
t-7 34.5q-8 25 -23.5 30t-37.5 5q-21 -2 -29 -9.5t-13 -27.5q-11 -48 -17.5 -95t-8.5 -95v-11t-2 -11l-12 -40t-14 -40q-14 -35 -28.5 -68t-28.5 -67q-11 -24 -23 -46t-29 -42q-4 -5 -8.5 -9.5l-9.5 -9.5q-14 23 -27.5 54t-15.5 58q-1 15 -0.5 30t1.5 29q2 32 5 62.5t6 61.5
q2 28 1 55.5t-7 55.5q-8 37 -22.5 71t-32.5 67q-14 26 -45 26q-13 0 -22.5 -4t-13.5 -18q-3 -14 -5.5 -29t-4.5 -29q-2 -15 -1.5 -30t-1.5 -30q-2 -32 -3.5 -65.5t-6.5 -65.5q-6 -37 -9 -73.5t-2 -74.5q1 -20 3 -39.5t12 -36.5q15 -26 31 -49.5t35.5 -41.5t44.5 -28.5
t59 -10.5q32 0 54 8t38 23t26.5 36.5t18.5 48.5q7 23 12.5 47t12.5 47q2 8 4.5 15.5t4.5 15.5h2z" />
    <glyph glyph-name="V" unicode="V" horiz-adv-x="513" 
d="M346 295q-16 56 -44 110q-9 17 -16.5 33t-15.5 33q-7 17 -18.5 38.5t-25 43.5t-28.5 41t-30 30q-13 9 -25 18t-25 18t-30 9q-12 0 -25 -5q-16 -6 -12 -24q2 -7 5 -13.5t5 -13.5q3 -7 6.5 -13.5t6.5 -13.5l12 -30t11 -30q12 -32 23.5 -64t24.5 -64q23 -59 35 -118
q11 -53 23.5 -103.5t32.5 -101.5q13 -33 35 -45t54 -19q4 -1 7.5 -1.5t8.5 -0.5q12 0 20 7q12 10 26 25q31 41 51 92q12 31 23.5 61.5t22.5 60.5q17 45 30 90.5t31 90.5q13 29 18 59.5t12 60.5q1 2 1.5 5t1.5 5q11 22 23 43.5t23 44.5q3 6 6.5 12.5t5.5 13.5q6 11 -7 16
q-9 3 -18 3q-17 0 -37 -17t-39 -39.5t-34.5 -46t-23.5 -35.5q-5 -7 -9.5 -13.5t-9.5 -13.5q-30 -38 -52.5 -80t-34.5 -90l-21 -78q-2 3 -4 9z" />
    <glyph glyph-name="W" unicode="W" horiz-adv-x="652" 
d="M334 189l6 -14l6 -14q10 -17 13 -39q2 -13 6.5 -25t7.5 -25q3 -15 12.5 -24.5t22 -15t26.5 -7.5t27 -2q28 0 55.5 7t40.5 35q2 4 4 7t4 7q5 8 10.5 15.5t9.5 15.5q13 32 23.5 64t15.5 66q7 47 16.5 92t20.5 91q8 30 13.5 60.5t11.5 60.5q5 25 10 48.5t16 46.5q8 16 13 36
q6 17 -11 21q-7 2 -13.5 2.5t-14.5 0.5q-14 0 -23 -12q-18 -24 -35.5 -48t-34.5 -49q-14 -20 -24 -46q-46 -112 -75 -231q-2 -10 -3.5 -20.5t-4.5 -20.5q-7 -22 -14 -43.5t-14 -43.5q-2 -2 -3 -5q-4 8 -6 11q-13 20 -25.5 39.5t-25.5 39.5q-5 8 -10 15t-10 15
q-7 13 -16.5 18t-23.5 5q-23 -1 -34 -26q-2 -6 -4 -9q-9 -21 -20 -41t-25 -38q-2 -2 -3 -3.5t-3 -3.5q-1 4 -1 6t-1 4q-6 32 -9 63.5t-4 63.5q-1 38 -4.5 69t-11 59.5t-19.5 58t-31 64.5q-6 10 -14.5 23t-18.5 24t-22 19t-26 8q-12 0 -25 -5t-12 -18q1 -7 1.5 -13t2.5 -12
q7 -27 14 -53.5t15 -53.5q11 -35 16.5 -71.5t5.5 -74.5q-1 -26 1.5 -52t7.5 -52q5 -24 11 -47.5t15 -46.5q7 -19 18 -29.5t25 -15t30 -5.5t33 -1q19 2 32 11t21 28q6 12 14.5 22.5t17.5 22.5q1 -3 1.5 -5t1.5 -4z" />
    <glyph glyph-name="X" unicode="X" 
d="M330 190q11 -17 20 -35t22 -34q27 -36 55.5 -70.5t63.5 -64.5q22 -20 45 -28t48 -8q19 0 38.5 4t33.5 18q5 4 4 8.5t-6 6.5q-8 2 -16.5 4.5t-17.5 4.5q-5 3 -6 4q-18 26 -36 51.5t-36 51.5q-38 51 -66.5 111t-50.5 120q-2 5 1 8q38 53 76.5 105t78.5 104q3 5 6 9.5t5 9.5
q7 12 13 24.5t12 25.5q5 9 -4 12t-20 3q-24 0 -51 -19.5t-53 -46t-48 -54t-34 -44.5l-36 -48q-4 4 -6.5 8t-6.5 8q-17 19 -34.5 38t-35.5 38q-29 30 -62 52.5t-76 22.5q-18 0 -31 -4t-22.5 -11.5t-18 -18t-18.5 -24.5q-12 -16 -10 -39q1 -9 11 -11q3 0 6.5 1t5.5 3
q13 21 30.5 37t37.5 29q2 -1 6 -5q38 -46 67.5 -99t54.5 -107q4 -10 7.5 -19.5t7.5 -18.5q2 -7 -1 -10q-32 -52 -60.5 -105t-55.5 -107q-7 -13 -12 -30q-5 -14 8 -18q11 -3 20 -3q25 0 41 20q10 12 19 24.5t18 25.5q16 24 31.5 48.5t32.5 49.5q2 -2 3 -4z" />
    <glyph glyph-name="Y" unicode="Y" horiz-adv-x="523" 
d="M269 30q0 64 20.5 108.5t68.5 82.5q-2 -10 -3 -20t-3 -21q-2 -16 -2.5 -31.5t-2.5 -31.5l-6 -54q0 -2 -1 -5l-2 -6q-6 -16 -12 -31.5t-13 -30.5q-2 -5 -5 -8.5t-5 -7.5q-36 18 -34 56zM234 302q-3 25 -6 49.5t-5 48.5q-3 21 -5 41.5t-5 41.5q-3 22 -13.5 52t-27 57
t-39 46t-48.5 19q-9 0 -18 -3q-10 -4 -6 -11q4 -10 4 -19.5v-19.5q-1 -14 -1.5 -26.5t-2.5 -26.5q-2 -20 -3 -40t-3 -40t-3 -39t-2 -39q0 -15 0.5 -30t0.5 -30q1 -28 12.5 -49.5t29.5 -36t42 -21.5t50 -7h11t12 1q18 1 35.5 5.5t32.5 15.5q19 13 37.5 25.5t33.5 29.5
q4 3 7.5 6t6.5 6v-46q0 -2 -3 -4q-11 -11 -23 -21t-23 -21q-40 -35 -62 -87.5t-28 -103.5q-5 -33 18 -59q14 -14 31 -22t38 -8q36 1 65 14.5t49 44.5q6 9 13 17.5t14 16.5q17 20 29.5 42.5t18.5 48.5q4 14 7 28.5t7 28.5q9 38 10 75.5t-8 75.5q-8 34 -15.5 67.5t-15.5 66.5
q-6 23 -12.5 46t-14.5 46q-6 18 -17.5 25.5t-28.5 7.5q-15 0 -25 -4.5t-13 -21.5q-7 -44 -8.5 -88t-1.5 -89q0 -6 -2 -8q-17 -12 -32.5 -24.5t-32.5 -23.5q-14 -10 -28.5 -17.5t-30.5 -16.5q-1 4 -1.5 5t-0.5 3z" />
    <glyph glyph-name="Z" unicode="Z" horiz-adv-x="527" 
d="M312 132q22 35 41 71.5t35 75.5q19 48 42.5 93.5t48.5 90.5q18 33 36.5 65.5t36.5 65.5q5 10 8.5 20.5t5.5 21.5q6 22 -13 38q-20 15 -44.5 20t-48.5 5q-54 0 -105.5 -14.5t-101.5 -34.5q-39 -15 -77 -25t-80 -10h-10t-10 2h-5q-9 0 -13 -1q-6 -2 -8 -7q-1 -2 1 -4.5
t4 -4.5q10 -7 25.5 -11.5t32.5 -7t33.5 -3.5t28.5 -1q53 0 104 15q31 9 61.5 18.5t62.5 19.5q2 1 5 1t8 2q-3 -5 -5.5 -9.5t-4.5 -8.5q-16 -26 -32 -52.5t-32 -52.5q-50 -82 -88 -168t-74 -175q-4 -11 -16 -11q-37 0 -51 -17t-22 -49q-2 -17 3.5 -24.5t21.5 -11.5
q3 0 5.5 -0.5t5.5 -0.5q20 0 38.5 2t37.5 6h6.5t6.5 -2q20 -11 45 -19.5t51.5 -14.5t53.5 -9t50 -3q18 0 36 2.5t35 10.5q2 1 7 1q7 1 18 3.5t22.5 6.5t21 9t14.5 11q8 8 6.5 17t-11.5 14q-15 5 -28 5q-10 -2 -19.5 -4.5t-18.5 -4.5q-12 -3 -21.5 -4t-21.5 -1q-24 4 -47.5 7
t-47.5 6q-16 3 -29.5 11.5t-28.5 14.5q2 4 4.5 7t4.5 7z" />
    <glyph glyph-name="a" unicode="a" horiz-adv-x="515" 
d="M655 306q-7 1 -11 -3t-8 -9q-18 -25 -35.5 -50t-36.5 -50q-12 -17 -26 -32.5t-26 -32.5q-13 -18 -29.5 -31.5t-33.5 -28.5q-5 8 -11 14t-11 14q-10 17 -17 35.5t-9 38.5q-5 32 -8 63.5t-7 63.5q-2 11 -3.5 22t-3.5 22q-3 13 -12.5 18t-21.5 5q-25 0 -36 -27
q-1 -3 -2 -5.5t-1 -5.5q-2 -14 -7.5 -26t-13.5 -23q-6 -11 -16 -27.5t-22.5 -33t-25 -30.5t-23.5 -21q-14 44 -3 82t33 72t52 60q2 -1 4 -3q2 -3 8 -11q4 -4 8 -4q6 0 9 5q4 6 7 12.5t7 12.5q6 12 -4 19q-14 10 -31 13t-34 3q-32 0 -60.5 -13t-52.5 -34t-43 -47.5t-33 -53.5
q-9 -19 -13 -39t-1 -41q3 -25 14 -43.5t27.5 -30.5t38 -17.5t44.5 -5.5q27 0 45 5t30.5 14.5t22.5 24.5t22 35q1 -2 1 -5q2 -10 4.5 -20t4.5 -20q11 -40 45 -62q7 -4 13 -8.5t13 -9.5q19 -13 37.5 -17t40.5 -4q28 3 47 22q20 20 38.5 41t32.5 47l2 2q9 12 23 31.5t27.5 40.5
t24.5 41t15 35q3 10 -9 11z" />
    <glyph glyph-name="b" unicode="b" horiz-adv-x="459" 
d="M246 75q-6 14 -2 27q5 13 14 22t20 19q-5 -20 -11.5 -37t-20.5 -31zM230 640q0 -3 2 -9q0 -26 -1 -53t-5.5 -53t-13.5 -50.5t-26 -45.5q-1 -2 -2 -3t-2 -3q1 0 -3 -2q-1 18 4 52t13 69t17.5 63t16.5 35zM554 305q-2 1 -8 1q-5 0 -11 -3q-13 -7 -25 -15t-27 -13
q-6 -3 -12 -6.5t-13 -6.5q-17 -8 -33.5 -14.5t-33.5 -14.5l-1.5 4.5t-0.5 3.5q-4 29 -17.5 53.5t-32.5 46.5t-43 29.5t-51 7.5q-17 0 -33 -4.5t-30 -17.5q1 0 -4 -3q0 13 -0.5 24.5t0.5 22.5q0 2 4 4q6 5 12.5 10t11.5 10q18 21 28.5 46t15.5 51q5 28 7.5 60t4.5 61
q3 30 -26 34q-4 1 -8 1h-9h-8.5t-8.5 -2q-26 -5 -44.5 -20t-31.5 -38q-26 -47 -44.5 -94.5t-26.5 -100.5q-5 -30 -5.5 -60t4.5 -60q5 -39 16.5 -76t21.5 -75q4 -19 21 -25t33 -6q19 0 36.5 7.5t19.5 29.5q1 14 1 27t-2 26q-4 25 -8 49t-9 49q0 6 3 9q9 7 17.5 13t17.5 12
l10 5t9 2q9 0 23 -17q1 -1 1 -1.5t1 -1.5q18 -33 23 -65q3 -19 2 -38t-3 -39q-1 -8 -9 -13q-14 -11 -28 -21t-27 -21q-28 -24 -29 -61q0 -20 17 -28l9 -3q22 -5 38 -5q35 0 60 15t41.5 39.5t24 55t7.5 60.5q0 7 3 7l99 45q19 8 40 21q6 3 11.5 8t10.5 10q6 6 -2 9z" />
    <glyph glyph-name="c" unicode="c" horiz-adv-x="407" 
d="M527 311q-3 1 -8 1q-8 0 -13 -4q-19 -19 -35.5 -34t-33.5 -28.5t-35 -27t-39 -28.5q-19 -12 -43 -25q-8 -4 -15.5 -7t-15.5 -8q-14 -8 -28 -8q-18 0 -30 7t-19.5 19t-11 26.5t-3.5 29.5q0 21 3 49.5t11 56t23 49.5t39 30q2 1 4 1q4 0 5 -4l2 -14t0 -14q0 -19 -13 -39
q-8 -11 7 -13q11 0 20 9.5t16 23t10.5 27t4.5 22.5q3 18 -16 28q-12 4 -23.5 6t-24.5 2q-60 0 -107.5 -22.5t-79.5 -75.5q-35 -61 -26 -130q2 -22 11.5 -39t29.5 -28q32 -20 66 -30t62 -10q29 0 53 3t48 19q11 7 21 13.5t20 13.5q6 3 11.5 6.5t10.5 7.5q15 12 29.5 24.5
t29.5 24.5q8 8 16.5 15t18.5 12q5 4 9.5 7.5t9.5 8.5q5 6 11 12.5t11 12.5l6 6t5 7q4 7 -4 9z" />
    <glyph glyph-name="d" unicode="d" horiz-adv-x="465" 
d="M242 211q2 -5 -2 -9q-14 -20 -32 -33.5t-38 -26.5q-11 31 -7 59q2 15 6.5 34t12 37t18 34.5t22.5 26.5q7 7 12 7q3 0 5.5 -1.5t7.5 -3.5q-2 -17 -3.5 -33t-2.5 -33q-1 -14 0 -29t1 -29zM387 629q12 -15 12 -33q2 -35 -6.5 -67.5t-22.5 -64.5q0 -2 -3 -4q0 43 4.5 85
t15.5 84zM557 306q-8 0 -16 -5t-15 -12.5t-12.5 -15.5t-8.5 -15q-20 -38 -41.5 -64.5t-59.5 -49.5q-2 5 -4 8.5t-3 8.5q-5 26 -10.5 50.5t-7.5 50.5q-2 38 -5.5 75t-6.5 75q-1 6 4 13q10 13 19.5 26t15.5 28q10 26 17 52t9 53q1 14 -0.5 28t-7.5 28q-10 16 -19.5 23.5
t-28.5 7.5q-27 0 -45.5 -20.5t-26.5 -43.5q-11 -31 -18 -62.5t-13 -63.5q-5 -23 -8.5 -46t-8.5 -46q-20 5 -36 5q-56 0 -94.5 -29.5t-59.5 -78.5q-21 -45 -15 -96q2 -17 10.5 -31t16.5 -28q14 -20 31.5 -29t40.5 -9q24 0 41 8.5t36 23.5q9 8 18 15.5t18 15.5q26 -26 59 -39
t70 -13q46 0 70 36q6 8 12 17l12 18q17 25 34.5 48.5t30.5 50.5q3 6 6 11.5t6 10.5q4 9 -6 10z" />
    <glyph glyph-name="e" unicode="e" horiz-adv-x="341" 
d="M195 372q5 7 9 13.5t9 12.5q3 4 6 4t6 -4q3 -7 3 -16q0 -5 -1 -9.5t-3 -9.5q-5 -21 -22 -31l-10 -6t-11 -7q2 14 5 27.5t9 25.5zM427 305q-2 0 -6 -2q-7 -7 -14 -13l-14 -12q-10 -9 -19 -18.5t-20 -18.5q-17 -13 -35 -25t-37 -23l-17 -8.5t-27.5 -13t-26 -12t-13.5 -5.5
q-5 0 -8 5q-2 3 -3.5 6.5t-1.5 6.5q-2 14 -4.5 26.5t-3.5 26.5t-0.5 28t1.5 28q0 5 4 5q15 3 27.5 10.5t26.5 14.5q23 12 32.5 31t13.5 43q2 10 1 14q-2 14 -10 21.5t-21 11.5q-14 3 -30 5t-30 2q-23 0 -43 -8.5t-36.5 -23t-29 -33.5t-18.5 -40q-23 -71 -10 -140
q5 -26 18 -42.5t31 -25.5t40 -12t45 -3q40 0 71 21q25 17 49.5 32t47.5 35q12 11 23.5 21t19.5 24q2 4 5 7l6 6l14 18t13 18q2 2 2 5t1 6q-4 0 -7 0.5t-7 0.5z" />
    <glyph glyph-name="f" unicode="f" horiz-adv-x="350" 
d="M232 36q-9 -17 -19.5 -33t-25.5 -29l-1 -1q-1 -1 -2 -1q-5 10 -6 20l-2 20q-3 31 0 61.5t5 60.5l6 84q0 3 1 6q15 -5 26.5 -12.5t18.5 -21.5q38 -78 -1 -154zM195 470q4 6 8 11.5t8 10.5t10 5q7 0 11 -7q8 -14 12 -28t-1 -30q-9 -32 -23 -60.5t-32 -56.5l-3 36
q-2 15 -3.5 29.5t-2.5 29.5q-2 34 16 60zM442 313q-10 0 -17 -7q-15 -16 -22 -25t-13.5 -14t-15.5 -9t-28 -11q-14 -6 -28.5 -8.5t-29.5 -2.5h-9.5t-9.5 1q-20 3 -40.5 7t-42.5 8q2 4 2.5 6.5t2.5 4.5q10 12 19 24t20 23q39 45 56 97q4 11 6 22t0 22q-4 19 -14.5 33
t-23.5 26q-7 9 -21 12q-14 5 -33 5q-35 0 -63 -19.5t-48 -46.5q-4 -5 -6.5 -11t-5.5 -11q-11 -22 -16 -45.5t-8 -46.5q-2 -14 -2.5 -28.5t1.5 -29.5q0 -4 0.5 -7.5t0.5 -6.5q-1 -9 -1.5 -17.5t-0.5 -16.5q0 -38 -0.5 -74.5t1.5 -74.5q1 -25 4 -49.5t8 -48.5q7 -41 33.5 -60
t65.5 -19q37 0 61 20.5t36 54.5q8 22 13.5 44t7.5 45q1 14 2 27.5t-1 27.5q-4 37 -20 76h24q35 0 67 8t60 32q13 11 23 23.5t13 29.5q1 9 -7 10z" />
    <glyph glyph-name="g" unicode="g" horiz-adv-x="452" 
d="M260 -51q-1 1 -3 1q-6 11 -9.5 21t1.5 24q8 18 20 32.5t27 28.5q1 -1 2 -1q-10 -26 -19 -53t-19 -53zM564 312q-4 2 -7 2q-8 0 -14 -6q-8 -11 -17 -22.5t-17 -22.5q-20 -25 -44 -46l-48 -42q-2 12 -4 23.5t-4 22.5q-6 26 -12 51t-11 51q-3 13 -5 26t-6 27q-4 17 -17 19.5
t-27 2.5q-9 -1 -16 -5.5t-9 -14.5q-3 -13 -6 -25.5t-5 -25.5q-1 -22 -15 -39q-13 -17 -20 -30q-11 -20 -26.5 -31.5t-34.5 -20.5q-1 -1 -4 -1q-4 0 -7.5 9.5t-4.5 12.5q-6 17 -5.5 35t2.5 35q3 38 22 65t45 50q4 2 5 3q4 2 8 2q5 0 10 -3.5t7 -9.5q2 -8 7 -8q4 0 7 3
q2 3 5 6t5 7q9 14 -3 25q-5 3 -9.5 5.5t-9.5 4.5q-9 4 -18.5 5t-19.5 1q-38 0 -72 -16t-60 -42t-41.5 -60.5t-17.5 -71.5q-2 -33 12.5 -60t49.5 -41q33 -13 70 -13q35 0 64.5 10t54.5 35q2 1 5 4q6 -44 1 -91q-1 -4 -4 -7q-11 -9 -21 -17.5t-21 -17.5q-38 -30 -65 -67
q-18 -25 -10 -59q4 -14 13.5 -23.5t22.5 -15t27 -8t26 -2.5q18 0 35 3t31 10.5t25 20t15 31.5q3 13 7 25t8 25q11 32 18 65.5t5 68.5q0 11 9 16q8 5 14 11q28 26 56 50.5t51 54.5q6 8 9.5 16.5t7.5 16.5q2 4 -2 8z" />
    <glyph glyph-name="h" unicode="h" horiz-adv-x="446" 
d="M157 499q1 20 1 39.5t1 39.5q2 19 8.5 35.5t17.5 31.5q8 10 23 14q6 -12 3.5 -35.5t-10 -50t-19.5 -51.5t-25 -40v17zM538 310q-9 0 -10 -8q0 -4 -3 -10q-2 -6 -5 -12.5t-5 -13.5q-28 -67 -65.5 -130t-87.5 -116q-3 -4 -8 -7q-2 6 -2 9q-5 20 -7 40t-2 40q-1 60 6 121
q2 19 2.5 38t-4.5 39q-4 17 -10 33.5t-21 28.5q-32 26 -74 26q-20 0 -35.5 -5.5t-29.5 -19.5q-2 -1 -5 -4h-3q-2 19 -4.5 38t-4.5 39q0 2 3 5l45 60q23 32 33 70t11 78q0 23 -14.5 28t-31.5 5q-24 0 -45 -9t-38 -24t-28.5 -35.5t-16.5 -43.5t-7.5 -45.5t-4.5 -45.5
q-2 -25 -2.5 -50t-2.5 -50q-2 -32 -4 -64.5t-4 -64.5q-2 -26 -3 -50.5t5 -50.5q5 -25 24 -32.5t42 -7.5q5 0 10.5 0.5t10.5 1.5q14 3 28 10t14 24q-2 36 -3 72.5t-1 72.5q0 5 6.5 15.5t16 21t19.5 18.5t16 8q5 0 11 -14q1 -2 3 -8q4 -20 3 -40.5t-4 -40.5q-3 -21 -6.5 -42
t-5.5 -42q-2 -25 -2.5 -50t-1.5 -50q0 -25 2.5 -46.5t12 -37.5t28 -25t49.5 -9q35 0 62 18t41 50q11 23 22 44.5t22 43.5q2 5 3.5 8.5t3.5 7.5q8 26 20 49.5t23 47.5q21 41 22 84q0 9 -8 9z" />
    <glyph glyph-name="i" unicode="i" horiz-adv-x="313" 
d="M471 301q-8 -7 -17 -13t-16 -14q-17 -23 -35 -43t-42 -36q-12 -8 -22.5 -17.5t-23.5 -16.5q-17 -11 -35 -19.5t-36 -17.5q-6 -3 -12.5 -5t-13.5 -5h-3q-5 0 -8 4q-15 17 -18 36q-4 24 -6 49q-2 32 -3 64t-3 64q-1 12 -3.5 24t-5.5 24q-2 13 -15.5 18t-24.5 5
q-30 0 -45 -29q-43 -80 -30 -166q9 -65 52.5 -95.5t105.5 -30.5q30 0 57 15q18 11 35.5 21t35.5 21q11 8 22 15.5t20 17.5q12 12 25 22q27 20 44 45q8 11 15.5 20.5t15.5 19.5q2 3 3.5 7t2.5 7q2 11 -7 11h-2q-2 0 -3 -1q-2 0 -4 -1zM96 430q5 -2 9 -2t8 -1q23 1 39 12
t26 29q8 15 2.5 34t-28.5 26q-6 2 -12 3t-12 1q-17 0 -31 -7.5t-19 -25.5q-2 -8 -3 -15.5t-3 -15.5q-2 -14 4 -24t20 -14z" />
    <glyph glyph-name="j" unicode="j" horiz-adv-x="204" 
d="M35 -55q-8 10 -10.5 26.5t0 34t9.5 34t17 25.5q-1 -31 -3.5 -61t-12.5 -59zM297 312q-7 0 -11 -1.5t-9 -6.5t-10.5 -9.5t-10.5 -9.5t-9 -8.5t-9 -8.5q-6 -6 -11.5 -12t-12.5 -11q-11 -9 -23 -17.5t-24 -16.5q-2 11 -4.5 23t-4.5 23q-5 24 -9 48t-9 47q-3 15 -6.5 30
t-7.5 30q-6 18 -28 20h-12q-21 -2 -28 -20q-2 -4 -4 -12q-11 -34 -13 -68t3 -69q5 -38 6 -75t1 -75q0 -2 -1 -3.5t-2 -3.5q-9 -11 -18.5 -21.5t-18.5 -21.5q-23 -26 -28 -52.5t-7 -60.5q-3 -44 42 -53q13 -4 30 -4q35 0 63.5 15.5t39.5 52.5q10 32 13.5 64.5t5.5 65.5
q2 20 1 41t0 41q0 6 2 7q14 11 27.5 22t27.5 23q9 7 18 14.5t17 15.5q6 7 12.5 14t12.5 15q4 5 7.5 9.5t6.5 9.5q4 7 -5 9zM38 473q13 -5 24 -5q23 0 42.5 15t19.5 40q0 10 1 15q3 17 -10 22q-8 3 -16 5l-16 4v-2q-32 0 -46 -17t-17 -46q-3 -21 18 -31z" />
    <glyph glyph-name="k" unicode="k" horiz-adv-x="377" 
d="M206 660q7 -5 9 -12.5t2 -15.5q3 -78 -30 -148l-24 -48q-1 0 -2 1q2 57 10.5 113t34.5 110zM158 338v17q2 6 4 7q8 7 15 13t15 13q10 7 20.5 11t22.5 4q12 -1 20 -10.5t5 -20.5l-4 -6t-5 -5q-8 -6 -17 -11t-17 -10q-6 -2 -10 -2h-49zM499 310q-2 -1 -5 -1t-4 -2
q-4 -5 -7 -10.5t-6 -10.5q-6 -12 -11.5 -24t-11.5 -24q-14 -23 -27.5 -46t-26.5 -46q-3 -4 -12.5 -16.5t-20.5 -25.5t-21.5 -23t-15.5 -10q-6 0 -12 5t-11.5 12t-9 14.5t-4.5 13.5q-4 20 -6.5 39.5t-4.5 39.5q-6 67 -61 101q-4 2 -6 4q30 4 47.5 12.5t37.5 29.5q17 18 6 39
q-11 18 -30 26.5t-39 8.5t-37.5 -5.5t-31.5 -18.5q-5 -5 -8 -7q-1 0 -1 0.5t-1 0.5q1 3 1.5 6.5t2.5 5.5q47 49 63.5 112t17.5 128q1 22 -15 42q-7 10 -20 13q-5 1 -9.5 1.5t-9.5 0.5q-19 0 -35 -11t-28 -27t-21 -35t-15 -34q-20 -49 -29 -99t-11 -102q-2 -38 3.5 -75.5
t12.5 -74.5q2 -14 5 -28t5 -28q4 -14 17.5 -19t27.5 -5q5 0 12.5 1t14 4t11 7.5t4.5 11.5q0 14 0.5 28t-0.5 28q0 12 -0.5 24.5t-1.5 24.5q1 1 2 1q2 -3 5 -6t5 -7q9 -17 12.5 -34.5t4.5 -35.5q1 -33 8.5 -63.5t24 -53t42 -36t62.5 -13.5q34 0 49 14.5t30 40.5
q6 11 12.5 21.5t11.5 21.5q11 26 23 51.5t25 51.5q8 15 13 31l10 32q0 1 -2 8z" />
    <glyph glyph-name="l" unicode="l" horiz-adv-x="298" 
d="M179 419q2 38 5 77t8 77q3 18 9.5 34.5t14.5 32.5q2 4 5 6.5t6 4.5q2 -3 5 -6.5t4 -7.5q1 -9 1.5 -19t-0.5 -20q-5 -47 -20 -90.5t-36 -85.5q0 -1 -2 -3zM395 309h-6q-7 0 -9 -2q-18 -12 -24 -33q-6 -14 -13.5 -27.5t-18.5 -25.5q-6 -7 -12 -13.5t-11 -14.5
q-16 -19 -35 -34t-39 -29q-10 -5 -13 -5q-6 0 -10.5 6.5t-6.5 15.5t-3.5 17.5t-1.5 12.5q-2 45 -4 89.5t-6 89.5q0 8 1 14t5 13q29 54 51.5 111t24.5 120q-1 8 -1.5 15.5t-2.5 15.5q-2 18 -14 22t-27 4q-28 0 -51.5 -16.5t-42 -43.5t-32 -61.5t-23 -69t-14 -66.5t-5.5 -55
q-2 -38 -1 -75t8 -74q11 -55 49.5 -84.5t93.5 -29.5q16 0 30.5 3.5t28.5 14.5q18 15 35.5 30.5t32.5 34.5q15 22 31 40q17 19 26 40.5t13 45.5q0 4 -3 4z" />
    <glyph glyph-name="m" unicode="m" horiz-adv-x="668" 
d="M766 310q-2 0 -5 -0.5t-5 -2.5q-3 -3 -5 -11l-4 -8t-4 -9q-20 -38 -37 -76.5t-32 -78.5q-14 -40 -37.5 -75t-57.5 -61q-3 6 -3 8q-2 16 -4.5 31t-4.5 30q-3 42 -6 82t-7 82q-5 54 -11.5 102.5t-22.5 99.5q-6 16 -19 21t-28 5q-25 0 -42 -16q-8 -7 -16.5 -14t-16.5 -14
q-25 -20 -39 -46q-3 -5 -6.5 -9t-6.5 -9q-3 9 -6 18.5t-7 17.5q-8 18 -26 24.5t-36 6.5q-29 0 -54.5 -18t-39.5 -42q-2 -5 -5 -9.5t-6 -9.5q0 2 -0.5 4t-0.5 4q-3 11 -5 20.5t-5 20.5q-12 36 -52 36q-14 -1 -19.5 -6.5t-7.5 -19.5q-3 -23 -6.5 -46.5t-7.5 -46.5
q-3 -20 -6 -38.5t-5 -38.5q-3 -29 2 -56.5t12 -55.5q4 -18 22 -26t35 -8q16 0 35 9t21 28q1 24 0 46q-1 18 -2.5 35.5t-3.5 35.5q-3 19 10 35q14 20 28 38.5t28 37.5q1 2 4 5q0 -2 0.5 -3.5t0.5 -3.5v-19.5t-1 -19.5q-2 -22 1.5 -42.5t9.5 -40.5q6 -19 23.5 -25t35.5 -6
q14 0 29 4.5t22 18.5q2 5 2 10.5t1 10.5q6 36 20 68.5t31 64.5q8 16 20 28.5t26 25.5v-9q-2 -20 -4 -41t-5 -41q-5 -32 -9 -63t-3 -63q0 -26 1 -52.5t1 -52.5q0 -30 5.5 -57t18.5 -47t35 -32t55 -12q46 0 74 22.5t49 59.5q22 30 31 69q4 17 7.5 32.5t9.5 31.5q12 35 24 71
t15 74q0 3 -1 4q0 2 -1 3z" />
    <glyph glyph-name="n" unicode="n" horiz-adv-x="468" 
d="M584 303q-4 2 -6 2q-3 0 -7 -4.5t-7.5 -10.5t-6 -11.5t-3.5 -8.5q-5 -17 -12 -32t-17 -29q-12 -18 -23 -36t-22 -37q-4 -6 -16.5 -25t-27.5 -39t-29 -35.5t-20 -15.5q-2 0 -3.5 4.5t-2.5 10t-1.5 10.5t-0.5 7q1 23 2 44.5t1 44.5q0 17 -1.5 40.5t-3 48.5t-4.5 48t-6 39
q-8 31 -27 49t-51 18q-15 0 -32.5 -7t-34 -18t-30 -23.5t-22.5 -24.5q0 2 -0.5 3.5t-0.5 3.5q-3 14 -7.5 31t-13 31t-21 23.5t-30.5 9.5q-9 0 -17.5 -2t-13.5 -11q-14 -36 -14 -72q-1 -33 -1 -66t-1 -65q0 -41 12 -80q6 -17 23 -24.5t34 -7.5q22 0 41 10t19 36v42.5t1 42.5
q0 7 1 10q5 16 10.5 31.5t11.5 31.5q8 21 25 34l18 12t18 11q4 2 7 3q0 -41 -4 -79.5t-9 -78.5q-4 -32 -5.5 -64t0.5 -64q1 -23 13 -39.5t29.5 -27t39 -15t41.5 -4.5q32 0 50 10t37 36q24 34 43 70t31 75q5 14 10 21q15 23 24 49t20 50q3 7 -0.5 9.5t-6.5 4.5z" />
    <glyph glyph-name="o" unicode="o" horiz-adv-x="409" 
d="M308 269q-11 10 -22 19t-21 19q-7 7 -7.5 16t-0.5 18q1 7 2.5 13.5t6.5 11.5q7 -4 14.5 -16t14 -27t10.5 -30t3 -24zM550 309q-8 0 -13 -3q-15 -11 -33 -16t-32 -19q-1 -1 -1.5 -1t-1.5 -1q-20 -8 -40 -15t-40 -15q-7 -3 -15 -3q-5 0 -13 3q-5 1 -5 7q1 19 -2 37.5
t-13 35.5q-5 9 -10 17.5t-10 17.5q-9 17 -25 25t-35 8q-14 0 -24.5 -5.5t-16.5 -19.5q-8 -21 -7 -40.5t19 -36.5q17 -15 33.5 -29t36.5 -25v-2q-17 -64 -83 -85q-2 -1 -5 -1q-12 0 -21.5 12.5t-12.5 22.5q-3 13 -6 25t-6 25q-8 31 -9 61.5t7 62.5q1 5 4.5 14t8 18t10.5 16
t13 7q2 0 4 -1l6 -3q2 0 3.5 -0.5t3.5 -0.5q5 0 5 2q5 5 1 13q-3 11 -18.5 14t-24.5 3q-31 0 -55 -14.5t-41 -37.5t-26 -51.5t-10 -56.5q-1 -25 5 -49t14 -47q8 -26 30 -41q23 -18 49 -25.5t53 -7.5q22 0 44 5.5t41.5 16.5t35 27.5t22.5 38.5q2 6 4 11.5t4 10.5h5h2
q5 -1 8.5 -1h8.5q15 0 42 8t55 20.5t51.5 27.5t31.5 28q4 5 2 8.5t-8 3.5z" />
    <glyph glyph-name="p" unicode="p" horiz-adv-x="407" 
d="M52 -68q-11 9 -17.5 21t-9.5 26q-7 29 0.5 53.5t27.5 46.5q3 -30 4 -61t1 -61q1 -6 -0.5 -12t-2.5 -13h-3zM263 283q-2 -20 -5.5 -40.5t-6.5 -41.5q-1 -6 -7 -10q-17 -10 -32 -21.5t-26 -27.5l-2 -2q-9 48 -20.5 89t-25.5 88q-3 10 2 16q12 18 26 34.5t31 30.5
q5 4 18.5 10.5t19.5 6.5q8 0 13 -5t8.5 -12t5 -15t2.5 -14q1 -22 1 -43.5t-2 -42.5zM214 132q3 5 6.5 9.5t6.5 9.5q1 0 1.5 -0.5t1.5 -0.5q-4 -5 -7 -10t-7 -10zM497 309q-5 0 -10 -4q-8 -8 -16.5 -15.5t-18.5 -15.5t-19 -13.5t-18 -9.5t-19 -6.5t-23 -4.5v3q5 35 2 68.5
t-17 65.5q-13 35 -45.5 51.5t-67.5 16.5q-31 0 -59.5 -12t-46.5 -39q-4 -7 -9 -13t-10 -14q-2 8 -4.5 15t-4.5 14q-3 12 -12 18t-21 6q-24 0 -34 -26q-9 -27 -8 -54t3 -54q2 -23 4 -44.5t4 -44.5q3 -34 3 -68q1 -2 0 -5.5t-2 -5.5q-11 -18 -21.5 -35.5t-20.5 -35.5
q-6 -9 -6 -22q0 -29 4.5 -55t24.5 -49q8 -8 16 -10t18 -2q26 0 46.5 13t35 33.5t24 44.5t12.5 46q2 13 3 26t3 27h1q13 -4 30 -4q34 0 59.5 16t49.5 36q23 17 32 43q5 13 8 23q2 7 8 8q19 5 33.5 10t28 11.5t27.5 15t30 19.5q6 5 8.5 11t4.5 13q0 8 -10 8z" />
    <glyph glyph-name="q" unicode="q" horiz-adv-x="388" 
d="M354 161q9 -8 13 -18.5t6 -21.5q6 -53 -2 -109q-2 -19 -8.5 -35.5t-16.5 -32.5q-7 31 -9.5 62t-4 61.5t-3 61.5t-5.5 62q1 0 2 1q2 -2 4 -4.5t4 -4.5q5 -5 9.5 -11t10.5 -11zM522 300q-7 -5 -14 -10.5t-15 -9.5q-13 -5 -24.5 -12t-23.5 -15q-17 -11 -30 -17.5t-25.5 -10
t-27 -4.5t-34.5 -1q-6 0 -7.5 2.5t-3.5 12.5q0 1 -0.5 1t-0.5 1q-4 21 -4 42.5t2 42.5q2 14 1 27t-1 27q-1 10 -8.5 13t-15.5 3q-19 0 -27 -22q-1 -2 -1.5 -5t-1.5 -5q-4 -9 -6.5 -18.5t-7.5 -18.5q-12 -26 -28 -49.5t-33 -46.5l-3 -3l-3 -3q-1 2 -1 3.5t-1 3.5
q-4 15 -2.5 30.5t5.5 31.5q6 26 16 50t21 48q2 5 5 8.5t5 7.5q5 3 6 2q5 -2 9.5 -4t7.5 -7q1 -1 3.5 -2t4.5 0q5 2 8 11.5t1 14.5q-6 20 -24.5 25.5t-36.5 5.5q-32 0 -56 -13.5t-41.5 -34.5t-30 -47t-21.5 -52q-5 -16 -7 -33t3 -34q3 -16 11 -31t20 -27t29 -19t39 -7t40.5 6
t33.5 23l4 4q-1 -4 -1.5 -6.5t-0.5 -5.5q-7 -29 -10.5 -58.5t-6.5 -59.5q-2 -21 -0.5 -42t3.5 -43q3 -22 12 -39.5t29 -28.5q4 -2 5 -3q14 -13 30 -18t34 -5q12 0 24.5 2t19.5 13q36 53 40 111q2 28 1.5 56t-5.5 57q-2 12 -5 23.5t-11 20.5l-18 22t-19 22h8q9 1 18.5 0.5
t18.5 1.5q49 9 88 39q8 6 15 12t15 11q10 7 15 16t9 19q-2 2 -6 2q-2 0 -10 -4z" />
    <glyph glyph-name="r" unicode="r" horiz-adv-x="320" 
d="M142 370q-3 16 -2 31t5 30q2 7 7 13t13 6q4 0 4 -6q-1 -8 -2 -16.5t-4 -16.5q-4 -11 -9 -21t-10 -21q-1 1 -2 1zM494 307q-2 1 -7 1t-7 -1q-2 0 -4 -2l-4 -4q-20 -23 -40 -47.5t-34 -50.5q-11 -20 -28 -47t-37 -53.5t-42 -48t-45 -29.5q-2 -1 -5 -1q-6 0 -10 4t-3 12
q3 22 6 43.5t5 43.5q6 39 0 78q-3 26 -16 47.5t-33 38.5q-7 6 -12 13t-11 15q-10 15 -1 31q6 10 11 19.5t11 18.5q11 17 16 40q8 41 -33 42q-29 0 -54 -6.5t-42 -33.5l-12 -21q-19 -33 -10 -72q5 -20 13 -38.5t24 -34.5q27 -30 29 -76v-62h-2l3 -69q1 -16 13 -28t28.5 -20.5
t34.5 -12.5t33 -4q33 0 64.5 21.5t58.5 52.5t49 65t35 59q8 16 16 28q8 15 17 29.5t17 28.5q5 10 8 19q1 3 1 7t-1 5z" />
    <glyph glyph-name="s" unicode="s" horiz-adv-x="356" 
d="M211 4q-2 -4 -5.5 -6.5t-6.5 -5.5q-2 3 -5 6t-4 7t-1 9t2 9q5 9 11.5 17.5t12.5 16.5q2 -14 1.5 -27.5t-5.5 -25.5zM499 309q-14 0 -23 -9q-5 -5 -11 -9.5t-11 -9.5q-8 -7 -15.5 -13.5t-14.5 -14.5t-13.5 -14.5t-15.5 -11.5q-7 -5 -14 -9.5t-14 -9.5q-13 -11 -26 -17.5
t-27 -12.5q-12 14 -23.5 27t-22.5 26q-12 15 -26 26.5t-30 21.5q-8 5 -16 15q-5 6 -7 12.5t2 14.5q7 14 15 28t20 25q8 7 15 13.5t14 13.5q11 13 -3 20q-10 5 -19.5 6t-20.5 1q-21 -1 -42.5 -8.5t-41.5 -19.5t-37 -27t-29 -32q-23 -32 -2 -64q5 -7 11 -14t14 -12
q39 -28 72.5 -60t46.5 -80q2 -4 -2 -6q-19 -14 -32.5 -33t-28.5 -37q-11 -13 -8.5 -34.5t22.5 -32.5q11 -6 21 -9q17 -3 33 -3q28 0 50 7q36 11 60.5 39.5t17.5 76.5q-2 16 -4.5 31.5t-5.5 31.5q0 2 0.5 4t2.5 3l16 10l16 10l20 14t20 15q27 17 42.5 34t34.5 42q6 6 12 12.5
t12 13.5q7 7 -4 9z" />
    <glyph glyph-name="s" unicode="&#xdf;" horiz-adv-x="356" 
d="M211 4q-2 -4 -5.5 -6.5t-6.5 -5.5q-2 3 -5 6t-4 7t-1 9t2 9q5 9 11.5 17.5t12.5 16.5q2 -14 1.5 -27.5t-5.5 -25.5zM499 309q-14 0 -23 -9q-5 -5 -11 -9.5t-11 -9.5q-8 -7 -15.5 -13.5t-14.5 -14.5t-13.5 -14.5t-15.5 -11.5q-7 -5 -14 -9.5t-14 -9.5q-13 -11 -26 -17.5
t-27 -12.5q-12 14 -23.5 27t-22.5 26q-12 15 -26 26.5t-30 21.5q-8 5 -16 15q-5 6 -7 12.5t2 14.5q7 14 15 28t20 25q8 7 15 13.5t14 13.5q11 13 -3 20q-10 5 -19.5 6t-20.5 1q-21 -1 -42.5 -8.5t-41.5 -19.5t-37 -27t-29 -32q-23 -32 -2 -64q5 -7 11 -14t14 -12
q39 -28 72.5 -60t46.5 -80q2 -4 -2 -6q-19 -14 -32.5 -33t-28.5 -37q-11 -13 -8.5 -34.5t22.5 -32.5q11 -6 21 -9q17 -3 33 -3q28 0 50 7q36 11 60.5 39.5t17.5 76.5q-2 16 -4.5 31.5t-5.5 31.5q0 2 0.5 4t2.5 3l16 10l16 10l20 14t20 15q27 17 42.5 34t34.5 42q6 6 12 12.5
t12 13.5q7 7 -4 9z" />
    <glyph glyph-name="t" unicode="t" horiz-adv-x="275" 
d="M394 310q-8 0 -13 -2.5t-8 -10.5q-1 -4 -7 -12q-8 -11 -15.5 -22t-15.5 -22q-13 -18 -25 -36t-25 -36q-5 -8 -11 -16.5t-11 -17.5q-11 -22 -28 -36t-38 -24q-6 -3 -10 -3q-8 0 -13.5 13.5t-7.5 19.5q-6 26 -7.5 51t-2.5 51q0 64 0.5 127.5t0.5 127.5v7q16 2 30.5 4
t29.5 4q6 2 11.5 3.5t10.5 4.5q6 3 5.5 8t-6.5 8q-2 1 -3.5 1t-3.5 1q-9 1 -18 1.5t-19 1.5q-9 1 -18.5 1t-19.5 1v4q-2 15 -2.5 30.5t-2.5 31.5q-2 19 -14 24.5t-28 5.5t-28 -6t-17 -23q-2 -8 -3.5 -16t-3.5 -16q-2 -11 -3.5 -21.5t-3.5 -21.5q-2 0 -4.5 -0.5t-4.5 -0.5
q-11 1 -21 1h-21q-6 0 -16 -2q-2 -2 -4.5 -4t-3.5 -4q0 -5 6 -9q3 -2 6 -3.5t7 -2.5q13 -3 25.5 -6t26.5 -7q-2 -12 -3 -25t-1 -26q-3 -99 -3 -198q0 -55 17 -111q5 -18 17 -31t27.5 -21.5t33.5 -12t36 -3.5q48 0 84 21.5t56 66.5q5 11 10.5 21t10.5 21l19.5 39t19.5 38
q8 13 16 31q4 8 6.5 15t6.5 15q2 6 -5 8z" />
    <glyph glyph-name="u" unicode="u" horiz-adv-x="483" 
d="M602 310h-5q-6 0 -9 -5q-7 -12 -12.5 -23l-11.5 -23q-4 -7 -6.5 -13.5t-6.5 -13.5q-23 -54 -49 -104.5t-62 -97.5q-8 17 -14 32.5t-8 32.5q-2 22 -4 43.5t-4 43.5q-2 42 -4.5 83t-5.5 83q-1 14 -3 27t-4 27q-2 17 -14 21.5t-26 4.5q-31 0 -39 -29q-11 -38 -16 -82
q-1 -8 -1.5 -15.5t-2.5 -14.5q-8 -22 -16 -39.5t-17.5 -32.5t-21 -29.5t-27.5 -31.5q-4 -6 -7 -9q-2 6 -2 5q-17 58 -19 123q-1 22 -0.5 43.5t-0.5 43.5q0 14 -1 28t-3 28q-2 16 -15 21t-27 5q-15 0 -28 -7t-23 -18.5t-16.5 -25.5t-9.5 -28q-6 -27 -8.5 -54t-0.5 -55
q2 -27 10 -58.5t23.5 -58.5t38.5 -44.5t56 -17.5q34 0 49 13.5t30 40.5q20 33 37 68q2 -17 2.5 -32t1.5 -30q2 -27 9.5 -54t22.5 -49t37 -36t52 -14q22 0 43.5 7.5t31.5 29.5q11 26 23 52.5t22 52.5q13 34 23.5 68.5t27.5 66.5q5 10 8 20.5t7 20.5q4 9 -4 10z" />
    <glyph glyph-name="v" unicode="v" horiz-adv-x="429" 
d="M345 363q-3 -13 -5.5 -26t-7.5 -26q-1 5 -2 9.5t-2 9.5q-2 14 -2.5 28t3.5 28q2 10 7.5 17t13.5 14q1 -27 -5 -54zM552 304q-10 -8 -19.5 -15.5t-17.5 -15.5q-6 -6 -17 -16.5t-23.5 -21t-25.5 -18t-22 -7.5q-6 0 -9 1q-8 2 -16.5 4t-16.5 4q-13 4 -19.5 15.5t-4.5 24.5
q1 5 1 9t1 9q3 23 5.5 46t5.5 46q5 31 -1 59q-2 8 -7 10.5t-13 2.5q-6 0 -12 -1t-11 -6q-27 -18 -41.5 -36t-16.5 -54q-2 -32 8.5 -59.5t29.5 -52.5q5 -6 1 -12q-2 -5 -4.5 -9.5t-4.5 -9.5q-14 -22 -28.5 -44t-28.5 -44q-3 -5 -7.5 -9.5l-9.5 -9.5q-12 15 -13 29
q-1 9 -1.5 18t-0.5 18q-1 17 -1 34.5t-5 34.5q-7 29 -17 55.5t-21 52.5q-8 19 -17 37.5t-17 38.5q-10 19 -34 21h-12q-23 -3 -30 -23q-13 -43 -6 -88q8 -45 19.5 -88t26.5 -85q15 -41 49 -66t78 -25q42 0 65 35q15 27 29.5 54.5t28.5 55.5h2q23 -6 45.5 -9.5t45.5 -3.5
q18 2 35 11t32.5 22t29 28t24.5 29q4 3 7 7l6 8q4 5 2 9t-8 4q-5 0 -9.5 -0.5t-8.5 -3.5z" />
    <glyph glyph-name="w" unicode="w" horiz-adv-x="566" 
d="M508 374q-2 -22 -7.5 -42.5t-10.5 -40.5q-3 -11 -6 -22.5t-6 -23.5q-13 34 -8 72q1 18 6.5 40.5t19.5 34.5q3 3 6 3q5 0 6 -6q2 -7 0 -15zM712 312q-2 1 -6 1q-7 0 -15.5 -4.5t-10.5 -9.5q-4 -9 -11 -17q-13 -12 -25.5 -24.5t-25.5 -24.5q-9 -8 -18 -14.5t-19 -14.5
q-10 -7 -21 -7.5t-22 -1.5q7 32 12 64.5t10 65.5q5 31 -1 58q-7 26 -32 30q-5 1 -8.5 1.5t-7.5 1.5t-12 1q-23 0 -38.5 -16.5t-22.5 -37.5q-11 -32 -13.5 -64.5t5.5 -65.5q3 -14 8.5 -25t16.5 -19q3 -3 1 -7q-8 -18 -17 -35t-21 -33q-4 4 -7.5 6.5t-6.5 6.5q-33 36 -44 89
q-3 19 -7.5 37t-8.5 36q-3 14 -12.5 17t-21.5 3q-9 0 -18 -2t-13 -13q-2 -3 -3.5 -6t-3.5 -5q-11 -21 -21.5 -41.5t-21.5 -41.5q-1 -3 -6.5 -12t-12 -18.5t-12.5 -17t-9 -7.5q-4 19 -7 37.5t-7 36.5q-7 34 -13.5 67.5t-14.5 66.5q-4 16 -7 32t-8 32q-8 25 -34 25
q-8 0 -13 -1q-13 -1 -18 -16q-10 -34 -14 -68t-3 -69q2 -29 4 -56.5t4 -56.5q2 -17 5 -33t8 -33t14 -27t21.5 -15.5t27 -7t29.5 -1.5q50 0 78 42q13 19 24.5 38.5t19.5 42.5q2 -3 2 -4.5t1 -3.5q14 -52 49.5 -79t88.5 -27q27 0 48 9.5t34 35.5q6 12 11 24.5t10 24.5q3 7 9 7
q14 0 27 3q37 5 60.5 27t44.5 50q11 14 23 25.5t20 28.5q2 3 2.5 5.5t-3.5 4.5z" />
    <glyph glyph-name="x" unicode="x" horiz-adv-x="534" 
d="M649 309q-7 0 -11 -1.5t-8 -7.5q-10 -14 -19 -27.5t-18 -27.5q-3 -3 -5.5 -6t-5.5 -7q-8 -8 -16.5 -16t-16.5 -16q-7 -7 -21.5 -18t-31 -21.5t-32.5 -18t-26 -7.5q-9 0 -17 6q-13 9 -25 19t-25 20q-6 5 -11.5 11t-11.5 11q2 2 3 4t3 4q14 20 30 46.5t29 55t21.5 57.5
t8.5 54q0 17 -11 22.5t-25 5.5q-8 0 -15.5 -2t-11.5 -11q-17 -34 -37 -65t-42 -61q-5 -8 -11 -16t-11 -16q-11 10 -20 19.5t-19 19.5q-11 11 -16 22q-16 29 -38 53t-45 46q-2 2 -5 3.5l-5 2.5q-5 1 -9 1.5t-8 0.5q-11 0 -19 -4q-7 -4 -14 -6l-14 -4q-24 -8 -14 -29
q15 -29 27.5 -58.5t34.5 -54.5q2 -2 4 -6q19 -29 39.5 -54.5t48.5 -47.5q-5 -8 -9 -14.5t-8 -13.5q-12 -19 -18.5 -39.5t-8.5 -42.5q-1 -14 14 -15q21 0 37 13q16 14 32 27.5t32 27.5q2 2 5 2t5 -1q18 -8 35.5 -15.5t36.5 -12.5q14 -5 27.5 -6t27.5 -1q11 0 20.5 0.5
t20.5 0.5q27 1 50 18q25 17 46 32.5t38.5 34t32 41t26.5 51.5q2 7 4.5 13t4.5 13q3 11 -9 12z" />
    <glyph glyph-name="y" unicode="y" horiz-adv-x="444" 
d="M245 -2q-1 -5 -4.5 -18.5t-9 -27.5t-12 -25t-12.5 -11q-4 0 -8 4q-14 12 -15.5 26t3.5 30q8 28 25 44t40 31h2q-2 -14 -4.5 -26.5t-4.5 -26.5zM543 307q-3 1 -10 1q-4 0 -6 -1q-8 -5 -15 -16q-31 -41 -72 -65q-14 -8 -26.5 -19t-24.5 -23v5q-3 29 -5.5 59t-6.5 59
q-6 51 -28 103q-11 24 -32 24q-6 0 -14 -1.5t-10 -8.5q-2 -10 -4 -19.5t-4 -19.5q-2 -11 -1.5 -21t-1.5 -20q-2 -18 -5 -36l-6 -36q-1 -4 -2 -8.5t-3 -6.5q-18 -15 -36 -29.5t-35 -28.5q-1 0 -3 -1q-4 7 -7 14l-6 14q-7 19 -7.5 38t-2.5 39q-2 29 -3.5 58t-3.5 58
q-2 16 -6.5 22.5t-18.5 8.5q-3 0 -6 0.5t-6 0.5q-5 0 -9 -0.5t-9 -1.5q-16 -1 -26 -21.5t-16.5 -47.5t-9.5 -52.5t-4 -37.5q-5 -46 18 -85q17 -29 45 -41.5t60 -12.5q26 0 47.5 9t38.5 30h2q-1 -8 -1 -15t-1 -15q-1 -16 -1 -31t-1 -31q0 -2 -1 -3.5t-2 -3.5
q-15 -11 -29.5 -23t-29.5 -23q-20 -14 -31 -32.5t-16 -41.5q-4 -17 -2.5 -31t12.5 -27q1 -1 1 -1.5t1 -1.5q8 -17 26 -18q14 -2 27.5 -2t27.5 -1q29 0 51 18q23 19 40 36t29.5 36t20 42.5t10.5 55.5q2 19 0.5 38t-2.5 38q0 5 1.5 7t3.5 4q9 7 17.5 14t17.5 14q6 5 12 10.5
t13 10.5q26 18 50 39t38 50v3q-1 1 -1 2z" />
    <glyph glyph-name="z" unicode="z" horiz-adv-x="388" 
d="M272 28q-2 -5 -5 -10.5t-6 -10.5l-12 -18t-11 -19q-7 -13 -18 -20.5t-23 -13.5q-1 -1 -5 -1q-13 4 -22 15.5t-8 25.5q0 10 2 13q7 12 12.5 24.5t14.5 21.5q24 25 49 48.5t55 43.5q-5 -26 -9 -50.5t-14 -48.5zM135 383q-2 14 2 32.5t12 26.5q3 -11 -1.5 -29.5t-12.5 -29.5
zM486 309h-6q-6 0 -8 -2q-7 -6 -12.5 -13t-11.5 -14q-16 -21 -35 -37.5t-39 -32.5l-3 -1.5t-3 -2.5q-8 17 -20.5 27t-27.5 18q8 11 13 20q7 14 7 29t-3 29q-4 21 -8.5 40t-13.5 34t-24 24t-41 9q-32 0 -58 -17q-8 -5 -14.5 -9t-13.5 -9l-1 2q5 14 6.5 27t-0.5 27
q-1 11 -12 12q-2 0 -4.5 0.5t-4.5 0.5q-17 0 -33 -13t-26 -25q-16 -20 -22 -43.5t-13 -47.5q-3 -10 -4 -24.5t10 -16.5q5 -1 9 -2.5t9 -1.5h3q11 0 22 6t20 11q13 7 23 9q47 11 79 44q6 6 12.5 11.5t13.5 11.5q2 -4 3 -6.5t2 -5.5q5 -18 7 -36.5t1 -38.5q-2 -18 -9 -33.5
t-24 -24.5q-11 -6 -22 -10.5t-22 -9.5q-2 -1 -3.5 -3.5t-3.5 -4.5q2 -2 4.5 -4t5.5 -2q19 0 31 0.5t22.5 2.5t22 6t28.5 11q2 -5 3.5 -10t2.5 -10q0 -12 -0.5 -23.5t-1.5 -23.5q0 -4 -4 -6q-16 -13 -32.5 -24.5t-32.5 -24.5q-20 -17 -39 -34t-37 -35q-11 -11 -20 -24.5
t-16 -27.5q-19 -39 14 -67q21 -15 35.5 -18t39.5 -3q34 0 70 13.5t59 39.5q8 10 16 20.5t16 21.5q14 20 17 42q6 37 5.5 73.5t-11.5 72.5q-2 6 2 8q11 8 23 16t23 16q13 11 21.5 18.5t14.5 15.5t12 18t13 25q2 2 1 6t-2 4z" />
  </font>
</defs>
</svg>
