<?xml version="1.0" standalone="no"?>
<!DOCTYPE svg PUBLIC "-//W3C//DTD SVG 1.1//EN" "http://www.w3.org/Graphics/SVG/1.1/DTD/svg11.dtd" >
<svg xmlns="http://www.w3.org/2000/svg" xmlns:xlink="http://www.w3.org/1999/xlink" version="1.1">
<metadata>
Created by FontForge 20170812 at Thu Jan 10 18:06:17 2019
 By root
</metadata>
<defs>
<font id="Serendipity" horiz-adv-x="878" >
  <font-face 
    font-family="Serendipity"
    font-weight="500"
    font-stretch="normal"
    units-per-em="1000"
    panose-1="0 0 0 0 0 0 0 0 0 0"
    ascent="750"
    descent="-250"
    x-height="501"
    cap-height="783"
    bbox="23 -293 1229 1091"
    underline-thickness="50"
    underline-position="-100"
    unicode-range="U+0020-201D"
  />
    <missing-glyph />
    <glyph glyph-name="B" unicode="B" horiz-adv-x="767" 
d="M55 30v8.5t1 8.5q2 3 6 6t4 4q9 12 11.5 18.5t17.5 12.5q5 1 20 4.5t19 4.5q13 3 15.5 15t4.5 23q1 5 2.5 17t1.5 14l8 300v41v40q0 4 -0.5 16.5t-1.5 26t-2 25.5t-1 17q-2 12 -3.5 22.5t-4.5 21.5q0 1 -2 5q-1 2 -1 3q-3 4 -15.5 7t-25.5 6.5t-23.5 8t-10.5 11.5
q0 5 2.5 7t2.5 7q0 2 -2 2t-2 4q0 8 5 17.5t14 10.5l114 12q3 1 24.5 2t49.5 2t57 2t46 1h38h38q43 -3 82 -16t68.5 -36.5t47 -58.5t17.5 -82v-21q0 -16 -6 -33t-14 -31q-1 -2 -2 -2q-3 0 -3 3q17 37 17 76q0 40 -13.5 70.5t-37 52.5t-55.5 35.5t-69 18.5q-2 0 -7 0.5
t-6 0.5h-38h-27l-140 -12h9q38 0 74 3t74 3q39 0 77 -8.5t69 -28t50 -50t19 -75.5q0 -54 -29.5 -93t-78.5 -59q-2 -1 -10 -3.5t-16.5 -6t-16.5 -6.5t-10 -4l-2 -1q36 -11 71 -25.5t63 -36.5t45.5 -53t17.5 -74q0 -30 -11 -58.5t-29.5 -52t-43.5 -41.5t-53 -28
q-10 -5 -20.5 -7t-21.5 -4q-2 0 -13 -2t-13 -2t-4 -1.5t-3 -1.5h1q44 0 86 15t74.5 42.5t52 66t19.5 85.5q0 35 -13.5 65.5t-36.5 57.5v1q0 3 3 3h1q29 -27 43.5 -63.5t14.5 -74.5q0 -55 -24 -94.5t-62 -76.5q-11 -11 -26 -19.5t-29 -14.5q-33 -15 -69 -19.5t-71 -4.5
q-39 0 -78.5 1.5t-78.5 1.5q-54 0 -105.5 -2t-104.5 -2h-7q-1 2 -3 11t-2 12v6zM320 117l1 -17q1 -1 3 -2t5 -1q11 -2 22 -3.5t20 -1.5h31h29q14 1 28 4t26 11q31 20 45 55.5t14 70.5q0 42 -13.5 67.5t-36.5 40.5t-54.5 20.5t-68.5 7.5l-1 3v1l1 1q11 2 22 2.5t22 0.5
q29 0 61.5 -6t55.5 -27q4 -5 10.5 -12t11.5 -12v1l-1 3q-1 2 -4 6t-4 6q-12 16 -28 27t-34.5 18t-38.5 10.5t-38 5.5h-38q-19 0 -35 0.5t-34 -2.5q-5 -3 -6.5 -13.5t-1.5 -15.5q-1 -9 -1.5 -33t-1 -50.5t-1 -50t-0.5 -33.5v-32v-32l30 193h6q0 -44 -1.5 -86.5t-1.5 -86.5
v-38zM557 317q-1 0 -1 -1.5t1 -1.5t1 1.5t-1 1.5zM556 320q-2 0 -2 -1.5t2 -1.5q1 0 1 1.5t-1 1.5zM328 653q0 -50 -0.5 -99.5t-0.5 -100.5q50 0 96 13q48 13 71 41t23 79q0 39 -15.5 63t-50.5 41q-20 11 -44 11h-41q-2 0 -2 4v1q12 5 25 6t26 1q63 0 111 -45v1
q0 1 -2.5 4.5t-3.5 4.5q-26 29 -60 41.5t-72 12.5q-22 0 -44 -4.5t-43 -10.5q-4 0 -4 -5q0 -7 -1 -25.5t-1.5 -38.5t-1 -38t-0.5 -25v-51v-52l30 170q1 4 1.5 2.5t3.5 -1.5zM532 661q-2 0 -2 -1.5t2 -1.5q1 0 1 1.5t-1 1.5zM530 664q-1 0 -1 -1.5t1 -1.5q2 0 2 1.5t-2 1.5z
M528 665l1 -1v1l-1 1v-1z" />
    <glyph glyph-name="C" unicode="C" horiz-adv-x="803" 
d="M51 388q0 56 13 109t38.5 99t63.5 84t88 65q42 21 85.5 33t90.5 12q51 0 98.5 -14.5t92.5 -36.5h2q4 0 10 9.5t11 14.5q1 0 4.5 -2t4.5 -2h2q4 0 6.5 9t10.5 9q15 0 28 -10q15 -14 17.5 -27.5t4.5 -32.5q0 -2 -2 -2h-1h-3q-1 10 -3 21t-6.5 20.5t-12.5 16t-21 6.5
q-4 0 -6 -3.5l-4 -7t-4.5 -7t-6.5 -3.5h-1q-2 1 -2 5h-2q-2 -3 -9.5 -12.5t-9.5 -12.5q-1 -1 -4 -1h-3q-45 20 -88.5 32t-93.5 12q-88 0 -165.5 -42t-126.5 -116l3 2q1 1 4 5l6 8l6 8t4 5q51 56 118 87t142 31q52 0 101.5 -16t95.5 -42h2l3 3q2 2 3 2.5t2 1.5l19 19
q5 6 8.5 13.5t14.5 7.5q4 0 7.5 -4.5t3.5 -8.5l12 -184v-27q0 -6 -8 -6t-11.5 8t-7.5 13q0 2 -3.5 4t-3.5 3q-4 5 -5 12t-4 13q-32 65 -86.5 106t-125.5 50l-10 8h-7q-24 0 -48.5 -7t-44.5 -20q-39 -24 -65 -59t-41.5 -75.5t-22.5 -85.5t-7 -88q0 -66 19 -130t64 -114
q1 -1 5.5 -5t10 -9.5l11 -11l8.5 -8.5t5 -4l3 -3h1q-62 58 -86.5 122t-24.5 148q0 53 12 105.5t38 99.5q1 1 7 11t9 14q0 2 2 3.5t2 2.5h1l3 -3v-1q-31 -48 -44 -102.5t-13 -111.5q0 -35 5 -68.5t17 -67.5q13 -36 35 -65.5t50 -55.5t62.5 -39.5t70.5 -13.5q34 0 63 12.5
t53.5 33t44.5 46.5t36 53l4 4q5 2 10 6q5 2 9.5 5l7.5 5q2 1 5 1t3 -2q17 -5 29.5 -15.5t12.5 -30.5q0 -17 -9.5 -34t-19.5 -30q-56 -75 -128.5 -114.5t-165.5 -39.5q-58 0 -113 17.5t-102.5 50t-83.5 77.5t-55 100q-13 36 -18.5 74t-5.5 76zM341 105q-1 0 -1 -1t1 -1
q2 0 2 1t-2 1zM340 107q-1 0 -1 -1.5t1 -1.5t1 1.5t-1 1.5zM337 108q-1 0 -1 -1.5t1 -1.5q2 0 2 1.5t-2 1.5zM336 109q-1 0 -1 -1t1 -1t1 1t-1 1zM335 111q-2 0 -2 -1.5t2 -1.5q1 0 1 1.5t-1 1.5zM333 111q0 1 -0.5 1t-0.5 -1q0 -2 0.5 -2t0.5 2zM331 113q-2 0 -2 -1t2 -1
q1 0 1 1t-1 1zM329 115q-1 0 -1 -1.5t1 -1.5q2 0 2 1.5t-2 1.5zM146 611q-1 0 -1 -1t1 -1t1 1t-1 1z" />
    <glyph glyph-name="D" unicode="D" horiz-adv-x="946" 
d="M293 6q-51 0 -103 -2t-105 -2h-20q-5 2 -9 4t-4 8v17t3 17q1 3 4.5 2.5t5.5 2.5q5 6 11 17t13 13q3 0 9 1.5t13.5 3.5t13.5 3.5t9 1.5q15 5 24.5 12.5t11.5 24.5l8 68l12 343v24v21q0 4 -1 14t-2 20.5t-2 20t-2 13.5q-1 5 -3 16t-6 16q-1 0 -2 1l-2 2q-8 5 -18 6.5
t-18 6.5q-9 7 -15 15l-12 16l-1 2q-10 6 -10 20q0 4 0.5 6.5t2.5 6.5h1q3 0 3 -1v-15q1 -10 4.5 -10t8.5 -5l27 -26q7 -8 18.5 -10t19.5 -7q7 -5 10.5 -19.5t5.5 -22.5q1 -7 2.5 -18.5t3 -22.5t2.5 -19t1 -9l5 -328l10 299v7q0 27 -2.5 54t-7.5 53q-3 18 -9 29t-15 18
t-22 10.5t-30 6.5q-9 2 -9 9q0 3 1 7t4 4h15q28 0 56 -2.5t56 -4.5h214q2 0 11 -0.5t20 -1.5t21.5 -2t16.5 -2q58 -8 108.5 -29t91 -55t69 -80.5t43.5 -104.5v2v3q-9 50 -30.5 92.5t-53.5 77t-73 60t-87 42.5l-42 12q-2 0 -11.5 2t-20 4t-19.5 3.5t-12 2.5q-1 0 -2.5 0.5
t-2.5 0.5v1q0 3 1 3h7q14 0 27 -2.5t27 -4.5q75 -14 136.5 -46.5t105 -82t67 -114.5t23.5 -142q0 -36 -5.5 -71t-17.5 -70q-9 -26 -22.5 -49t-29.5 -46q-32 -43 -70.5 -72t-82.5 -46.5t-92.5 -25t-100.5 -7.5h-21l-139 9h-19zM305 221q0 -30 2 -57t10.5 -48t26.5 -36.5
t51 -22.5h43h41q3 0 11.5 0.5t17.5 1.5t17.5 2t11.5 2q18 3 43 14.5t37 25.5q-30 -20 -63 -28t-70 -8q-16 0 -34.5 1t-36.5 5t-34 12t-27 23q-2 2 -4.5 6t-2.5 7l3 2h1l20 -20q17 -14 40 -15t43 -1q27 0 54 3t51 14q39 18 67.5 48.5t47 68.5t28 80t9.5 83q0 36 -7.5 73.5
t-22.5 72.5t-37.5 65t-52.5 51q-23 17 -49 26t-53 13q-3 0 -8 1t-10.5 1.5t-9.5 1t-5 0.5h-99l-17 -341h-5q0 9 -1 31.5t-2 48t-1.5 48.5t-0.5 32v98v98q1 5 8 12q-5 0 -8 -6t-3 -9l-20 -474v-6zM621 105q0 2 -1.5 0.5t0.5 -1.5q1 0 1 1zM854 467q-1 0 -1 -2t1 -2t1 2t-1 2z
M340 717q0 2 -1 2t-1 -2q0 -1 1 -1t1 1z" />
    <glyph glyph-name="E" unicode="E" horiz-adv-x="826" 
d="M58 27q-3 2 -3.5 5.5t-0.5 6.5q0 9 2 17t13 11l18 19q3 3 11.5 5t14.5 3q2 0 13.5 2t13.5 2q12 2 16 12.5t6 21.5q2 5 3 17t1 15t0.5 10.5t1 15.5t1 15.5t0.5 10.5q0 63 0.5 124t0.5 122v6l-8 194v6t-2 6q-5 5 -10.5 7.5t-11.5 4.5q-4 1 -18.5 5.5t-18.5 6.5
q-5 -2 -7 0.5t-4 4.5q-7 9 -13.5 16.5t-6.5 18.5q0 8 5 15t12.5 12.5t16.5 9t16 3.5h8l539 -9l24 -3l3 -3l33 -174q3 -14 3 -28q0 -25 -27 -25q-2 0 -5.5 -0.5t-3.5 2.5q0 5 1 5q11 -2 19 2t8 16v4l-21 126l-16 66h-70l-300 -7l-16 -1h347q7 0 7.5 -5t2.5 -5h14l29 -164v-3
q0 -7 -5 -7q-2 0 -3.5 1t-3.5 1h-1l-7.5 -7.5t-7.5 -2.5q-8 0 -15 7q-14 21 -29.5 43t-34.5 41.5t-41.5 34t-48.5 19.5q-24 5 -47 6t-49 2l-2 1h-1h-2l-101 -23l-1 -11.5t-2 -27.5t-1.5 -33t-0.5 -28v-15t-0.5 -28t-0.5 -31v-24v-16t0.5 -20t0.5 -17v-8l5 -2h20
q26 0 53.5 2.5t49.5 17.5q1 1 3 2t2.5 2t1.5 2l2 1v1q-10 -4 -21 -6.5t-21 -2.5h-62v5q3 0 9.5 0.5t13.5 0.5t13.5 0.5t9.5 0.5q18 1 31 3.5t23 9.5t17 18t15 28q2 4 7 18t7 18l3 3l32 22q1 2 4 2q2 0 3 -2t3 -4q17 -7 27 -17.5t10 -30.5q0 -29 -2.5 -57.5t-2.5 -57.5
q0 -36 1 -71.5t1 -71.5q0 -8 -1 -20.5t-11 -14.5h-12q-15 0 -22 3.5t-19 11.5q-17 12 -21 27.5t-11 33.5q-9 24 -26 34.5t-41 15.5q-15 3 -30 4t-32 1v-162v-7.5t0.5 -13t1 -14.5t1.5 -10q2 -24 12.5 -36.5t26 -18.5t34.5 -7t39 -1q40 0 77.5 8t70.5 25t59.5 44t43.5 65
q3 2 14 9t14 9q1 2 4 2q19 0 32 -15t13 -32v-8l-44 -192q0 -5 -4 -5h-107l-494 11q-18 0 -32.5 4.5t-30.5 12.5zM442 40h228l36 160v6l-1 -1q-8 -15 -15.5 -30t-18.5 -29q-21 -29 -49.5 -48t-61 -30t-67 -16t-68.5 -5q-29 0 -56 2.5t-48.5 12.5t-36 29.5t-18.5 52.5
q-1 4 -2 14.5t-1.5 22.5t-1 23t-0.5 15v56v69q0 6 0.5 14.5t0.5 17t0.5 14.5t0.5 7l1 5h15q24 0 47.5 -1t46.5 -6q27 -5 46 -14.5t32 -25t21.5 -36.5t13.5 -47v16q0 29 -0.5 58t-0.5 57q0 32 2.5 62t2.5 61h-1q-12 -36 -25.5 -58.5t-32.5 -35.5t-44.5 -17.5t-62.5 -4.5h-33
h-17q-5 0 -10 1l-1 7v173l5 99h12l126 28v7h16q7 0 14 0.5t12 0.5q18 -1 34.5 -3t33.5 -6q24 -6 45 -20t40 -33t35 -40t28 -40l2 -1l-27 147l-527 8h-23q3 -3 4 -3q13 -4 28 -8.5t28 -12t21.5 -19t9.5 -29.5l8 -181v-20v-28v-46t-0.5 -70t-0.5 -70v-46q0 -3 -0.5 -11.5
t-1 -17.5t-1.5 -17.5t-1 -12.5q-4 -28 -13.5 -51.5t-36.5 -35.5q-11 -5 -25 -6.5t-25 -2.5zM505 261q0 -5 4.5 -7t9.5 -2t8.5 9.5t3.5 14.5l2 157l8 80v8q0 13 -8.5 24t-22.5 11q-10 0 -17 -9q4 -2 7 -5l6 -6h2q1 0 2 0.5t3 0.5q6 0 8 -5.5t2 -10.5q0 -29 -3 -58t-3 -58
t1 -58.5t1 -58.5v-17q-4 -10 -14 -10z" />
    <glyph glyph-name="F" unicode="F" horiz-adv-x="793" 
d="M78 24q0 5 0.5 11.5t3.5 11.5q1 2 2.5 2t2.5 2t3.5 7.5t4.5 7.5q6 7 12.5 13.5t17.5 9.5q4 1 10.5 1.5t12.5 2t10 4.5t5 9l7 42q0 2 1 24t2 50.5t2 58t2 47.5v66v66q0 8 -0.5 28t-1.5 42t-2 42t-2 28q0 4 -1 18.5t-3 19.5q-1 6 -2 15t-6 14q-5 6 -21.5 9t-35 5.5t-33 6.5
t-14.5 12q0 5 2.5 8t6.5 6q-2 2 -2 5q0 17 15 32t32 15l393 11h63h71q3 0 10 -0.5t15 -1l16 -1t11 -0.5q2 0 7 -0.5t8 -2.5q4 -1 9 -2t7 -6q0 -3 4 -11q2 -4 3 -7l25 -138q0 -1 0.5 -7t1 -14t1.5 -16t1 -14v-3q0 -4 -1 -4q-2 -1 -9 -2.5t-9 -1.5q-19 -1 -36.5 8.5
t-30.5 23.5q-1 2 -7 11t-7 11q-38 51 -93.5 70t-116.5 19h-23q-2 0 -9 -0.5t-16 -1t-18.5 -1t-14.5 -1.5q-1 0 -4.5 -0.5t-4.5 -0.5q-4 0 -8 -2q-3 -1 -4 -1l-2 -1q-1 -21 -2 -40q-1 -17 -1.5 -34.5t-0.5 -28.5q0 -7 0.5 -24.5t0.5 -36.5t0.5 -36.5t0.5 -24.5q22 0 43 -0.5
t42 7.5q17 5 29.5 18.5t17.5 30.5q2 8 3 16.5t4 16.5q12 27 34 31.5t48 4.5v-16l-7 -237l-15 -62q-3 -12 -17 -16.5t-24 -4.5q0 3 5 5t11.5 4.5t12 5.5t6.5 9l12 61v19q0 30 -1 61t-1 61q0 23 1 46t1 48h-19q-11 -2 -21.5 -11t-12.5 -20q-1 -9 -1.5 -18t-4.5 -17
q-15 -35 -42.5 -50.5t-64.5 -15.5h-65l-1 12l-4 184q-1 -35 -1 -65v-65v-72q15 -2 28 -2h28q24 0 49 3t46 17q12 8 21.5 20.5t15.5 25.5q5 9 7 19q1 2 1.5 8.5t2 13.5t4 12.5t7.5 5.5q7 0 9.5 -5t2.5 -11v-4q0 -4 -0.5 -13t-1.5 -19t-1.5 -19t-0.5 -12v-174q0 -8 -3.5 -13
t-11.5 -5q-11 0 -11.5 12t-1.5 19q-4 31 -17 49.5t-32 28.5t-43.5 13.5t-52.5 3.5h-22.5t-22.5 -1q0 -3 -0.5 -11.5t-0.5 -17.5t-0.5 -17.5t-0.5 -11.5v-104v-72l3 -50q0 -6 3 -12.5t6 -11.5q5 -6 9 -12t11 -11q12 -7 29 -9q1 0 4.5 -0.5t7.5 -1l8 -1t5 -0.5l12.5 -2.5
t7.5 -9.5q0 -4 -2.5 -7.5t-6.5 -3.5h-12q-34 0 -65.5 3.5t-63.5 3.5t-63 -2t-63 -2h-16q-3 1 -5.5 4.5t-3.5 6.5q-7 -5 -7 -14v-1l15 -7h146l116 -9h36q5 0 10 5t5 10q0 3 -0.5 7.5t-2.5 5.5h-5l-1 2q-5 6 -10 17.5t-14 14.5l-48 14l-3 3q-2 2 -3.5 3t-2.5 2
q-9 11 -8.5 27.5t0.5 27.5h6l2 -36q0 -5 6 -12.5t11 -8.5l52 -15q8 -2 14.5 -12.5t10.5 -18.5l2 -1q8 -5 8 -20q0 -14 -2.5 -21t-16.5 -10h-22q-36 0 -71.5 3.5t-71.5 3.5h-15l-152 -7h-14q-1 1 -1 3v4q-1 7 -1 8.5v9.5zM205 181q0 -3 -1.5 -11.5t-2.5 -17.5t-2.5 -17.5
t-1.5 -12.5q-1 -9 -4 -19t-8 -18q-2 -5 -7.5 -6.5t-10.5 -4.5l-8 -8l-8 -8h3q5 0 11 3q20 9 26.5 26.5t9.5 38.5q2 14 3 25t1 23v7zM206 193q-1 0 -1 -0.5t1 -0.5q2 0 2 0.5t-2 0.5z" />
    <glyph glyph-name="G" unicode="G" horiz-adv-x="936" 
d="M51 387q0 64 19 122.5t54 107.5t84 86.5t109 59.5q37 13 74 20.5t75 7.5q48 0 94.5 -12.5t91.5 -31.5q3 -2 13.5 -7t13.5 -7l1 -1q0 -2 -2 -4q-49 22 -99 36.5t-104 14.5q-42 0 -85 -9t-81 -27q-22 -11 -42.5 -22t-40.5 -27q-72 -52 -109.5 -131t-37.5 -167q0 -21 1 -42
t7 -41v3v2q-2 17 -3.5 33.5t-1.5 35.5q0 79 31 147.5t83.5 118.5t122.5 78.5t148 28.5q44 0 83.5 -10t78.5 -26q2 -1 9.5 -4.5t15.5 -7t15.5 -7t9.5 -4.5q10 -5 24 -5q8 0 13 4t9 8.5t8 8.5t9 4q7 0 9.5 -6t3.5 -13l18 -163v-7q0 -5 -2 -9.5t-9 -4.5q-5 0 -7.5 3t-3.5 6
q-20 42 -46.5 80.5t-60.5 67t-76 45.5t-91 17q-68 0 -119 -32t-85 -82.5t-51.5 -112.5t-17.5 -121q0 -39 7 -77.5t23 -74.5l15 -30l1 -1v1q-38 82 -38 170q0 56 16.5 115.5t49 108t80.5 80t112 31.5h17q2 0 9 -0.5t10 -2.5q2 0 9.5 -1t9.5 -3q1 0 6 -1.5t7 -2.5q2 0 6 -1.5
t5 -2.5l2 -1h1q1 -4 -3 -4q-7 0 -16 3t-16 5q-3 1 -10.5 1.5t-8.5 0.5h-21q-60 0 -105 -29t-75 -74.5t-45 -100.5t-15 -107q0 -55 16.5 -109t49 -97t79.5 -70t107 -27q36 0 63 11.5t53 36.5q9 9 15.5 16.5t6.5 21.5v71q0 9 -2.5 21t-4.5 21q-3 13 -11 19.5t-18.5 9.5
t-22.5 3.5t-22 1.5q-16 6 -22.5 12t-16.5 21q-2 3 -3.5 3h-2.5t-2 2t-1 9q0 12 8 20.5t22 10.5l174 10h44l144 -17v-7q0 -13 -1.5 -17.5t-8.5 -13.5q-2 -1 -5 -6.5t-5 -6.5q-6 -7 -12.5 -12t-15.5 -7q-8 -2 -16.5 -3t-15.5 -4t-12 -9t-5 -16l-4 -146q-3 -41 -39 -59l-97 -48
q-2 -1 -12 -5t-14 -6q-80 -29 -168 -29q-83 0 -157 29t-130 80.5t-88.5 123t-32.5 157.5zM268 179q-1 0 -1 -1.5t1 -1.5t1 1.5t-1 1.5zM267 182q-2 0 -2 -1.5t2 -1.5q1 0 1 1.5t-1 1.5zM265 183q-1 0 -1 -1.5t1 -1.5q2 0 2 1.5t-2 1.5zM264 184q-1 0 -1 -0.5t1 -0.5t1 0.5
t-1 0.5zM263 187q-2 0 -2 -1.5t2 -1.5q1 0 1 1.5t-1 1.5zM261 190q-1 0 -1 -1.5t1 -1.5q2 0 2 1.5t-2 1.5zM260 191q-2 0 -2 -0.5t2 -0.5q1 0 1 0.5t-1 0.5zM258 194q-1 0 -1 -1.5t1 -1.5q2 0 2 1.5t-2 1.5zM257 195q-1 0 -1 -0.5t1 -0.5t1 0.5t-1 0.5zM252 203q0 -3 4 -7v2
q0 1 -1.5 3t-2.5 3v-1zM92 294q-1 0 -1 -1t1 -1q2 0 2 1t-2 1zM91 298q-1 0 -1 -0.5t1 -0.5t1 0.5t-1 0.5zM90 304q-2 0 -2 -1.5t2 -1.5q1 0 1 1.5t-1 1.5zM88 310q-1 0 -1 -2t1 -2q2 0 2 2t-2 2z" />
    <glyph glyph-name="H" unicode="H" horiz-adv-x="953" 
d="M513 30q0 6 -0.5 8.5t1.5 7.5l1 2q0 1 1 1h6q6 17 12.5 23t21.5 15l2 2l35 5q4 0 7 4.5t5 10.5t3 12t1 9q0 5 1.5 18t1.5 17q0 9 0.5 32t1 49t1 49t0.5 32v11v6l-12 2h-78h-113q-2 0 -12.5 -0.5t-23 -1l-25 -1t-18.5 -0.5q-2 0 -4 -0.5t-4 -0.5h-4l-1 -6l-0.5 -11.5
t-1 -27t-1 -31.5t-0.5 -26v-43q0 -19 -0.5 -41t3.5 -42q2 -9 15.5 -14.5t28.5 -10t27.5 -10t12.5 -14.5v-2q0 -1 -2 -3.5t-2 -4.5v-1l4 -5v-2q0 -16 -12.5 -26.5t-27.5 -14.5h-13h-15q-3 0 -14 0.5t-14 0.5h-147q-5 0 -20 -1.5t-19 -1.5h-9q-8 0 -18 1.5t-19 6t-15 11
t-6 17.5q0 7 2.5 6t5.5 4q4 7 6.5 13.5t9.5 11.5q4 3 9.5 7t12.5 5q9 3 16.5 4t13 4t9 9t5.5 17l8 64q0 4 1 29t2.5 56.5t2.5 63t2 49.5v97v96q0 3 -0.5 9.5t-1 14t-1 14t-0.5 9.5q-2 18 -4 33.5t-20 23.5q-16 7 -29 6q-3 3 -11.5 12t-11.5 12q-2 1 -4 4t-3 4v3
q0 18 14.5 30.5t31.5 15.5q29 2 58 2h58h55q3 0 14.5 -0.5t26 -1t29 -1.5t22.5 -1q14 -2 19 -3.5t5 -16.5q0 -3 -0.5 -10.5t-3.5 -9.5l-6 -2l-3 -2q-8 -11 -15.5 -21t-21.5 -13q-5 -1 -16.5 -3t-16.5 -2l-1 -3q0 -1 -1.5 -18t-2.5 -27q0 -5 -0.5 -20t-0.5 -19v-162h-6l-1 8
l-0.5 16t-1 37.5t-1.5 44t-1 37.5v19v18q0 3 0.5 11.5t1 18.5t1 19t0.5 13q0 7 2 15q20 2 32 8t23 23h-1h-1q-9 -1 -21 -2t-22.5 -4.5t-18.5 -10t-9 -18.5q-2 -5 -3 -20t-1 -20t-1 -16.5t-1 -14.5v-181l2 -24q15 -1 29 -2q12 -1 24 -1.5t20 -0.5h32h37q12 0 42.5 0.5t64.5 1
t64.5 1.5t42.5 1q0 8 1 28.5t1.5 43.5t1.5 44t1 29v10v11q0 18 -1.5 41.5t-7.5 45t-19.5 37t-38.5 18.5q-1 0 -6 0.5l-10 1l-10 1t-6 0.5q-4 0 -8.5 2.5t-4.5 7.5q0 3 3 6.5t6 3.5h16q38 0 76 -2t75 -2q29 0 56.5 0.5t56.5 0.5h24q5 -1 7 -2.5t4 -6.5l10 -2l2 2q1 2 1.5 6
t0.5 6l-5 1l-240 19h-2q-29 0 -55 -3.5t-55 -8.5q-7 0 -7 -6q0 -4 2 -7t2 -7q0 -3 -5 -3t-6 7t-1 10t0.5 6.5t4.5 4.5l81 15q11 2 27 2h28h18l223 -20l8 -1v-5v-10t-3 -9l-5 -1l-3 -7q-2 -3 -5 -10.5t-7 -9.5q-1 -2 -8.5 -5.5t-10.5 -5.5q-3 -3 -6 -3l-39 -5
q-8 -1 -13.5 -9.5t-5.5 -15.5l-16 -457v-17v-27.5t3 -25.5t10.5 -21t23.5 -12q3 0 9.5 -1.5t13.5 -3t13.5 -3t9.5 -1.5q1 -2 4.5 -5t4.5 -5q3 -3 12 -14t12 -14l2 -3q-2 -4 -3.5 -2t-3.5 0l-1 -4q-11 -29 -39 -35h-15h-16q-15 0 -39 1t-47 1.5t-39.5 1t-17.5 0.5l-158 16v7z
M743 310l24 341q2 9 6.5 22.5t15.5 16.5q2 0 11 2.5t11 2.5q9 2 16 10t12 14h-2q-44 0 -62.5 -22.5t-20.5 -64.5l-11 -262v-60zM107 710q15 -2 27 -5.5t21.5 -9.5t15.5 -16.5t8 -26.5q1 -3 2 -10l2 -14t1.5 -12.5t0.5 -6.5l7 -178v140l-6 76q-1 34 -25 56q-5 4 -14 7t-18 5
t-16 4.5t-7 6.5q0 8 12 11q12 0 41 1t62 1.5t62 1t41 0.5h21q13 0 23 0.5t11 -14.5h1q8 0 10 2.5t2 8.5q0 7 -5.5 9.5t-10.5 2.5q-25 1 -44.5 1h-44.5h-35q-8 0 -26 -0.5t-39 -1.5t-39.5 -2t-25.5 -1q-8 -2 -16 -8.5t-8 -15.5v-3z" />
    <glyph glyph-name="I" unicode="I" horiz-adv-x="439" 
d="M41 29q0 5 0.5 14t4.5 13h4l8 12q3 5 6 9t5 6q4 3 6.5 5t6.5 3t15 3t14 4q6 1 6 9q1 9 2 33t2 50.5t2 50.5t1 33v57v65q0 12 -0.5 42.5t-1 65t-1.5 65.5t-1 43q-1 8 -2 20t-1 23q6 0 6 -6l30 -425v265l-4 131q0 3 -1 18t-3 21q-1 9 -3.5 21.5t-9.5 20.5t-11.5 11.5
t-13.5 7.5q-4 1 -11 2.5t-14 3.5t-12 5.5t-5 8.5q0 8 4.5 8t10.5 3q3 1 5.5 5t6.5 4h173q5 0 17 0.5t25.5 0.5t25.5 0.5t17 0.5q-2 3 -8.5 5.5t-11.5 2.5l-115 6q-3 0 -3 4v2h10t14.5 0.5t14.5 0.5h10h37h36q23 -3 33.5 -14.5t17.5 -30.5l1 -2l2 -2l-2 -3q-2 -3 -10 -11.5
t-10 -11.5q-1 -2 -6 -7l-4 -4q-2 -1 -8 -1.5t-7 -0.5q-26 -5 -38.5 -13t-13.5 -35l-7 -122v-13.5t-0.5 -26t-0.5 -29v-22.5v-28t0.5 -35.5t0.5 -31.5v-16q0 -10 1 -35.5t2.5 -54.5t3 -54.5t1.5 -35.5q1 -16 3.5 -27t19.5 -17q3 0 10.5 -2t15.5 -4t15.5 -4t10.5 -3
q5 -2 13 -5.5t8 -10.5q0 -6 -4 -10q1 -3 1 -9t-1.5 -12t-4.5 -10.5t-8 -4.5l-125 -16h-41l-155 16q-7 0 -7 5zM105 51q3 -2 7 -2h7q63 0 123.5 1t122.5 1q-9 3 -18.5 4t-19.5 4q-33 9 -43.5 33.5t-12.5 56.5l-9 263v15v17q0 18 1 46t1.5 54.5t1 45.5t0.5 20l7 63
q2 17 10.5 29t21.5 20.5t28.5 13t30.5 6.5l-4 1h-263q0 -3 3 -3q1 0 9 -2t10 -2t8 -2t8 -3q14 -6 22.5 -16t13.5 -23t7 -26.5t2 -26.5l6 -144v-306l-6 -83q-2 -30 -24.5 -40.5t-47.5 -11.5l-3 -2v-1zM357 722q-11 0 -22.5 -4.5t-20.5 -9.5l-1 -1q9 2 21 3.5t19 2.5q3 3 7 9
h-3z" />
    <glyph glyph-name="J" unicode="J" horiz-adv-x="546" 
d="M33 114q0 36 21 60.5t59 24.5q35 0 55 -22.5t20 -57.5q0 -3 0.5 -7.5t-1.5 -7.5q-1 -2 -5 -10.5t-6 -10.5h8q26 0 40.5 20t15.5 44l6 138v277q0 4 -0.5 16t-1 25t-1 24.5t-0.5 16.5v1q0 3 4 3h2l25 -469q0 7 0.5 24t1 35.5t1 35.5t0.5 23v107v99q0 9 -0.5 30t-1 44.5
t-1.5 44.5t-1 29q-2 11 -3 22.5t-9 19.5t-13 11.5t-14 7.5q-11 5 -26 7q-6 1 -15.5 2.5t-9.5 10.5q0 12 12 12h1q4 0 14.5 -0.5t22.5 -1.5t22.5 -1.5t14.5 -0.5h149q3 0 14.5 1t14.5 1h4q5 0 11 -2t6 -9q0 -11 -12 -11q-23 -2 -37 -5t-23 -11t-13.5 -22t-7.5 -38
q-1 -5 -2 -18t-2 -28t-1.5 -28.5t-0.5 -19.5v-23v-22l14 126q0 1 1 6.5t1 7.5q5 22 12.5 38t33.5 18q4 0 17 1t18 1q11 3 16 11t5 18q0 15 -13.5 22.5t-26.5 8.5l-99 4v5q5 0 18 0.5t27.5 1t27.5 1t18 0.5h5q20 0 39 -10.5t19 -33.5q0 -18 -12.5 -30t-30.5 -14q-6 -1 -13 -1
t-13.5 -1.5t-11.5 -5t-7 -10.5q-1 -2 -3 -10q-1 -4 -1 -7l-6 -59l-4 -365q0 -14 -2.5 -29.5t-5.5 -29.5q-7 -36 -27.5 -68t-50 -55t-64.5 -36.5t-72 -13.5q-26 0 -52 7t-47 21.5t-34 37t-13 52.5z" />
    <glyph glyph-name="K" unicode="K" horiz-adv-x="862" 
d="M61 34q0 7 2.5 7t4.5 4q4 9 8 17t13 13q4 2 11.5 4t16 4.5t14.5 6.5t7 10l16 210v60v74q-1 10 -2 34t-2.5 51t-2.5 51.5t-1 33.5q0 3 -1.5 15.5t-2.5 15.5q0 2 -2 12t-4 15l-1 4q-11 5 -24.5 7t-25.5 6t-20.5 12.5t-8.5 25.5q0 18 13 29t30 12h15t23 0.5t22.5 0.5h15.5
h47h31l130 -16h3t3 -2v-8q0 -12 -2 -13.5t-10 -5.5q-3 -1 -4 -4.5t-4 -3.5q-2 0 -2 1q0 8 7 11.5t7 4.5v14l-130 12h-6h-10q-8 -1 -27 -1.5t-40.5 -1.5t-41 -1.5t-26.5 -1.5q-11 -1 -20 -7.5t-9 -18.5q0 -15 11 -19.5t22 -6.5q5 -1 12.5 -2t15 -3.5t13 -6t7.5 -9.5
q1 -4 2 -10t3 -11q2 -7 3 -14l20 -291v-32q0 -25 -0.5 -50t-0.5 -50v-11q0 6 1 20.5t2 30.5t2 30.5t1 20.5v64v55l-11 209q-2 14 -4 29.5t-12 26.5q-11 12 -29.5 14.5t-32.5 5.5q-3 2 -7 3.5t-4 6.5q0 4 4 7t8 3q2 0 9 1t9 1h22.5t34.5 0.5t34 0.5h23h63h61q7 -2 7 -8
t-6.5 -7.5t-11.5 -3.5q-2 0 -8 -1t-12.5 -2t-12 -2t-8.5 -1q-12 0 -18 -13t-7 -24v-42v-45q0 -11 0.5 -39.5t1.5 -60.5t2 -60.5t1 -39.5q3 2 9 6.5t13 9.5t13 9.5t9 6.5t9 7t7 6l169 181q5 5 11 13t11.5 17t9.5 18t4 17q0 14 -10.5 21t-23.5 11t-23.5 7t-10.5 11t9 8
q3 0 11 0.5t10 0.5h207q1 0 7.5 -0.5t9.5 -0.5q5 -1 10.5 -3t5.5 -8q0 -7 -11 -9q-29 -6 -58.5 -14t-52.5 -28l-64 -53l-107 -107l-5 -7l115 108q1 2 7.5 7.5t14.5 12t15.5 12.5t11.5 9q11 8 24 16.5t27 12.5q3 1 11 3.5t16.5 4.5t16.5 4.5t11 3.5q7 3 9 5.5t10 6.5
q1 0 2.5 1.5t2.5 1.5q2 1 8 2.5t8 2.5v3q0 8 -9 13.5t-20.5 9t-23 5t-16.5 1.5q-7 0 -21 0.5t-29 1t-27.5 1t-16.5 0.5h-48h-50q-12 -2 -27.5 -9.5t-15.5 -22.5q0 -2 2 -3.5t2 -4.5t-1 -5.5t-1 -5.5q0 -5 7 -8t11 -4q5 -1 18 -5t17 -6q5 0 10.5 0.5t9.5 -1.5q2 -1 2 -3
q0 -4 -6 -3.5t-8 -2.5q-10 -17 -21.5 -32t-25.5 -27l-2 2v2l2 4q11 12 21.5 24.5t16.5 27.5q-4 3 -15.5 5.5t-23.5 6t-21.5 8.5t-9.5 12q0 5 3 7t3 5q0 2 -1 3t-1 3q0 12 6 21t15.5 15t20.5 9t21 3h206q21 0 39.5 -10.5t27.5 -29.5q0 -2 1 -3q0 -1 1 -1v-11q1 -4 3.5 -6
t2.5 -6q0 -8 -11 -12t-16 -6q-2 0 -10.5 -2t-18.5 -4.5t-18.5 -4.5t-10.5 -2q-12 -3 -26.5 -8t-24.5 -13l-43 -34l-113 -108l-29 -32v-2q39 -9 71 -26.5t56 -49.5q23 -29 34 -64t20 -70q0 -2 2 -10t4 -17t3.5 -16.5t2.5 -9.5q5 -22 14.5 -44.5t23.5 -42t33 -33.5t44 -17
l31 -33v-2v-1q-5 -14 -13.5 -30t-28.5 -16h-156q-10 -1 -17 -1h-16h-5l-1 1q-6 7 -10 14q-4 6 -8 11.5t-6 9.5q-8 11 -14 23t-8 24l-33 177q-3 18 -10.5 38.5t-13.5 37.5q-8 21 -21.5 36.5t-37.5 15.5q-26 0 -47.5 -11t-41.5 -25q-4 -3 -9 -8q0 -1 -0.5 -6t-0.5 -6
q0 -4 -1 -14.5t-1 -12.5v-160q0 -2 1 -9.5t1 -11.5q0 -3 1 -9t3 -9q5 -9 21 -13t32.5 -7.5t29.5 -7.5t13 -12t-8 -12q0 -3 2.5 -3.5t2.5 -3.5q0 -18 -13.5 -29.5t-30.5 -14.5h-28t-42.5 -0.5t-50 -1t-50 -1t-42.5 -0.5h-28h-5q-8 0 -17.5 2.5t-17.5 7t-13.5 11.5t-5.5 16z
M178 203q-2 1 -2 -5.5t2 -5.5q1 2 1 6t-1 5zM446 508q-2 0 -2 -1t2 -1q1 0 1 1t-1 1z" />
    <glyph glyph-name="L" unicode="L" horiz-adv-x="788" 
d="M285 4v1l1 1l407 12l27 207v10l-32 -198q0 -2 -1 -5t-3 -4h-38q-82 0 -164 1t-165 1h-90q-5 0 -16 -1t-23.5 -1.5t-24 -1t-15.5 -0.5h-26h-28q-4 0 -11.5 2t-7.5 9q0 5 7 6.5t10 3.5l101 77l5 86v19t0.5 42t0.5 48.5v40.5v95v94q-1 23 -2 49t-8 49t-22 41.5t-43 26.5
q-2 1 -8.5 2.5t-8.5 1.5q-6 1 -17 2.5t-10 11.5q-1 -2 -2 -4.5t-1 -4.5q0 -5 4 -7q35 -8 55 -18t30.5 -26.5t13.5 -40.5t3 -58v-19l-12 -238q0 -1 -3 -1q-2 0 -2 1v230q0 3 -0.5 10t-1 16t-1 17t-0.5 12q-2 23 -9 44.5t-30 30.5q-8 3 -18 6t-19 3v-4h-4l-34 37q-1 1 -1 5
q0 20 15 35.5t35 15.5h2l236 -7l111 -19q1 0 4 -1t3 -3q0 -5 -1 -12t-3 -12q-2 -2 -4 -1t-3 -1q-5 -9 -10 -16.5t-14 -13.5q-1 -1 -2 -1h-2q-2 -1 -9.5 -2.5t-15.5 -3.5t-15.5 -4t-9.5 -2q-17 -5 -23.5 -16t-8.5 -27q0 -13 -1 -46t-2 -70t-1.5 -70t-0.5 -46v-119v-120
q0 -13 0.5 -25.5t4 -22.5t11.5 -17t24 -9h31h29q4 0 12.5 0.5t18 1t18 1t11.5 0.5q47 9 80.5 38t61.5 65q23 31 39 64q-1 1 -1 4q0 1 1 3l32 21h3q19 0 33 -13t14 -32v-4l-31 -194q0 -2 -3 -15.5t-5 -19.5q0 -2 -1.5 -4.5t-1.5 -3.5l-1 -2q-4 0 -16.5 -0.5t-16.5 -0.5h-25
h-25h-39.5t-60 0.5t-70 1t-70 1t-60 1t-39.5 0.5zM705 255q-2 0 -3.5 -2t-1.5 -3zM99 744q-10 0 -14 -3h6h40q-10 2 -17 2.5t-15 0.5zM144 740q2 1 -5 1t-5 -1q1 -1 5 -1t5 1z" />
    <glyph glyph-name="M" unicode="M" horiz-adv-x="1153" 
d="M50 28q0 16 11 30t28 17q9 2 20 2t20 4q19 9 26.5 24t10.5 35q0 3 2 16t2 18q0 3 1 11.5t1 10.5v129l8 258l1 1l2 1h1l1 -4v-20q0 -54 -1 -106.5t-1 -106.5q0 -32 0.5 -62.5t0.5 -60.5v-54q0 -3 -1.5 -14t-1.5 -14q-1 -12 -4.5 -28.5t-12.5 -26.5q-8 -8 -15 -13t-17 -10
q-7 -3 -15.5 -3.5t-16.5 -2t-15.5 -4.5t-11.5 -11q-6 -8 -6 -15v-3q2 -1 6.5 -5.5t5.5 -6.5q3 -1 8 -1h6l223 8q7 1 14 3q6 1 11.5 2t9.5 2q5 1 5.5 0.5t0.5 1.5q0 3 -2 7t-5 4q0 -8 -10 -11h-133q-4 0 -19 -0.5t-32 -1.5t-32 -1.5t-19 -0.5h-9h-11q-2 2 -4 3.5t-2 3.5
q0 6 4 8.5t9 3.5t10.5 1t7.5 1q29 3 46.5 15t27 30.5t12.5 41.5t5 48q0 2 0.5 7.5t0.5 12t0.5 12t0.5 8.5v138q0 6 1 31.5t1.5 54t1.5 54t1 31.5v36v35q-2 20 -5.5 42t-17.5 38q-9 11 -18 18t-22 12q-4 1 -13 3l-18 4t-16 5t-7 8q0 6 7 8h31h31q17 -1 44 -1t52 -1
q29 -1 60 -2l2 -1l235 -482l27 -47l258 530h205l-170 9h-41l-210 -423q-1 0 -4.5 -6t-8 -14.5t-9.5 -17t-8 -13.5q-2 -4 -5 -8.5t-7 -7.5l-1 2l-54 118v1q0 3 3 3h1l51 -104l3 3l234 491h114l165 -22q2 0 2 -2v-4q0 -5 0.5 -11t-4.5 -10q-8 -8 -14 -18.5t-17 -15.5
q-13 -6 -26 -7.5t-24.5 -4.5t-18.5 -11.5t-8 -28.5l-14 -293v-78v-109q0 -2 0.5 -8t0.5 -12.5t0.5 -12.5t0.5 -9q0 -8 4 -13q5 -6 20.5 -10t32 -7.5t29.5 -8.5t13 -13q0 -5 -4 -7t-4 -6q0 -2 1 -2.5t1 -3.5q0 -9 -4.5 -17t-15.5 -10l-124 -16h-151l-63 20q-6 4 -6 6
q0 5 0.5 9.5t2.5 9.5q1 2 3 2.5t4 2.5l10 16t14 13q11 4 22 6.5t20.5 6t15.5 11t6 22.5l16 396l-178 -357l-45 -109q-5 -10 -12.5 -23.5t-16.5 -20.5q-1 0 -5.5 -0.5t-6.5 -0.5h-1q-13 0 -25 8t-18 20l-239 495l-2 1q0 -11 -0.5 -34t-1 -52t-1 -61t-1 -61t-1 -52t-0.5 -34
v-39v-40q0 -7 1 -17.5t3.5 -20.5t7.5 -18.5t13 -11.5q5 -2 17 -4t17 -3q15 -3 26 -14t19 -23q4 2 6.5 -0.5t4 -6.5t1.5 -8.5v-6.5v-11q-1 -3 -8 -5q-3 -1 -12 -4.5t-12 -4.5h-160q-2 0 -13 -0.5t-25 -1t-28 -1.5t-21 -1q-2 0 -6.5 -1t-6.5 -1q0 -1 -2 -1q-3 0 -4 1l-31 30v4
zM308 52q0 1 -0.5 1t-0.5 -1t0.5 -1t0.5 1zM232 199v-34.5t3.5 -39t11.5 -36t24 -25.5q7 -4 15 -7.5t17 -3.5h3q-6 7 -14.5 11.5t-16.5 8.5t-15 9.5t-11 14.5q-1 5 -3.5 13.5t-4.5 13.5q0 4 -1 11.5l-2 15t-1.5 13t-0.5 6.5v207q0 -8 -1 -28t-1.5 -42.5t-1 -43t-0.5 -28.5
v-36zM951 621q-1 0 -1 -1.5t1 -1.5t1 1.5t-1 1.5zM952 633q-1 1 -1 -3t1 -2q5 2 0 5zM954 642q-2 2 -2 -2t2 -3q2 2 0 5zM1011 709q-5 0 -11 -2q-18 -8 -31.5 -23t-13.5 -36v-3q3 18 7.5 26.5t11 14t15.5 10t22 13.5zM1059 735q6 -6 7 -10q1 2 2 5t1 5h-10z" />
    <glyph glyph-name="N" unicode="N" horiz-adv-x="940" 
d="M268 427l9 -222q0 -2 1 -9.5t2 -18t2.5 -20.5t2.5 -16q0 -2 1.5 -9.5t2.5 -9.5q2 -6 12.5 -16t18.5 -12l45 -12q11 -3 20 -13t14 -18q8 0 10 -7t2 -13v-5.5t-4 -3.5l-113 -18q-1 0 -6.5 -0.5t-13 -0.5t-15 -0.5t-12.5 -0.5h-13h-11l-156 18q-6 2 -10 14t-4 16v4
q2 0 4 -1.5t3 -1.5h1l3 2q-2 3 -9 6t-7 6q0 5 5 8.5t8 4.5t14 3t14 4q2 0 8.5 1t13.5 2t13 1.5t8 0.5t8.5 1.5t9.5 2.5q10 2 16 8q4 6 7 16.5t5 22t2.5 22.5t0.5 18v24v23l-7 316q0 1 -1 12.5t-2 16.5q-1 11 -6 21t-10 21v1q0 3 3 4q3 -3 7 -9.5t7 -14t5 -15.5t2 -12
l18 -344v-32v-36q0 -14 -3 -33t-12 -33q-5 -6 -15.5 -9.5t-21.5 -6t-20 -4.5t-10 -5t-1 -6t-2 -6h7q28 0 45 8t26.5 22.5t13.5 35t6 45.5v48v48q0 11 -0.5 34t-1 51.5t-1.5 60t-1.5 60.5t-1.5 51.5t-1 33.5q-2 21 -5.5 38t-14.5 36t-21.5 33.5t-23 26t-28.5 19t-38 12.5
q-7 2 -7 8q0 5 6 6.5l10 2.5h39h38q10 0 25.5 -0.5t29.5 -0.5h34l3 -3l447 -522l2 12q0 3 1 19.5t1.5 38.5l1 44t0.5 34v90v90q-1 21 -1.5 42.5t-4.5 41t-14 37t-29 31.5q-8 6 -19 12t-22 6h-3q8 -2 14 -6.5t12 -7.5t12.5 -4t11.5 -6q15 -15 22.5 -30.5t10.5 -32t3 -35
v-39.5v-37l-8 -210l-4 -39q0 -4 -4 -4h-1l-205 254v1q0 3 2 4l2 -1l186 -215l4 -4q1 40 1 80v80v94q-1 19 -1.5 38.5t-5.5 39.5q-6 25 -29 34.5t-46 11.5q-2 0 -9 0.5t-14.5 1t-14 1t-8.5 0.5q0 3 -1.5 12.5t-1.5 12.5q-1 8 -4 9t-3 5q0 19 14 32t33 15q7 0 25.5 1t39 2
t39 1.5t25.5 0.5h41h31l95 -16q7 -1 11 -9.5t4 -14.5t-3.5 -9.5t-6.5 -9.5q-9 -17 -23.5 -22.5t-30 -9t-29.5 -9.5t-22 -24q-2 -5 -4 -11t-2 -11l-10 -523l-15 -87q0 -2 -1 -6t-3 -5q-23 0 -39 5.5t-31 22.5l-401 469v-69zM103 31q4 0 14.5 -0.5t21.5 -1t21.5 -1t14.5 -0.5
h47h47q3 0 10.5 0.5t16 1t16 1t10.5 0.5h-219zM76 47q0 -6 5 -10.5t11 -4.5h4q-1 0 -6.5 2t-5.5 4v9h-8zM376 34h5v1l-1 1zM608 707q0 2 -1.5 2t-1.5 -2q0 -1 1.5 -1t1.5 1z" />
    <glyph glyph-name="O" unicode="O" horiz-adv-x="854" 
d="M59 228q0 3 2 3h2q31 -66 80.5 -116t118.5 -76q9 -4 24 -8.5t26 -4.5h2q-63 17 -112 51.5t-82 82t-50.5 105.5t-17.5 122q0 39 10 78.5t27.5 76t42 68.5t53.5 58q0 1 5 5t11.5 9t13.5 10.5t11 8.5q1 0 4 2.5t4 2.5l1 1q-4 0 -8 -4q-36 -23 -68 -49.5t-57 -62.5l-7 -10.5
t-10.5 -16.5t-10.5 -16.5t-6 -10.5q-4 0 -4 3v1q25 54 62 98.5t83 76t100 48.5t115 17q39 0 78 -6.5t75 -23.5q51 -23 92.5 -60t71 -83t45.5 -99t16 -108q0 -81 -31.5 -155t-85.5 -131t-126.5 -90.5t-154.5 -33.5q-58 0 -111.5 16.5t-99 47t-80 74.5t-54.5 98v1zM332 23
q-2 0 -2 -1.5t2 -1.5q1 0 1 1.5t-1 1.5zM326 23q0 1 -2 1t-2 -1t2 -1t2 1zM321 24q1 2 -3 2t-2 -2q2 -3 5 0zM69 391q0 -74 23.5 -139t67 -113.5t105 -76.5t138.5 -28q75 0 139.5 30.5t115.5 85.5q48 53 75 116.5t27 134.5q0 52 -16 101.5t-44.5 92.5t-68.5 76t-89 52
q-27 11 -56.5 15t-58.5 4q-59 0 -109.5 -16.5t-92.5 -47t-75 -73.5t-55 -96q-12 -28 -19 -58t-7 -60zM172 406q0 53 14.5 111t44.5 106t75 79.5t107 31.5q65 0 111 -33t75.5 -83.5t43.5 -111t14 -115.5q0 -53 -13.5 -113.5t-43 -112t-75 -86t-109.5 -34.5q-59 0 -108.5 29
t-78.5 80q-17 29 -26.5 61t-16.5 64q-8 32 -11 63.5t-3 63.5zM226 296q5 -27 12.5 -54.5t20 -53t30 -46.5t43.5 -36q41 -23 84 -23q55 0 93.5 31.5t62.5 78t34.5 100.5t10.5 98q0 46 -11 98.5t-35.5 97.5t-63.5 74.5t-95 29.5q-39 0 -67.5 -14.5t-50 -38t-37 -54
t-27.5 -63.5l-1 -3q-4 0 -4 3v3q0 2 1 8t3 8q1 3 3.5 13t4.5 12q18 52 51.5 91.5t87.5 56.5h-1q-12 0 -28 -7t-26 -14q-34 -21 -58.5 -54t-40.5 -71.5t-24 -80t-8 -79.5q0 -54 11 -112q9 -47 24 -90t45 -79q2 -1 3 -2.5t3 -2.5v1q-28 36 -39 80t-16 89v4q0 4 2 4q3 0 3 -3z
M280 118q-2 0 -2 -1.5t2 -1.5q1 0 1 1.5t-1 1.5zM278 120q-1 0 -1 -1.5t1 -1.5q2 0 2 1.5t-2 1.5zM277 121q-1 0 -1 -1.5t1 -1.5t1 1.5t-1 1.5zM239 710q0 -1 -1 -1q1 0 1 1zM381 714q0 1 -1 1t-1 -1t1 -1t1 1z" />
    <glyph glyph-name="P" unicode="P" horiz-adv-x="739" 
d="M57 14q0 1 -0.5 5.5t-0.5 6.5q0 18 11 32.5t25 23.5q4 1 16 6t16 6q14 5 16.5 17t3.5 26l4 79q0 94 1 186.5t1 186.5v10q0 2 -0.5 9t-1 15.5t-1 16t-0.5 10.5l-2 16t-9 13q-22 6 -37 16t-30 27q-4 5 -6.5 10t-2.5 13q0 2 0.5 5.5t3.5 3.5q29 6 59.5 12.5t59.5 6.5h251
q2 0 10.5 -0.5t19 -1.5t21 -2.5t15.5 -2.5q44 -6 81 -22t63.5 -42t41.5 -62t15 -83q0 -77 -44 -127t-116 -70q-20 -5 -41 -9.5t-41 -4.5q0 4 5 5q2 0 10 2t17 4t17 4t10 2q35 10 65 26t51.5 38.5t34 53t12.5 68.5q0 94 -76 151q-1 0 -2 1l-2 2q-3 1 -12 6t-12 6l-4 2h-2h-1
q51 -23 75.5 -65t24.5 -96q0 -61 -29.5 -97.5t-74 -56t-98 -26t-101.5 -6.5q-20 0 -39.5 0.5t-39.5 0.5h-8q-1 -6 -2 -20.5t-2 -30.5t-1.5 -30.5t-0.5 -20.5v-17q0 -30 1.5 -61t2.5 -62q2 -9 2.5 -19.5t5.5 -18.5q13 -22 35 -30q3 -2 7.5 -3t7.5 -3q3 0 9 -0.5t12.5 -1.5
t11 -3.5t4.5 -7.5q0 -3 -2.5 -6.5t-5.5 -3.5h-230l202 -13h14h18t19 1v20q0 2 -2 5.5t-2 4.5q-8 14 -21.5 16t-26.5 8q-14 5 -24 16t-10 25v93h6v-5q0 -2 0.5 -3.5t0.5 -3.5q0 -3 0.5 -12t1 -19t1 -19t0.5 -12t1 -11.5t1 -11.5q2 -4 5.5 -7.5l6.5 -6.5q8 -8 18 -8.5t20 -3.5
q27 -8 35.5 -26t8.5 -44v-11q-1 0 -4 -0.5t-4 -0.5q-5 0 -12.5 -1t-15 -1.5t-13 -1t-6.5 -0.5h-210h-5.5t-10 0.5t-10.5 0.5h-7q-14 2 -25.5 5t-24.5 7zM280 395q21 -3 42 -2.5t42 0.5q45 0 86 10t73 44q-25 -20 -53.5 -26.5t-60.5 -6.5h-18q-2 0 -14 1.5t-18 2.5
q-2 0 -6.5 0.5t-4.5 4.5v2q28 0 53.5 2t47.5 9.5t39.5 23.5t29.5 44q7 17 10 35t3 36q0 36 -13 58t-35 34t-50 16.5t-58 4.5q-17 0 -33.5 -0.5t-31.5 -4.5v-138v-12.5t-0.5 -20t-0.5 -20v-12.5q0 -2 -0.5 -7t-0.5 -7h-2q-4 0 -4 6l-22 203v-280zM569 718q0 1 -1.5 1t-1.5 -1
t1.5 -1t1.5 1zM565 719q0 2 -1 2t-1 -2q0 -1 1 -1t1 1zM561 721q0 1 -1 1t-1 -1q0 -2 1 -2t1 2zM557 722q0 1 -1 1t-1 -1t1 -1t1 1z" />
    <glyph glyph-name="Q" unicode="Q" 
d="M255 -147q-5 0 -9 -0.5t-8 -3.5t-6 -8.5t-3 -10.5q-5 -19 -8 -39.5t-9.5 -37t-19.5 -27t-40 -10.5q-30 0 -49.5 20t-19.5 50q0 24 12.5 48t32 45t42.5 37.5t43 24.5h1q1 0 1 -2q0 -3 -1 -3q-19 -11 -40 -27t-39 -35.5t-30 -41.5t-12 -46q0 -23 16.5 -40.5t40.5 -17.5
t35 10.5t16 26.5t6.5 35t5.5 35t14 26.5t32 10.5q13 0 26 -4.5t24 -11.5l135 -85q27 -17 60.5 -26.5t65.5 -9.5q16 0 32.5 1.5t31.5 7.5h-1h-1q-14 -3 -27.5 -4.5t-29.5 -1.5q-30 0 -62 9t-58 26l-137 89q-13 9 -29 15.5t-32 6.5q-24 0 -36 -10t-17.5 -25.5t-7.5 -33.5
t-5.5 -33.5t-12 -25.5t-27.5 -10q-16 0 -27.5 11t-11.5 28q0 15 8.5 32t21 32t27 27.5t26.5 20.5q3 1 7.5 4t9.5 5.5t8.5 5t4.5 2.5l243 102l22 11q-20 0 -38.5 -2.5t-36.5 -2.5q-70 0 -134 30q-47 22 -83.5 56t-61.5 76t-38 91t-13 100q0 94 43.5 174.5t118.5 136.5
q2 1 13.5 8t16.5 10q2 2 10 6l10 5h-1q-6 -2 -11 -5l-16 -8q-65 -35 -113.5 -96t-70.5 -131q-9 -29 -12.5 -59t-3.5 -60q0 -69 25 -136t73 -118l20 -20q1 -1 5.5 -5t10 -8t10 -8t5.5 -5l3 -2q-2 -3 -4 -3h-2q-81 60 -122 142t-41 182q0 78 26 142.5t74 125.5q55 66 132 101
t163 35q34 0 67 -4.5t65 -16.5q55 -21 100 -58t77 -84.5t50 -103.5t18 -114q0 -42 -9 -82t-25 -78q-35 -81 -90.5 -135t-130.5 -99q-5 -3 -17.5 -9t-26.5 -12.5t-26 -12.5t-17 -9q-3 -2 -11 -5t-16.5 -6.5t-16.5 -6.5t-11 -4l1 -2l131 -75q18 -10 39 -18t42 -8q25 0 38.5 9
t29.5 27q1 1 5 5.5t8.5 9t8 9t5.5 6.5t9 5t9 5q2 1 5.5 2.5t4.5 1.5h1h2q16 -5 28.5 -15t12.5 -28q0 -22 -15 -41.5t-29 -34.5q-38 -43 -83 -66.5t-102 -23.5q-34 0 -71.5 9.5t-66.5 29.5l-140 92q-9 6 -20.5 10.5t-24.5 4.5zM638 -254q0 1 -0.5 1t-0.5 -1q0 -2 0.5 -2
t0.5 2zM642 -253q0 1 -0.5 1t-0.5 -1t0.5 -1t0.5 1zM646 -252q0 2 -0.5 2t-0.5 -2q0 -1 0.5 -1t0.5 1zM649 -249q-1 0 -1 -1.5t1 -1.5t1 1.5t-1 1.5zM652 -247q-2 0 -2 -1.5t2 -1.5q1 0 1 1.5t-1 1.5zM405 52q0 2 -1 2t-1 -2q0 -1 1 -1t1 1zM207 399q0 -42 6 -90t21.5 -93.5
t42 -83.5t68.5 -60q11 -6 25.5 -12t28.5 -6h1q-41 12 -68 36t-45 55.5t-27.5 68t-14.5 74.5v3q0 2 2 2q3 0 3 -1q8 -39 21.5 -76.5t35.5 -67t54 -47.5t77 -18q56 0 94 30.5t61.5 76t34 98.5t10.5 99q0 47 -10.5 100t-34.5 97.5t-62.5 74t-95.5 29.5q-39 0 -68 -14.5t-51 -39
t-37.5 -56t-27.5 -64.5l-1 -1h-1l-3 1v2q4 18 9.5 35t13.5 34q17 37 36.5 62.5t44 41t55 22t70.5 5.5q-10 2 -20 2.5t-20 0.5q-56 0 -97 -26.5t-68 -68t-42.5 -92t-20.5 -98.5v-35zM486 715q-2 0 -2 -1.5t2 -1.5q1 0 1 1.5t-1 1.5zM482 715q0 1 -2 1t-2 -1t2 -1t2 1z
M300 718q-2 0 -2 -1.5t2 -1.5q1 0 1 1.5t-1 1.5zM302 719q-1 0 -1 -1.5t1 -1.5q2 0 2 1.5t-2 1.5z" />
    <glyph glyph-name="R" unicode="R" 
d="M636 0q-16 1 -30 3.5t-26 8t-21.5 15.5t-16.5 27q-3 6 -7.5 18t-5.5 19l-27 142q0 2 -1.5 7.5t-3 12t-3.5 12.5l-3 9q-8 24 -20 39.5t-28.5 24t-37 11.5t-43.5 3h-4q-3 0 -7 -0.5t-8 -0.5h-10l-4 -2l-1 -16v-47v-65q0 -5 0.5 -16.5t1 -25t1 -25.5t0.5 -16q2 -18 5 -29.5
t23 -17.5q21 -3 42 -6.5t41 -13.5q3 -1 3 -9q0 -5 -6.5 -7t-8.5 -5q7 2 7 -3q0 -9 -6.5 -20t-15.5 -12l-124 -15h-86l-122 15q-11 1 -17 12.5t-6 22.5q6 0 8 -2v3q-7 4 -10 7t-3 12q0 4 4 4q4 1 16 4.5t15 4.5q1 0 3 0.5t3 0.5q2 0 7 0.5t11 1.5t10.5 1.5t6.5 0.5
q5 2 10.5 3t8.5 3q4 2 7 7.5t5 12t3 13.5t1 11q0 3 0.5 9t0.5 7v419l-4 66q0 1 -1 9t-3 12q-1 6 -3.5 11.5t-8.5 7.5q-12 4 -22.5 7t-23.5 5q-3 -4 -5 -4q-1 0 -2 1q-5 5 -14 15.5t-10 12.5q0 2 -2 3t-2 3l-2 2q0 18 16 32t33 14l305 6h19q33 0 68 -3.5t67.5 -14t61 -29
t49.5 -48.5q35 -49 35 -108v-16q0 -1 -1 -5.5t-1 -6.5v-4q0 -4 -2 -4h-2l-2 1q0 8 0.5 15t0.5 15q0 38 -13.5 69t-36.5 54t-54 38.5t-67 22.5q-23 5 -44.5 5.5t-44.5 0.5h-33l-303 -16q-1 0 -3.5 -1t-4.5 -2h2l293 7h33q33 0 65.5 -3t64.5 -13q53 -17 88 -59t35 -99
q0 -49 -27.5 -91.5t-74.5 -58.5l-83 -30q29 -14 51.5 -26.5t39.5 -29t29 -38.5t20 -53q7 -28 12.5 -57.5t16 -56t29 -47t50.5 -29.5q3 -1 11 -1.5t16 -2t14 -4t6 -7.5t-4 -7l-8 -4h-24h-24q-6 0 -20.5 0.5t-30.5 1t-30.5 1.5t-20.5 1q-14 1 -23.5 2.5t-17 5.5t-13.5 11.5
t-12 19.5q0 2 -1 4t-1 3q-2 5 -5 14.5t-3 10.5l-20 110v-6l12 -92q1 -13 4.5 -26.5t9.5 -26t15.5 -22t23.5 -13.5q4 0 12.5 -1.5t17.5 -2.5t17.5 -2.5t11.5 -1.5q6 0 21.5 -1.5t33.5 -2.5t33.5 -2t21.5 -1h7q12 0 23 9.5t11 23.5q0 2 -1 4l-16 16l-6.5 1.5t-14 3.5t-14 3.5
t-8.5 1.5q-36 14 -49.5 40t-21.5 62q0 3 -1.5 9t-2.5 13t-2.5 13.5t-1.5 8.5v4q0 4 3 4q2 0 1.5 -1t1.5 -3q0 -2 2.5 -11t4.5 -19.5t4.5 -19.5t2.5 -11q9 -38 32 -59.5t62 -21.5q0 4 3 4h1q3 -3 13.5 -13t13.5 -13q1 -2 5 -6.5t5 -5.5v-3q0 -20 -13.5 -34.5t-32.5 -16.5h-20
h-22q-6 0 -21 0.5t-32.5 1t-32.5 1.5t-21 1zM538 221q-1 0 -1 -2t1 -2q2 0 2 2t-2 2zM537 226q-1 0 -1 -0.5t1 -0.5t1 0.5t-1 0.5zM295 454q0 -4 0.5 -10.5t0.5 -13.5t0.5 -12t0.5 -6l2 -6l121 9q31 2 62 15.5t51 36.5q-29 -20 -54.5 -26t-60.5 -6h-29t-29 3v2q0 4 4 3
q4 0 12.5 1t18.5 2t18.5 2t12.5 2q2 0 11.5 2t13.5 3q42 11 67.5 45t25.5 76q0 18 -3.5 34t-14.5 31q-21 34 -52.5 43t-67.5 9q-20 0 -36.5 -1t-34.5 -4q-1 0 -1.5 -0.5t-1.5 -0.5h-1l-8 -210h-2q-4 0 -4 5l-17 201l-1 -16q0 -3 -0.5 -19.5t-1.5 -38t-1.5 -43t-0.5 -33.5
v-40v-39zM154 711q-1 0 -1 -1.5t1 -1.5t1 1.5t-1 1.5zM151 711q0 1 -0.5 1t-0.5 -1t0.5 -1t0.5 1zM147 712q0 2 -1 2t-1 -2q0 -1 1 -1t1 1zM143 714q0 1 -2 1t-2 -1q0 -2 2 -2t2 2zM138 715q0 1 -2 1t-2 -1t2 -1t2 1zM133 716q1 2 -3 2t-3 -2q3 -2 6 0zM126 718q1 1 -3 1
t-2 -1q2 -5 5 0zM119 719q2 1 -3 1t-3 -1q3 -3 6 0zM94 724q1 -4 5.5 -4h7.5h4q-5 2 -9 2.5t-7 5.5q-1 0 -1 -1v-3z" />
    <glyph glyph-name="S" unicode="S" horiz-adv-x="668" 
d="M164 33q-1 0 -4 -8.5t-5 -10.5q-3 -2 -14 -11t-14 -11q-1 -1 -4 -1q-2 0 -6.5 2t-5.5 2q-17 6 -28 20.5t-12 33.5l-15 203v9q0 22 4.5 28t27.5 6q15 0 29 -8.5t23 -21.5q16 -34 34.5 -68t42.5 -61t55.5 -44t73.5 -17q25 0 47.5 8t39.5 22.5t27 35.5t10 48q0 19 -7.5 36.5
t-20 32t-28.5 25.5t-34 17l-165 60q-32 12 -59.5 32t-48 46.5t-32.5 58t-12 66.5q0 45 20 81.5t53 66.5q37 33 83 48t94 15q39 0 75.5 -9t73.5 -26q3 2 4 7t4 7q4 3 13.5 10t11.5 8q1 2 4 2q10 0 22.5 -5.5t17.5 -14.5l7 -14l11 -84v-8v-11q0 -6 -0.5 -22.5t-1 -34.5
t-1 -34.5t-0.5 -23.5q0 -3 -3 -4h-5q-18 0 -32.5 9.5t-26.5 22.5q-14 29 -30 52.5t-38 45.5v1l2 3q23 -17 40.5 -42.5t30.5 -51.5l2 -1q12 -11 23.5 -19.5t28.5 -8.5v9q0 13 -1 32t-1.5 36.5t-1 30.5t-0.5 14l-13 84q-2 11 -11.5 15.5t-19.5 4.5q-2 -1 -6 -4t-5 -4
q-7 -6 -9 -16t-10 -16q-34 15 -70 25.5t-74 10.5q-65 0 -125 -31q-6 -3 -13.5 -7.5t-11.5 -9.5q32 22 67 31.5t75 9.5h25q35 -3 67.5 -15t62.5 -27h3l3 3q2 2 3 2.5t2 2.5q5 6 9.5 19t12.5 13q2 0 6.5 -0.5t4.5 -5.5l23 -172v-4q0 -11 -11 -11q-3 0 -5 0.5t-4 4.5
q-15 32 -35 62t-45.5 53.5t-57.5 38t-70 14.5q-20 0 -37.5 -7t-37.5 -16q-29 -14 -46.5 -42t-17.5 -60q0 -37 21 -65.5t54 -42.5q10 -5 20 -6t20 -4l153 -53q29 -10 55.5 -28t46 -42t31 -53.5t11.5 -61.5q0 -37 -13 -69.5t-35.5 -59.5t-52 -48t-61.5 -36h2q7 0 16 4t15 7
q31 15 58 36t46.5 48t30.5 58.5t11 67.5q0 51 -25.5 95.5t-67.5 74.5q-15 11 -33.5 20.5t-34.5 17.5v1q0 3 3 3h1q36 -14 67.5 -35t55.5 -49t37.5 -62.5t13.5 -74.5q0 -38 -13.5 -74.5t-37 -67.5t-54.5 -55t-66 -36q-26 -9 -52.5 -14t-53.5 -5q-48 0 -90 13t-84 33h-2z
M419 27q-2 0 -2 -1.5t2 -1.5q1 0 1 1.5t-1 1.5zM171 701q0 1 -1.5 -0.5t0.5 -1.5q1 0 1 2z" />
    <glyph glyph-name="T" unicode="T" horiz-adv-x="897" 
d="M274 20q0 2 1 2l114 -10h17h25q6 0 16.5 0.5t21 0.5t18.5 0.5t10 0.5l132 14q7 1 12 5.5t5 11.5h-11q0 -5 -1 -9t-8 -4h-349q-3 0 -4.5 3.5t-1.5 5.5q0 6 7 8q12 5 25.5 4.5t25.5 2.5q11 3 22.5 10.5t20.5 18t15 22.5t6 24v108l-7 466h-3h-2q-1 0 -1 1q-15 2 -27.5 2
h-27.5q-41 0 -83.5 -8t-76.5 -35q-12 -11 -22.5 -22t-21.5 -25q-7 -9 -9.5 -14l-7.5 -15q-4 -8 -6 -18t-13 -10q-2 0 -6.5 0.5t-4.5 3.5v18l21 154l2 2h24q35 0 69 -2t69 -2h14l-133 12q-1 0 -15.5 0.5t-21.5 0.5h-10h-6l-2 -4l-23 -126q-2 -11 -2 -18.5v-18.5v-12
q0 -2 2 -7.5t3 -8.5q2 -6 8.5 -10t14.5 -3q3 0 5.5 3t5.5 3l5 -1h3q4 0 7 4.5l5 7.5q9 18 17 32.5t17.5 27t22 22.5t31.5 19h1l2 -2v-2l-2 -1q-13 -9 -23 -17t-21 -21l-10 -12.5t-9 -13.5q-2 -3 -6 -12.5t-6 -11.5q-2 -5 -4 -11.5t-5 -12.5t-7 -10.5t-10 -4.5q-26 0 -46 9
t-20 38v9l24 182l1 7h15q6 0 12.5 0.5t11.5 0.5h23h21q12 0 42.5 -1.5t65 -3t65 -2.5t42.5 -1h120h125q11 0 39.5 1t60.5 2t60.5 2t39.5 2h23l18 -166v-12q0 -20 -9.5 -38.5t-32.5 -18.5q-15 0 -27 10.5t-21 22.5q-14 18 -25.5 35t-25.5 30t-31.5 22t-42.5 12q-5 0 -16 1
t-23.5 2t-24 1.5t-15.5 0.5h-13h-13l-4 -78v-254l6 -177q0 -1 1.5 -14.5t2.5 -21.5q1 -11 8 -18.5t16.5 -12t20.5 -7t21 -3.5q3 0 9.5 -0.5t14 -1t14 -1t9.5 -0.5l1 -1v-10.5t1 -11t4 -8.5t10 -2l1 -3q0 -6 -5 -17t-10 -13l-149 -17h-104l-124 16v1v2zM507 119
q1 -18 10.5 -30.5t23.5 -20.5t30 -12t31 -4h7q-8 4 -13 8t-13 9l-3 2q-17 4 -29.5 7.5t-21 10.5t-13.5 18.5t-8 31.5q0 4 -1.5 16t-3 25.5t-3 25.5t-1.5 17v-17zM497 237q-1 0 -1 -1t1 -1q2 0 2 1t-2 1zM287 733q1 1 -1 1h-5h-5t-2 -1q2 -1 7 -1t6 1z" />
    <glyph glyph-name="U" unicode="U" horiz-adv-x="917" 
d="M154 279q0 44 0.5 87t0.5 86v42q0 7 -1 24.5t-2 38t-2 38.5t-2 25q-1 9 -2 22t-7 20q-7 9 -20.5 14.5t-24.5 5.5h-5q0 -4 -4 -4l-37 38v3q0 19 15.5 34t35.5 15h151q3 0 14.5 -0.5t26.5 -1.5t30 -2.5t23 -2.5q3 0 11.5 -1t18.5 -2.5t18.5 -2.5t11.5 -2q4 1 8 -2.5t7.5 -9
t5.5 -11t2 -9.5q0 -2 -2 -2.5t-2 -2.5q0 -3 2.5 -5.5t2.5 -6.5q0 -6 -5.5 -10t-10.5 -5l-57 -15q-11 -3 -17 -12t-9 -20q-1 -3 -3 -13q-1 -4 -2 -9l-7 -97v-175l7 -122q2 -37 18 -62t41.5 -40.5t57.5 -22t65 -6.5q57 0 97.5 16.5t65.5 68.5q9 17 11 37q0 5 1.5 13.5t2.5 17
t2 15t1 7.5l8 256h4l1 -8q0 -2 0.5 -20.5t0.5 -29.5v-89v-90q-1 -24 -2.5 -51t-9.5 -51q-11 -35 -30.5 -57.5t-46 -35.5t-58.5 -18t-66 -5q-36 0 -70.5 8t-64.5 29h-1q0 -4 4 -4q33 -24 70.5 -31.5t76.5 -7.5q38 0 71 6t58.5 21t43 41t25.5 66q8 72 11 142.5t3 142.5v42.5
t-2 45t-7 44.5t-14 40q-7 12 -18.5 19.5t-24.5 12.5q-6 1 -15 1.5t-17.5 2t-14.5 5.5t-6 14q36 0 60 -7.5t39 -23t23 -40.5t11 -61q0 -2 0.5 -7.5t1 -12t1 -12t0.5 -8.5v-65v-67q0 -10 -1.5 -34.5t-2.5 -51.5t-2.5 -51.5t-1.5 -34.5q-11 -104 -66 -149t-159 -45
q-59 0 -110.5 20.5t-83.5 73.5q-7 12 -12 27t-7 29l-9 141v184q0 2 0.5 11.5t1 20.5t1.5 22.5t1 18.5q1 18 5 36.5t12 34t21 27.5t33 18q6 2 17.5 3t14.5 4h-292q39 -3 63.5 -19.5t30.5 -58.5q7 -51 9 -100.5t2 -100.5q0 -43 -1 -86t-1 -86q0 -38 3 -70t14.5 -59t32.5 -49
t57 -38q37 -17 76.5 -22.5t79.5 -5.5q39 0 80.5 6t78.5 22t65 43.5t42 70.5q1 2 3 11.5t4 13.5q1 3 2.5 11t1.5 10l12 145l5 229q1 29 8 60t30 50q12 11 28.5 15.5t31.5 7.5q-5 1 -5 9h-17l-182 -8h-5h-18.5t-16.5 6q-1 0 -1 3q0 1 -1 2l1 1l230 11h8q11 0 18.5 -7t7.5 -17
q0 -8 -4.5 -12t-10.5 -6t-13 -3t-11 -2q-24 -6 -36.5 -21.5t-17.5 -38.5q-1 -2 -1.5 -7.5t-0.5 -7.5l-15 -357q0 -2 -1 -9t-2 -15.5t-2.5 -17.5t-1.5 -13q-1 -5 -3 -16.5t-4 -15.5v-3l2 3q1 5 4.5 15t3.5 11q2 8 5 22.5t3 16.5l24 300h3q2 0 2 -1v-1l-8 -258q0 -2 -1 -10.5
t-2 -19t-2.5 -20.5t-2.5 -15q-11 -64 -40 -106.5t-71.5 -68t-96 -36t-113.5 -10.5q-42 0 -82.5 6t-78.5 22q-46 19 -73.5 45t-42.5 58t-19.5 71.5t-4.5 87.5zM345 113q0 -4 4 -4h2q0 4 -4 4h-2zM344 116q-1 0 -1 -1.5t1 -1.5t1 1.5t-1 1.5zM343 118q-2 0 -2 -1.5t2 -1.5
q1 0 1 1.5t-1 1.5zM341 119q-1 0 -1 -1.5t1 -1.5q2 0 2 1.5t-2 1.5zM340 120q-2 0 -2 -1t2 -1q1 0 1 1t-1 1zM338 122q-1 0 -1 -1.5t1 -1.5q2 0 2 1.5t-2 1.5zM337 123q-1 0 -1 -1.5t1 -1.5t1 1.5t-1 1.5zM336 124q-2 0 -2 -1t2 -1q1 0 1 1t-1 1zM334 126q-1 0 -1 -1.5
t1 -1.5q2 0 2 1.5t-2 1.5zM333 127q-1 0 -1 -1.5t1 -1.5t1 1.5t-1 1.5zM332 128q-2 0 -2 -1t2 -1q1 0 1 1t-1 1zM330 130q-1 0 -1 -1.5t1 -1.5q2 0 2 1.5t-2 1.5zM329 131q-1 0 -1 -1.5t1 -1.5t1 1.5t-1 1.5zM744 164q-1 0 -1 -0.5t1 -0.5t1 0.5t-1 0.5zM88 685
q-1 0 -1 -1.5t1 -1.5t1 1.5t-1 1.5z" />
    <glyph glyph-name="V" unicode="V" horiz-adv-x="871" 
d="M200 605q-1 1 -3.5 6.5t-5.5 12t-6 13.5t-5 11q-4 8 -11.5 18.5t-16.5 19.5t-19 15.5t-20 6.5h-2q2 -2 5 -5.5t5 -4.5l24 -12q1 0 4.5 -4.5t5.5 -6.5q2 -1 6.5 -8.5t6.5 -10.5q1 -2 4.5 -8.5t3.5 -7.5l155 -446v-2q0 -3 -4 -3l-166 422q-6 15 -15 30t-21 26l-3 1
q-2 2 -8 3t-8 3q-5 1 -16.5 3t-23.5 5t-21.5 7.5t-9.5 12.5v2l9 10l-2 1v3q0 6 3 17t10 12l125 18h116l108 -14q11 -1 17 -12.5t8 -19.5q0 -1 0.5 -5t0.5 -6q1 -3 3 -4.5t2 -4.5q0 -5 -4 -8t-9 -5.5t-10 -3.5t-8 -2q-2 0 -7 -1t-11.5 -2t-12 -2t-6.5 -1q-10 -2 -17.5 -7.5
t-7.5 -16.5t1 -20t4 -21q1 -4 3 -11.5t4 -15.5t4 -14.5t2 -7.5l111 -308l125 351q4 10 6.5 22t2.5 23q0 18 -18 24l-46 14q-4 1 -11.5 5t-7.5 8q0 5 3 8.5t3 4.5q0 4 -4 4v6q0 10 4 16.5t12 14.5q1 1 3.5 2.5t4.5 1.5l143 6l130 -6q5 0 11 -4q1 -5 1.5 -8t0.5 -7
q0 -8 -4 -17t-11 -17.5t-15 -14.5t-15 -9q-12 -4 -20.5 -5.5t-18.5 -8.5q-11 -8 -22 -25t-17 -28q-2 -3 -5 -10t-4 -8l-134 -356l-3 -6h-2q-2 0 -2 2v1l121 360q3 8 6.5 16.5t7.5 15.5q2 2 9 14t10 18q5 8 13 14.5t15 11.5q2 1 6.5 4t9.5 6.5t9.5 6.5t6.5 4l3 3
q-24 -5 -41 -16.5t-30 -30.5q-3 -3 -7 -9.5t-7.5 -12.5t-6.5 -10.5t-3 -5.5l-229 -602h-32zM426 712q-1 0 -1 -1t1 -1t1 1t-1 1zM74 718l1 -2v2l-1 1v-1zM790 734q11 0 13 -14q4 6 4 10l-1 1q-2 2 -5.5 2.5t-5.5 0.5h-113h108z" />
    <glyph glyph-name="W" unicode="W" horiz-adv-x="1274" 
d="M644 438q-1 -4 -6 -18t-7 -18q-2 -2 -1.5 -2.5t-1.5 -0.5q-3 0 -3 3v1l19 59l12 -24l180 -427q2 -6 5.5 -13t11.5 -7q2 0 5 5t4 7l168 486v3l-169 -467q-1 -1 -1 -2l-2 -2h-14l-199 499l-1 3h-1l-172 -498q-1 -1 -1 -2t-1 -2h-15l-266 598q-11 24 -32.5 49.5t-46.5 36.5
q-2 1 -8 2t-12.5 2.5t-11.5 4.5t-5 7q0 6 11.5 7.5t14.5 1.5h264q4 0 12 -2t8 -7v-2l-2 -4h2h1q1 0 3 1t4 1q-3 8 -11 13t-17 5l-241 11h-10q-16 0 -28.5 -4.5t-23.5 -16.5q-3 -3 -3 -10v-2q4 -9 11 -13.5t15 -7.5t16.5 -5t15.5 -6l2 -2q1 -1 2 -1q11 -11 23 -24t18 -27
l116 -262v-2q0 -1 1 -2v-2q0 -1 -3 -1q-2 0 -2 1l-112 241q-5 11 -13.5 25.5t-20 26.5t-25.5 19.5t-29 5.5q-8 7 -17 17t-15 17v2q0 14 7.5 23.5t18.5 15.5t24 9t25 3h9l265 -13q2 0 6 -2q9 -8 14.5 -17t5.5 -21h-3q1 -1 6 -5t5 -8q0 -9 -14.5 -13.5t-32 -8.5t-32 -8
t-14.5 -13q0 -8 3.5 -17.5t6.5 -17.5l148 -358h2l103 307v2q0 4 -3 10q-2 5 -5.5 14.5t-7.5 18.5t-7 16t-4 9l-5 10t-6 10q-6 7 -21 11t-30.5 7t-27.5 7.5t-12 13.5q0 4 3.5 6.5t3.5 6.5q0 2 -1.5 2.5t-1.5 3.5q0 12 11.5 23t22.5 13q6 1 20.5 2.5t31 3t31 2.5t20.5 1
q1 0 7.5 0.5t15 0.5t16 0.5t12.5 0.5q4 0 10.5 -0.5t13 -0.5t11.5 -0.5t6 -0.5l125 -17q7 -2 9.5 -10t2.5 -14t-4 -10q-6 -9 -11.5 -16t-15.5 -13q-7 -5 -16.5 -6.5t-18 -4t-14.5 -7.5t-6 -16v-1q0 -4 1.5 -10.5t1.5 -8.5l19 -68l115 -296l122 344q3 8 3.5 16.5t0.5 17.5v10
q-5 14 -17 18q-30 6 -57 16q-3 3 -6 6.5t-3 8.5v1l8 9h-6q0 11 4 25.5t18 16.5q7 0 24.5 1.5t37 2.5t37.5 2.5t25 1.5h44h47q1 0 7.5 -0.5t14.5 -1t16 -1.5t13 -1q8 -1 9.5 -6.5t2.5 -13.5v-4v-11t-4 -8q-8 -5 -12 -13.5t-12 -14.5q-1 -1 -5 -2.5t-6 -2.5
q-22 -10 -39.5 -17.5t-28.5 -29.5l-25 -55l-219 -591q-2 -5 -7 -14.5t-11 -9.5q-5 0 -6.5 2t-4.5 2q-1 0 -3 -2.5t-4 -2.5h-1q-2 0 -5.5 5.5t-5.5 7.5l-3 6t-2 5l-178 449l-2 2h-1zM375 445q-1 0 -1 -1.5t1 -1.5t1 1.5t-1 1.5zM374 448q-2 0 -2 -1t2 -1q1 0 1 1t-1 1z
M372 452q-1 0 -1 -1t1 -1q2 0 2 1t-2 1zM371 454q-1 0 -1 -0.5t1 -0.5t1 0.5t-1 0.5zM370 458q-2 0 -2 -0.5t2 -0.5q1 0 1 0.5t-1 0.5zM368 461q-1 0 -1 -0.5t1 -0.5q2 0 2 0.5t-2 0.5zM367 465q-1 0 -1 -0.5t1 -0.5t1 0.5t-1 0.5zM364 470q0 -2 2 -4v2q0 2 -2 4v-2z
M362 477q0 -3 1 -4v1q0 3 -1 4v-1zM360 482l-52 142q-5 17 -5 30q0 14 7 20.5t17 11t19.5 9t15.5 14.5h-6q-25 0 -42 -14t-17 -40q0 -11 2 -20.5t6 -19.5l55 -135v2zM1031 494q-1 0 -1 -0.5t1 -0.5t1 0.5t-1 0.5zM1032 498v-1l2 3v1zM1035 505q-1 0 -1 -0.5t1 -0.5t1 0.5
t-1 0.5zM1036 509q-1 0 -1 -0.5t1 -0.5q2 0 2 0.5t-2 0.5zM1038 513q-2 0 -2 -1t2 -1q1 0 1 1t-1 1zM1039 517q-1 0 -1 -1t1 -1t1 1t-1 1z" />
    <glyph glyph-name="X" unicode="X" horiz-adv-x="956" 
d="M703 0q-35 0 -68.5 -0.5t-68.5 -0.5h-24q-15 2 -33 10.5t-18 27.5q0 10 8 9q5 28 30 34q2 1 7.5 2t12 2.5t12 3t8.5 2.5l3 1v3q0 5 -2 8q-3 6 -9.5 18.5t-6.5 13.5l-84 126q-1 2 -9 12t-11 14q0 5 -4 5l-3 -3l-92 -134q-1 -1 -7 -11t-8 -14l-4.5 -9t-4.5 -10q-2 -3 -2 -7
t6 -6t8 -3q2 -2 7 -3t6 -1l55 -10l34 -36v-4h-6q-5 -15 -14.5 -26t-25.5 -14h-29q-34 0 -67 0.5t-66 0.5q-24 0 -48 -0.5t-48 -0.5q-10 0 -22 2.5t-22.5 8t-17.5 14.5t-7 22l3 3h1l4 -2h2l1 2v1q-12 4 -19 15q0 2 1 2t3 2q3 1 13.5 5t13.5 5q17 3 35 5t34.5 6.5t31 13
t25.5 24.5l169 236l1 3v1l-166 232l-36 43q-6 7 -17.5 14t-24.5 12t-26 8t-22 3q-3 0 -3.5 -2t-3.5 -2l-32 34q-1 1 -1 5q0 15 15 30.5t31 15.5h323l6 -3q10 -6 17 -15.5t7 -21.5q0 -14 -7 -22.5t-17.5 -12.5t-23 -5t-22.5 -1q0 6 9.5 6.5t21.5 3t21.5 9t9.5 23.5
q0 10 -8 21t-20 11h-4l-311 -8q-10 0 -21 -10t-11 -21q0 -3 1 -3t4 -5q2 -1 5 -4.5t5 -4.5q10 -1 26 -3.5t32 -7.5t30.5 -12t21.5 -16l224 -289v-2q0 -5 -3.5 -11t-8 -13t-9.5 -13.5t-7 -10.5l2 2q1 0 1 1t1 2l2 2q3 5 7 11.5t8 12.5q4 7 10 15v4l-183 256q-20 26 -45 47.5
t-57 31.5q-5 1 -12 2.5t-13 2.5q-5 1 -16 2t-11 10q0 5 5.5 7t10.5 2h309q5 0 8.5 -1.5t3.5 -7.5v-3t-1 -4q-6 -4 -12 -4q-1 0 -5.5 -0.5t-10 -0.5t-10 -0.5t-5.5 -0.5q-13 -2 -26 -11t-13 -23q0 -7 4 -16.5t8 -14.5l87 -134l48 -63l114 160q8 11 14 25t6 28q0 22 -14 31.5
t-30.5 14t-30 7t-13.5 9.5q0 6 8 7.5t12 1.5h258q14 0 14 -13q6 0 11 2t5 10q0 4 -3.5 8t-7.5 4l-148 11h-26h-29q-6 0 -20.5 -1t-31 -2t-31 -2.5t-20.5 -1.5q-6 -4 -11.5 -8.5t-5.5 -12.5q0 -5 2 -9.5t2 -9.5h-4q-2 5 -5 9.5t-3 9.5q0 9 4.5 15.5t12.5 12.5l2 1l121 11h52
l165 -11l1 -1q2 -5 2.5 -10t0.5 -8q-2 -17 -14 -30.5t-25 -22.5q-1 -1 -2 -1q-1 -1 -2 -1q-3 0 -10 -1.5t-14.5 -3.5t-14.5 -3.5t-9 -1.5q-19 -8 -34.5 -18t-28.5 -25l-57 -66l-100 -136l167 -236q23 -31 52.5 -59t66.5 -41q5 -2 12.5 -4.5t12.5 -2.5q3 0 2.5 2t2.5 2h1
q5 -4 16.5 -16.5t15.5 -16.5t4 -6q0 -23 -17.5 -37.5t-38.5 -14.5q-36 0 -71.5 2t-71.5 2zM379 303q-1 0 -1 -1.5t1 -1.5t1 1.5t-1 1.5zM383 307q0 1 -1.5 -0.5t0.5 -1.5q1 0 1 2zM386 311q0 1 -1.5 -0.5t-0.5 -1.5q2 0 2 2zM388 315q0 1 -1 -0.5t0 -1.5t1 2zM391 319
q0 1 -1.5 -0.5t0.5 -1.5q1 0 1 2zM545 375q-1 0 -1 -1.5t1 -1.5t1 1.5t-1 1.5zM544 378q-2 0 -2 -1.5t2 -1.5q1 0 1 1.5t-1 1.5zM542 379q-1 0 -1 -1.5t1 -1.5q2 0 2 1.5t-2 1.5zM541 382q-1 0 -1 -1.5t1 -1.5t1 1.5t-1 1.5zM540 383q-2 0 -2 -1.5t2 -1.5q1 0 1 1.5t-1 1.5z
M538 386q-1 0 -1 -1.5t1 -1.5q2 0 2 1.5t-2 1.5zM537 387q-1 0 -1 -0.5t1 -0.5t1 0.5t-1 0.5zM536 390q-2 0 -2 -1.5t2 -1.5q1 0 1 1.5t-1 1.5zM534 391q-1 0 -1 -0.5t1 -0.5q2 0 2 0.5t-2 0.5zM533 394q-1 0 -1 -1.5t1 -1.5t1 1.5t-1 1.5zM532 395q-2 0 -2 -0.5t2 -0.5
q1 0 1 0.5t-1 0.5zM530 398q-1 0 -1 -1.5t1 -1.5q2 0 2 1.5t-2 1.5zM529 399q-1 0 -1 -0.5t1 -0.5t1 0.5t-1 0.5zM511 423q2 -2 7 -10t7 -10l3 -3v2l-14 21v5l123 158l58 62q19 20 37.5 27.5t44.5 15.5q8 3 15.5 9t14.5 11l2 1h-2q-40 0 -73.5 -20t-58.5 -48
q-3 -3 -8.5 -9.5l-11 -13t-10 -11.5t-5.5 -6l-126 -172q-3 -2 -3 -6v-3z" />
    <glyph glyph-name="Y" unicode="Y" horiz-adv-x="897" 
d="M266 24q0 3 0.5 12.5t7.5 7.5q6 11 13 21.5t20 15.5q8 2 19.5 4t18.5 7q9 6 12.5 19t4.5 23q2 4 3 16.5t1 16.5v37v37q0 1 -0.5 8t-1 15l-1 16t-1.5 12q0 1 -1 8t-1 10q0 2 -1 5t-2 5l-98 167l-92 132q-1 1 -4 5t-7 9l-8 10t-7 7q-16 20 -38.5 24.5t-46.5 7.5
q-3 0 -4 4.5t-1.5 10.5t-2.5 11.5t-7 7.5v5q0 11 5 20t16 14q6 0 21 1.5t32 3t32 2.5t21 1h55h58q6 0 21.5 -1t33 -2t33 -2.5t21.5 -1.5q11 -2 12.5 -4.5t3.5 -12.5v-2q0 -9 -1 -12.5t-2.5 -4.5t-4 -2.5t-5.5 -5.5l-10 -16t-14 -11q-3 -1 -11 -4t-9 -3t-8.5 -2t-9.5 -2
q-5 -1 -5 -5q0 -5 3 -10.5t5 -9.5q1 -2 4 -7.5t7 -11.5t7 -11.5t5 -7.5q0 -2 -4 -2q-3 0 -3 2q-1 1 -3.5 5.5t-6 9.5t-6.5 9t-4 6q-4 7 -8.5 15t-4.5 17v4q9 5 22 7t19 8t11.5 14t11.5 13q7 4 9.5 3t2.5 11q0 5 -4 8.5t-9 2.5q-5 0 -18 0.5t-27.5 1t-27 1t-17.5 0.5h-23h-19
l-155 -8q-8 0 -18 -3t-10 -13v-4q1 0 3 -1t4 -1h1l-2 4t-1 3q0 7 8 8t13 1h267q6 0 12 -1t6 -9t-12.5 -10t-28 -5t-28 -10t-12.5 -25q0 -10 4.5 -21t9.5 -19l159 -228l1 -1h2q1 1 3 2.5t2 2.5l147 204q8 11 15 24.5t7 27.5q0 20 -18 32.5t-36 14.5q-6 1 -18.5 1.5
t-12.5 10.5q0 6 8.5 7.5t13.5 1.5h219q20 0 20 -16h6q0 5 -4.5 10.5t-10.5 7.5l-130 12h-10h-13q-5 0 -18.5 -0.5t-28.5 -1.5t-28.5 -2t-19.5 -2t-13.5 -6.5t-7.5 -11.5q0 -3 4.5 -5t6.5 -11q0 -2 0.5 -10.5t0.5 -10.5q3 0 8.5 -0.5t12 -1.5t12 -1.5t7.5 -0.5q8 -1 17 -3
t9 -11q0 -12 -6 -19q-9 -15 -17 -26.5t-19 -25.5h-1q-3 0 -3 2v2q1 2 5 8.5t8.5 13.5t8.5 13l6 9q2 2 5 9t3 11q-5 7 -16 8q-16 2 -32 3.5t-32 1.5v30q-1 2 -1 4q-2 4 -3 4v4q0 8 8 20t16 13l130 15l148 -17q10 -2 17.5 -11.5t7.5 -18.5q0 -3 -1.5 -4.5t-2.5 -3.5
q0 -1 -1 -2.5t-1 -2.5v-23q0 -4 -5 -4l-62 -8q-21 -3 -36 -17t-29 -28q-2 -2 -5 -6t-5 -5l-167 -229q-9 -12 -10 -33t-1 -34v-146q0 -1 0.5 -8t1 -16.5t1.5 -18.5t1 -15q0 -1 1 -4t1 -5v-4q0 -2 1 -3q1 -4 10.5 -7t21 -5.5t22 -3.5t14.5 -1q3 -3 13.5 -14t13.5 -14t3.5 -4
t0.5 -4q0 -26 -18 -38t-41 -12q-36 0 -72 1.5t-74 1.5h-16q-8 0 -28 -0.5t-42.5 -1t-43 -1.5t-28.5 -1l-1 1q-1 2 -2.5 8.5t-1.5 9.5v8zM218 603q-2 0 -2 -1t2 -1q1 0 1 1t-1 1zM216 605q-1 0 -1 -1.5t1 -1.5q2 0 2 1.5t-2 1.5zM215 607q-1 0 -1 -1t1 -1t1 1t-1 1zM214 609
q-2 0 -2 -1.5t2 -1.5q1 0 1 1.5t-1 1.5zM212 610q-1 0 -1 -1.5t1 -1.5q2 0 2 1.5t-2 1.5zM211 613q-1 0 -1 -1.5t1 -1.5t1 1.5t-1 1.5zM210 614q-2 0 -2 -1.5t2 -1.5q1 0 1 1.5t-1 1.5zM207 615l1 -1v1l-1 2v-2zM206 619q-2 0 -2 -1t2 -1q1 0 1 1t-1 1zM202 622l2 -3v2l-2 3
v-2zM89 712q8 -3 14 -7t12 -9q8 -6 17 -7.5t17 -8.5q14 -14 25.5 -28.5t25.5 -26.5v1q0 1 -3.5 6t-8.5 11t-10.5 12.5t-9.5 10.5q-13 15 -33.5 30.5t-42.5 15.5h-3zM783 709q-12 0 -24.5 -6t-24 -14t-21.5 -17t-16 -16q3 3 14 12t14 12q8 6 16 8.5t19 5.5q6 5 11.5 8.5
t12.5 6.5h-1zM787 712q-2 0 -2 -1.5t2 -1.5q1 0 1 1.5t-1 1.5z" />
    <glyph glyph-name="Z" unicode="Z" horiz-adv-x="754" 
d="M56 47q0 1 1.5 3t1.5 4l30 57l386 569q-23 3 -47 3h-48q-23 0 -47.5 -1t-47.5 -6.5t-44 -16.5t-36 -30l-46 -59q-13 -17 -32.5 -29t-42.5 -12h-8t-9 2v4q0 11 1 23.5t4 23.5l44 149q2 2 5 11.5t5 13.5q2 5 5.5 11.5t8.5 7.5q11 1 21.5 1h21.5h24q4 0 13 -0.5t19.5 -0.5
t19.5 -0.5t13 -0.5h273q5 0 18.5 1t28.5 1.5t28.5 1t19.5 0.5h10q18 0 31.5 -9t13.5 -29q0 -17 -10 -30l-411 -615l-1 -3v-1l5 -1h130q45 0 87 12t78 36q1 1 3 2.5t3 2.5q3 3 10.5 10t8.5 9q1 1 5.5 6.5t10 11.5t10 11t5.5 7q7 8 17.5 19t21.5 16h1l1 -3v-1
q-7 -9 -16.5 -16.5t-16.5 -15.5q-3 -3 -9.5 -10.5t-13.5 -16.5t-13.5 -16.5t-9.5 -10.5q-9 -10 -21.5 -18t-23.5 -14q-45 -26 -100.5 -32t-105.5 -7h-20t-30.5 -0.5t-30.5 -0.5h-20v3l169 281l-3 -3l-175 -272q0 -1 -2 -4.5t-3 -4.5q-2 -1 -3 -4t-1 -4v-1q4 0 15 -0.5
t23.5 -1t23 -1t15.5 -0.5h51q32 0 59.5 1t53.5 5t52 12.5t55 22.5q28 16 47 37l61 72l7.5 7.5t7.5 5.5l2 1q1 0 1 1q4 0 6 -4t2 -7v-3l-58 -174l-17 -1q-102 -1 -197 -1q-41 0 -84 -0.5t-84 -0.5h-78.5h-65.5h-7h-4q-2 0 -7.5 1t-7.5 1l-2.5 2.5t-1.5 2.5v2l1 2q0 1 1 2
l231 356l-2 -3l-221 -308q-2 -1 -8.5 -12.5t-9.5 -16.5q-1 -2 -4.5 -9.5t-4.5 -9.5l6 -12t6 -11l4 -1q3 -2 9.5 -2.5t8.5 -0.5l270 -9q1 0 1 -3t-1 -3h-50t-75.5 -0.5t-75 -0.5h-49.5h-8q-8 0 -16 0.5t-15 0.5v-3t-3 -2l-3 1l-25 47v2v1zM409 359q-1 0 -1 -1.5t1 -1.5
q2 0 2 1.5t-2 1.5zM412 363q-1 0 -1 -1.5t1 -1.5t1 1.5t-1 1.5zM325 406q0 1 -1.5 -0.5t0.5 -1.5q1 0 1 2zM328 411q-2 0 -2 -1.5t2 -1.5q1 0 1 1.5t-1 1.5z" />
    <glyph glyph-name="a" unicode="a" horiz-adv-x="585" 
d="M54 136q0 58 32.5 98.5t85.5 59.5l110 40q1 0 10 5t14 7q9 5 11.5 14t2.5 19q0 29 -11.5 47.5t-42.5 18.5h-14q-11 -2 -17 -9.5t-9.5 -17.5t-5.5 -20.5t-4 -18.5q-6 -23 -24.5 -40.5t-43.5 -17.5q-16 0 -29.5 6.5t-23.5 18t-15.5 25.5t-5.5 29q0 24 10.5 44t27 35.5
t37.5 26t42 16.5q39 9 83 9q24 0 50 -3.5t50 -12.5t44 -24.5t31 -39.5q5 -12 6.5 -27t2.5 -28v-43q0 -36 -0.5 -72t-0.5 -71v-47q0 -4 1.5 -16.5t1.5 -16.5q0 -3 1 -8.5t2 -11.5t3 -11.5t4 -6.5h6q5 0 10.5 0.5t10.5 0.5q17 0 29.5 -10.5t12.5 -27.5q0 -16 -9.5 -26
t-23.5 -15t-29.5 -7t-27.5 -2q-4 0 -4 3q0 2 1 2q3 1 8.5 2t12 2t12 2t7.5 1q15 3 28.5 12t13.5 26q0 20 -20 26h-10q-7 0 -13.5 -1t-14.5 -1q-13 0 -18 14.5t-7 23.5q-4 22 -6.5 45.5t-4.5 44.5v-9q0 -15 1 -30.5t2 -29.5q0 -2 1.5 -13.5t2.5 -16.5q1 -10 6.5 -23t16.5 -16
h10q5 0 11 1t12 1q7 0 13.5 -5t6.5 -13q0 -14 -14 -18.5t-25 -6.5q-17 -3 -33.5 -3.5t-33.5 -0.5q-36 0 -49.5 11t-19.5 46q-29 -29 -62.5 -44.5t-75.5 -15.5q-54 0 -89.5 29t-35.5 86q0 18 4 33.5t12 32.5l-1 -2q-20 -32 -20 -73q0 -45 28 -77.5t72 -40.5q17 -3 34.5 -3.5
t35.5 -0.5q0 -3 -5.5 -5t-12 -2.5t-13 -0.5h-9.5q-31 0 -58.5 9.5t-47.5 27t-32 43.5t-12 59zM97 134q0 -48 31 -72t76 -24q55 0 88 24t63 68l2 1h1q0 -11 0.5 -25.5t2.5 -26.5q4 -24 13 -31t33 -7q20 0 44.5 1t44.5 9l1 1h-4q-6 0 -11 -0.5t-10 -0.5q-14 0 -23 7t-15 17.5
t-9 22.5t-4 23q-1 4 -1.5 12t-1 17t-1 16.5t-0.5 9.5v27q0 38 1 76.5t1 77.5q0 23 -0.5 41t-5.5 32.5t-17 25.5t-34 20q-21 9 -44 11.5t-46 2.5q-32 0 -67 -7t-60 -30q-13 -11 -21 -23.5t-8 -30.5q0 -14 7.5 -26t24.5 -12q15 0 22 14t12.5 33t12.5 38t22 29q11 7 23.5 9
t26.5 2q48 0 71.5 -31t23.5 -78q0 -19 -8 -40l3 1q0 -5 1 -18t2 -27.5t1.5 -27.5t0.5 -18v-22q0 -21 -1.5 -41.5t-7 -40t-16.5 -36.5t-30 -30q-15 -11 -30.5 -16t-35.5 -5h-14q-32 6 -48.5 32.5t-16.5 57.5q0 37 18.5 59t47.5 42q4 2 14 8t20.5 12t20 11.5t13.5 7.5
q9 5 20.5 12.5t18.5 15.5q-1 -1 -5 -3l-6 -3q-4 -2 -13 -7t-11 -5l-131 -50q-34 -13 -53 -45t-19 -67zM204 146q0 -17 9 -33t28 -16t34 8.5t25.5 22t16 30.5t5.5 34v61l-70 -39q-20 -11 -34 -27.5t-14 -40.5zM331 257l12 -73q0 3 0.5 13.5t0.5 13.5v10q0 19 -0.5 37t-1.5 38
q-20 -17 -44.5 -27.5t-44.5 -26.5h2q12 3 23 7q9 3 19 5.5t17 4.5q6 2 7.5 3.5t1.5 7.5h3l4 -4l3 -3q1 -1 2 -1l-4 -4v-1zM97 206q-2 0 -2 -1.5t2 -1.5q1 0 1 1.5t-1 1.5z" />
    <glyph glyph-name="b" unicode="b" horiz-adv-x="632" 
d="M189 43q-5 -2 -4.5 -6.5t-2.5 -7.5q-3 -2 -14 -10t-14 -10h-6q-13 0 -28.5 11t-15.5 25v64q0 15 1 46.5t1.5 70.5t1.5 82.5t1.5 82.5t1 70t0.5 46v92v93q0 2 -0.5 6.5t-2.5 8.5q-12 7 -27.5 12.5t-27.5 9.5q-1 0 -1 3q0 16 3 31t17 25q2 2 7 4.5t9 2.5q20 1 37.5 1h37.5
h39q21 -4 36 -19t15 -36v-12q0 -8 -0.5 -27t-1 -40t-1.5 -40.5t-1 -26.5h-6l-4 153q0 13 -12.5 20.5t-23.5 11.5h-10h-12q-5 0 -17.5 -0.5t-26.5 -1.5t-26.5 -2t-17.5 -1q-17 -4 -17 -24v-6l1 -1q12 -3 23 -6t19 -8.5t13 -14t6 -22.5l4 -65v30v30q0 8 -1.5 18.5t-6.5 17.5
q-5 6 -13 10.5t-16.5 8t-14.5 7t-6 7.5q0 8 8 8h106q10 0 17.5 -4.5t7.5 -15.5q0 -57 -2 -112.5t-2 -112.5v-79q59 59 138 59q45 0 83 -18.5t65.5 -49.5t42.5 -71.5t15 -83.5q0 -14 -2 -26.5t-2 -25.5v-3q5 17 7.5 35.5t2.5 36.5q0 39 -12.5 75.5t-35 67t-54 53t-68.5 32.5
q-14 3 -26 4t-25 2q-6 0 -6 7q26 0 50 -3.5t48 -12.5q17 -6 31.5 -15.5t28.5 -20.5q48 -38 72 -92.5t24 -115.5q0 -55 -17.5 -105.5t-50 -88.5t-79 -61t-104.5 -23q-42 0 -82 10t-74 36zM213 171q1 -13 2.5 -26t6.5 -25q14 -33 45.5 -50.5t66.5 -17.5q11 0 22.5 1.5
t19.5 6.5q-7 0 -13 -1.5t-12 -1.5q-17 0 -35.5 6t-34.5 16.5t-26 26t-10 34.5q0 2 4 2h1q9 -28 32.5 -42.5t51.5 -14.5q14 0 26 3.5t23 12.5q35 32 46 71t11 86q0 26 -4 58t-15 59.5t-32.5 46.5t-55.5 19q-24 0 -39.5 -9.5t-25 -25.5t-14 -36t-7.5 -41q0 -3 -1 -9.5
t-1.5 -13.5t-1 -13.5t-0.5 -9.5q2 -2 0 -3t-4 -1h-1l-1 11v30q0 22 1 44t7 42t19 36t37 26h-1q-2 0 -4.5 -1t-3.5 -1q-2 0 -7 -3t-7 -4q-17 -9 -27.5 -23t-17 -30.5t-10 -34.5t-5.5 -35q0 -5 -1 -15.5t-2 -22t-1.5 -21.5t-0.5 -14v-45v-47zM558 219q-1 0 -1 -1t1 -1t1 1
t-1 1z" />
    <glyph glyph-name="c" unicode="c" horiz-adv-x="525" 
d="M73 100q0 1 3 1h1q38 -40 77 -62t96 -22q54 0 100.5 21t73.5 69q8 12 13 25.5t5 27.5v4q-5 -33 -22 -58t-42 -42t-55 -25.5t-61 -8.5q-46 0 -84.5 18.5t-66.5 50t-43.5 72t-15.5 84.5q0 14 0.5 27.5t3.5 27.5q8 38 26.5 73t46 61.5t62 42t75.5 15.5q55 0 99 -20
q12 -6 22.5 -13t21.5 -14h2q-29 30 -72.5 45t-84.5 15q-62 0 -110 -32t-83 -80q-4 0 -4 2v2l2 2q37 59 88.5 92.5t122.5 33.5q28 0 62.5 -7.5t64.5 -24t50.5 -41.5t20.5 -59q0 -29 -18 -52t-49 -23q-33 0 -48 19t-24.5 41.5t-21.5 41.5t-39 19q-30 0 -48 -17t-28 -42
t-13.5 -53t-3.5 -50q0 -49 14.5 -96t52.5 -80q24 -19 54 -19t53 19t34 47q0 1 2 7l3 9t0.5 8.5t2.5 7.5l29 25l3 2q20 0 34.5 -11.5t14.5 -31.5q0 -26 -10 -51t-26.5 -46t-38 -37t-44.5 -24q-22 -8 -43.5 -11.5t-44.5 -3.5q-57 0 -98.5 20t-79.5 60q-2 2 -5.5 7t-5.5 7l-2 2
q-1 1 -1 2v1zM425 184q-2 0 -2 -2v-2zM421 444q-1 0 -1 -1.5t1 -1.5q2 0 2 1.5t-2 1.5zM420 445q-1 0 -1 -1t1 -1t1 1t-1 1zM419 447q-2 0 -2 -1.5t2 -1.5q1 0 1 1.5t-1 1.5zM417 449q-1 0 -1 -1t1 -1q2 0 2 1t-2 1zM416 451q-1 0 -1 -1.5t1 -1.5t1 1.5t-1 1.5zM415 452
q-2 0 -2 -1.5t2 -1.5q1 0 1 1.5t-1 1.5zM413 453q-1 0 -1 -1t1 -1q2 0 2 1t-2 1zM412 455q-1 0 -1 -1.5t1 -1.5t1 1.5t-1 1.5z" />
    <glyph glyph-name="d" unicode="d" horiz-adv-x="641" 
d="M37 249q0 52 17 102.5t48.5 89.5t77 63t101.5 24q40 0 75 -13q8 -3 14 -7.5t14 -7.5l1 11v43v59q0 9 -0.5 24.5t-1 30.5t-1.5 26.5t-1 13.5l-1 8q-3 0 -11.5 2t-11.5 3q-2 2 -10 4t-10 3q-5 2 -11.5 5.5t-6.5 10.5q0 3 2 9t5 7q4 -1 4 -7q0 -2 -0.5 -4t-0.5 -4q0 -6 7 -9
t12 -4q4 -1 15 -4t14 -4q1 0 4.5 -0.5t4.5 -0.5l2 -3l4 -24l13 -228v-28q-5 3 -7 8.5t-6 10.5q-17 18 -39.5 28.5t-46.5 10.5h-8q38 -3 66 -22.5t48 -51.5q0 1 0.5 6t0.5 6q0 5 1 18.5t1 16.5v174l-5 70q-1 17 -10.5 24.5t-21 11t-21 5.5t-9.5 8t7 7.5t11 1.5q7 0 23.5 0.5
t34.5 1t34.5 1t22.5 0.5h4q2 0 4 0.5t2 -1.5v-193q0 -108 -1.5 -214t-1.5 -214v-20l32 480h6q0 -114 -2 -227.5t-2 -227.5v-44q4 -11 15.5 -17t23 -10.5t20.5 -9.5t9 -14q0 -3 -1.5 -5t-1.5 -4q0 -3 1 -4.5t1 -3.5q0 -20 -15.5 -31t-33.5 -12h-52h-52t-52 1l-2 1q0 2 -0.5 4
t-0.5 3q0 3 -0.5 13.5t-0.5 13.5q-8 -2 -15 -9t-15 -11q-41 -23 -85 -23q-33 0 -64.5 12t-59.5 32t-49.5 46.5t-34.5 55.5q-11 25 -15.5 52t-4.5 54zM386 223q0 -30 -5.5 -61.5t-27.5 -54.5q-15 -15 -29 -26t-34 -16h4q12 0 24 6.5t23.5 15.5t21 19.5t15.5 19.5l2 2
q0 2 0.5 6.5t0.5 5.5q7 -2 10 4t5 11q1 3 3.5 11.5t2.5 9.5q2 3 4 13t2 13q1 4 2.5 16t1.5 15l2 30t1 30q0 31 -5 63.5t-18.5 58.5t-37 43t-61.5 17h-12q54 -8 77 -36.5t23 -82.5q-1 0 -3 -0.5t-2 1.5q-4 18 -10 33.5t-15.5 26.5t-24 17.5t-35.5 6.5q-8 0 -16.5 0.5
t-16.5 -4.5q-24 -11 -37 -31.5t-19.5 -45.5t-8 -51t-1.5 -48q0 -41 8 -80t39 -68q20 -17 46 -17q13 0 22.5 4.5t19.5 11.5q28 20 38.5 49.5t15.5 61.5h5zM514 68q-2 0 -2 -1.5t2 -1.5q1 0 1 1.5t-1 1.5zM512 69q-1 0 -1 -1t1 -1q2 0 2 1t-2 1zM510 71q-2 0 -2 -1.5t2 -1.5
q1 0 1 1.5t-1 1.5zM508 72q-1 0 -1 -1.5t1 -1.5q2 0 2 1.5t-2 1.5zM507 73q-1 0 -1 -1t1 -1t1 1t-1 1zM506 75q-2 0 -2 -1.5t2 -1.5q1 0 1 1.5t-1 1.5zM504 76q-1 0 -1 -1.5t1 -1.5q2 0 2 1.5t-2 1.5zM503 77q-1 0 -1 -1t1 -1t1 1t-1 1zM502 79q-2 0 -2 -1.5t2 -1.5
q1 0 1 1.5t-1 1.5zM500 80q-1 0 -1 -0.5t1 -0.5q2 0 2 0.5t-2 0.5zM499 83q-1 0 -1 -1.5t1 -1.5t1 1.5t-1 1.5zM498 84q-2 0 -2 -1.5t2 -1.5q1 0 1 1.5t-1 1.5zM496 87q-1 0 -1 -1.5t1 -1.5q2 0 2 1.5t-2 1.5zM297 499q1 0 -1.5 0.5t-5.5 0.5t-5 -0.5l-2 -0.5q2 -1 7 -1t7 1
z" />
    <glyph glyph-name="e" unicode="e" horiz-adv-x="568" 
d="M51 255q0 59 21 113q12 29 31 54.5t42 46.5q32 30 70.5 46.5t83.5 16.5q44 0 83.5 -18t69.5 -48t47.5 -70t17.5 -84q0 -25 -18.5 -36t-40.5 -11l-149 -2v5l148 12q16 1 29 7.5t13 24.5q0 23 -7.5 46t-18.5 43q-2 1 -5 6.5t-5 7.5l-2 3v-1q26 -47 26 -99q0 -18 -8.5 -20.5
t-24.5 -2.5l-281 -5q-2 -11 -2 -21.5v-20.5q0 -32 10.5 -62.5t30 -54.5t47 -38.5t62.5 -14.5h11q-37 6 -62.5 21t-45.5 50q-3 5 -7 13t-4 14q0 2 4 2q18 -33 42.5 -56t65.5 -23q18 0 35 6t33 15.5t30.5 21t26.5 22.5h11q21 0 35 -13.5t14 -36.5q0 -8 -5 -15l-10 -14
q-33 -46 -87.5 -68t-108.5 -22q-55 0 -100.5 20.5t-78.5 56t-51 83t-18 100.5zM83 263q0 -45 15 -85.5t42 -71t65.5 -48t85.5 -17.5q51 0 98 20t76 64v1q0 1 -0.5 1.5t-0.5 1.5l-1 1l-1 2l-1 -1q-1 -1 -2 -1t-1 -0.5t-1 -0.5q-1 -1 -2 -1q-1 -1 -5.5 -5t-9.5 -8l-10 -8
t-6 -5q-2 -1 -10.5 -7t-11.5 -8q-18 -11 -39.5 -16t-42.5 -5q-34 0 -62 13.5t-48.5 36.5t-33.5 52t-17 61v28v27q0 7 1 11q0 4 1 7l1 1l296 5q1 0 5 1t6 1q5 0 5 4v14q0 36 -15.5 67.5t-41.5 55t-59 37.5t-67 14q-32 0 -61 -11.5t-53 -31t-43 -44.5t-32 -52q-11 -23 -15 -49
t-4 -51zM161 324q0 17 5 35q5 24 15.5 48t27 43.5t38 31.5t49.5 12q22 0 42 -9.5t34 -26t22.5 -37.5t8.5 -43q0 -19 -6.5 -30.5t-17 -18t-25 -9t-30.5 -2.5h-52h-52q-4 0 -12.5 0.5t-17.5 0.5t-17.5 0.5t-11.5 0.5v4zM175 331q5 0 18 -0.5t27.5 -1t27 -1t17.5 -0.5h7h7l-4 2
q-5 1 -16.5 4t-24.5 6.5t-25 6.5l-16 4h13q21 0 43 -0.5t44 -0.5h27t27 1q4 0 12.5 1.5t10.5 6.5q1 4 1 14q0 14 -5.5 28t-15 25t-23 18t-28.5 7q-14 0 -26.5 -6t-22 -15.5t-17.5 -21.5t-13 -23q-3 -5 -6 -17.5t-6 -12.5t-3 1v7q0 32 13 57t34 48q-5 -2 -10.5 -6.5
t-9.5 -8.5q-35 -33 -48 -80q-2 -8 -5.5 -19t-3.5 -20v-3zM458 421l1 -2v2l-1 1v-1zM457 425q-2 0 -2 -1.5t2 -1.5q1 0 1 1.5t-1 1.5zM455 426q-1 0 -1 -1.5t1 -1.5q2 0 2 1.5t-2 1.5zM454 429q-1 0 -1 -1.5t1 -1.5t1 1.5t-1 1.5zM453 430q-2 0 -2 -1.5t2 -1.5q1 0 1 1.5
t-1 1.5zM451 431q-1 0 -1 -1t1 -1q2 0 2 1t-2 1z" />
    <glyph glyph-name="f" unicode="f" horiz-adv-x="553" 
d="M49 37q0 3 1.5 4.5t2.5 3.5q5 11 9 19.5t14 14.5q1 0 2 1t3 2t3 2h31l11 179v152l-82 4v1v1v26q0 8 1 17q1 20 8 31.5t17.5 17.5t25 7.5t31.5 3.5q2 38 5.5 75.5t17.5 73.5q12 33 33 57.5t49 41t60 24.5t65 8q43 0 74 -8.5t61 -40.5q11 -12 16.5 -28.5t5.5 -33.5
q0 -34 -25 -52t-55 -18h-14q-6 5 -12.5 14t-11.5 16q-2 3 -6.5 10t-9.5 15.5t-9.5 15.5t-5.5 10q-5 6 -11 11.5t-14 7.5h-11q-18 0 -29.5 -8t-18 -20.5t-9.5 -28t-6 -30.5q-6 -39 -6 -78v-4q0 -2 1 -4q1 -3 2 -7.5t3 -8.5q2 -5 3 -10l23 -2v-4q-6 -2 -12 -2h-12h-4t-2 2
q-1 4 -6 16t-6 16q0 1 -0.5 2.5t-0.5 2.5v27q0 24 2 47.5t7 46.5q8 32 24.5 50.5t50.5 18.5q16 0 28 -7t22 -17.5t17.5 -23t15.5 -24.5l1 -1v1q-5 8 -9 16q-8 15 -13 26q-22 38 -66 38q-25 0 -41 -9t-26 -24.5t-15.5 -35.5t-9.5 -42q-5 -22 -6 -44t-1 -44v-30v-17
q0 -5 1 -11l2 -2h49q2 0 16 -1t19 -2q7 -1 15 -4t8 -11q0 -12 -6 -18.5t-14.5 -9.5t-18.5 -3.5t-19 -0.5h-49l-3 -3v-286q0 -32 7 -58t39 -40q8 -3 18 -5.5t18 -2.5h1q-1 2 -1 6q0 2 1 3.5t1 4.5q-5 7 -17 10q-13 6 -22 9.5t-14.5 9t-8 14t-2.5 24.5v8l7 140h5l3 -155
q0 -8 5 -17.5t14 -12.5q3 -1 10 -3t14.5 -4t14.5 -4t10 -3q1 0 6.5 -2t7.5 -4q3 -1 8 -4t5 -8q0 -7 -11 -14q2 -2 3 -2.5t1 -2.5q0 -11 -5 -18.5t-16 -9.5q-57 -9 -113.5 -11t-114.5 -2h-16q-13 3 -26 11.5t-13 24.5zM144 34q7 0 25.5 -1t39 -2t39 -1.5t25.5 -0.5h25h24
q3 0 5.5 4.5t2.5 7.5q-1 1 -2 1q-2 0 -3 1q-2 1 -4 1q0 -9 -4 -10.5t-12 -1.5q-27 0 -54 2t-54 2h-38q-2 0 -7.5 -1t-7.5 -1zM318 47q-1 0 -1 -1.5t1 -1.5q2 0 2 1.5t-2 1.5zM426 661q0 -1 3 -4t5 -4h5h4q-5 2 -9 4t-8 5v-1zM424 665q-1 0 -1 -1.5t1 -1.5q2 0 2 1.5t-2 1.5z
M423 666q-1 0 -1 -1t1 -1t1 1t-1 1zM420 668l2 -2v2l-2 1v-1zM419 672q-2 0 -2 -1.5t2 -1.5q1 0 1 1.5t-1 1.5z" />
    <glyph glyph-name="g" unicode="g" horiz-adv-x="708" 
d="M52 -147q0 22 8 41.5t21.5 35.5t30.5 29t35 24q-26 14 -41 35.5t-15 51.5q0 55 45 91q2 1 11.5 8t11.5 8l1 2q-33 25 -51 61t-18 78q0 46 18.5 85.5t50 68t72.5 44.5t86 16q25 0 48.5 -4t46.5 -15l7 -3.5t7 -2.5q1 -2 9.5 -7t13.5 -8l5 -4h1q23 20 49 34.5t56 14.5
q31 0 56 -15t36 -44q5 -13 5 -25h-4q-10 36 -30.5 55.5t-60.5 19.5q-27 0 -49.5 -13t-42.5 -31q-4 -5 -7 -8.5t-8 -7.5q-57 44 -128 44q-122 0 -185 -103q-7 -11 -13 -26.5t-6 -28.5v-3q7 35 25.5 63t44 47.5t57 29.5t66.5 10q44 0 76 -13t63 -42h2q22 23 47 42t58 19
q26 0 47.5 -16t21.5 -45q0 -15 -10.5 -25t-25.5 -10q-16 0 -24.5 8t-15 17.5t-12 17.5t-15.5 8q-12 0 -23 -7t-19 -14l-15 -15v-1q23 -41 23 -84q0 -73 -42.5 -115.5t-110.5 -56.5q-5 0 -17 -1.5t-25.5 -3t-25.5 -3t-16 -1.5q-20 -2 -34.5 -10.5t-28.5 -23.5q-4 -4 -5 -9.5
t-1 -10.5q0 -12 7.5 -20t18 -13t23 -7t21.5 -3l152 -8h14l-159 16q-1 0 -9.5 1.5t-13.5 2.5q-12 2 -26.5 8.5t-14.5 21.5q0 7 5 13.5t12.5 11.5t16 8t14.5 3l95 7q39 3 73.5 20.5t61.5 44.5h2l2 -2q-9 -15 -24.5 -27.5t-33.5 -22.5t-37 -16t-36 -8l-100 -12q-8 -1 -16.5 -6
t-13.5 -11q0 -4 4 -4q15 -6 32 -7l211 -14q31 -2 57 -14.5t45 -32.5t29.5 -47t10.5 -58q0 -45 -17.5 -80.5t-46.5 -61.5t-67 -43t-78 -24q-29 -5 -55.5 -6.5t-55.5 -1.5q-35 0 -77 4.5t-78 19t-60.5 42t-24.5 73.5zM187 -135q0 -23 14.5 -35.5t35 -19.5t43 -8.5t38.5 -1.5
q20 0 39.5 1.5t38.5 6.5q16 4 32 12t29.5 20t22 27.5t8.5 33.5q0 14 -7.5 23.5t-19 15.5t-25 9t-24.5 5q-2 0 -1.5 2t0.5 3q18 0 36.5 -2.5t33.5 -10t24 -21.5t9 -36q0 -6 -1.5 -12t-1.5 -12v-1q5 8 6 18t1 19q0 30 -18 47.5t-43.5 26t-54.5 10.5t-50 2q-22 0 -48 -3.5
t-51 -12t-47 -21.5t-35 -31q-4 -5 -8.5 -12.5t-4.5 -13.5v-1q21 36 60.5 49t78.5 13v-6q-16 -3 -35.5 -9.5t-36 -16t-27.5 -24t-11 -33.5zM510 -137q-2 0 -2 -1.5t2 -1.5q1 0 1 1.5t-1 1.5zM438 54q1 1 -3.5 1t-3.5 -1q2 -2 7 0zM302 191q-1 0 -1 -1.5t1 -1.5q2 0 2 1.5
t-2 1.5zM209 332q0 -43 11.5 -76t51.5 -56q5 -3 12 -6t14 -3h2q-29 13 -45 38t-16 57v15t2 14q5 -26 12.5 -48t31.5 -36q15 -10 31 -10q15 0 26 8.5t18 20.5t11 26.5t5 26.5v27q0 15 -2 33.5t-7.5 35.5t-16.5 30.5t-29 19.5h-11q-29 0 -44.5 -20t-23.5 -46q0 -2 -2 -1.5
t-3 0.5q0 41 22.5 68t62.5 30h-12q-30 0 -49.5 -14t-31 -35.5t-16 -47.5t-4.5 -51zM122 335q-2 0 -2 -1.5t2 -1.5q1 0 1 1.5t-1 1.5zM123 349q-1 1 -1 -3t1 -3q1 3 0 6z" />
    <glyph glyph-name="h" unicode="h" horiz-adv-x="667" 
d="M61 26v6.5t2 7.5v3q0 1 1 1l5 6q0 1 2 4.5t2 4.5q8 15 18 21t24 11l1 2l3 12q0 1 1.5 15.5t3 35t3.5 41.5t3 34v7.5t0.5 12t0.5 12.5v9v321v9.5t-0.5 14t-0.5 14.5v9t-1.5 11.5t-1.5 14.5q-1 7 -3.5 19t-7.5 18q-3 3 -6 6.5t-7 5.5t-12 5t-15.5 7t-13 9t-5.5 11q0 2 1 4
t1 4t-1 3t-2 3v5q0 13 10.5 22.5t24.5 11.5l175 6v-148h-5l-4 138l-157 -10q-8 -1 -18.5 -6t-10.5 -15v-2q11 -6 11.5 -11t8.5 -11t17 -10t16 -10q11 -10 16 -26t7 -29q1 -5 2.5 -17t1.5 -15l11 -255v97v88.5t-3 89.5q-1 13 -4 28t-8.5 28.5t-15 24.5t-23.5 16q-4 2 -13.5 4
t-9.5 10q0 4 3 5q7 0 27 0.5t41.5 1.5t41 1.5t27.5 0.5h12v-337l1 1q16 20 31.5 32.5t32.5 19t36.5 9t45.5 2.5h31q40 -4 64.5 -21t37.5 -42.5t17 -58t4 -67.5q0 -38 -0.5 -77t-0.5 -77v-55q1 -28 25 -42q5 -4 12 -4h1q-4 3 -2.5 5t-1.5 7q-3 6 -14 10t-11 10v56l11 177v16
q0 35 -5.5 65t-19.5 54.5t-37 42t-59 26.5v2q0 2 4 2q8 0 16.5 -3t15.5 -6q28 -13 46 -30.5t29 -38.5t16.5 -46.5t7.5 -54.5v-39q0 -39 -0.5 -77.5t-0.5 -77.5v-56q0 -2 1 -3q0 -3 2 -3l39 -12q3 -1 11.5 -5t8.5 -9q0 -8 -4 -10t-4 -6q0 -2 1 -3t1 -3q0 -6 -7 -17t-13 -12
l-89 -11h-34l-112 17l-2 2v6q0 8 1.5 12t4.5 10q5 9 10.5 19.5t17.5 15.5q3 1 12 3.5t12 4.5l1 2q0 5 1 10t1.5 9.5t0.5 7.5q0 5 0.5 16.5t0.5 13.5v148q0 1 -0.5 8.5t-1.5 16.5t-2 17.5t-1 13.5q-2 16 -6.5 30.5t-12 25.5t-19 18t-28.5 7q-25 0 -42 -11t-27.5 -28.5
t-15.5 -39t-7 -42.5q0 -8 -1 -28t-1.5 -42.5t-1.5 -43t-2 -28.5v-9v-24.5t2 -25.5q0 -1 0.5 -6.5t0.5 -7.5t0.5 -5.5t2.5 -5.5q4 -1 16 -6t16 -6q5 -2 13 -6.5t8 -12.5q0 -3 -1 -6t-1 -6q0 -2 1 -3.5t1 -3.5q0 -10 -5.5 -17.5t-14.5 -8.5l-99 -12q-33 1 -64.5 -1t-65.5 -2
h-8q-1 2 -2.5 9.5t-1.5 9.5v4zM583 39q0 1 -2 1t-2 -1t2 -1t2 1zM586 42q-1 0 -1 -1.5t1 -1.5t1 1.5t-1 1.5zM597 51q-2 0 -2.5 -2t-0.5 -3q3 3 3 5z" />
    <glyph glyph-name="i" unicode="i" horiz-adv-x="382" 
d="M185 9q-21 0 -42 -1t-42 -1q-8 0 -17.5 2t-17.5 6t-13.5 11t-5.5 17v5q1 2 4 3t4 3q10 24 23.5 32.5t40.5 8.5l2 4q0 2 0.5 8t0.5 8q0 11 1 39.5t1.5 60.5t1 60.5t0.5 40.5v39v35q0 1 -0.5 13t-2.5 17q-1 3 -1 6q0 2 -0.5 4.5t-0.5 3.5h-1q-1 0 -2 1q-4 1 -15.5 2.5
t-23.5 4.5t-21.5 7.5t-9.5 12.5q0 3 2.5 6t4.5 5q-3 0 -5 2v6q0 18 15 29.5t33 11.5v-5q-14 -3 -26 -11.5t-12 -24.5v-2q5 -1 12.5 -2t9.5 -6q4 -7 4 -9.5t9 -5.5q1 0 5.5 -1t9.5 -2.5t9.5 -2.5t5.5 -2q13 -4 15 -11t5 -22q0 -3 1 -9t2 -13t2 -13.5t1 -8.5v5v6q0 3 -0.5 9
t-0.5 13t-0.5 12t-0.5 7q-2 8 -3.5 17.5t-6.5 17.5q-5 9 -16 11t-22 3t-19 4t-8 13q0 5 3.5 9t9.5 4l142 11h3q4 0 4 -2v-152.5t1 -152.5l22 205h1h3t2 -1v-314l31 -8q9 -2 19.5 -11.5t15.5 -18.5q0 -2 1 -4t1 -3q2 -6 6 -6.5t4 -11.5q0 -14 -3.5 -18t-15.5 -10l-4 -1h-11
q-31 0 -62 2.5t-62 2.5zM210 54q5 -1 17.5 -2t26 -2t25.5 -2t17 -1h3q5 0 5 3t-5 4t-7 1q-16 2 -28 4t-20 7.5t-13 15.5t-6 28v196t-1 195h-4l-126 -10q-2 0 -5 -0.5t-3 -3.5v-1q16 -2 29 -4t22 -7.5t14.5 -15.5t7.5 -28q2 -19 3 -36.5t1 -37.5v-1q0 -14 -0.5 -47.5
t-1.5 -71t-1.5 -71.5t-0.5 -47q-1 -21 -5.5 -36t-28.5 -20q-5 -1 -18 -3t-17 -4q-7 0 -7 -6q27 0 54 2t55 2h18zM91 715q0 52 50 75q2 1 7 3t6 2h1h2q-17 -11 -29.5 -25t-12.5 -34v-6q5 21 19 33t36 12q20 0 33.5 -10t22.5 -26v1q0 10 -3.5 18t-9 14.5t-12 12.5t-12.5 13h1
q2 -1 6 -2l5 -2.5l5 -2.5q21 -9 35.5 -29.5t14.5 -43.5q0 -35 -23.5 -59t-58.5 -24t-59 22.5t-24 57.5zM127 720q0 -19 14 -31t33 -12q20 0 31.5 13t11.5 32q0 18 -15 30t-32 12q-19 0 -31 -12t-12 -32z" />
    <glyph glyph-name="j" unicode="j" horiz-adv-x="428" 
d="M28 -164q0 34 21.5 59.5t56.5 25.5q30 0 49.5 -20.5t19.5 -50.5q0 -12 -4.5 -23t-4.5 -21h15q5 0 10 3t10 5q15 9 21.5 23.5t8.5 31.5q0 10 1 31t1.5 47t1 55t1 55t1 47t0.5 31v142v140q0 3 -0.5 11.5t-3.5 13.5q-15 -2 -32 1.5t-27 16.5q0 2 -2.5 5.5t-4.5 5.5
q-2 4 -5 5.5l-5 2.5t-3.5 2.5t-1.5 6.5q0 12 9 18l2 -3v-1q-1 -3 -2.5 -6t-1.5 -6q0 -6 7.5 -5t11.5 -2q8 -7 13.5 -15t14.5 -13t16.5 -4.5t13.5 0t9.5 -4.5t3.5 -16l17 -299l2 20v257q0 2 -1 14t-2 17q-3 22 -16.5 28.5t-28 7.5t-26.5 1t-12 10q0 7 9 8.5t14 1.5
q6 1 23 1.5t36 1t36 1t24 0.5h19q0 -127 -2 -252.5t-2 -251.5v-18l30 378q0 7 6 7v-81l-7 -349q0 -11 -3 -27t-6 -27q-9 -33 -27.5 -62t-44 -50.5t-57.5 -34t-67 -12.5q-26 0 -50.5 7.5t-43 22t-30 36t-11.5 50.5zM337 -28q-1 0 -1 -1.5t1 -1.5q2 0 2 1.5t-2 1.5zM215 744
q0 23 11.5 42t33.5 28q1 0 6 2t7 3h2q1 0 2 1h1l-1 -1q-15 -12 -25.5 -24t-10.5 -32q0 -6 0.5 -11.5t3.5 -10.5q2 20 13 34.5t32 14.5q20 0 32 -12t17 -29q2 3 2 7.5v9.5q0 18 -9 31.5t-22 24.5h2h1q24 -9 41 -30t17 -47q0 -33 -23.5 -55t-55.5 -22t-54.5 22t-22.5 54z" />
    <glyph glyph-name="k" unicode="k" horiz-adv-x="657" 
d="M262 225l-1 -1v-24v-36v-5.5t0.5 -10.5l1 -12t1.5 -10q2 -19 5 -25.5t23 -10.5q1 0 3.5 -0.5t4.5 -0.5q0 -1 1 -1h2q1 -1 2 -1l29 -30l2 -3l-3 -4l-3 -7q-8 -18 -25.5 -26.5t-36.5 -8.5h-10l-170 10q-13 1 -24.5 10t-11.5 25q0 2 2.5 2.5t4.5 2.5q-6 6 -6 12
q0 7 8.5 11.5t19.5 7.5t21.5 5.5t13.5 7.5q5 7 6 18.5t1 19.5v28v30q0 16 -0.5 50.5t-1 78t-1 91t-1 90.5t-1 77.5t-0.5 50.5q0 11 -1 20t-3 19q0 1 -1.5 6t-1.5 6v1q0 3 4 3q1 0 2 -2t1 -3q1 -3 2.5 -9t1.5 -7q1 -5 2.5 -18t1.5 -16l21 -475v-19q0 -13 -0.5 -30.5
t-12.5 -28.5q-6 -5 -11.5 -8.5t-7.5 -11.5q10 1 17 7.5t11.5 15t6.5 18t2 18.5v86v84q0 14 -0.5 41.5t-1 62.5t-1 73t-1 73t-1 62.5t-0.5 41.5t-2 28t-7.5 26.5t-15 21.5t-24.5 13q-2 0 -9.5 2t-8.5 2q-3 2 -5.5 3t-2.5 5q0 6 8.5 8.5t12.5 2.5l126 15h3q4 0 4 -2l1 -18
v-165q0 -18 0.5 -63.5t1 -96.5t1 -96.5t0.5 -63.5h1q1 0 9.5 6t20 15t23.5 18l20 15q2 2 8.5 7.5t13.5 12t13.5 12t9.5 8.5q1 0 4.5 4t8 9.5t9.5 10.5l8 8q8 9 12 18.5t9 21.5l-12 -5l-17 -36h-7q-21 -26 -51.5 -50t-59.5 -40l-6 -3l-1 2l9 243h6l3 -211h1l5.5 4t13 10
t14.5 12.5t12 10.5l32 32q2 2 8.5 9.5t9.5 12.5q1 2 4.5 7.5t8.5 5.5q4 0 4 -4l2 3q1 3 5 13t5 13v2l-1 1q-1 0 -6 1.5t-6 1.5q-2 0 -7 1t-10.5 2t-9.5 3.5t-4 5.5q0 2 2 9t5 7h51q3 6 5 11t11 5q-2 0 -9 0.5t-9 0.5h-53q-1 0 -1 3t4 4t6 1h55q3 -2 8.5 -2t11.5 -0.5
t10.5 -1.5t4.5 -4v-1l-3 -4l39 -16h9q14 0 28.5 0.5t28.5 0.5h3t2 -2q0 -6 -3 -13.5t-10 -9.5q-2 0 -5 -1.5t-5 -1.5q-1 -1 -3 -5l-3 -6q-6 -6 -11 -8q-21 -8 -37 -15.5t-30 -16.5t-27.5 -21t-28.5 -30l2 -2q26 -21 43.5 -44.5t31.5 -52.5q11 -21 18.5 -44.5t13.5 -44.5
q1 -2 2.5 -8t3.5 -13t3.5 -13.5t1.5 -7.5q2 -2 3 -8t3 -8q1 -4 4 -9.5t8 -6.5q4 0 14 -2t21.5 -4t22 -4t14.5 -3q9 -2 17 -5.5t12 -12.5q-3 -4 -8.5 -6.5t-7.5 -6.5q7 0 7 -4q0 -11 -8 -21t-19 -11l-151 -15l-24 1q-3 2 -5 4l-3.5 3.5l-3.5 3.5q-9 9 -17 19t-13 23
q-8 22 -12 48.5t-10 52t-18 48t-36 37.5q-1 0 -1.5 0.5t-1.5 0.5t-2 1zM83 54q-2 0 -2 -0.5t2 -0.5q1 0 1 0.5t-1 0.5zM373 355q1 1 -1 -1t-5 -4.5t-5 -4.5t-1 -2q2 1 6.5 5.5t5.5 6.5z" />
    <glyph glyph-name="l" unicode="l" horiz-adv-x="420" 
d="M57 44q0 15 9.5 26.5t26.5 13.5q7 1 14.5 1.5t14 2t12 5.5t8.5 12q7 19 7 39v383l-3 121q0 14 -6.5 26.5t-21.5 17.5l-48 14q-1 0 -5 2.5t-6 3.5q-7 5 -6 9t0 11l-3 4v1q0 4 2 10t5.5 11.5t7.5 9.5t9 4q3 0 3 -4q-6 -5 -12 -12t-6 -15v-2q0 -3 3 -4q1 -1 3 -2q3 -3 4 -7
t5 -6q1 -1 5 -3t6 -2q13 -4 26 -7.5t24 -10t18 -17t9 -26.5l18 -225v27v27q0 9 -0.5 31t-1 47t-1 47.5t-0.5 31.5q-1 17 -4.5 33t-15.5 29q-7 8 -15 13t-18 10q-1 0 -2 1q-1 0 -2 1q-2 1 -14.5 3t-14.5 3l-7 3.5t-3 6.5q0 7 9 9q39 4 77.5 8.5t76.5 15.5h11l2 -131v-359
l29 363h5v-469l1 -59q2 -22 10.5 -26.5t28.5 -9.5q2 0 9 -1t9 -1q3 -3 13 -14t13 -14q2 -2 4.5 -5t3.5 -5v-1q0 -3 -1 -3h-1l-3 1q-4 -15 -13 -26t-25 -15h-12q-32 0 -63.5 2t-63.5 2h-49q-5 0 -20 -2t-20 -2h-2q-20 0 -36.5 10t-16.5 33z" />
    <glyph glyph-name="m" unicode="m" horiz-adv-x="980" 
d="M360 17l-5 5q-2 2 -4 4.5t-4 4.5q-5 5 -7 11.5t-2 12.5q4 0 7 -1l2 4v32l58 4q0 1 1 1l1 1q0 2 0.5 3t0.5 3q1 3 2.5 14.5t1.5 14.5q0 6 1 22t2 33.5t1.5 33.5t0.5 22v32v33q0 1 -0.5 8t-1 16l-1 18t-1.5 14q-2 21 -9.5 41.5t-30.5 27.5h-10q-27 0 -47 -16
q-16 -11 -25.5 -25t-15 -30t-8 -33t-3.5 -35q-1 -3 -1.5 -10t-1 -15t-0.5 -15v-9v-57v-57q0 -3 1.5 -15.5t1.5 -15.5q0 -1 0.5 -4t0.5 -4q26 1 36.5 -9t20.5 -31q6 2 6.5 -1.5t0.5 -6.5q0 -6 -3.5 -15t-11.5 -11l-111 -12l-122 10q-10 1 -19.5 13t-9.5 23q0 3 3 3h5v2
l-5.5 5.5t-2.5 6.5v3q8 12 26 16t32 4q2 2 2 5q2 5 3 13.5t1 9.5l7 253h4l1 -13q0 -2 0.5 -14.5t1 -29l1 -33t0.5 -25.5v-54v-48v-7t-0.5 -11.5t-1 -12.5t-1.5 -9q0 -1 -0.5 -8.5t-1.5 -10.5q0 -3 -1.5 -7t-4.5 -6q-2 0 -8.5 -1.5t-8.5 -1.5q-4 -1 -13 -4t-9 -8q0 -3 2 -4.5
t2 -3.5q0 -7 -6 -8.5t-11 -3.5q7 -16 23 -20q3 0 11.5 -0.5t18.5 -1t18.5 -1t11.5 -0.5h38h32q1 0 9 0.5t18.5 1.5t21.5 2t18 2q5 0 12.5 2t7.5 10q0 5 -1.5 5h-6.5q0 -12 -14 -12h-186q-5 0 -11 2.5t-6 8.5t5.5 8t12.5 3t14.5 2t12.5 4q11 8 13.5 22.5t4.5 25.5l5 86v212
q0 13 -4 27t-16 22q-7 5 -12 6.5t-13 3.5q-8 1 -21 1t-13 11q0 9 9 9l93 9h56q1 0 3 -8t2 -10q0 -4 1 -6q0 -2 1 -4v-59q16 17 34 32.5t38 27.5t42.5 19t47.5 7q30 0 55.5 -11t48.5 -31q8 -6 13 -12.5t11 -12.5l5.5 5.5t9.5 9t9.5 8.5t6.5 6q27 25 60.5 32t68.5 7
q18 0 37.5 -3.5t37 -11t31.5 -20t22 -30.5q6 -14 7 -30.5t2 -30.5v-52q0 -46 -0.5 -91.5t-0.5 -91.5v-20.5t1 -19.5l10 229v30q0 20 -0.5 38.5t-5.5 36.5q-6 23 -22 39t-37 26.5t-44 15t-44 4.5q-42 0 -77.5 -16t-69.5 -41h-1h-2l-4 6q-27 28 -54.5 41.5t-65.5 19.5v6
q36 0 68 -17t58 -41h2q33 26 72 42t81 16q22 0 46 -5t45.5 -15.5t39 -27t27.5 -38.5q11 -26 11.5 -55t0.5 -56q0 -47 -0.5 -92.5t-0.5 -92.5v-43q0 -1 0.5 -5t0.5 -5q0 -6 4 -6q3 0 11.5 -1t11.5 -1q1 0 2.5 -1t2.5 -1l13.5 -4.5l13.5 -4.5q3 -2 5.5 -4t2.5 -7q0 -6 -4 -7.5
t-7 -5.5h1l4 3q0 -14 -6 -23.5t-15 -17.5q-1 -1 -2 -1q-1 -1 -2 -1l-3 -2l-85 -9h-44l-108 13q-7 2 -13.5 14t-6.5 19q0 4 6 4q-3 3 -7.5 5.5t-4.5 8.5t7 10t16.5 7t18.5 4.5t13 1.5q3 0 11 0.5t11 0.5l2 2q0 1 0.5 3.5t0.5 4.5q0 7 1 25.5t2 39t1.5 39t0.5 26.5v32v33
q0 3 -0.5 11.5t-0.5 18.5t-0.5 19.5t-0.5 14.5q-1 13 -4 26.5t-10 25t-17.5 18.5t-25.5 7q-14 0 -24.5 -4t-21.5 -12q-1 -1 -2 -1.5t-2 -1.5t-2 -1l-10.5 -10.5t-10.5 -11.5q-8 -8 -10.5 -15t-4.5 -18q-8 -50 -10.5 -98.5t-2.5 -98.5q0 -16 -0.5 -37t4.5 -38q25 -1 42 -8
t25 -33q8 1 8 -7t-5 -17t-13 -9q-6 0 -22 -2t-33.5 -4t-33.5 -3.5t-22 -2.5q-5 -1 -9 -1h-15h-1l-114 12zM230 135q0 -11 0.5 -24.5t4.5 -25.5t12.5 -20.5t24.5 -8.5h4q-2 2 -6 6.5t-5 5.5q-5 5 -13.5 9t-9.5 9q-1 3 -2.5 12t-1.5 12q0 4 -1 13.5t-1.5 20t-1 20t-0.5 13.5
v49v54q0 1 0.5 7.5t1 14t1 13.5t0.5 8v4v4l-2 -10q0 -3 -1 -13.5t-2 -23.5t-1.5 -25t-0.5 -18v-52v-54zM850 59q0 1 -0.5 1t-0.5 -1t0.5 -1t0.5 1zM828 80q0 -5 6.5 -12.5t11.5 -7.5h1q-5 5 -9.5 10t-9.5 10zM827 86q-1 0 -1 -1t1 -1t1 1t-1 1zM826 95q-2 1 -2 -3t2 -2t0 5z
M238 339q-1 0 -1 -2t1 -2t1 2t-1 2zM239 347q-1 0 -1 -1.5t1 -1.5q2 0 2 1.5t-2 1.5zM241 353q-2 0 -2 -1t2 -1q1 0 1 1t-1 1z" />
    <glyph glyph-name="n" unicode="n" horiz-adv-x="681" 
d="M121 6l-67 14q-4 2 -4 7q0 4 0.5 10.5t3.5 9.5l23 28q6 8 16.5 12t19.5 6l1 2q0 2 1.5 7.5t1.5 7.5q0 6 1 20.5t2 31t1.5 31t0.5 20.5v83v83l-2 28t-6 27q0 1 3 1t4 -4t3 -6q1 -3 2.5 -9.5t1.5 -8.5t1 -9t2 -14.5t1.5 -14.5t0.5 -10q0 -9 1 -33.5t2 -51.5t1.5 -51
t0.5 -34v-23v-21q0 -11 -0.5 -26.5t-3.5 -28.5q0 -5 -2 -7l-10 -5l-20 -20h2q5 0 10 2t10 3q9 4 14 11.5t7 16.5t2.5 18.5t1.5 17.5q0 7 1 24t1.5 36t1 36t0.5 24v57v58q0 5 -1.5 20.5t-1.5 20.5q-1 11 -3.5 26t-10.5 24q-5 4 -8 8t-8 7l-9 3t-11.5 4t-10 4.5t-4.5 6.5
q0 8 6 10h18.5t28.5 0.5t28 0.5h19h16h15l1 -1q8 -17 10 -37.5t4 -37.5q0 -2 0.5 -11t0.5 -11q0 -1 0.5 -2.5t0.5 -2.5q8 6 14 16.5t13 18.5q29 30 59.5 48.5t74.5 18.5q35 0 68 -12q26 -9 41 -26.5t22.5 -39.5t9.5 -46.5t2 -47.5q0 -29 -0.5 -58t-0.5 -58v-27l9 137v63
q0 1 -1 12t-3 17q-5 28 -20 48t-36.5 33t-47.5 19.5t-51 6.5q-35 0 -65.5 -11.5t-56.5 -32.5h-1l-1 3v1q24 27 61 39.5t72 12.5q25 0 50 -5.5t46.5 -17.5t38.5 -30t26 -43q12 -35 13 -73v-52q0 -42 -0.5 -81.5t-0.5 -80.5v-35q0 -2 0.5 -7.5t2.5 -8.5q2 0 7 -1t6 -3
q3 -1 11.5 -3.5t10.5 -4.5q5 -2 15 -7t10 -13q0 -4 -2 -6.5t-2 -6.5q0 -2 0.5 -4t0.5 -4q0 -20 -17.5 -29t-34.5 -9h-1q-17 2 -34.5 3t-34.5 1q-28 0 -56 -2t-57 -2q-18 0 -24.5 6t-6.5 26v8q5 14 15 28t25 18q1 0 6.5 0.5t6.5 0.5q2 0 4 1q1 0 3 1l6 43q0 2 0.5 14
t1.5 27.5t1.5 31.5t0.5 26v33q0 19 -0.5 46.5t-6.5 53t-20.5 43.5t-42.5 18q-25 0 -43 -14t-30.5 -34.5t-19.5 -44.5t-10 -44q-5 -32 -6.5 -61.5t-1.5 -61.5v-48q0 -6 1 -14t3 -14q0 -3 4 -3q1 0 10 -2.5t10 -2.5q2 -2 8 -3t8 -3q1 0 6 -2t6 -3q2 -1 6.5 -4.5t4.5 -6.5
q0 -5 -3.5 -7.5t-3.5 -5.5q0 -4 1 -4l4 1h2q-2 -20 -17 -32t-35 -12q-8 0 -14 0.5t-15 2.5h-116zM75 34q5 0 19.5 -1t18.5 -1h19h17q4 0 15.5 0.5t24.5 1t24 1t16 0.5h-132q-12 0 -18 9q-4 -2 -4 -8v-2z" />
    <glyph glyph-name="o" unicode="o" horiz-adv-x="614" 
d="M59 151q0 3 2 3h2q43 -75 120 -111q3 -2 9 -4.5t10 -2.5h1q-67 31 -106.5 90t-39.5 135q0 72 37.5 131t102.5 94h-2q-1 0 -9 -4l-12 -6q-38 -19 -67 -49t-51 -66q-4 0 -4 4q16 38 41.5 69t58 52.5t70.5 33.5t79 12q56 0 103.5 -20t82.5 -55t55 -82.5t20 -103.5
q0 -54 -21.5 -104t-58 -87.5t-86 -60t-104.5 -22.5q-37 0 -72.5 11t-66 31.5t-55 48.5t-39.5 62v1zM214 32q0 1 -0.5 1t-0.5 -1q0 -2 0.5 -2t0.5 2zM211 33q0 1 -1 1t-1 -1t1 -1t1 1zM207 34q0 2 -1 2t-1 -2q0 -1 1 -1t1 1zM75 261q0 -46 17 -87t46 -71.5t69 -48t87 -17.5
t88.5 19.5t72.5 52.5t49 75.5t18 89.5q0 46 -17 85.5t-47 68.5t-70 45.5t-86 16.5q-48 0 -89 -18t-72 -49t-48.5 -73t-17.5 -89zM144 266q0 34 8 72.5t26 71.5t46.5 54.5t69.5 21.5q42 0 72.5 -22.5t50 -56t29 -73.5t9.5 -75q0 -23 -2.5 -45t-8.5 -43q-7 -24 -20 -47.5
t-31 -42t-41 -30t-51 -11.5q-32 0 -57.5 14t-44.5 36.5t-31.5 51t-17.5 56.5q-6 34 -6 68zM235 81q-1 0 -1 -1t1 -1q2 0 2 1t-2 1zM234 83q-1 0 -1 -1.5t1 -1.5t1 1.5t-1 1.5zM233 84q-2 0 -2 -1.5t2 -1.5q1 0 1 1.5t-1 1.5zM193 199q6 -19 14.5 -39.5t21.5 -37.5t30.5 -28
t40.5 -11q19 0 36 8t30.5 21.5t22.5 30t14 33.5q5 21 7.5 41t2.5 41q0 27 -6 59.5t-20 61t-37 47.5t-56 19q-23 0 -39.5 -10t-29 -26t-21 -36t-14.5 -39h-1q-4 0 -4 2v1v6q0 2 1 3q6 32 18 57.5t35 48.5q-23 -14 -37.5 -36t-23.5 -48t-12.5 -53.5t-3.5 -51.5q0 -45 11.5 -88
t41.5 -76l15 -15h1q-20 24 -31 54t-11 61h4zM199 488q-1 0 -1 -1t1 -1q2 0 2 1t-2 1z" />
    <glyph glyph-name="p" unicode="p" horiz-adv-x="668" 
d="M193 -261q-27 0 -53.5 -1t-52.5 -1h-18q-14 3 -16.5 10.5t-2.5 20.5q0 7 0.5 10t2 4t3.5 2t5 4q6 11 12 20t18 12q5 2 17.5 4.5t16.5 3.5q4 0 4 4q1 2 2 8t1 7l10 248v37v55v44.5t-0.5 67t-0.5 67v43.5q0 3 -1.5 11.5t-1.5 11.5l-1 4l-16 4l-16 4q-2 2 -8.5 3t-7.5 3
q-5 1 -9.5 4.5t-4.5 8.5q0 3 2 5.5t4 5.5q-1 2 -1 4q0 4 2 4q3 0 5.5 -3t2.5 -5v-2q0 -1 -2 -3.5t-2 -4.5v-1q0 -3 10 -7t13 -5q4 -1 17 -4t18 -4q3 -9 5 -19q1 -6 2.5 -18.5t1.5 -14.5l17 -405q0 7 0.5 24.5t1 37t1 37t0.5 24.5v21q0 66 -0.5 132t-0.5 133q-1 9 -1.5 21
t-3.5 23.5t-9.5 20t-19.5 11.5q-2 0 -12 2t-12 2q-9 2 -9 8q0 7 5 9t11 2t22.5 0.5t35.5 0.5t35.5 0.5t22.5 0.5h7h5l2 -1q2 -10 2 -20v-20q0 -11 -0.5 -20.5t-0.5 -19.5v-6q3 3 10 9t15 13t15 13t10 8q41 35 95 35q37 0 69 -14.5t57 -38.5t42.5 -55.5t25.5 -66.5
q4 -18 4.5 -37.5t0.5 -37.5q2 9 2.5 18.5t0.5 18.5q0 44 -15.5 86.5t-43 75.5t-66.5 53.5t-85 20.5q-29 0 -51.5 -8t-45.5 -22h-1q-3 0 -3 4l2 2q23 18 49.5 26t55.5 8q52 0 95 -22t74 -58.5t47.5 -83t16.5 -95.5q0 -55 -19 -102.5t-53 -82.5t-80.5 -55t-101.5 -20
q-26 0 -48.5 4.5t-46.5 12.5l-1 -4l-0.5 -5.5t-1 -12.5t-1 -14.5t-0.5 -11.5v-44v-39t3 -39q4 -16 16.5 -21.5t24.5 -12.5q9 -5 19.5 -20t10.5 -26q0 -18 -17.5 -25t-32.5 -7q-26 0 -53 1.5t-53 1.5zM370 452q-29 0 -50 -11t-35.5 -29t-22.5 -42t-11 -49q-2 -4 -2.5 -14.5
t-0.5 -12.5v-120v-5.5t0.5 -10.5l1 -12t1.5 -10q0 -10 4 -17q11 -26 36.5 -44t54.5 -18h4q-13 4 -27 10.5t-25.5 16t-19 22t-7.5 28.5v2q0 3 0.5 10t1.5 14.5t1.5 14.5t0.5 9q-2 6 4 6h1q2 -8 2 -17.5v-19t2 -18t8 -15.5q17 -17 34 -24t40 -7q31 0 52.5 16t34.5 40t18.5 53
t5.5 55q0 34 -7.5 71t-31.5 63q-11 13 -23.5 22t-29.5 12h-15q-22 0 -37 -7.5t-25.5 -20.5t-16.5 -30.5t-9 -36.5q0 -2 -2 -1.5t-4 0.5q0 16 3 34t10.5 34t19.5 29t29 19q15 7 27.5 8.5t28.5 1.5q-5 2 -12.5 1.5t-11.5 -0.5zM595 233q-1 0 -1 -2t1 -2t1 2t-1 2zM398 451
q-1 0 -1 -1.5t1 -1.5t1 1.5t-1 1.5z" />
    <glyph glyph-name="q" unicode="q" horiz-adv-x="663" 
d="M313 -216q0 5 0.5 10t2.5 9q1 2 3 2t4 2q5 11 12 21.5t19 13.5l30 7q0 1 1 1l1 1q2 6 3 14t1 14v144h-3q-25 -8 -50.5 -12t-51.5 -4q-70 0 -122.5 33.5t-88.5 93.5q-35 59 -35 130q0 50 20 98t54.5 85t80 59.5t97.5 22.5h9t11 -2v-4q-21 -1 -43 -3t-42 -10
q-35 -13 -64.5 -37.5t-51.5 -55.5t-34 -67.5t-12 -73.5q0 -24 3.5 -48.5t15.5 -45.5v1v2q-6 21 -9.5 39.5t-3.5 40.5q0 34 10.5 66.5t29 61.5t44 52t55.5 37q14 7 28 10t30 6q14 3 25 5.5t25 2.5q11 0 22.5 -1t22.5 -6q1 0 5.5 -3t6.5 -5q1 -1 5.5 -4.5t6.5 -4.5q1 0 5 -2
l9 -4.5t9.5 -4.5t5.5 -2q1 -1 7 -4t12 -6.5t11.5 -7t7.5 -4.5q1 0 2 -1q0 1 1 1q2 0 2 1l7 10.5t6 8.5q3 5 6.5 13.5t11.5 8.5q5 0 8 -6v-348v-32t0.5 -48.5t1 -48t1.5 -31.5l25 417q0 2 2 2h2v-57t0.5 -87t0.5 -87v-57q0 -12 0.5 -43t1 -66t1.5 -66t1 -43q0 -2 1 -9.5
t1 -9.5q1 -14 15 -17.5t25 -4.5q4 0 18 -1t18 -1v-34q1 0 2 -1q2 -2 2 -3q1 -5 -2 -11t-8 -11.5t-11.5 -10t-10.5 -4.5l-101 -11h-37l-127 19q-5 1 -5.5 1.5t-0.5 4.5zM163 257q0 -33 8 -68t25.5 -64t45 -47.5t66.5 -18.5q37 0 66 20q19 14 29 30t14.5 34.5t4.5 38.5v43v37
l-16 -99q-3 -20 -15.5 -36.5t-31.5 -23.5h-1q-3 0 -3 4q12 8 18 16.5t9 18t4 20.5t2 24v55v53v9.5t-0.5 14.5t-1 15t-0.5 10q-2 15 -5 32t-10.5 32t-19.5 26t-31 13h-15q-33 0 -54 -19.5t-34 -47.5t-18 -60.5t-5 -57.5q0 -45 12.5 -85t46.5 -72v-1q0 -3 -2 -3h-2
q-1 0 -3 1.5t-4 2.5q-2 2 -5.5 4.5t-4.5 3.5q-35 32 -50 76t-19 89v-20zM91 167q-1 0 -1 -1t1 -1q2 0 2 1t-2 1zM90 170q-1 0 -1 -1.5t1 -1.5t1 1.5t-1 1.5zM89 171q-2 0 -2 -0.5t2 -0.5q1 0 1 0.5t-1 0.5zM87 174q-1 0 -1 -0.5t1 -0.5q2 0 2 0.5t-2 0.5zM86 178
q-1 0 -1 -1.5t1 -1.5t1 1.5t-1 1.5zM85 181q-2 0 -2 -1t2 -1q1 0 1 1t-1 1z" />
    <glyph glyph-name="r" unicode="r" horiz-adv-x="545" 
d="M58 24q0 4 1 12.5t4 10.5q2 1 3 1t3 2q12 20 22.5 29t36.5 12q2 8 2 15q0 3 0.5 10.5t1 15.5t1 15.5t0.5 10.5v83v83q0 5 -0.5 17.5t-1 26t-1.5 26t-1 17.5q-1 13 -14 18t-24 5q0 -4 -2 -4h-2l-33 35v2q0 17 9 31.5t28 15.5l136 8h1l1 -3v-1l-1 -1l-135 -16
q-14 -2 -19 -10.5t-5 -21.5v-2l16 -16q2 0 10 -1.5t10 -1.5q4 -1 11 -2.5t14 -4.5t12 -7.5t6 -10.5l16 -159v26v26q0 5 -0.5 18t-1 28t-1.5 28t-1 18q-2 9 -3.5 19.5t-7.5 18.5q-10 11 -27 16q-3 1 -9.5 1.5t-12.5 1.5t-10.5 3t-4.5 7q0 6 5 8t10 2l137 8l8 -114
q13 21 28.5 42t34 38t41 27.5t49.5 10.5q29 0 50.5 -20.5t21.5 -50.5q0 -20 -10 -35t-33 -15q-11 0 -17.5 6t-11.5 14t-9.5 16.5t-11.5 14.5v-1q4 -8 8 -17t9 -17t12 -14.5t16 -8.5h11q27 0 39 18t12 44q0 19 -7.5 35t-20.5 28t-30 18.5t-36 6.5q-22 0 -41.5 -6t-38.5 -16
h-2q-2 0 -2 2v2q20 14 42.5 21.5t48.5 7.5q21 0 40.5 -8t34 -21.5t23.5 -32.5t9 -41q0 -35 -18 -59t-56 -24q-10 0 -18 1.5t-17 6.5q-14 9 -21 20q-3 4 -5.5 10t-6 11.5t-7.5 9.5t-9 4q-10 0 -21 -9t-20 -22t-15 -27t-7 -24l-5 -61v-140l2 -30q0 -2 8 -4t10 -2q3 0 3.5 1.5
t2.5 1.5q3 0 4 -3q1 -2 5.5 -6.5t9.5 -10t9 -10t6 -6.5v-3q0 -20 -16.5 -34t-35.5 -14h-91l-133 19h-2q-1 0 -2 1zM375 430q-1 0 -1 -1.5t1 -1.5q2 0 2 1.5t-2 1.5zM374 431q-1 0 -1 -1.5t1 -1.5t1 1.5t-1 1.5zM373 432q-2 0 -2 -1t2 -1q1 0 1 1t-1 1zM371 434q-1 0 -1 -1.5
t1 -1.5q2 0 2 1.5t-2 1.5zM370 434q0 1 -0.5 1t-0.5 -1q0 -2 0.5 -2t0.5 2zM367 436q-1 0 -1 -1t1 -1q2 0 2 1t-2 1zM365 438q-2 0 -2 -1.5t2 -1.5q1 0 1 1.5t-1 1.5z" />
    <glyph glyph-name="s" unicode="s" horiz-adv-x="479" 
d="M139 24q-8 -8 -16.5 -14t-20.5 -6q-20 0 -30 13.5t-12 30.5q0 8 -1 28.5t-1.5 44t-1.5 44.5t-1 30v8q0 15 3 23.5t20 8.5q20 0 32 -5.5t20 -15.5t14.5 -24t14.5 -30q7 -14 16.5 -28.5t21.5 -26t27 -19t33 -7.5q23 0 41 12t18 36q0 11 -5.5 20.5t-14 17.5t-18 14.5
t-18.5 10.5l-115 56q-35 17 -55 52.5t-20 74.5q0 36 14.5 65.5t39 50.5t56 33t65.5 12q27 0 53.5 -8t51.5 -19h1q5 0 14 6t18 6h3l29 -16l1 -1q-1 -11 2.5 -25t4.5 -25q0 -4 1 -15t1.5 -23t1 -23.5t0.5 -15.5v-26v-27q-2 -1 -9.5 -3t-9.5 -2h-6q-12 0 -19.5 4t-18.5 12
q-18 15 -27 35.5t-18.5 38.5t-24.5 31t-44 13q-14 0 -28.5 -4t-23.5 -16q-1 -2 -2.5 -4.5t-1.5 -3.5v-18q0 -5 8.5 -14.5t13.5 -11.5l107 -51q0 -4 -3 -4t-5 1l-98 40q-15 6 -27 20t-12 31q0 15 7.5 25.5t19 17.5t25 10t26.5 3q52 0 80 -43q6 -9 12.5 -20.5t14.5 -21.5l1 -2
v2q0 1 -7.5 15.5t-12.5 22.5q-30 55 -94 55q-15 0 -30.5 -3.5t-28 -11.5t-20.5 -20t-8 -30t10 -36t27 -26l152 -74q29 -14 45.5 -42t16.5 -59q0 -32 -12.5 -59.5t-34 -48t-50 -32.5t-59.5 -12q-14 0 -24.5 2t-25.5 6q-4 2 -13 5.5t-19 7.5t-19 7.5t-12 5.5q-2 1 -5 2t-6 1
q-6 0 -9.5 -4t-6.5 -9t-6.5 -9t-9.5 -4q-5 0 -6.5 4t-1.5 8q0 2 -1 7.5t-1 7.5q0 6 -0.5 22.5t-0.5 34.5t-0.5 34t-0.5 23v5q0 5 1 10.5t5 8.5q-1 1 -4 1h-2q-6 -31 -6.5 -61t-0.5 -62v-37q5 -18 19 -18q10 0 16.5 7t12.5 13h3q5 0 15 -5q1 -1 8 -4t14.5 -7t14 -7t8.5 -4
q34 -14 75 -14q43 0 81 17h1q1 0 1 -3q0 -2 -1 -2q-43 -23 -93 -23q-30 0 -58 9.5t-57 21.5h-4zM392 349h2v1zM366 384q-2 0 -2 -0.5t2 -0.5q1 0 1 0.5t-1 0.5z" />
    <glyph glyph-name="t" unicode="t" horiz-adv-x="470" 
d="M123 191v41q0 9 1 32t2 49.5t2 49.5t1 32v24l-2 1q-5 1 -16 1.5t-23.5 1.5t-24 1.5t-15.5 1.5q-2 0 -6 0.5t-5 0.5v15q0 18 4.5 30.5t18.5 25.5q21 9 38 21t37 26q9 6 18 18t16.5 26.5t12 28.5t4.5 25q0 3 -1.5 3.5t-1.5 2.5t4 6q1 1 5.5 5t10 8t9.5 7.5t6 5.5h4
q6 0 14.5 -3t15.5 -7.5t12 -11.5t5 -14v-119h105q2 -1 5 -2q6 -2 9 -2q28 -8 28 -37q0 -34 -24 -57q-2 0 -8 -0.5t-8 -0.5h-3v5l16 3l9 9q8 8 9 18.5t1 19.5v11q-5 15 -17.5 18.5t-25.5 3.5h-9l-106 -8l-7 133q0 2 -2 4.5t-3 3.5v-4v-149h131q5 0 11 -1.5t6 -7.5
q0 -3 -2 -15.5t-6 -12.5l-140 -10q-1 0 -2 -16.5t-2 -39t-2 -47t-1 -40.5v-64v-64q1 -21 5 -39.5t12.5 -32.5t23.5 -22.5t39 -8.5q17 0 32.5 5.5t30.5 14.5h-1l-28 -10t-30 -5q-23 0 -36.5 8.5t-20 22.5t-8 32t-1.5 36v21l10 121q0 4 6 4v-145q0 -9 2 -20.5t3 -19.5
q6 -32 40 -32q11 0 21 4t19.5 9.5t19 9.5t19.5 4q18 0 29 -12.5t11 -29.5q0 -14 -8 -25.5t-19 -20.5q-30 -26 -63.5 -40t-73.5 -14q-35 0 -61 12.5t-43 34t-26.5 50t-11.5 61.5v41zM194 564q14 26 20 52q2 10 3.5 22t13.5 14q-3 1 -8 1q-2 0 -3.5 0.5t-3.5 -2.5
q-3 -23 -8 -44t-14 -42v-1zM235 651q-1 0 -1 -1.5t1 -1.5t1 1.5t-1 1.5zM234 652q-2 0 -2 -1.5t2 -1.5q1 0 1 1.5t-1 1.5z" />
    <glyph glyph-name="u" unicode="u" horiz-adv-x="628" 
d="M75 460q-1 2 -4.5 3t-7 2.5t-6.5 4.5t-3 10q0 9 7.5 13t15.5 4h119l9 -337q2 -32 20.5 -57.5t52.5 -25.5q8 0 15.5 0.5t13.5 4.5q-6 0 -12 -1.5t-12 -1.5q-32 0 -48 21t-19 50v34v33q0 6 0.5 20t1 30.5t1.5 30.5t1 20q0 1 4 1h1l6 -162q1 -19 13 -37.5t35 -18.5
q14 0 27.5 7t25.5 18.5t21 24.5t14 25q5 10 6 23t2 22q1 7 1.5 24t1 35.5t1 35.5t0.5 23v27q0 16 0.5 34.5t-4.5 34.5q-3 0 -12.5 1t-12.5 1t-9 2t-12 4.5t-10.5 6t-4.5 8.5t2.5 8t5.5 6v2q-4 0 -4 4q0 11 4.5 21t15.5 14q6 0 20 1.5t29.5 2.5t29.5 2.5t20 1.5h39h37
q3 -2 3 -5l7 -133v-8q0 -57 -2 -113.5t-2 -113.5v-19q0 -1 0.5 -8t0.5 -10q0 -1 0.5 -4.5t0.5 -4.5t0.5 -3t2.5 -4q4 -1 12.5 -3t17 -5.5t15.5 -8t7 -9.5t-2 -7t-2 -5v-2l3 -4q0 -5 -2.5 -11t-5.5 -9q-2 -3 -7 -8t-7 -5l-8 -3q-2 0 -11 -1.5t-20.5 -2.5t-23 -2.5t-17.5 -1.5
h-25h-27q-12 3 -23 10t-16 19q-2 5 -2.5 9.5t-2.5 9.5q-32 -25 -67.5 -40.5t-77.5 -15.5q-66 0 -103.5 40.5t-39.5 104.5l-8 282q0 8 -2 17t-4 17zM79 478q20 -2 29.5 -9t11.5 -28l8 -287q0 -1 0.5 -6.5t1.5 -12.5l2 -14t1 -11q3 -18 13 -31.5t24 -22t30.5 -13t32.5 -4.5
q30 0 55.5 10t47.5 26.5t41 37.5t37 43l1 1h2q0 -3 0.5 -9t0.5 -13t0.5 -13.5t0.5 -8.5v-18q0 -10 -0.5 -19.5t-0.5 -20.5v-5q3 -3 4 -3h109v2q-32 5 -41.5 22t-11.5 47v48q0 51 1.5 102t1.5 102v27q0 4 -0.5 16t-1 25.5t-1.5 25t-1 16.5h-114q23 -5 37.5 -12t17.5 -33
q0 -3 1.5 -15t1.5 -15v-55v-56q0 -6 -0.5 -19.5t-1.5 -28.5t-2 -28t-2 -18q-2 -23 -10.5 -45.5t-25.5 -39.5q-21 -22 -45 -39t-56 -17q-19 0 -35.5 8t-28.5 21.5t-19 31t-7 36.5l-8 324h-101v-2zM311 83q0 2 -0.5 2t-0.5 -2q0 -1 0.5 -1t0.5 1zM114 114q-1 0 -1 -1.5t1 -1.5
q2 0 2 1.5t-2 1.5zM113 123q-1 2 -1 -2t1 -3q2 2 0 5zM78 460q2 -8 5 -14.5t4 -14.5l25 -305v4v9t-2 11l-8 284q0 2 -0.5 8t-0.5 8q-1 8 -6.5 9t-11.5 1h-5z" />
    <glyph glyph-name="v" unicode="v" horiz-adv-x="653" 
d="M88 442q-12 4 -26.5 8t-23.5 15v5q0 3 1.5 5.5t1.5 5.5q0 2 -2 2.5t-2 3.5q0 8 5.5 20t15.5 11q59 8 117.5 11.5t118.5 3.5h3q1 -2 2.5 -9.5t1.5 -9.5v-1q0 -17 -9.5 -33.5t-22.5 -27.5q-2 0 -6 -1t-5 -1q-3 -2 -3.5 -1.5t-0.5 -1.5v-1q0 -2 0.5 -4t0.5 -3q2 -5 5 -14.5
t3 -10.5l51 -122v-2q0 -2 -3 -2q-1 0 -2 1l-60 126q-5 8 -8 17.5t-3 18.5q0 1 -0.5 2t1.5 2q1 0 4.5 1.5t3.5 2.5q2 1 3 4.5t1 5.5v-6q5 3 8.5 9t5.5 10q-7 -3 -14.5 -4.5t-13.5 -4.5t-10 -8.5t-4 -14.5t3 -18l23 -64l100 -219l74 151l33 91q5 13 8.5 28.5t3.5 30.5
t-7.5 20.5t-16 7t-16 2.5t-7.5 7t3.5 9t8.5 3h113l-99 8h-19q-7 0 -13 -10t-5 -15q0 -1 1 -2l2 -2q1 -2 2.5 -3t3.5 -3t4 -3q3 -2 8.5 -3.5t11.5 -3.5t10 -5t4 -7q0 -6 -4 -4l-5 -20l-44 -106l-19 -38q-1 -1 -3 -1t-2 1v2l47 126q2 7 4 14.5t2 14.5v4q-3 1 -7.5 2t-6.5 2
l-34 35q-3 3 -3 7h6l5 12.5t7.5 14t10.5 11t14 4.5h125l60 -18q1 0 4 -3v-8q0 -13 -4.5 -21t-12.5 -19q-2 -2 -4 -4.5t-3 -2.5l-48 -23q-3 -1 -7 -6t-5 -8l-168 -395q-8 -19 -28 -19q-11 0 -24.5 6t-18.5 17l-180 384q-5 9 -10 17t-13 14zM68 486q-2 0 -2 -1.5t2 -1.5
q1 0 1 1.5t-1 1.5zM258 501q7 0 11 -8q0 -2 0.5 -4t0.5 -3h1q5 0 6.5 6t1.5 10q0 5 -5.5 6.5t-10.5 1.5h-5l-150 -9h150zM579 495v2h-1z" />
    <glyph glyph-name="w" unicode="w" horiz-adv-x="893" 
d="M114 411l-11 20q-1 0 -3 1q-4 2 -5 3q-12 4 -27 6.5t-23 14.5v4q0 5 1.5 6.5t2.5 4.5v3h-5v1q1 10 7 23t18 14l97 12h76l71 -17l4 -1v-6q0 -11 -2.5 -15.5t-9.5 -13.5q-12 -14 -19 -22.5t-26 -8.5v-1l10 -34v-1q0 -3 -2 -3t-3 3q-2 4 -7 18t-7 18q-1 4 -7 4t-9 3l3 1h18
q1 -1 8 -1q11 0 18.5 10.5t13.5 17.5l7.5 9t2.5 12v3l-2 1q-1 0 -8 1.5t-16 3t-19 3.5t-16 3t-11 1h-11q-36 0 -71.5 -3.5t-70.5 -8.5q-7 -2 -12.5 -7t-5.5 -13v-2q12 -4 15.5 -6.5t3.5 -4.5v-4.5t6 -6.5q7 -5 13 -7t10.5 -4.5t8.5 -6.5t8 -13l130 -278v3l-110 258
q0 1 -2.5 6l-5.5 11t-6 11.5t-4 8.5q-9 16 -26 23q-3 1 -8 1.5t-9.5 1.5t-8 3.5t-3.5 7.5t4.5 7t8.5 3q7 0 23.5 0.5t35 1t35 1t23.5 0.5h14h15h9t13 -0.5t13.5 -0.5h8.5q8 -3 8 -8q0 -9 -9 -11.5t-19.5 -5t-19.5 -7.5t-9 -17v-8.5t2 -8.5l112 -276l2 4l70 173l8 24
q-2 6 3 8q3 10 6 21t3 22q0 16 -7.5 33t-20.5 27q-5 3 -12 4t-13.5 2.5t-11.5 4t-5 8.5q0 3 2.5 7t7.5 4q28 1 55 1.5t54 0.5h14h10.5t16 -0.5t16 -0.5h10.5q10 -2 10 -9q0 -5 -8 -8.5t-17 -7.5t-17 -10t-8 -15v-1q14 -2 26 10l20 20q5 5 12.5 10.5t5.5 14.5q0 1 -2.5 4
t-3.5 4q-23 4 -46.5 5.5t-46.5 1.5h-2l-121 -12q-2 0 -5.5 -8.5t-3.5 -11.5q0 -2 2 -3.5t2 -6.5q0 -3 -4 -5t-3 -5q0 -2 1.5 -3.5t1.5 -2.5q8 -5 15.5 -7.5t16.5 -4.5q1 0 8 -1.5t8 -1.5q3 -1 6 -5.5t5.5 -10.5t3.5 -11.5t1 -8.5q0 -1 -1.5 -10.5t-3.5 -9.5q-4 0 -4 3
q0 4 0.5 8t0.5 8q0 6 -3 17.5t-10 13.5q-2 0 -10 1t-9 1q-3 2 -12 4t-11 3q-5 2 -12 6t-7 12q0 3 2.5 6.5t4.5 5.5q-1 1 -1 5q0 7 4 19t12 13l127 19h4h7q7 0 19 -0.5l24 -1t20.5 -1t9.5 -0.5q6 0 18.5 -1.5t14.5 -2.5l4 -1v-7q0 -31 -11.5 -47.5t-37.5 -30.5l-1 -1l78 -191
l60 182q1 2 1 8q0 3 -7.5 4.5t-16 2.5t-16 2t-7.5 3v29q-4 2 -4 4q0 20 16.5 33.5t34.5 14.5q4 0 13 0.5t19.5 0.5t20 0.5t13.5 0.5h5h6q3 0 10 -0.5t14.5 -1t13.5 -1t8 -0.5q8 -1 20.5 -2.5t13.5 -1.5l3 -1v-35q0 -11 -12 -24.5t-19 -17.5q-15 -9 -26.5 -16t-17.5 -24
l-114 -318l-46 -79q-2 -3 -2.5 -4.5t-3.5 -1.5q-20 0 -33.5 14t-20.5 31l-95 224q0 1 -0.5 1t-0.5 1v1h-2l-1 -1v-2l-87 -212q-1 -2 -7 -15t-9 -18q-4 -7 -11 -16t-16 -9q-10 0 -22 4t-17 15l-22 44zM270 120q-1 0 -1 -1.5t1 -1.5q2 0 2 1.5t-2 1.5zM269 123q-1 0 -1 -1
t1 -1t1 1t-1 1zM268 127q-2 0 -2 -1.5t2 -1.5q1 0 1 1.5t-1 1.5zM266 130q-1 0 -1 -1t1 -1q2 0 2 1t-2 1zM265 132q-1 0 -1 -0.5t1 -0.5t1 0.5t-1 0.5zM264 136q-2 0 -2 -1t2 -1q1 0 1 1t-1 1zM262 139q-1 0 -1 -0.5t1 -0.5q2 0 2 0.5t-2 0.5zM260 144q0 -2 1 -4v2q0 2 -1 4
v-2zM609 198q-1 0 -1 -1.5t1 -1.5t1 1.5t-1 1.5zM608 200q-2 0 -2 -0.5t2 -0.5q1 0 1 0.5t-1 0.5zM606 203q-1 0 -1 -0.5t1 -0.5q2 0 2 0.5t-2 0.5zM605 207q-1 0 -1 -0.5t1 -0.5t1 0.5t-1 0.5zM604 210q-2 0 -2 -1t2 -1q1 0 1 1t-1 1zM602 214q-1 0 -1 -1.5t1 -1.5
q2 0 2 1.5t-2 1.5zM511 437q0 -2 2 -7.5t2 -6.5l6.5 -19.5t5.5 -15.5l74 -173v3l-79 221l-11 1v-1v-2z" />
    <glyph glyph-name="x" unicode="x" horiz-adv-x="710" 
d="M285 23q15 2 28 12t15 27q-5 6 -10 11l-10 10q-8 2 -18.5 3t-19.5 3q0 -2 -2 -2h-2q-6 0 -12 1t-13 1q0 -8 9 -15q6 -4 15.5 -5.5t19 -2.5t16.5 -3.5t7 -8.5q0 -5 -7.5 -7.5t-10.5 -2.5h-171q-4 0 -10.5 2.5t-6.5 8.5t9.5 8.5t21.5 5t24 6t17 10.5l142 180l-141 189
q-7 9 -18.5 15t-22.5 9q-2 0 -9 2t-10 2q-6 2 -16.5 3.5t-10.5 10.5q0 6 6.5 7.5t11.5 1.5h208q14 0 18 -11h1q4 0 4 4q0 6 -7 9t-12 3l-75 7h-148q-9 0 -16.5 -6t-9.5 -14q0 -1 -0.5 -1.5t-0.5 -1.5v-2q0 -2 2 -4q1 -1 3 -2v-1q0 -4 -2.5 -6.5t-2.5 -5.5q0 -6 12 -10
t27.5 -8t30.5 -9.5t21 -12.5q2 -5 11 -16.5t11 -15.5l1 -3v-1l-3 -2h-1l-1 2q-1 1 -4 5t-7 8.5t-7 9t-4 5.5q-8 9 -25.5 14.5t-35.5 10t-32 9t-14 11.5q0 5 2.5 8.5t5.5 6.5v1q0 2 -0.5 2.5t-0.5 1.5q0 11 8 25.5t20 16.5l155 6l105 -9q8 -1 14 -11t6 -18q0 -7 -4 -10
q-2 0 -6 -0.5t-5 -0.5q-5 -2 -12 -3t-13 -3q-8 -2 -15 -3v-2l3.5 -6.5t8 -14.5t9.5 -16.5t8 -14.5q1 -3 5.5 -9.5t9.5 -14t9.5 -14t6.5 -9.5h1l3 3l7 10.5t10.5 16t10.5 16l7 10.5l5 10v1q-3 1 -14 4.5t-14 4.5q-6 2 -13 6.5t-7 12.5v3q0 1 2 4t2 4l-3 5q0 17 15.5 28.5
t30.5 11.5h8l163 -8q11 -1 17.5 -12.5t8.5 -21.5v-7q2 -4 4 -5.5t2 -6.5t-6 -7.5t-7 -3.5q-3 -1 -13 -3t-13 -4q-14 -3 -27 -3.5t-26 -6.5q-1 0 -1 -0.5t-1 -0.5l-1 -1l-98 -135l109 -150q1 -2 9.5 -12t13.5 -15t10.5 -10t13.5 -8q2 -2 8.5 -4t8.5 -2q1 0 6 -1t10.5 -2
t10 -2t5.5 -1q2 0 8 -2t8 -4q5 -1 10 -4.5t5 -8.5q0 -4 -3.5 -6t-3.5 -6q0 -1 2 -1.5t2 -3.5q0 -14 -7 -26t-21 -15h-41h-43q-9 0 -32 0.5t-48.5 0.5t-48.5 0.5t-32 0.5q-14 1 -24 12.5t-12 24.5v4h6v3q-2 3 -4 5.5t-2 6.5q0 6 7.5 9.5t12.5 5.5q15 5 28 8l2 1l-61 88l-1 2
h-1l-2 -2l-50 -81q0 -2 -2 -4.5t-2 -3.5v-2q6 -4 16 -4.5t17 -0.5q8 -7 15.5 -15.5t15.5 -16.5v-1q-8 -14 -15.5 -25t-22.5 -17q-1 -1 -3 -2t-5 -1q-1 0 -1.5 -0.5t-1.5 -0.5h-2h-68v4h4q2 0 4 0.5t4 0.5q3 0 10.5 0.5t15.5 1t15.5 1t10.5 0.5zM377 62q-1 0 -1 -1.5t1 -1.5
q2 0 2 1.5t-2 1.5zM431 90q0 -3 -5 -5.5l-7 -3.5l-12 -12h1q9 0 17.5 6t8.5 15q0 7 -4 15l-100 142l-75 -120q-1 -1 -6 -11t-7 -15q-1 -3 -1 -7q4 0 9.5 1t9.5 6q1 3 5.5 12t6.5 12q3 5 11 19.5t17 30.5t17.5 30t11.5 20l1 2h2q1 -2 3 -4l3 -3q2 -3 8 -9.5t7 -8.5l73 -97
q2 -2 3.5 -6.5t1.5 -8.5zM314 399q-1 0 -1 -1t1 -1q2 0 2 1t-2 1zM313 402q-1 0 -1 -1.5t1 -1.5t1 1.5t-1 1.5zM312 403q-2 0 -2 -0.5t2 -0.5q1 0 1 0.5t-1 0.5zM310 406q-1 0 -1 -1.5t1 -1.5q2 0 2 1.5t-2 1.5zM273 467q0 -3 2 -7l3 -6q3 -5 8 -12.5t9.5 -15t8 -13
t4.5 -6.5l1 -1v1q-2 3 -5.5 10t-7 15.5t-7.5 15.5t-5 10q-2 2 -4 8t-3 8q-4 -1 -4 -7zM601 485q3 -3 5 -3q-2 3 -4 3h-1z" />
    <glyph glyph-name="y" unicode="y" horiz-adv-x="681" 
d="M55 -177q0 35 24 59.5t59 24.5q32 0 52.5 -18.5t25.5 -50.5h1q5 0 11.5 6.5t8.5 9.5q18 22 32.5 46.5t26.5 49.5q7 14 11.5 29t4.5 30q0 31 -11 56l-134 324q0 2 -6.5 14t-9.5 18l-4.5 9t-5.5 9q-5 5 -15 8.5t-17 4.5q-3 2 -15 3t-15 3v8q0 11 1.5 23t6.5 21.5t14 16
t24 6.5q22 0 44 -2t45 -2q26 0 51 1t51 1q7 0 17 -1.5t18 -5.5t14 -11t6 -17q0 -4 -1.5 -6.5t-3.5 -5.5q-2 -1 -5 -7.5t-5 -8.5q-9 -12 -20 -16.5t-24 -9.5q-4 -2 -4 -11v-1l31 -86v-2q0 -2 -4 -2l-3 5l-35 86h-1l-3 -1v4q-2 0 -5.5 0.5t-3.5 3.5q0 2 1 2h10q1 0 3 3.5
t3 3.5t2 1q2 2 4 2q16 7 23 12.5t18 21.5q2 3 6 5t4 6q0 7 -6 11.5t-14.5 6t-16.5 2t-12 0.5q-30 0 -60.5 -2.5t-60.5 -2.5q-16 0 -31 0.5t-30 0.5t-20 -10t-5 -23v-2q21 -4 39.5 -10.5t29.5 -27.5l49 -93v3l-43 91q-5 9 -12 18.5t-16 14.5q-7 5 -15 7q-5 1 -14 3t-9 10
q0 3 0.5 5.5t5.5 4.5h9q22 0 44 -2t44 -2h40t38 1q2 0 13.5 1.5t13.5 1.5h8h8q6 -3 6 -8q0 -8 -10 -11.5t-22.5 -8t-22.5 -12.5t-10 -24q0 -8 2 -14.5t5 -14.5l115 -286l75 214q7 21 11.5 44t4.5 46v16q-2 16 -13.5 23t-24 10t-22.5 5.5t-10 10.5q0 5 4.5 6.5t9.5 1.5
q19 0 37.5 -0.5t38.5 -0.5q24 0 48 1.5t48 1.5q5 0 9.5 -2.5t4.5 -7.5q0 -2 -2 -5h2q8 0 8 8q0 5 -5.5 8t-12.5 5t-14 2.5t-10 0.5l-126 4q-3 0 -13 1.5t-13 1.5h-2q-13 0 -22 -11t-9 -23v-1q2 -1 5 -5t5 -6l9 -9q1 0 6 -1.5t6 -1.5q9 -2 20.5 -7t14.5 -15v-10q0 -24 -8 -49
t-16 -47v-2q0 -1 -1 -1q-4 -1 -4 4v1q6 22 12 45t6 45v8q0 3 -4 5.5t-9.5 4.5t-10.5 3.5t-8 1.5q-1 0 -2 -0.5t-3 -0.5l-32 34v4q0 20 13.5 35t33.5 15q16 0 32.5 -0.5t33.5 -0.5q25 0 49 0.5t48 0.5q18 0 36.5 -8t18.5 -31q0 -12 -8 -24.5t-19 -18.5q-1 -1 -10 -3.5
t-10 -4.5q-11 -4 -20 -12.5t-14 -19.5l-192 -513q-1 -1 -4 -7l-7 -14t-7.5 -16t-5.5 -12q-13 -26 -31.5 -49.5t-41 -41.5t-49.5 -28.5t-57 -10.5q-22 0 -43.5 7t-38.5 20.5t-27.5 32.5t-10.5 43zM232 320q-2 0 -2 -1t2 -1q1 0 1 1t-1 1zM230 324q-1 0 -1 -1.5t1 -1.5
q2 0 2 1.5t-2 1.5zM229 326q-1 0 -1 -1t1 -1t1 1t-1 1zM228 329q-2 0 -2 -0.5t2 -0.5q1 0 1 0.5t-1 0.5zM226 332q-1 0 -1 -1t1 -1q2 0 2 1t-2 1zM225 334q-1 0 -1 -0.5t1 -0.5t1 0.5t-1 0.5zM221 342q0 -3 3 -6v1q0 2 -1 3.5t-2 3.5v-2zM516 369q-2 0 -2 -1t2 -1q1 0 1 1
t-1 1zM600 479q-1 0 -4 -1.5t-4 -1.5q-23 -9 -36.5 -26.5t-22.5 -38.5q-2 -4 -4.5 -10.5t-5 -12.5t-4.5 -11l-2 -5v-1q10 22 20.5 43t28.5 38q8 8 18.5 14t18.5 13h-2h-1z" />
    <glyph glyph-name="z" unicode="z" horiz-adv-x="558" 
d="M86 18q-14 4 -23 13.5t-9 26.5q0 12 6.5 25t12.5 23l164 252l51 88l2 3h-14q-23 0 -44 -3.5t-41 -14.5q-17 -9 -29.5 -26t-23.5 -31q-2 -4 -8 -9.5t-13 -10.5t-14 -8.5t-12 -3.5q-2 0 -2 4q24 14 43 34q1 1 5 7t9 12.5t9.5 12t5.5 7.5q15 18 34 27.5t40.5 14t44 5.5
t43.5 1v-1l-79 -155l1 1l94 161l1 3v1l-2 1q-12 0 -26 1t-28 1q-45 0 -79 -10t-64 -43q-13 -14 -22.5 -29.5t-23.5 -29.5h-2q-8 0 -8 10v1l33 118q38 1 73 2q30 1 62.5 1t53.5 1h40h42.5t42.5 -1q4 -2 8.5 -3.5t4.5 -7.5l-9 -19l-237 -376l2 3l243 334l1 2h1l2 -2q0 -1 1 -1
l-4 -8l-205 -321h83q15 0 27 7.5t21 18.5l70 87q5 0 9 1q10 2 14 2h5q18 0 27 -14.5t9 -30.5v-10l-35 -146l-16 -1h-76h-115h-10t-17 0.5t-17 0.5h-10h-92q-3 0 -15.5 1t-15.5 1zM199 94q-2 0 -2 -1.5t2 -1.5q1 0 1 1.5t-1 1.5zM243 310q-2 0 -2 -1.5t2 -1.5q1 0 1 1.5
t-1 1.5z" />
    <glyph glyph-name="one" unicode="1" horiz-adv-x="419" 
d="M59 50q0 20 10 28.5t24 12t29.5 5t26.5 7.5q2 1 3 4.5t1 4.5q3 13 4 29.5t1 28.5v109v110v15t-0.5 23t-0.5 22.5v15.5q0 7 -0.5 17t-2.5 19.5t-7 17t-14 9.5q-2 0 -11.5 1.5t-11.5 1.5q-1 0 -7.5 1.5t-10.5 2.5q-2 0 -7 1.5t-10 3.5t-9.5 4.5t-5.5 5.5l-1 7q-1 3 -4.5 6
t-3.5 7q0 10 6 18.5t14.5 14t18.5 8.5t19 4q28 5 53.5 9.5t51.5 16.5h2q2 0 2 -3q0 -2 -1 -2q-15 -8 -26.5 -13.5t-28.5 -9.5q-2 -2 -8.5 -3t-8.5 -1q-1 0 -6 -1t-10.5 -2t-10 -2t-5.5 -1q-4 -1 -11.5 -4t-15 -7.5t-13 -9.5t-5.5 -11q0 -3 6.5 -4t8.5 -1h3q-4 3 -4 9
q0 8 8 8q31 2 61 7.5t59 15.5q8 2 16 6.5t12 6.5q6 3 9 5.5t9 2.5q5 0 6.5 -3t2.5 -7v-42q0 -72 -1 -144.5t-1 -144.5v-60q0 -6 0.5 -19t0.5 -28t0.5 -28.5t0.5 -18.5l2 7l24 286v5t2 5h2l2 -2v-2q0 -42 -0.5 -82t-0.5 -80v-59v-14t0.5 -24l1 -26t1.5 -19q0 -2 0.5 -7.5
t0.5 -7.5q0 -5 5 -8t11.5 -5t13 -2.5t10.5 -0.5v1q0 1 1 2q1 0 2 1l3 -1q3 -5 14.5 -16.5t14.5 -15.5q3 -3 3.5 -4t0.5 -4q0 -7 -3.5 -16t-8.5 -16.5t-12.5 -12.5t-14.5 -5h-241q-16 0 -28 12.5t-12 28.5zM155 543q14 -6 19.5 -22.5t7.5 -29.5q1 -2 2 -7.5t2 -12t1.5 -12.5
t0.5 -8v6q0 21 -2.5 40.5t-10 33.5t-22 22.5t-38.5 8.5h-12q5 -3 9 -4.5t9 -3.5q4 -1 17 -5.5t17 -5.5z" />
    <glyph glyph-name="two" unicode="2" horiz-adv-x="593" 
d="M50 44v1q5 10 8 22.5t12 19.5l146 116l71 69q18 17 33 39t29 42q19 29 30 63t11 69v18q-4 29 -17.5 46t-42.5 17q-45 0 -73.5 -25.5t-49.5 -62.5q-11 -20 -17 -42.5t-6 -44.5q0 -11 2.5 -23t16.5 -12q22 0 35 18.5t21 35.5q2 5 5 13t8 12q3 2 13.5 9.5t13.5 9.5h3
q17 0 32 -13t15 -31q0 -14 -6.5 -28.5t-12.5 -25.5q-20 -39 -58.5 -66.5t-83.5 -27.5q-27 0 -50 11t-40 29t-26.5 42t-9.5 50q0 28 8.5 53.5t23 48t33 43t38.5 38.5q41 36 90 58t103 22q39 0 73 -12t59 -34.5t39.5 -54.5t14.5 -73q0 -43 -16 -84.5t-44 -73.5q-4 -3 -10 -9.5
t-12 -13.5t-11 -12l-6 -6l-163 -137h117q2 0 12 1t15 2q10 1 19.5 8.5t17 16t14 15.5t11.5 7l1 -3v-1q0 -3 -5.5 -6.5t-7.5 -5.5t-6 -6.5t-5 -5.5l-19 -19q-14 -8 -31 -9.5t-32 -2.5q-4 0 -19.5 -0.5t-35 -1.5t-38 -2t-27.5 -2h-8h-10l-1 2v1l23 23l134 116l7 7t13 13.5
t14 14.5t10 11q1 1 4 5t7 8.5t7 8.5t5 6q1 1 6 9t7 11q3 4 7.5 12.5t8 17.5t6.5 17.5t3 14.5v1q-9 -27 -22.5 -52.5t-33.5 -45.5l-12.5 -12.5l-15 -15l-13 -13l-6.5 -6.5l-208 -170h180q1 0 7 0.5t13.5 1l15 1t11.5 0.5q11 1 22.5 4t20.5 11q13 10 22.5 23t20.5 25q5 7 11 7
q8 0 8 -8v-2l-61 -135l-1 -1q-5 -1 -9 -1q-4 -1 -8 -1h-6h-45q-76 0 -151 1t-150 1q-4 0 -7 3t-3 6q0 5 5 8.5t6 5.5l150 120l65 64q29 29 51.5 64t38.5 72q0 1 2 6t3 7l1 2q0 1 1 2v1q-23 -51 -55.5 -92t-71.5 -79q-48 -42 -98.5 -81t-102.5 -73q-8 -6 -12 -16t-4 -20v-2
l24 -21l146 -5v-6q-35 0 -68.5 -0.5t-66.5 -0.5h-13q-1 0 -2.5 1.5l-2.5 2.5q-2 1 -6.5 5.5l-9.5 9.5l-9.5 9.5l-6.5 6.5v1zM410 408q-1 0 -1 -0.5t1 -0.5t1 0.5t-1 0.5zM411 412q-1 0 -1 -0.5t1 -0.5q2 0 2 0.5t-2 0.5zM413 416q-2 0 -2 -1t2 -1q1 0 1 1t-1 1zM508 436
q-2 0 -2 -1t2 -1q1 0 1 1t-1 1zM509 443q-1 0 -1 -1.5t1 -1.5q2 0 2 1.5t-2 1.5z" />
    <glyph glyph-name="three" unicode="3" horiz-adv-x="584" 
d="M44 143q0 18 6.5 33.5t17.5 27.5t26.5 19t33.5 7q32 0 51 -21.5t19 -51.5v-11q-1 -3 -5 -13t-6 -13q-1 -4 -1 -8q0 -8 7 -13.5t17 -8.5t20 -4.5t16 -1.5q25 0 43.5 9.5t32.5 24.5t24 35t18 41q6 17 11.5 35.5t5.5 38.5q0 14 -4 25t-16 20q-1 2 -3.5 3t-4.5 1h-17l-3 -1
q-1 0 -5.5 -3t-9.5 -6t-9 -6t-5 -4q-4 -2 -11.5 -5.5l-15 -7t-14 -6.5t-7.5 -4l-9 -2l-14 -2q-6 -1 -12.5 -1.5t-10.5 -0.5h-1v5q-2 -1 -5 -4t-5 -3q-6 0 -6 7v1q6 20 11.5 34t18.5 28l11.5 11.5t10.5 9.5l75 63q22 20 36.5 43t14.5 52v15q-5 21 -19 32.5t-35 11.5
q-35 0 -58.5 -23t-37.5 -52l-2 -1l-4 1q0 6 4.5 14.5t6.5 12.5q15 26 40 43t55 17q33 0 50 -21.5t17 -53.5q0 -26 -10.5 -50.5t-29.5 -42.5l-103 -98l92 75q29 23 46.5 53.5t17.5 68.5t-22.5 62.5t-60.5 24.5q-27 0 -50.5 -11t-41.5 -30t-28.5 -43t-10.5 -50q0 -23 8 -38.5
t34 -15.5q15 0 25.5 8.5t18 19t13.5 19t12 8.5q8 0 8 -8v-2l-97 -79q-3 -2 -3.5 -2.5t-3.5 -0.5q-35 0 -53.5 22.5t-18.5 54.5q0 30 12.5 56t33 47t46 36t52.5 23q18 5 35 7t35 2q25 0 49.5 -5.5t44 -18.5t31 -33t11.5 -49q0 -23 -9 -41.5t-23 -33.5t-31 -27.5t-34 -24.5
l-2 -2l3 2q1 0 7 4t13.5 8.5t15 9.5t12.5 8q26 17 42 43.5t16 58.5q0 33 -14.5 55.5t-37.5 36.5t-52 20.5t-57 6.5q-60 0 -106.5 -23t-88.5 -68h-2q-1 0 -1 1t-1 2q1 1 1 2t1 2q81 99 209 99q17 0 33 -1t33 -6q46 -15 76.5 -47.5t30.5 -83.5q0 -31 -12.5 -59t-35.5 -48
q-3 -3 -10.5 -9t-8.5 -7t-7 -5t-8 -6l-1 -1l1 -1q8 -5 16 -9t15 -9q32 -24 50 -57.5t18 -73.5t-17 -76.5t-45 -66.5t-63.5 -52t-71.5 -31q-22 -6 -43.5 -8.5t-44.5 -2.5q-16 0 -31 0.5t-32 4.5q-24 6 -48.5 17.5t-45 29t-33 40.5t-12.5 51zM226 293h1l2 2l-2 1zM373 388
q-1 0 -1 -1t1 -1q2 0 2 1t-2 1zM379 391q0 1 -1.5 0t-0.5 -1q2 0 2 1z" />
    <glyph glyph-name="four" unicode="4" horiz-adv-x="633" 
d="M198 57q1 4 4.5 2.5t4.5 1.5q2 14 11.5 21.5t21.5 12.5q5 2 18.5 3t18.5 3q5 1 7.5 2.5t2.5 7.5l10 116v5h-90q-8 0 -27 -0.5t-41 -1t-41.5 -1t-27.5 -0.5q0 -1 -4 -1h-1l-32 31v9v12.5t4 12.5l268 306l5.5 5.5l6.5 6.5l2 1h2q1 0 1 -3v-1l-246 -307l-15 -21v-19l3 -2h4
h11.5t12.5 1h-28v20l139 165l28 39l1 1q2 2 9 7t9 6l127 131q1 2 6.5 2h6.5q11 0 13 -4.5t2 -13.5v-324q5 0 17 -0.5t17 -0.5q53 3 72.5 25.5t22.5 73.5q3 8 9 8q7 0 9 -6v-13v-16.5t-1 -17.5v-168q0 -5 -5.5 -5h-7.5v-3q1 0 3 -1t2.5 -1.5t2.5 -1.5q1 -1 2 -1h3h1q0 1 1 2
q0 1 0.5 1t0.5 1l16 181v14q0 7 -0.5 16.5t-3.5 18.5t-8 15.5t-14 7.5h-6q-2 0 -6.5 1.5t-5.5 2.5q2 1 4.5 2t4.5 1l-3 4h4q24 0 37 -18.5t13 -39.5v-13q0 -10 -0.5 -25t-1 -29.5t-1 -25l-0.5 -10.5l-17 -124q-2 -5 -2 -7t-5 -2t-10.5 0.5t-10.5 2.5q-8 5 -19 12t-16 16
l-4 8q0 1 -1.5 5.5t-3 10t-3 10t-2.5 5.5q-7 22 -18 24.5t-32 2.5v-119q0 -10 9 -11q3 0 10.5 -1.5t15.5 -2.5t15.5 -2.5t10.5 -1.5q8 -1 16 -5t14 -6l1 -1v-1q0 -9 -6.5 -12.5t-6.5 -6.5v-1l2 1h2q1 0 1 -4q0 -11 -8.5 -22.5t-19.5 -12.5l-109 -12h-48l-123 12l-3 1
q-7 6 -10.5 11.5t-3.5 15.5v6zM526 202q-2 0 -2 -0.5t2 -0.5q1 0 1 0.5t-1 0.5zM496 253q11 -10 16 -23t12 -25v1q0 8 -5.5 20t-10.5 17l-10 10h-2zM495 255q0 1 -0.5 1t-0.5 -1q0 -2 0.5 -2t0.5 2zM492 257q-1 0 -1 -1t1 -1q2 0 2 1t-2 1zM489 259q-1 0 -1 -1.5t1 -1.5
q2 0 2 1.5t-2 1.5zM487 260q-2 0 -2 -1.5t2 -1.5q1 0 1 1.5t-1 1.5zM103 285l1 2v1zM273 315q0 -3 -2 -3l-159 -27h3q55 0 106.5 2t107.5 1l1 15q0 1 0.5 18.5t1 40t1.5 46t1 38.5v21v22l-29 -145q0 -4 -3 -4t-3 2v16q0 23 1 45.5t1 45.5v16l-135 -147h107v-3z" />
    <glyph glyph-name="five" unicode="5" horiz-adv-x="574" 
d="M40 149q0 34 21.5 58.5t58.5 24.5q32 0 53 -22.5t21 -54.5v-4l-8 -35v-4q0 -9 5.5 -14t13 -8t16 -3.5t14.5 -0.5q38 0 64 18.5t42 47t23 62.5t7 66q0 16 -1.5 32t-7 28.5t-17 20t-31.5 7.5q-29 0 -52.5 -14t-38.5 -39q0 -2 -1 -3t-1 -3q-2 -4 -6.5 -16.5t-5.5 -16.5
q-8 -12 -18 -19t-22 -13q-2 -6 -6 -7t-9 -1q-6 0 -16 2.5t-10 11.5v32l50 322q0 1 1.5 7.5t2.5 8.5q0 2 3.5 11t4.5 13l1.5 6t5.5 2h2l118 -17h11q27 0 49 12.5t42 29.5q5 5 8.5 9.5t7.5 9.5l1 1l22 11h5q18 0 30 -10.5t12 -28.5q0 -22 -11 -42t-26 -37l-20 -20q-1 -1 -2 -1
t-2 -1l-1 1q-1 0 -1 1v2q19 19 36 43.5t17 52.5q0 29 -31 29q-8 0 -14.5 -4.5t-12.5 -10.5t-11 -13t-11 -12q-20 -17 -43 -28.5t-48 -11.5h-6l-108 12h-3q-1 -1 -1 -2q-1 -1 -1 -5q-2 -3 -3 -8.5t-1 -7.5l-24 -194v-9l32 199l4 15l1 1h1l106 -14h8q26 0 51 8t43 25
q10 11 19 21t20 19q2 2 6 2q5 0 7 -4v-4q0 -17 -7.5 -31.5t-17.5 -25.5q-38 -39 -75.5 -56t-92.5 -17q-13 0 -26 0.5t-27 0.5h-3l-28 -158v-9h1q26 21 57.5 34t64.5 13q34 0 64.5 -11.5t53.5 -32.5t36 -50t13 -64q0 -52 -20.5 -89.5t-56.5 -72.5q39 32 63.5 75t24.5 95
q0 38 -15 69.5t-40.5 54t-59 35t-70.5 12.5q-36 0 -68 -11h-9l-2 2v1l2 1q18 11 41 15t44 4q41 0 77.5 -14.5t63.5 -40t43 -61t16 -77.5q0 -55 -24 -101t-66 -83q-40 -38 -90.5 -58t-104.5 -20q-33 0 -68 9t-63.5 27t-47 46t-18.5 67zM174 390q-1 0 -1 -2t1 -2t1 2t-1 2z
M175 400q-1 2 -1 -3t1 -3q2 1 2 3t-2 3z" />
    <glyph glyph-name="six" unicode="6" horiz-adv-x="614" 
d="M51 296q0 39 5 73t16 65.5t28 61.5t42 60q45 55 107.5 81t132.5 26h29q25 -2 52 -11t48.5 -25t35.5 -39t14 -51q0 -29 -17 -53t-47 -30h-14q-24 0 -42.5 12t-25.5 36q-1 2 -1 4t-1 4q-1 3 -1 5v49q0 5 -5.5 8.5t-13 5.5t-14.5 2.5t-11 0.5q-42 0 -71 -24t-51 -58h-1l-3 3
v1q17 41 53 67t81 26q17 0 29.5 -5t25.5 -14v-1q0 -3 -1 -4q1 -15 1.5 -31.5t5 -30.5t14.5 -23t30 -9q23 0 37.5 16t14.5 40q0 6 -0.5 10t-2.5 10v-28q-1 -17 -15.5 -30t-31.5 -13q-14 0 -26 8t-14 24l-2 61q-1 10 -9.5 16.5t-20.5 10.5t-24 5.5t-19 1.5q-38 0 -68 -16.5
t-52.5 -42.5t-38 -59t-24.5 -66q0 -2 -2 -8.5t-4 -15.5t-3.5 -17.5t-2.5 -13.5q-2 -5 -2 -7v-5v-3l3 1q38 25 73 39.5t82 14.5q38 0 72.5 -13t61 -36t42.5 -55.5t16 -72.5q0 -37 -15 -70.5t-39 -60.5q30 27 46.5 64t16.5 79q0 50 -24 90t-64 67q-29 19 -62 26.5t-67 9.5v3
q0 2 3 2h13q46 0 86.5 -15.5t71 -43.5t48.5 -67t18 -85q0 -34 -11.5 -67.5t-31.5 -63t-47.5 -51.5t-60.5 -34q-26 -9 -50.5 -13t-50.5 -4q-65 0 -112 24t-77.5 64.5t-45.5 94t-15 113.5zM283 55q-2 0 -2 -1.5t2 -1.5q1 0 1 1.5t-1 1.5zM163 228q0 -22 3.5 -45t12.5 -44.5
t23 -39.5t35 -29q8 -5 19 -10t21 -5h3q-18 6 -33 18t-26.5 28t-17.5 34.5t-6 37.5q0 2 4 2h1q11 -38 35 -63.5t66 -25.5q27 0 46 13t30.5 33.5t17 45t5.5 48.5q0 22 -5.5 45t-17 42t-30 30.5t-44.5 11.5q-30 0 -55.5 -14t-40.5 -40q-1 -2 -4.5 -10.5t-4.5 -8.5q-4 0 -4 3
q0 8 3.5 18t8.5 17q17 32 49 47t67 17q-2 0 -8.5 1t-8.5 1h-2q-13 0 -26.5 -2.5t-25.5 -7.5q-48 -21 -69 -59t-21 -89zM529 558q-1 0 -1 -1t1 -1t1 1t-1 1zM528 561q-2 0 -2 -0.5t2 -0.5q1 0 1 0.5t-1 0.5zM526 565q-1 0 -1 -1.5t1 -1.5q2 0 2 1.5t-2 1.5zM525 568
q-1 0 -1 -1.5t1 -1.5t1 1.5t-1 1.5zM524 570q-2 0 -2 -1t2 -1q1 0 1 1t-1 1zM522 573q-1 0 -1 -1.5t1 -1.5q2 0 2 1.5t-2 1.5z" />
    <glyph glyph-name="seven" unicode="7" horiz-adv-x="522" 
d="M202 71q0 27 8 54l29 87l137 301h-201q-15 0 -26 -11.5t-18 -22.5q-2 -4 -9.5 -15.5t-9.5 -16.5l-5 -1.5t-11 -3t-11.5 -2.5l-5.5 -1q-21 0 -30 16.5t-9 33.5v8l27 114q0 1 1.5 5.5l3.5 10.5l4 12l3 9q1 1 3 7.5t4 8.5q1 2 2 5t3 6l4 8l1 1h10q20 0 34 -7.5t23 -25.5
q5 -2 10.5 -2.5t8.5 -0.5h151q2 0 2 -2v-1v-2l-117 -8h-54q-6 0 -11 4.5t-10.5 10.5t-12 10.5t-15.5 4.5q-6 0 -8 -2.5t-4 -7.5t-5.5 -16t-3.5 -12l-23 -110q-2 -5 -2 -9.5v-9.5v-7l34 138q2 8 6 16t13 8q7 0 9 -6t7 -11q10 -13 24 -16t29 -3h232l60 -2v-2l-2 -7
q-1 -3 -2 -5l-52 -102l-72 -182q-2 -2 -4.5 -13t-3.5 -16q-2 -5 -4 -16.5t-2 -13.5l-11 -129v-14l17 113q0 2 1.5 9t3 15t3 15t2.5 10q1 4 3.5 11.5t5.5 15t5.5 14.5t3.5 9l65 138q0 1 1.5 3t2.5 3l2 2h1l3 -2v-1l-57 -141q-1 -2 -4.5 -15t-5.5 -19q-2 -5 -4.5 -16.5
t-2.5 -13.5l-16 -187q-3 -30 -19.5 -58.5t-48.5 -35.5h-14q-37 0 -56.5 26t-19.5 61zM84 470l-3 -1h2q3 0 3 1h-2z" />
    <glyph glyph-name="eight" unicode="8" horiz-adv-x="573" 
d="M51 179q0 35 15 64t41 52q2 2 12.5 10t14.5 11q1 1 9 6.5t10 6.5l1 2v1q-35 25 -57.5 59.5t-22.5 79.5q0 30 9.5 57.5t26.5 51.5t40 43.5t50 31.5q23 10 47 14t49 4q35 0 71 -10t65.5 -30t48 -50t18.5 -70q0 -39 -18 -73q-2 -1 -3 -1q-3 0 -3 3v1q6 17 10.5 31.5
t4.5 32.5q0 48 -29.5 80t-72.5 49q-13 5 -27 8.5t-28 3.5h-5q14 -7 29 -12t29 -11q35 -16 59.5 -44t24.5 -68q0 -25 -10 -46t-25.5 -38t-35.5 -31.5t-39 -26.5l-1 -2q26 -12 49.5 -27.5t41 -34.5t27.5 -43.5t10 -54.5q0 -31 -12 -57.5t-31.5 -48t-45 -37.5t-52.5 -25h1
q13 0 30.5 8.5t28.5 14.5q45 23 74 65t29 93q0 27 -9 49.5t-22 45.5q0 1 -0.5 1t-0.5 1v1q0 3 4 3l1 -1q0 -1 1 -2q18 -23 28.5 -51t10.5 -57q0 -47 -21.5 -86t-56 -67t-77.5 -43.5t-86 -15.5q-12 0 -20.5 -0.5t-19.5 1.5q-34 6 -68 20t-61 36.5t-44 53t-17 68.5zM343 41
q-2 0 -2 -1t2 -1q1 0 1 1t-1 1zM170 174q0 -23 9.5 -39.5t25 -27t35 -16t39.5 -5.5q21 0 41 5.5t35.5 17t25 28.5t9.5 41q0 22 -9 37.5t-23 26.5t-32 18.5t-37 13.5v3v1q0 2 2 2q21 -5 40.5 -9.5t36.5 -13.5t29.5 -23t20.5 -36v3q0 12 -6.5 24.5t-16.5 24t-22 20t-22 12.5
l-103 39l-54 -35l-21 -21q-17 -18 -26 -41t-9 -47v-16q5 38 23.5 62.5t51.5 44.5q1 0 2.5 1t2.5 1h2q2 0 2 -4q-20 -19 -36 -41t-16 -51zM419 195q-1 0 -1 -0.5t1 -0.5t1 0.5t-1 0.5zM166 485q0 -3 1.5 -6.5t2.5 -5.5q11 -26 36.5 -40t49.5 -25q4 -2 15 -6t23 -8.5
t22.5 -8.5t15.5 -5q1 0 4 1.5t4 2.5q5 3 15.5 9.5t12.5 8.5q29 19 40.5 47t11.5 61v16l-1 1q-1 -28 -14 -54.5t-39 -40.5q-6 -3 -16.5 -8t-12.5 -5h-1l1 1q2 2 10 8t9 7q17 15 24.5 32.5t7.5 39.5q0 35 -21.5 56.5t-54.5 26.5h-19q-18 0 -36 -4.5t-32 -13.5t-22.5 -23.5
t-8.5 -35.5v-15q3 -16 14 -27.5t25.5 -19.5t30 -14t28.5 -11l1 -2q0 -4 -2 -4h-2q-4 2 -16.5 4.5t-16.5 3.5q-29 8 -52.5 19.5t-37.5 38.5v-1zM165 490q-2 0 -2 -0.5t2 -0.5q1 0 1 0.5t-1 0.5zM217 631q-1 0 -1 -1.5t1 -1.5t1 1.5t-1 1.5zM222 632l-2 -1h1l3 1h-2z" />
    <glyph glyph-name="nine" unicode="9" horiz-adv-x="618" 
d="M54 114q0 35 21 61t59 26q32 0 51 -21.5t19 -51.5q0 -9 -0.5 -18t-0.5 -17q0 -9 5 -13.5t12.5 -6.5t16 -2h14.5q45 0 74 24.5t50 64.5q4 0 4 -3t-2 -8t-4 -8q-23 -41 -54 -63.5t-79 -22.5q-16 0 -32 4.5t-24 21.5q-1 0 -1 1v2v2v51l-2 4q-2 4 -3 5q-12 30 -42 30
q-24 0 -39 -17.5t-15 -40.5q0 -8 1 -13q0 25 11 45t40 20q21 0 30 -11t9 -31q0 -9 -0.5 -18.5t-0.5 -18.5q0 -16 7 -25.5t18.5 -15t25 -7.5t26.5 -2q40 0 70 16.5t52 42.5t37 59.5t24 67.5q0 2 2 9.5t4 17t4 18.5t3 14q1 6 2 10t1 10v2l-3 -1q-38 -23 -74 -39t-81 -16
q-39 0 -73.5 13t-61 37t-42 57.5t-15.5 73.5q0 37 14.5 70.5t40.5 60.5q-33 -32 -48.5 -66t-15.5 -79t18 -80.5t47.5 -60.5t68.5 -39t81 -15v-7q-48 0 -91 14.5t-76 41.5t-52.5 67t-19.5 91t21 94t56 73.5t80.5 48t93.5 17.5q37 0 71.5 -11t64.5 -31t53 -47.5t38 -61.5
t20 -70t5 -73q0 -74 -22.5 -143t-65 -122t-104 -85.5t-140.5 -32.5h-28q-27 1 -54 10t-49.5 25t-36.5 39t-14 53zM86 95q-1 0 -1 -0.5t1 -0.5t1 0.5t-1 0.5zM85 102q-2 0 -2 -2t2 -2q1 0 1 2t-1 2zM184 446q0 -20 3 -40.5t10 -40t18.5 -36.5t28.5 -29q13 -9 28 -15t32 -6h3
q-21 4 -37 15t-27.5 26.5t-17.5 34.5t-6 39h4q10 -33 31 -57.5t58 -24.5q29 0 50 10t34.5 27.5t19.5 41t6 50.5q0 25 -6 50t-19 44.5t-33.5 32t-48.5 12.5q-35 0 -58.5 -23.5t-35.5 -55.5h-1q-3 0 -4 1q11 52 39.5 78.5t80.5 28.5q-6 2 -10.5 2h-10.5q-33 0 -57.5 -15
t-41 -39t-24.5 -53.5t-8 -57.5z" />
    <glyph glyph-name="zero" unicode="0" horiz-adv-x="657" 
d="M52 326q0 81 34.5 157t100.5 126q2 1 8.5 5.5t9.5 6.5q1 0 2 1q3 0 3 -4q-8 -9 -19 -16.5t-19 -16.5q-44 -49 -68 -108.5t-24 -126.5q0 -13 0.5 -23.5t2.5 -24.5q-2 26 0.5 50.5t7.5 50.5q9 42 30.5 82.5t53 72t71.5 51t86 19.5q54 0 97 -25t74 -65t49 -89.5t21 -98.5
l1 -1v16q0 74 -28.5 135t-82.5 111q-2 2 -7.5 6.5t-7.5 5.5q0 5 3 5h1l3 -2q37 -24 65 -56t47 -69.5t28.5 -79.5t9.5 -85q0 -60 -19.5 -120t-55.5 -108t-88 -77.5t-117 -29.5q-64 0 -114.5 28.5t-86 74.5t-54 104.5t-18.5 117.5zM206 325q0 -24 2 -48t6 -48q3 -21 12 -46
t23 -46.5t34 -36.5t45 -15q30 0 50.5 13.5t34 35t21 48.5t11 55t4.5 54.5t1 46.5q0 27 -1.5 55t-6.5 55.5t-16 53.5t-30 47v1q0 3 3 4q25 -24 39.5 -53t23 -61t12 -65.5t6.5 -66.5v30q0 36 -5 82t-20.5 87.5t-44.5 70t-78 28.5q-45 0 -74.5 -25t-47 -61.5t-25.5 -78.5
t-11 -76v-9v-10q0 2 1 9t1 9q5 25 12 52t17.5 52t25.5 47t38 39h1q3 0 3 -4q-42 -45 -54.5 -105t-12.5 -120z" />
    <glyph glyph-name="exclam" unicode="!" horiz-adv-x="278" 
d="M54 90q0 21 11 40.5t30 30.5q5 3 15 7.5t11 4.5h1l-1 -2q-16 -13 -29 -27t-13 -37q0 -1 0.5 -9t3.5 -8q3 21 17 36.5t37 15.5q24 0 36.5 -13.5t18.5 -34.5q2 4 2.5 8.5t0.5 9.5q0 13 -3.5 21t-8.5 15t-12.5 13t-14.5 14h2q4 -1 8 -3q3 -2 6.5 -3.5t5.5 -2.5
q22 -10 34 -31.5t12 -43.5q0 -18 -6.5 -33.5t-18 -27.5t-26.5 -19t-33 -7t-33.5 7t-27 18.5t-18.5 27t-7 33.5zM91 67q0 -21 13.5 -34t33.5 -13h11q10 2 22.5 12.5t12.5 22.5v23q-1 0 -1 1v3q-2 2 -4 6l-2 4q-16 20 -39 20q-20 0 -33.5 -13t-13.5 -32zM55 708q0 7 4 7l2 -1
l4 -38l24 -116v9l-10 90v10q0 13 2.5 29.5t9 30.5t18 23.5t28.5 9.5q15 0 24.5 -5.5t15.5 -14.5t9 -21t6 -25q2 -11 2.5 -17t0.5 -16v-15q-1 -4 -2 -14t-2 -20.5t-2 -20t-1 -12.5v-5l24 101q0 2 0.5 6t0.5 5q0 4 1 18.5t1 19.5l2 1h2q3 -11 3.5 -21.5t0.5 -21.5v-15
l-45 -440l-5 -24l-1 -2q-2 -1 -7 -3t-7 -3q-1 -2 -5 -6l-5 -5h-6q-4 0 -13 0.5t-11 4.5q-6 14 -15.5 26.5t-11.5 27.5l-36 430v33zM91 652l38 -450q0 -1 1 -1h2h10v43l41 399v17q0 12 -1 25t-5.5 23.5t-14 17t-25.5 6.5h-11q-11 -2 -18 -9t-10.5 -16.5t-5 -20t-1.5 -19.5
v-15zM90 557q-1 0 -1 -1.5t1 -1.5t1 1.5t-1 1.5z" />
    <glyph glyph-name="at" unicode="@" horiz-adv-x="1112" 
d="M51 287q0 92 26.5 177t76 155.5t120.5 123t160 79.5q40 12 80.5 17t82.5 5q26 0 53 -2t53 -8q72 -17 128.5 -52.5t95.5 -86.5t59.5 -115.5t20.5 -138.5q0 -69 -22 -141t-63.5 -131.5t-102 -97t-137.5 -37.5q-46 0 -78.5 22.5t-37.5 70.5q-17 -17 -36.5 -33.5t-41 -30
t-45.5 -21.5t-49 -8q-32 0 -56 14.5t-39.5 37t-23.5 51t-8 56.5q0 29 6.5 60t17.5 61.5t25.5 58.5t31.5 52h2q2 0 2 -3v-1q-31 -49 -53.5 -108t-22.5 -119q0 -18 3 -38t12 -37v2v1q-5 16 -6.5 28.5t-1.5 29.5q0 38 9.5 74.5t26.5 71.5q31 69 77.5 120.5t109.5 91.5
q20 12 42 20t45 8q32 0 53 -12t34 -41l2 3q1 2 3.5 12.5t4.5 12.5q1 4 5.5 4t6.5 3l2 4h3q2 0 2.5 0.5t1.5 0.5q4 0 15 1.5t23 3.5t22.5 3.5t15.5 2.5v-2v-1q0 -1 -0.5 -3t-0.5 -4l-104 -368q-6 -20 -6 -41q0 -14 7 -25.5t21 -14.5h14q20 0 39 7t36 19q34 25 60 61.5
t42.5 78.5t25 86t8.5 85q0 23 -2 45t-9 45v-3v-4q2 -16 4 -31.5t2 -31.5q0 -38 -8.5 -81.5t-25 -84.5t-41.5 -76.5t-58 -57.5q-1 -1 -12 -7.5t-16 -9.5q-6 -5 -14.5 -8t-16.5 -3q-4 0 -4 4q37 9 66.5 35t51 59.5t36 71.5t20.5 71q5 21 6 41t1 41q0 63 -20.5 114.5
t-57.5 89.5t-88.5 61t-113.5 29h-33q-99 0 -178.5 -40.5t-135.5 -107t-86 -153t-30 -179.5q0 -87 27.5 -159.5t78.5 -125t122.5 -81.5t158.5 -29q114 0 209.5 51.5t155.5 150.5q1 3 5.5 10.5t9.5 16t9.5 17t6.5 12.5q1 1 3 5.5t4 9.5t4 9.5t3 5.5q4 9 13 9h5h16t24.5 -0.5
t24 -0.5h16.5v-3l-2.5 -8.5t-6.5 -20t-7.5 -23t-6.5 -18.5q-20 -56 -55.5 -104.5t-81.5 -88t-100 -68t-110 -43.5q-35 -9 -70 -13t-72 -4q-107 0 -203 40t-169 121q-66 73 -96.5 161t-30.5 187zM79 273q0 -79 22 -155t73 -139q142 -176 368 -176q75 0 147.5 22t134 63.5
t108 100t69.5 132.5h-18q-65 -141 -174.5 -218.5t-266.5 -77.5q-94 0 -172 33t-134 90.5t-87 136.5t-31 172q0 100 33.5 194t94.5 167t147.5 117t191.5 44q76 0 141.5 -24t112.5 -68t74 -107t27 -141q0 -40 -8.5 -85t-26 -88t-43 -80t-59.5 -61q-21 -15 -44 -27t-49 -12
q-21 0 -35.5 12t-14.5 35v2q0 2 0.5 6.5t0.5 5.5q2 7 4.5 19.5t2.5 14.5l103 363l-72 -10l-21 -72l-2 -3q-5 20 -11 36.5t-15.5 28t-25 18t-38.5 6.5q-30 0 -57.5 -12.5t-51.5 -30.5q-53 -39 -91.5 -90.5t-64.5 -111.5q-12 -29 -20 -61t-8 -64q0 -20 5.5 -41t17 -38.5
t28.5 -29t40 -11.5q38 0 71 20t59 45l8.5 8.5t12 11.5t11.5 11.5t7 7.5q3 4 10.5 12.5t15.5 18.5t15.5 18.5t10.5 12.5l2 1l-12 -76v-38q1 -2 1 -5q0 -6 1 -7q0 -1 1 -2q0 -1 1 -2q10 -23 30 -30t43 -7q69 0 122.5 35t91.5 89q20 29 35 60.5t24 64.5q16 58 16 123
q0 76 -23.5 140t-67.5 112t-106 77t-139 35h-37q-42 0 -82.5 -4.5t-79.5 -18.5q-54 -17 -102 -46.5t-88.5 -69t-72 -87t-50.5 -99.5q-19 -48 -26.5 -96.5t-7.5 -99.5zM395 46q0 1 -0.5 1t-0.5 -1q0 -2 0.5 -2t0.5 2zM402 46q0 1 -2 1t-2 -1q0 -2 2 -2t2 2zM585 181
q-1 -1 -4 -4.5t-6.5 -7.5t-6.5 -7.5t-4 -4.5q-35 -35 -72.5 -67t-87.5 -43h4q15 0 31.5 6.5t33 16t31.5 21t25 20.5q4 5 17 18t18 17q6 8 14 16.5t8 18.5v1zM295 113q-2 0 -2 -1.5t2 -1.5q1 0 1 1.5t-1 1.5zM367 196q0 51 20.5 99.5t43.5 91.5q1 1 4 6.5t6.5 11.5l7 12
t5.5 9q10 17 24.5 36t31.5 35t37 26.5t43 10.5q38 0 55.5 -25.5t17.5 -59.5q0 -23 -4.5 -45.5t-10.5 -44.5t-12 -40.5t-16 -39.5q-10 -22 -29 -51t-44 -55t-53.5 -44t-56.5 -18q-17 0 -30 7.5t-22 19.5t-13.5 27t-4.5 31zM293 115q-1 0 -1 -0.5t1 -0.5q2 0 2 0.5t-2 0.5z
M292 118q-1 0 -1 -0.5t1 -0.5t1 0.5t-1 0.5zM976 445q0 -91 -30 -172t-92 -148q65 60 95.5 142.5t30.5 169.5q0 54 -12 107q-4 15 -9.5 32t-13.5 31v-3q17 -38 24 -77.5t7 -81.5zM415 194q2 -9 7 -19t15 -13h9q17 0 35 11t34.5 26.5t30.5 32.5t23 29q2 3 8.5 14t8.5 14
q11 20 19 40t14 41t11.5 45t5.5 47q0 7 -1 14.5t-4 15.5l1 1l3 1q4 -1 6.5 -8t4 -16t2 -17.5t0.5 -11.5q0 -8 -0.5 -16t-0.5 -16v-4q3 11 3.5 22t0.5 22v16q-5 26 -19 41.5t-42 15.5q-26 0 -48 -14t-40 -34.5t-32 -44t-25 -42.5l-2 -3l2 2q22 30 47.5 58.5t57.5 48.5
q2 1 4 1q3 0 3 -2v-2q-38 -35 -63 -77t-48 -89q-13 -26 -22 -56t-9 -59v-15zM917 537q-1 0 -1 -2t1 -2t1 2t-1 2zM916 541q-2 0 -2 -1.5t2 -1.5q1 0 1 1.5t-1 1.5zM914 545q-1 0 -1 -0.5t1 -0.5q2 0 2 0.5t-2 0.5zM944 609q-1 0 -1 -0.5t1 -0.5t1 0.5t-1 0.5zM939 619
q0 -2 1 -4.5t3 -3.5v1q0 6 -4 8v-1zM937 623q-1 0 -1 -1t1 -1q2 0 2 1t-2 1zM936 625q-1 0 -1 -0.5t1 -0.5t1 0.5t-1 0.5zM935 628q-2 0 -2 -0.5t2 -0.5q1 0 1 0.5t-1 0.5zM933 631q-1 0 -1 -1t1 -1q2 0 2 1t-2 1zM932 633q-1 0 -1 -0.5t1 -0.5t1 0.5t-1 0.5zM931 636
q-2 0 -2 -1.5t2 -1.5q1 0 1 1.5t-1 1.5zM929 637q-1 0 -1 -0.5t1 -0.5q2 0 2 0.5t-2 0.5zM928 640q-1 0 -1 -0.5t1 -0.5t1 0.5t-1 0.5zM927 643q-2 0 -2 -1.5t2 -1.5q1 0 1 1.5t-1 1.5zM925 644q-1 0 -1 -0.5t1 -0.5q2 0 2 0.5t-2 0.5zM924 647q-2 0 -2 -1t2 -1q1 0 1 1
t-1 1zM922 649q-1 0 -1 -1t1 -1q2 0 2 1t-2 1zM921 651q-1 0 -1 -1t1 -1t1 1t-1 1zM920 654q-2 0 -2 -1.5t2 -1.5q1 0 1 1.5t-1 1.5zM918 655q-1 0 -1 -0.5t1 -0.5q2 0 2 0.5t-2 0.5zM917 658q-1 0 -1 -1.5t1 -1.5t1 1.5t-1 1.5zM916 659q-2 0 -2 -0.5t2 -0.5q1 0 1 0.5
t-1 0.5zM914 662q-1 0 -1 -1.5t1 -1.5q2 0 2 1.5t-2 1.5zM913 663q-1 0 -1 -1.5t1 -1.5t1 1.5t-1 1.5zM912 666q-2 0 -2 -1.5t2 -1.5q1 0 1 1.5t-1 1.5zM910 667q-1 0 -1 -1.5t1 -1.5q2 0 2 1.5t-2 1.5zM908 671q-2 0 -2 -1.5t2 -1.5q1 0 1 1.5t-1 1.5z" />
    <glyph glyph-name="numbersign" unicode="#" horiz-adv-x="784" 
d="M442 213h-182l-46 -221h-111l47 224h-107v108h130l27 122h5l-24 -134l-123 -2v-74l1 -5h13q25 0 49.5 0.5t50.5 0.5v-5l-38 -208v-3h11h13t16 1q9 0 19 1l23 130v4l-27 -129h-48l47 222h-114v49h123l47 218h-170v48h179l48 222h47l-47 -222h245l19 92v4l-23 -91
q0 -1 -4 -1h-2l-219 8l57 232l-11 1h-31q-13 0 -26 0.5t-22 0.5h-1l-38 -152h-1q-4 0 -4 1v1l33 161h117l-47 -224h177l46 223h114l-47 -224h106v-112h-128l-33 -154h161v-111h-185l-46 -224h-113zM217 158q-1 0 -1 -1t1 -1t1 1t-1 1zM218 165q-1 0 -1 -1.5t1 -1.5
q2 0 2 1.5t-2 1.5zM220 172q-2 0 -2 -1t2 -1q1 0 1 1t-1 1zM250 295q-2 0 -2 3v2l57 145q2 2 1.5 2t1.5 0q4 0 4 -1l-25 -116v-2q4 0 17.5 -0.5t18.5 -0.5h87h55l33 153l-143 2q-1 0 -1 4q1 0 1 1l1 1l178 22v-6l2 6h-244l-47 -215h5zM566 662q-1 0 -1 -1.5t1 -1.5
q2 0 2 1.5t-2 1.5zM568 667q-2 0 -2 -1.5t2 -1.5q1 0 1 1.5t-1 1.5zM569 672q-1 0 -1 -1t1 -1t1 1t-1 1z" />
    <glyph glyph-name="dollar" unicode="$" horiz-adv-x="589" 
d="M271 -109q0 16 0.5 30t0.5 28v19l-3 2v42q-19 2 -35 7.5t-34 12.5q-16 6 -29 12t-24.5 12.5t-22.5 15.5t-23 23q-2 1 -5 6t-5 6t-8 1h-4q3 -10 8 -19.5t10 -18.5v-2q0 -4 -3 -4t-4 1q-21 20 -36 47.5t-15 57.5q0 3 3 3h1l24 -11q0 13 2 26.5t7.5 24t15.5 17t26 6.5
q13 0 24.5 -7t16.5 -20q0 -2 1.5 -4t1.5 -3q3 -9 9 -15.5t6 -16.5q0 -17 -15.5 -27.5t-28.5 -16.5v-4q0 -5 5.5 -8.5t10.5 -3.5l5 10l3 2l1 -1q0 -1 1 -1q2 -1 10.5 -5.5t18 -10.5t18 -11t10.5 -6q11 -7 26 -7v204l-1 1q-4 1 -13.5 5t-20 7.5t-20 7t-13.5 5.5
q-54 23 -85 65.5t-31 99.5q0 29 8 57.5t27 51.5q1 1 3.5 4.5t4.5 4.5l4 4h1l3 -3v-1q-22 -24 -31.5 -51.5t-9.5 -59.5q0 -47 23 -87q13 -22 32 -37.5t41.5 -26t47 -18t47.5 -13.5q4 0 4 -4l8 -220l1 -1v231l-3 2q-30 9 -60 20t-55.5 27.5t-43 40.5t-21.5 60v20q0 41 15 69.5
t40.5 47t59 28.5t69.5 15v64h32v-64q23 -2 46 -6.5t45 -12.5q15 -6 31.5 -15.5t29.5 -23t21.5 -29.5t8.5 -34t-11 -35t-31 -17q-18 0 -29.5 12.5t-11.5 29.5q0 8 3.5 15t8 13.5t8 12.5t3.5 12q0 9 -6.5 16t-15.5 13t-19 9.5t-16 5.5q-17 5 -32.5 8t-32.5 3v-131l6 111l1 11
q0 1 3 1h1q11 -1 19.5 -3.5t22.5 -5.5q6 -2 15 -5.5t17.5 -8.5t14.5 -12t6 -15q0 -5 -4.5 -11t-6.5 -9q-5 -9 -8.5 -16.5t-3.5 -17.5q0 -25 17.5 -41t40.5 -16q30 0 46.5 23.5t16.5 50.5q0 38 -24.5 67t-54.5 48v1q0 3 3 3t9 -4.5t9 -6.5q27 -20 48.5 -47t21.5 -62
q0 -17 -5.5 -32.5t-16 -27.5t-24.5 -19.5t-32 -7.5q-29 0 -50.5 21t-21.5 51q0 15 5.5 27.5t13.5 25.5q-11 10 -24 14t-27 7v-21.5t-0.5 -32.5t-0.5 -32.5v-21.5v-28v-28q40 -12 77.5 -28t66 -39.5t46 -57t17.5 -81.5q0 -49 -15.5 -85t-43 -61.5t-65.5 -41.5t-83 -25l-2 -4
l-21 -131h-3l-35 25q-1 2 -3.5 4t-2.5 4zM264 52v4l-3 -3zM305 53h6q4 1 11 2t14.5 2t13 1.5t6.5 0.5q32 5 51.5 16.5t37.5 39.5q-40 -39 -98 -39h-12.5t-13.5 2q5 1 18 3.5t17 4.5h2q1 0 1 0.5t1 0.5q26 9 45.5 29.5t19.5 49.5q0 24 -16 42t-37 29q-4 2 -9.5 5t-10.5 5
l-14 6h-2l-2 -163h-2q-4 0 -4 2l-23 134v-173zM141 100q8 -12 20 -19.5t25.5 -12t28 -7t26.5 -6.5v13l-11 6l-76 25q-4 1 -9 1h-4zM272 63q-1 0 -1 -2t1 -2t1 2t-1 2zM58 155q0 -5 2 -9q0 1 1 2.5t1 2.5v2q0 2 -1.5 2t-2.5 2v-2zM165 509q0 -15 7.5 -26.5t19 -19.5
t24.5 -13.5t25 -9.5l3 133h5l23 -118v158q-33 0 -67 -13.5t-56 -37.5l-2 -2q-1 -1 -1 -2v-1q18 14 38.5 19t43.5 5h16t17 -1l-4 -2q-1 0 -6 -1t-10.5 -2.5t-10.5 -2.5t-6 -2q-23 -6 -41 -21t-18 -40z" />
    <glyph glyph-name="percent" unicode="%" horiz-adv-x="888" 
d="M458 213q0 59 26.5 109t79.5 82h1l2 -3v-1q0 -1 -3.5 -4.5t-8 -7l-9 -7t-6.5 -5.5q-29 -30 -42 -66t-13 -76v-20t3 -19q-1 37 8.5 72.5t30 64t50.5 46t71 17.5q49 0 86.5 -28.5t57.5 -70.5q8 -17 11 -36t5 -37q1 8 1 13v11q0 72 -48 126l-19 19q-1 1 -6.5 5t-6.5 6
q-2 1 -2 2q0 3 3 3q5 0 15 -7t15 -12q40 -32 60 -77.5t20 -96.5q0 -63 -25 -112t-81 -81q-12 -7 -31 -14t-33 -7h-43q-11 0 -24.5 4t-23.5 9q-62 29 -91.5 80.5t-29.5 118.5zM193 12l366 657l1 2q0 1 1 2q0 -1 1 -1h2l1 -2v-1l-147 -289l1 1l231 382h35l-83 -138l2 1
q3 0 3 -3q0 -2 -1 -4l-144 -230l-5 -5l-226 -378q-3 -4 -6 -4q-7 0 -15 1.5t-15 4.5q-2 1 -2 2v2zM588 200q0 -13 2 -32t8.5 -37t18 -31t30.5 -13q21 0 33.5 17t19 39.5t8.5 46t2 37.5q0 20 -2.5 38t-8.5 36q-2 6 -9.5 17t-7.5 15l3 3q15 -9 25 -26t16 -37t9 -40t4 -35
q2 7 2 12.5v12.5q0 30 -5.5 65t-28.5 58q-12 14 -24 22t-29 8q-27 0 -46 -14.5t-30.5 -36.5t-16.5 -47t-5 -47v-2q6 18 11.5 36t14.5 33t22.5 27t33.5 19h1q-4 -6 -10 -9.5t-11 -9.5q-20 -26 -25 -59.5t-5 -65.5zM50 581q0 49 16.5 91.5t54.5 76.5q1 2 7 6.5t8 5.5
q1 2 7 5.5t9 5.5q1 1 4 1q2 0 4 -2l-3 -3q-39 -33 -59.5 -70.5t-20.5 -90.5v-19.5t2 -20.5q0 18 1.5 37t6.5 37q17 51 56.5 87.5t96.5 36.5q34 0 63 -14.5t50 -38.5t33 -55t13 -64q2 7 2 11.5v12.5q0 45 -19 81.5t-51 66.5q-1 2 -6 5t-6 5v1q0 3 3 3q2 0 3 -1t3 -2
q51 -31 77.5 -80.5t26.5 -108.5q0 -19 -2.5 -38t-7.5 -37q-9 -30 -26.5 -55.5t-41.5 -45t-53 -30.5t-60 -11q-34 0 -64 12t-54.5 33t-41.5 49t-26 59q-4 14 -4.5 28.5t-0.5 29.5zM415 376q-1 0 -1 -1.5t1 -1.5q2 0 2 1.5t-2 1.5zM417 379q-2 0 -2 -1.5t2 -1.5q1 0 1 1.5
t-1 1.5zM181 574q0 -13 2 -33t8 -38.5t17 -32t29 -13.5q23 0 36 17t19.5 40t8 47t1.5 38q0 28 -4.5 54.5t-23.5 47.5v1l2 3h2q1 0 2.5 -1.5l2.5 -2.5q27 -24 35 -58.5t13 -68.5l1 -3v22q0 32 -5.5 65.5t-27.5 58.5q-8 9 -18 17t-24 11h-12q-26 0 -44 -14t-29.5 -35
t-17 -45.5t-5.5 -45.5v-6q0 3 2 9t4 13t4 13t3 8q6 18 19.5 38t33.5 28q2 1 4.5 2.5t5.5 2.5q4 1 7 2h1q-6 -8 -13 -12.5t-13 -12.5q-18 -24 -22 -56t-4 -60zM600 623q-1 0 -1 -1t1 -1q2 0 2 1t-2 1z" />
    <glyph glyph-name="asciicircum" unicode="^" horiz-adv-x="667" 
d="M332 659l-172 -283h-124l208 332h2q3 0 4 -2l-161 -301l12 1h-8v2q0 1 1.5 2.5t1.5 2.5l227 379h18l202 -340v3l-128 258v1q0 3 4 3l208 -341v-3h-81h-27q-8 0 -17 1l-2 2zM550 443q-2 0 -2 -1.5t2 -1.5q1 0 1 1.5t-1 1.5zM548 445q-1 0 -1 -1t1 -1q2 0 2 1t-2 1z
M547 448q-1 0 -1 -1.5t1 -1.5t1 1.5t-1 1.5zM546 449q-2 0 -2 -0.5t2 -0.5q1 0 1 0.5t-1 0.5zM544 452q-1 0 -1 -0.5t1 -0.5q2 0 2 0.5t-2 0.5z" />
    <glyph glyph-name="ampersand" unicode="&#x26;" horiz-adv-x="838" 
d="M51 201q0 54 24.5 100.5t65.5 81.5q1 1 8.5 7t16.5 13.5t17.5 14.5t13.5 10q1 2 9 7t10 7l2 2q-30 35 -53.5 76t-23.5 90q0 36 14 66t37.5 52.5t54.5 35t66 12.5q31 0 60.5 -10t52 -29t36 -45.5t13.5 -59.5q0 -47 -24 -84t-55 -69q42 -39 77.5 -80.5t67.5 -89.5l1 -1
q0 1 2 3t2 4q11 22 22.5 46.5t11.5 50.5q0 10 -4 16t-10 9t-14.5 4t-17.5 3q-5 3 -9 6t-8 8q-1 1 -4.5 5t-5.5 6q-4 2 -8 3t-6 6q-2 3 -2 10v10v5l3 3l122 15h36q1 0 1 -3t-1 -3h-33l-105 -14q5 -1 17.5 -1.5t27 -1t27 -1t17.5 -0.5h136q3 -3 8 -3.5l10 -1t8.5 -2.5t3.5 -8
q0 -8 -8.5 -8.5t-13.5 -2.5l-5 -2q-5 -2 -9 -2t-10 -1q-10 -1 -22.5 -8t-17.5 -16l-127 -217l-2 -3q7 -13 14 -25q6 -11 12 -21.5l10 -17.5q6 -9 13.5 -20t16.5 -21t20 -16.5t23 -6.5q21 0 41 12q8 4 15 11t16 7q5 0 7.5 -1.5t7.5 -6.5q2 3 8 3q9 0 9 -9q0 -8 -8 -14.5
t-13 -9.5q-41 -29 -79.5 -42t-88.5 -12q11 -7 25 -9t26 -2q23 0 44 6q26 7 49 19.5t45 27.5q9 6 16.5 15t7.5 21q0 14 -10 23.5t-23 9.5q-9 0 -17 -4t-16.5 -9.5t-17.5 -9.5t-20 -4v4q9 2 18 7.5t18 11.5t18 10.5t18 4.5q5 0 10.5 -2t7.5 -3q12 -5 18 -16.5t6 -22.5
q0 -20 -13 -32.5t-27 -22.5q-32 -21 -65 -36t-71 -15q-26 0 -45.5 7t-35.5 20t-29 30t-26 38l-2 1h-1q-48 -39 -104 -67.5t-119 -28.5q-43 0 -81.5 14t-67.5 40t-46 62.5t-17 80.5zM577 33q0 2 -0.5 2t-0.5 -2q0 -1 0.5 -1t0.5 1zM66 199q0 -36 14 -65t38 -49t55.5 -30.5
t66.5 -10.5q34 0 65.5 10t60.5 26.5t55.5 37.5t51.5 44h1q1 -3 5.5 -10t9.5 -15.5t9.5 -15.5t6.5 -10q7 -11 15 -22t17.5 -20.5t21 -16.5t25.5 -8h17q35 0 63.5 14.5t57.5 33.5q1 2 3 3t3 3q1 1 2.5 2t3.5 3l4 4v5h-6q-15 -13 -33 -21.5t-39 -8.5q-18 0 -33.5 7t-28 18.5
t-22.5 26t-19 29.5q-2 3 -6.5 11t-9.5 17t-9.5 17.5t-5.5 11.5q4 2 6 4l124 212q0 2 1.5 3t1.5 3t-1 3t-1 2q0 2 1 2.5t3 2.5q16 14 33 19t37 7q1 0 3 0.5t4 0.5q1 0 1 3t-3 3.5t-5 0.5h-153q-2 0 -12 0.5t-22 1t-22 1t-13 0.5h-2q-4 0 -4 -4t6 -4q17 -1 32 -4t26.5 -10
t18.5 -19.5t7 -33.5q0 -34 -13 -66t-30 -60q-2 -3 -6 -10.5t-9 -15.5t-10 -15.5l-7 -10.5l-1 1q-20 37 -41.5 69t-45.5 60.5t-52 55.5t-59 55l-2 1l33 33t31.5 35t24 38.5t9.5 44.5q0 25 -10.5 45.5t-27.5 34.5t-39 22t-46 8q-28 0 -53 -9.5t-43.5 -27t-29.5 -41.5t-11 -52
q0 -26 9 -49.5t23.5 -45t32 -40.5t34.5 -36l-1 -2l-76 -53q-45 -32 -78 -78.5t-33 -105.5zM382 70q-2 0 -2 -1.5t2 -1.5q1 0 1 1.5t-1 1.5zM384 71q-1 0 -1 -1.5t1 -1.5q2 0 2 1.5t-2 1.5zM387 72q-1 0 -1 -1t1 -1t1 1t-1 1zM390 74q-2 0 -2 -1.5t2 -1.5q1 0 1 1.5t-1 1.5z
M392 74q23 11 44 25t41 29l1 2q0 3 -3 5q-18 -16 -39 -32t-42 -28zM141 245q0 45 18.5 79.5t52.5 63.5q0 1 5 5t11.5 9t13.5 10t11 8q1 0 4 2t4 4l3 1h1l98 -96q3 -3 12 -13.5t12 -14.5q3 -3 8.5 -11.5t11.5 -17.5t11.5 -17t7.5 -11q0 -1 4.5 -8.5l10.5 -17.5l12 -20l9 -15
q1 -2 2.5 -4.5t1.5 -3.5v-2v-1q-35 -36 -79.5 -63.5t-97.5 -27.5q-33 0 -60.5 13.5t-47 36t-30 51.5t-10.5 61zM204 245q0 -24 7.5 -46.5t21.5 -40t34 -28t46 -10.5q35 0 67 17t58 40l5 5l-5 11l-52 81q-2 2 -8.5 10.5t-9.5 11.5t-11 11.5t-16.5 18t-16.5 18t-11 11.5l3 2
q6 0 8 -4h1l-49 49l-3 1h-1l-40 -26q-2 -1 -8.5 -7.5l-9.5 -9.5q-44 -49 -44 -111v-16q5 45 26.5 75.5t60.5 54.5q3 -2 3 -4v-2q-14 -13 -24.5 -24.5t-17.5 -24.5t-10.5 -28.5t-3.5 -34.5zM528 273q2 2 2 5t-1 4q-17 26 -34 48t-37 45l-7.5 7.5l-7.5 7.5v-2
q23 -26 44.5 -54.5t38.5 -59.5zM442 392q-1 0 -1 -1t1 -1t1 1t-1 1zM441 394q-2 0 -2 -1.5t2 -1.5q1 0 1 1.5t-1 1.5zM439 395q-1 0 -1 -1.5t1 -1.5q2 0 2 1.5t-2 1.5zM438 395v1l-9 10v-2zM540 466q6 -8 13 -13t16 -5h1q-5 6 -13 12t-16 6h-1zM304 491q-16 13 -33.5 29
t-31.5 34.5t-23.5 39t-9.5 43.5q0 17 5.5 33t16 28.5t25 20t32.5 7.5q21 0 38.5 -9t30.5 -24t20.5 -33.5t7.5 -37.5q0 -30 -13 -57t-33 -48q-2 -3 -10.5 -11.5l-10.5 -10.5q-4 -2 -7 -5h-1zM238 614q0 -7 4.5 -16.5t11.5 -19.5t13.5 -19t11.5 -14q1 -2 5.5 -6.5l9 -9t8.5 -9
t6 -5.5l2 -2q2 -2 3 -2h2l8 8t8 10v1q0 1 -2 2.5t-4 1.5l-5 -3h-1l2 4v2q-26 16 -46 34.5t-37 44.5v-2zM333 533q3 3 6.5 6t4.5 7l-3 -1q-1 -2 -5.5 -4.5t-6.5 -3.5zM267 637q0 -18 7.5 -33.5t18.5 -29.5q6 -8 14.5 -17.5t17.5 -15.5h2l4 4q14 17 24.5 36t10.5 41
q0 25 -16.5 45t-40.5 20q-21 0 -31.5 -15t-10.5 -35zM237 620q-1 0 -1 -1.5t1 -1.5t1 1.5t-1 1.5z" />
    <glyph glyph-name="asterisk" unicode="*" horiz-adv-x="601" 
d="M264 310q0 8 8.5 11t13.5 5q-6 3 -11 10t-5 15v33l12 79l-2 -3q-3 -3 -9 -10.5t-13 -16t-13 -16t-8 -10.5q-2 -2 -10.5 -11t-12.5 -12q-11 -10 -28 -21.5t-34 -11.5q-2 0 -3 0.5t-2 0.5h-1q-2 0 -4.5 -0.5t-3.5 -0.5h-2q-2 0 -5.5 5t-4.5 7q-2 1 -4.5 1.5t-3.5 2.5
q-3 5 -4.5 7t-1.5 7q8 0 12 -2q3 1 6.5 7.5t3.5 10.5q0 2 -1 4t-1 3v4q0 4 2 8.5t4 9.5q2 3 10.5 11.5t11.5 10.5q3 3 11.5 10t18 15t18 15t11.5 10l3 2h-3q-4 0 -6 -1q-2 -2 -8 -7t-8 -6q-2 -2 -5 -4t-5 -2q-5 -1 -10.5 4t-7.5 8q-3 0 -8.5 -1t-12.5 -2t-12.5 -1.5
t-8.5 -0.5h-15q-12 0 -24.5 2.5t-23 8t-17.5 15t-7 24.5v5q0 1 3 1q1 0 5 -4l9 -9t9 -9.5t6 -5.5q24 -12 50 -12h8l67 15l4 1q3 2 15 7.5t15 7.5h-1q-4 0 -10 -2l-9 -3l-87 -16q-5 -2 -9 -2h-9q-17 0 -31 8t-14 28v8q5 14 19.5 18.5t27.5 4.5h3q6 0 18.5 -1.5t13.5 -1.5
q4 0 14 -1.5t21.5 -3.5t21.5 -3.5t14 -1.5h4l-92 68q-14 9 -26 29t-12 37q0 3 1.5 6.5t4.5 5.5q6 2 12.5 5t13.5 3h12q2 0 6.5 1t5.5 1h2q6 0 13.5 -3.5t11.5 -8.5q5 -4 14 -13t10 -11l74 -87l12 24v6q-6 28 -11 54.5t-5 54.5v21q2 12 8.5 20t19.5 8q21 0 26 -17t5 -34
q0 -18 -3 -37t-3 -37v-5q2 -5 9 -18.5t9 -17.5q0 -2 1 -3t2 -1h1q1 1 2.5 3.5t2.5 4.5l9 12t12.5 16t11.5 15t7 9q4 6 11.5 13.5t16 14.5t17.5 12t17 5q10 0 17.5 -6.5t7.5 -17.5t-5.5 -18t-13 -13t-15.5 -11.5t-14 -12.5q2 -1 4.5 -2.5t3.5 -1.5h2h1q13 11 25.5 24t17.5 30
q0 2 2.5 10.5t2.5 10.5q0 4 3 4q6 0 7.5 -9t2.5 -12v16q0 3 3 3q5 0 6 -8.5t1 -11.5q0 -14 -6.5 -27.5t-17.5 -21.5l-95 -72l84 12h9q8 0 17.5 -1t17.5 -4.5t13.5 -9.5t5.5 -16q0 -15 -9.5 -22.5t-23.5 -7.5q-11 0 -20 2l-18 4l-99 15h-4h-4.5t-3.5 -3q0 -5 3 -13t10 -9
l113 -14h9q17 0 32 5.5t26 20.5q2 3 4.5 10t7.5 7q4 0 4 -4q0 -14 -6.5 -23.5t-16.5 -15.5t-22 -8.5t-24 -2.5h-13l-100 15l59 -47l25 -25q12 -12 12 -27q0 -11 -8.5 -17.5t-19.5 -6.5q-13 0 -25.5 10t-20.5 19l-54 74l8 -52l1 -3q16 -20 38 -40t50 -20q12 0 22 4t22 4h4
q2 0 2 -4q0 -5 -5.5 -9.5t-13 -7.5t-15.5 -5t-12 -2q-15 0 -28 6.5t-24 16.5t-21 21.5t-18 21.5q-2 1 -5 5.5t-6.5 9t-6.5 9t-4 6.5v-9l12 -103l-10 -10q2 -4 2 -10q0 -17 -12.5 -22t-25.5 -5q-3 0 -9.5 0.5t-12.5 2.5t-10.5 5.5t-4.5 8.5zM201 412q-2 -1 -9.5 -9t-10.5 -11
q-5 -3 -11 -7t-6 -10v-2l5 2q27 13 48.5 31t39.5 41q0 1 0.5 4t0.5 4t1.5 13t1.5 18v1l-1 -1zM215 515q-19 0 -36 -15h2q4 2 13 3.5t11 1.5q5 1 7.5 3.5t5.5 6.5h-3zM245 531q-7 0 -10 -4h3q7 0 7 4zM252 566q1 1 2.5 3t1.5 4v1l-3 3l-89 64h-1q-2 0 -7 -1.5t-5 -3.5v-2
l1 -1l97 -66zM354 591q0 -1 1 -2q0 -1 2 -3q1 -1 2 -3h1l66 45l2 2l-4 3l-8 4l-3 -1l-60 -44zM442 630h1q2 0 2.5 1t2.5 2q5 3 15 11t12 10q2 5 7 7l-38 -28zM148 652q3 -4 6 -4h1l-2.5 2.5t-2.5 1.5h-2zM147 654q-1 0 -1 -1t1 -1t1 1t-1 1zM146 656q-2 0 -2 -1.5t2 -1.5
q1 0 1 1.5t-1 1.5zM118 701l5 10q-2 0 -4 -1l-4 -2z" />
    <glyph glyph-name="parenleft" unicode="(" horiz-adv-x="373" 
d="M174 -211q-35 52 -62.5 110t-47.5 119q0 1 -2.5 10t-5.5 20.5t-6.5 22.5t-4.5 17q0 2 -2 10t-2 11v5q2 0 4 -1t2 -3q10 -38 23 -76.5t30 -74.5q3 -5 9.5 -17.5t13.5 -26t13.5 -26t9.5 -16.5q1 -2 6.5 -9.5t11.5 -17l12 -19t9 -13.5q2 -2 10 -13.5t12 -15.5
q8 -11 20 -22.5t26 -11.5q4 0 8.5 0.5t8.5 2.5q-25 -2 -36.5 8.5t-26.5 31.5q-73 105 -112 226t-39 249q0 38 4.5 74.5t12.5 74.5q23 101 69 194q23 42 48.5 84.5t58.5 77.5q-4 -2 -7 -5l-9.5 -9.5l-9.5 -9.5q-60 -76 -105.5 -156t-72.5 -174l-1 -1l-4 1v2q8 39 20.5 78.5
t27.5 75.5q2 5 7 15t10 20.5t9 19.5t6 12l69 109q2 3 9.5 13.5t10.5 13.5q11 14 25 25t32 11q20 0 39 -11.5t19 -33.5v-3q-2 -2 -4 -9.5t-3 -9.5q-3 -3 -11 -14t-10 -14q-70 -104 -112 -222.5t-42 -244.5q0 -92 23 -178.5t65 -168.5q10 -20 22.5 -40t25.5 -39
q11 -14 24.5 -28t13.5 -33q0 -12 -6.5 -20t-15.5 -13t-20 -7.5t-20 -2.5q-17 0 -30.5 10t-24.5 22q-3 4 -12.5 16.5t-12.5 17.5zM282 -227q0 -1 1 -2l2 -2l1 -2v2q0 4 -4 5v-1zM281 -223q-1 0 -1 -1.5t1 -1.5t1 1.5t-1 1.5zM280 -222q-2 0 -2 -1.5t2 -1.5q1 0 1 1.5t-1 1.5z
M278 -221q-1 0 -1 -1t1 -1q2 0 2 1t-2 1zM274 -217q-1 0 -1 -1t1 -1q2 0 2 1t-2 1zM273 -215q-1 0 -1 -1.5t1 -1.5t1 1.5t-1 1.5z" />
    <glyph glyph-name="parenright" unicode=")" horiz-adv-x="373" 
d="M48 -231q1 2 4 10.5t4 10.5q1 3 2.5 3.5t4.5 4.5q15 20 27 38.5t25 40.5q53 99 84 198t31 212q0 92 -23 179t-67 166q-2 3 -7.5 12t-12 20t-12 20.5t-8.5 14.5q0 1 -3 5t-6.5 9t-7 9.5t-4.5 6.5q-8 9 -15.5 18.5t-7.5 22.5q0 12 6 20t15 13t20 7.5t21 2.5q13 0 23.5 -5.5
t20 -14t17.5 -19t15 -20.5q51 -72 85 -154.5t51 -169.5v-3q0 -4 -2 -4h-2q-11 42 -24.5 81t-31.5 77l-7.5 15t-11.5 22.5t-11.5 22t-8.5 14.5q-2 3 -7.5 12t-13 20t-14.5 21.5t-10 16.5q-1 1 -8 9.5t-10 12.5q-9 11 -21.5 24.5t-28.5 13.5q-5 0 -9 -0.5t-9 -2.5h23
q3 0 7 -2.5t5 -3.5q2 -2 8.5 -9t8.5 -9t6 -7t5 -6l48 -77q1 -2 7 -13t12.5 -24.5l13 -27t9.5 -20.5q32 -75 47.5 -153.5t15.5 -159.5q0 -17 -0.5 -36t-3.5 -35l-20 -110q-1 -2 -2.5 -7t-3 -11.5t-3 -12t-2.5 -8.5l-5.5 -16.5t-7.5 -21t-7 -19t-4 -9.5l-42 -85l-56 -93
q-1 -2 -8.5 -11.5t-10.5 -13.5q-2 -2 -8 -9.5t-8 -9.5l26 26q1 1 8.5 10.5t16 21t17 23.5t13.5 18q40 60 71 123.5t50 132.5h3q3 0 3 -1v-2q-1 -2 -2.5 -9t-3.5 -14.5t-3.5 -14t-1.5 -9.5q-2 -5 -5 -15t-6.5 -21t-7 -20.5t-4.5 -12.5q-2 -6 -6.5 -16.5t-9 -21.5t-8.5 -20
t-5 -11l-66 -116q0 -2 -4.5 -8t-9.5 -13.5t-10.5 -15t-8.5 -11.5q-12 -17 -27.5 -30t-36.5 -13q-20 0 -39 11t-19 33v3zM122 -238q-2 0 -2 -1.5t2 -1.5q1 0 1 1.5t-1 1.5zM107 746q-1 0 -1 -1.5t1 -1.5t1 1.5t-1 1.5zM106 747q-2 0 -2 -1t2 -1q1 0 1 1t-1 1zM104 749
q-1 0 -1 -1.5t1 -1.5q2 0 2 1.5t-2 1.5zM103 750q-1 0 -1 -1.5t1 -1.5t1 1.5t-1 1.5zM102 751q-2 0 -2 -1t2 -1q1 0 1 1t-1 1zM95 759q-1 0 -1 -1t1 -1t1 1t-1 1zM94 761q-2 0 -2 -1.5t2 -1.5q1 0 1 1.5t-1 1.5zM92 762q-1 0 -1 -1.5t1 -1.5q2 0 2 1.5t-2 1.5zM91 763
q-2 0 -2 -1t2 -1q1 0 1 1t-1 1zM89 765q-1 0 -1 -1.5t1 -1.5q2 0 2 1.5t-2 1.5zM85 769q0 -3 3 -4v1q0 2 -3 4v-1z" />
    <glyph glyph-name="plus" unicode="+" horiz-adv-x="669" 
d="M141 559v5l127 7h12v-2q0 -1 0.5 -2.5t0.5 -2.5q0 -2 1 -6.5t1 -5.5l8 -162v193h-264v59h264v203l-12 -178q0 -2 -0.5 -6.5t-5.5 -4.5t-9 2q-5 0 -15.5 1t-22.5 1.5t-23 1.5t-15 1h-7q-2 0 -4 1v6h87v265h114v-267h265v-111h-267v-262h-109v264h-126zM304 331h35v261l1 3
h265v36h-266v265h-35v-265h-265v-36h262l3 -3v-261z" />
    <glyph glyph-name="hyphen" unicode="-" horiz-adv-x="517" 
d="M68 490q-14 12 -16 29.5t-2 35.5q1 0 3.5 -0.5t2.5 -3.5l4 -24t10 -23l4 -4h45l86 14h-111q-14 0 -14 10v51q0 8 6 10t13 2h201l-141 27l-1 2v2q0 1 1 2h43h42q16 0 41 -0.5t48.5 -0.5t41 -0.5l17.5 -0.5l49 -6l1 -1q0 -1 1 -2q8 -14 10 -27.5t2 -30.5v-4l-6 -49
q0 -3 -10 -7t-12 -5q-4 -2 -7 -2q-3 -1 -5 -1h-282q-17 0 -32.5 2t-32.5 5z" />
    <glyph glyph-name="equal" unicode="=" horiz-adv-x="723" 
d="M88 435q-1 0 -1 3t1 3l251 25h-288v47h301l-222 28v5h84h52t78.5 -0.5t92.5 -0.5t92.5 -0.5t78.5 -0.5h52v-110h-285.5t-286.5 1zM88 686q-1 0 -1 2q0 3 1 3l244 24h-281v48h301l-223 28l1 4h146h229h31t46.5 -0.5t46.5 -0.5h31v-110h-377q-11 0 -39 0.5t-58.5 0.5
t-58.5 0.5t-39 0.5z" />
    <glyph glyph-name="bracketleft" unicode="[" horiz-adv-x="602" 
d="M451 55h-102l-228 -22q-20 0 -36 8t-22 27q0 17 -0.5 52.5t-1 80.5t-1 94.5t-1 94.5t-0.5 80.5v52.5v54v41l8 340q0 2 0.5 13t2.5 15q0 4 2 13t5 18t8 16t11 7h6l181 -11h120h4.5t10.5 0.5t11.5 1t8.5 1.5q8 0 11 2l1 2l-1 4v9q0 13 5.5 20.5t14.5 12t20 6t21 1.5h5l3 -2
q2 -6 5 -11q2 -5 4.5 -9t4.5 -7q9 -20 9 -42q0 -28 -13.5 -49.5t-33.5 -39.5q-23 -21 -54.5 -30t-61.5 -9h-10q-2 0 -8.5 0.5t-14 1t-14 1.5t-8.5 1q-41 7 -83.5 15.5t-81.5 20.5h-5v-30.5v-46.5t0.5 -54.5t0.5 -54.5v-47v-31q0 -12 -0.5 -36.5t-1 -56t-1 -65.5t-1 -65.5
t-1 -56t-0.5 -36.5h-4l-18 616l79 -19h6l-83 23h-3q-1 -167 -3 -331.5t-2 -330.5v-95q0 -6 0.5 -21.5t0.5 -33t0.5 -32.5t0.5 -21h2l116 39q1 1 8.5 2.5t16.5 4t17.5 4.5t13.5 3q20 4 37 5t37 1q36 0 67 -9t56 -35q8 -9 12 -20.5t4 -23.5q0 -6 -1.5 -11.5t-1.5 -11.5
q0 -4 1.5 -8.5t1.5 -8.5q0 -12 -8 -20h1q6 0 10.5 8t8 19t5.5 21.5t2 15.5q0 15 -5 27.5t-13 24.5q-14 20 -34 32t-43 18t-47 8t-46 2l-1 4l1 2h29h28q24 -1 50 -9.5t47.5 -24t35 -37.5t13.5 -50q0 -19 -7.5 -38.5t-15.5 -36.5q-1 -3 -5 -4t-7 -1q-5 0 -10.5 2t-8.5 6
l-36 55zM473 48q3 -3 5 -3q4 0 4.5 6t0.5 9q0 17 -13.5 22t-27.5 6h-44h-44q-5 0 -15 -0.5t-12 -0.5l-164 -18h14l147 10h27q22 0 44.5 -1.5t45.5 -1.5h2q4 2 4 7l3 -3zM158 68q1 1 -4 1t-4 -1t4 -1t4 1zM233 942q0 1 -0.5 1t-0.5 -1t0.5 -1t0.5 1zM228 943q0 2 -1.5 2
t-1.5 -2q0 -1 1.5 -1t1.5 1zM222 945q0 1 -1 1t-1 -1q0 -2 1 -2t1 2zM217 946q0 1 -2 1t-2 -1t2 -1t2 1z" />
    <glyph glyph-name="bracketright" unicode="]" horiz-adv-x="602" 
d="M60 70q0 19 7.5 37t20 33t28.5 26.5t33 18.5q18 8 37 10.5t39 2.5q17 0 34 -0.5t33 -4.5l155 -35l6 581h2h1q1 0 2 -1l16 -616l-76 19h-6l83 -23l2 19q-2 159 1.5 317t3.5 317v30q0 18 -0.5 46.5t-1 55.5t-1 47t-0.5 21l-1 13l-120 -40q-2 -1 -9 -2.5t-15 -3.5
t-15.5 -3.5t-11.5 -2.5q-18 -3 -36.5 -5.5t-36.5 -2.5q-21 0 -46 4t-46 14.5t-35.5 27t-14.5 42.5q0 6 1 11.5t1 11.5q0 4 -1 8t-1 8q0 7 1 11.5t6 9.5h-1q-6 0 -10.5 -8.5t-8 -19.5t-5.5 -21.5t-2 -14.5q0 -34 20 -56t48.5 -34.5t61 -17t58.5 -3.5l1 -2v-1v-2q-7 -2 -13 -2
h-14q-28 0 -59 6.5t-56.5 20.5t-42.5 37.5t-17 57.5q0 6 2 19t6.5 26.5t11.5 23.5t16 10h4q3 0 4 -1l43 -59l3 -3q0 2 0.5 3.5t1.5 3.5h4q12 0 25 -1t25 -1h21l237 22h15q21 0 39 -6.5t23 -32.5v-41t0.5 -63t0.5 -73.5t0.5 -73.5t0.5 -63v-41v-144v-114q0 -11 -0.5 -33
t-1 -50t-1.5 -58.5t-2 -58t-2 -49.5t-1 -32q0 -3 -1 -12t-1 -12q0 -2 -1.5 -9t-2.5 -10q-4 -13 -10 -21q-1 -2 -4 -5q-2 -2 -4 -3h-32l-220 10h-8h-9q-7 0 -18.5 -0.5t-22.5 -0.5t-19 -0.5l-8 -0.5l-19 -3q-1 0 -1 -3t0.5 -4.5t0.5 -6.5q0 -19 -13.5 -30t-31.5 -11h-6
q-5 1 -15.5 7t-12.5 9l-1 4q-5 12 -9.5 24t-4.5 26zM391 142q0 1 -2 1t-2 -1t2 -1t2 1zM384 143q0 2 -1 2t-1 -2q0 -1 1 -1t1 1zM379 145q0 1 -1.5 1t-1.5 -1q0 -2 1.5 -2t1.5 2zM372 146q0 1 -0.5 1t-0.5 -1t0.5 -1t0.5 1zM119 1029q0 -13 9 -19t22 -8.5t26 -2t22 0.5h22
q7 0 21.5 0.5t16.5 0.5l187 19h-11l-138 -9h-39q-24 0 -48 1t-48 1l-6 -5h-1l-5 5q-2 1 -5 5.5t-7 9.5t-7 9t-4 6l-3 1q-3 0 -3.5 -6.5t-0.5 -8.5zM454 1023q-1 0 -1 -1.5t1 -1.5t1 1.5t-1 1.5z" />
    <glyph glyph-name="semicolon" unicode=";" horiz-adv-x="290" 
d="M152 303l-1 3q-4 -26 -19 -46t-36 -35l-21 -14h-2l2 2q14 15 27.5 33t16.5 39q-32 8 -53.5 28.5t-21.5 56.5q0 37 26.5 61t64.5 24q22 0 42 -9.5t34 -25t22.5 -36t8.5 -42.5q0 -44 -19 -83t-46 -71q-4 0 -4 2v2q16 28 27 59t11 64v12q-7 -39 -25 -73.5t-47 -61.5
q-4 -5 -10.5 -9.5t-12.5 -6.5q-5 -2 -12.5 -3.5t-14.5 -3.5q-8 -2 -17 -4h-4q0 4 12 11t16 12q23 21 39.5 48t16.5 59v8zM150 308q-2 0 -2 -0.5t2 -0.5q1 0 1 0.5t-1 0.5zM61 660q0 20 10.5 40t28.5 30q2 1 10.5 5t11.5 6q1 0 3 1t3 1h2l-2 -1q-16 -13 -28.5 -27t-12.5 -37
q0 -13 4 -22q2 23 15 40t38 17q15 0 29.5 -8t20.5 -23q2 -5 2.5 -9t2.5 -9q2 5 2.5 9.5t0.5 9.5q0 12 -3.5 20.5t-8.5 15t-12 13t-14 14.5h2q28 -7 46.5 -31.5t18.5 -52.5q0 -38 -25 -62t-62 -24q-17 0 -32 6.5t-26.5 18t-18 26.5t-6.5 33z" />
    <glyph glyph-name="colon" unicode=":" horiz-adv-x="276" 
d="M52 370q0 23 11.5 42.5t31.5 30.5q4 2 12.5 6t10.5 4h1l-1 -1q-17 -14 -29 -28t-12 -36q0 -6 0.5 -12t3.5 -11q2 23 15.5 40.5t38.5 17.5q21 0 36.5 -14t17.5 -35q3 5 2.5 10t-0.5 9q0 31 -24 51q-1 1 -7 6t-8 6l-1 1h1q29 -10 49 -31.5t20 -53.5q0 -38 -24 -62t-62 -24
q-35 0 -59 24.5t-24 59.5zM52 659q0 22 10.5 41.5t29.5 29.5q2 2 9.5 5t9.5 5q1 0 3 1t4 1h1l-1 -1q-17 -14 -29 -28t-12 -36q0 -6 0.5 -12t3.5 -11q2 23 15.5 40.5t38.5 17.5q22 0 35.5 -13.5t18.5 -34.5q3 4 2.5 9t-0.5 9q0 25 -11 35.5t-26 27.5h2l8 -4q6 -3 12 -5
q20 -11 32.5 -31.5t12.5 -43.5q0 -35 -24 -60.5t-61 -25.5q-36 0 -60 24t-24 60z" />
    <glyph glyph-name="underscore" unicode="_" horiz-adv-x="714" 
d="M78 7l244 24h-268v56h297l-215 27q-6 0 -6 5h299h44t67 -0.5t67 -0.5h44v-118h-285.5t-287.5 1v6z" />
    <glyph glyph-name="quotedblleft" unicode="&#x201c;" horiz-adv-x="491" 
d="M51 597q0 47 26.5 81.5t61.5 60.5q23 16 47 27.5t52 11.5h10q1 0 1 -3t-5 -5.5t-11 -4.5t-12 -3.5t-8 -2.5h28l1 -1v-2q-1 -5 -2.5 -16.5t-1.5 -12.5l-1 -4q-2 -5 -8.5 -18l-8.5 -17q-8 -9 -19 -18t-20 -17l-3 -3q-1 -1 -3 -2q0 -2 11 -9t14 -9q25 -22 25 -53
q0 -14 -5 -26.5t-15 -21.5l-3 2v2q5 9 8 17t3 19q0 14 -5 24t-16 20q-3 2 -9.5 4.5t-13.5 5.5t-12.5 5.5t-5.5 4.5q0 4 4 7.5t4 8.5q0 6 -2 7q-2 -1 -6.5 -6t-5.5 -6q-2 -2 -2 -4q0 -9 8 -14.5t17.5 -11.5t17.5 -14t8 -23q0 -20 -13.5 -31.5t-33.5 -11.5q-28 0 -45.5 19
t-17.5 45q0 24 10 44q-11 -9 -17.5 -28.5t-6.5 -33.5q0 -33 24 -57v-1q0 -4 -2 -4h-1q-20 12 -30 34.5t-10 44.5zM237 598q0 45 25 77.5t57 58.5q22 18 48.5 31t55.5 13h10l2 -3q0 -3 -4.5 -5.5t-10.5 -4.5t-12 -3.5t-9 -2.5h28l2 -1q-1 -6 -2 -11t-1.5 -10t-1.5 -9
q0 -1 -0.5 -1.5t-0.5 -1.5v-2l-19 -38l-1 -1q0 -1 -1 -1q-2 -1 -7.5 -6t-11.5 -10.5t-12 -10t-7 -5.5l-2 -3v-1q0 -2 9.5 -7.5t12.5 -7.5q12 -11 19.5 -24t7.5 -30q0 -28 -19 -49q-4 0 -4 4q5 9 8 17t3 19q0 19 -9.5 30.5t-20.5 18t-20.5 9.5t-9.5 6q0 5 3.5 8t3.5 10v4
l-2 1h-1q-2 -1 -6 -5t-5 -6l-2 -2q-1 -1 -1 -2q-1 -4 3 -9t7 -7q16 -9 28.5 -19t12.5 -29q0 -20 -14 -31.5t-33 -11.5q-28 0 -45 19.5t-17 46.5q0 11 2.5 21t6.5 21q-11 -8 -17 -28t-6 -33q0 -18 6.5 -32t17.5 -27v-1l-2 -3h-2q-20 12 -30 34.5t-10 45.5z" />
    <glyph glyph-name="quotedblright" unicode="&#x201d;" horiz-adv-x="459" 
d="M179 621q-18 -22 -37.5 -40.5t-43.5 -34.5q-5 -2 -12.5 -7t-13.5 -5v3l26 42q11 11 25.5 25t14.5 32q0 14 -13 22t-23 13v-1q8 -8 14.5 -15.5t10.5 -18.5v-3h-8q-6 -5 -13.5 -10t-15.5 -8h-2q3 4 8 8t6 9q-20 12 -33.5 29t-13.5 42q0 33 23.5 53.5t55.5 20.5
q41 0 68 -27.5t27 -67.5q0 -25 -8.5 -46.5t-23 -40t-32.5 -34t-36 -29.5q-8 -6 -17 -12q-5 -4 -10 -7h-1q2 2 7 7.5t10.5 12t11 12t7.5 8.5t10.5 14t11.5 16q6 8 13 18.5t9 21.5zM324 633q-4 -8 -12 -14.5t-16 -10.5l-62 -28h-1q11 13 28.5 23.5t26.5 27.5v1l-3 3
q-20 14 -32 28t-12 40q0 16 6.5 29.5t17.5 23.5t25.5 15.5t30.5 5.5q43 0 68 -28t25 -70q0 -32 -15 -57.5t-35 -48.5l-4 -4v2q12 22 21.5 42.5t9.5 46.5q0 9 -2 17.5t-5 17.5q2 -29 -8.5 -53t-30.5 -45l-4 -4l-4 -4l-4 -4q-3 -3 -5 -4l-80 -37v1l8 8l12 12q1 2 9 8.5t10 7.5
q2 2 10.5 11t11.5 12q5 5 10 13t5 15v1zM101 674q-2 0 -2 -1.5t2 -1.5q1 0 1 1.5t-1 1.5zM99 675q-1 0 -1 -1.5t1 -1.5q2 0 2 1.5t-2 1.5zM383 698q-1 0 -1 -1t1 -1t1 1t-1 1z" />
    <glyph glyph-name="quoteleft" unicode="&#x2018;" horiz-adv-x="265" 
d="M41 597q0 35 17.5 65t42.5 53q4 3 12.5 9.5t18 14t18 14t11.5 9.5q2 0 3 1q1 0 1 1h2q-9 -14 -20 -26.5l-22 -25t-20.5 -26.5t-15.5 -30q5 4 9 10.5t9 10.5q2 2 7.5 8t6.5 7q2 2 8 7t13 10.5t13 10.5t9 7q2 1 8 5t8 6l4 2l4 2l6 2h4q0 -2 -2 -4t-5 -8t-7 -12.5t-7.5 -12
t-4.5 -7.5q-11 -11 -25.5 -25t-14.5 -32q0 -8 3 -12t9 -9q4 -3 12.5 -8t10.5 -5h1l-1 3q-5 5 -13 13.5t-10 17.5v4h7q2 1 8 5t8 5q2 2 7 4.5t6 2.5h2l-12 -15v-1q0 -1 1 -3q21 -14 32.5 -28t11.5 -40q0 -33 -23.5 -54t-55.5 -21q-20 0 -37 7.5t-30 20.5t-20.5 30t-7.5 37z
M171 608q-1 0 -1 -1.5t1 -1.5t1 1.5t-1 1.5zM170 609q-2 0 -2 -1.5t2 -1.5q1 0 1 1.5t-1 1.5z" />
    <glyph glyph-name="quoteright" unicode="&#x2019;" horiz-adv-x="272" 
d="M139 634q-11 -19 -31 -27l-59 -27h-1l5 5q11 11 25 21t24 24l1 2q0 2 -10 7.5t-13 8.5q-24 22 -24 55q0 32 23.5 53t55.5 21q42 0 68 -28t26 -68q0 -26 -10 -51.5t-29 -42.5h-1l-3 1v2q9 18 14 34t5 36q0 8 -0.5 17.5t-5.5 16.5q-1 -29 -8.5 -50t-27.5 -44l-5 -5t-6 -5
q-1 -2 -5 -6q-2 -2 -4 -3l-80 -37v3l13 13q1 1 5.5 5t9.5 8t9.5 7.5t5.5 4.5q2 2 8.5 9t8.5 9q5 5 10.5 13t5.5 16v2zM198 697q-1 0 -1 -1t1 -1t1 1t-1 1z" />
    <glyph glyph-name="less" unicode="&#x3c;" horiz-adv-x="724" 
d="M91 281l384 -193l2 -2l1 -1q1 -2 -3 -2h-3l-448 193v84l1 1q2 0 3 1.5t3 1.5l634 266v-120l-463 -192v-1l328 -138q7 -2 7 -5t-2 -3h-1l-404 146l51 25h-2q-11 -5 -22 -9q-9 -4 -18 -7.5t-15 -5.5l-2 -2q2 -2 4 -2l507 -212v-52h-1l-4 1l-534 228h-3zM90 282q0 2 -1 2
t-1 -2q0 -1 1 -1t1 1zM87 284q0 1 -0.5 1t-0.5 -1q0 -2 0.5 -2t0.5 2zM84 285q0 1 -0.5 1t-0.5 -1t0.5 -1t0.5 1zM80 288q-1 0 -1 -1.5t1 -1.5q2 0 2 1.5t-2 1.5zM78 289q-2 0 -2 -1.5t2 -1.5q1 0 1 1.5t-1 1.5z" />
    <glyph glyph-name="greater" unicode="&#x3e;" horiz-adv-x="740" 
d="M524 317l-332 139q-5 2 -5 4q0 3 2 3h2l401 -146l-48 -24h1l58 24l-510 213q-1 0 -2 1q-2 0 -2 2v49q4 0 6 -1l536 -228h3l-387 195l-2 1l2 3l1 1l442 -189q1 0 4 -1.5t4 -2.5l1 -1v-85q0 -1 -2 -1q-1 0 -2 -1l-637 -268v120zM541 293q-1 0 -1 -1.5t1 -1.5q2 0 2 1.5
t-2 1.5zM647 348q-1 0 -1 -1.5t1 -1.5t1 1.5t-1 1.5zM644 349q-1 0 -1 -1t1 -1q2 0 2 1t-2 1zM642 349q0 2 -1 2t-1 -2q0 -1 1 -1t1 1zM639 351q0 1 -0.5 1t-0.5 -1q0 -2 0.5 -2t0.5 2zM636 352q0 1 -0.5 1t-0.5 -1t0.5 -1t0.5 1z" />
    <glyph glyph-name="comma" unicode="," horiz-adv-x="292" 
d="M125 -146q22 14 36.5 37.5t24.5 46.5l2 4l-2 -1q-11 -16 -23.5 -32t-28.5 -27q-4 -3 -17 -12t-18 -11q-8 -6 -19 -6q-14 0 -14 16h9q2 0 2 -2t3 -2q8 0 17 6q22 14 42.5 33t36 41.5t24.5 48t9 53.5t-19.5 52t-50.5 24q-22 0 -37.5 -13.5t-15.5 -35.5q0 -12 7 -23
q7 -13 18.5 -16.5t22.5 -5.5t19.5 -7.5t8.5 -22.5t-5.5 -32.5t-13.5 -30.5q0 -2 -2 -4.5t-3 -3.5l-1 -2l-8 6v1l1 3q8 15 14 29t6 32v11q-2 6 -9 8q-3 0 -12 2t-12 2h-2h-1q4 -4 16 -7t12 -8q0 -4 -2.5 -10t-6.5 -7q-5 -6 -9 -13t-9 -13v2q0 6 3 12.5t4 12.5q0 2 -12 5
t-15 5q-22 10 -35 30t-13 45q0 40 27 63.5t65 23.5q23 0 42.5 -9.5t34 -25.5t22.5 -36.5t8 -42.5q0 -53 -27.5 -101.5t-67.5 -80.5q-4 -3 -11.5 -9t-12.5 -6q-2 0 -2 4zM189 -54q-1 0 -1 -1t1 -1t1 1t-1 1zM111 23q-1 0 -1 -1.5t1 -1.5q2 0 2 1.5t-2 1.5z" />
    <glyph glyph-name="period" unicode="." horiz-adv-x="272" 
d="M50 77q0 21 11 40.5t30 30.5l9 4.5t10 4.5h2q1 0 1 0.5t1 0.5h2q-8 -8 -15 -14.5t-13 -13t-9.5 -15t-3.5 -21.5v-7q6 20 21.5 33.5t37.5 13.5q20 0 34.5 -11t22.5 -29v7q0 23 -13 34.5t-26 26.5h2q4 -1 8 -3q3 -2 6.5 -3.5t5.5 -2.5q22 -11 34 -31.5t12 -43.5
q0 -18 -7 -33.5t-18.5 -27.5t-27 -19t-33.5 -7q-35 0 -59.5 25.5t-24.5 60.5zM87 77q0 -20 13 -33.5t33 -13.5q21 0 34 13t13 35q0 19 -13 31.5t-33 12.5t-33.5 -13t-13.5 -32z" />
    <glyph glyph-name="slash" unicode="/" horiz-adv-x="487" 
d="M26 -18q-3 0 -3 2v3l312 707l1 1l3 -1l1 -1l-123 -308v-2l201 415h47l-69 -143l3 3l54 104q1 1 2 1q3 0 3 -1v-1l-383 -779l-2 -3h-6q-10 0 -21 0.5t-20 2.5zM214 378v-1l2 2v2zM384 631q-1 0 -1 -1.5t1 -1.5q2 0 2 1.5t-2 1.5zM386 634q-2 0 -2 -1.5t2 -1.5q1 0 1 1.5
t-1 1.5zM387 636q-1 0 -1 -1t1 -1t1 1t-1 1zM388 639q-1 0 -1 -1.5t1 -1.5q2 0 2 1.5t-2 1.5zM390 642q-2 0 -2 -1.5t2 -1.5q1 0 1 1.5t-1 1.5zM391 644q-1 0 -1 -1t1 -1t1 1t-1 1zM392 647q-1 0 -1 -1.5t1 -1.5q2 0 2 1.5t-2 1.5zM394 650q-2 0 -2 -1.5t2 -1.5q1 0 1 1.5
t-1 1.5zM395 652q-1 0 -1 -1t1 -1t1 1t-1 1zM396 655q-1 0 -1 -1.5t1 -1.5q2 0 2 1.5t-2 1.5z" />
    <glyph glyph-name="question" unicode="?" horiz-adv-x="499" 
d="M65 74q0 21 11 40.5t31 30.5q5 3 14.5 7.5t10.5 4.5h2l-3 -3q-13 -11 -26.5 -24.5t-13.5 -31.5v-3q8 18 23.5 28.5t35.5 10.5q18 0 33 -9t23 -26v4q0 11 -6 22t-14 18q-1 2 -8.5 8t-9.5 7l-2 3h1q1 0 11 -4.5t15 -7.5q20 -11 31 -32t11 -43q0 -35 -24.5 -60.5
t-59.5 -25.5q-36 0 -61 24.5t-25 61.5zM106 72q0 -19 13 -31t31 -12h10q11 4 20.5 13t12.5 20v10q0 20 -12 32.5t-31 12.5q-20 0 -32 -12.5t-12 -32.5zM103 289l4 -63q1 -13 9 -27t23 -14q9 0 18 4.5t14 12.5v18q0 34 -0.5 69t-0.5 68l-8 -145q0 -9 -6.5 -13t-13.5 -4
q-11 0 -16.5 6.5t-6.5 16.5v56v57q0 3 0.5 16.5t1 30t1.5 33t1 25.5q0 2 0.5 7.5t0.5 7.5q11 -9 23.5 -19.5t26 -19t28 -14.5t29.5 -6q20 0 37 10.5t30.5 26t23 34.5t14.5 36q9 34 9 69q0 9 -0.5 18.5t-2.5 18.5q0 -54 -13 -96t-52 -79q-6 -5 -15 -10.5t-17 -5.5q-4 0 -3 4
q21 9 36 25.5t24 37t13.5 42.5t4.5 43q0 35 -10.5 63.5t-36.5 51.5q-11 8 -21.5 12.5t-24.5 4.5h-10q-2 0 -3 -1t-3 -2q0 -9 1 -22.5t-2 -24.5q-6 -26 -27.5 -43t-48.5 -17q-38 0 -58 22.5t-20 58.5q0 32 15.5 53.5t39.5 35t52.5 19t55.5 5.5q38 0 74 -10q37 -11 68.5 -33.5
t55 -53t36.5 -67t13 -74.5q0 -44 -15 -84.5t-42.5 -71t-65 -49t-82.5 -18.5q-35 0 -68 12h-2l-1 -1l-7 -132l-1 -3q-15 -23 -42 -23q-20 0 -31.5 16.5t-11.5 34.5v64h6zM138 214q0 -1 4 -1h1l1 1l11 182h1q2 0 3 -1t3 -1q2 -2 11.5 -7t11.5 -7q18 -9 36 -14t38 -5
q38 0 68.5 15t52.5 40.5t33.5 59t11.5 69.5q0 18 -3 36.5t-11 35.5q-11 23 -29 45t-40.5 39.5t-48 28t-52.5 10.5h-6q32 -3 56 -19.5t40 -40.5t24 -53.5t8 -57.5q0 -16 -1.5 -32t-5.5 -31q-5 -21 -16 -44t-27 -42.5t-36.5 -32t-45.5 -12.5q-27 0 -48.5 12.5t-42.5 27.5
l-1 -4l-0.5 -12.5t-1 -30t-1 -35.5t-0.5 -30v-35v-26.5t2 -27.5zM171 367q-1 0 -1 -0.5t1 -0.5t1 0.5t-1 0.5zM97 669q0 -20 8.5 -30t28.5 -10q12 0 24 9t12 22v48v2q0 1 0.5 1t0.5 1q1 2 2.5 4.5t1.5 3.5q8 14 22 16.5t28 5.5h-3q-18 0 -39.5 -3t-40.5 -11.5t-32 -22.5
t-13 -36z" />
    <glyph glyph-name="asciitilde" unicode="~" horiz-adv-x="699" 
d="M193 311q-32 0 -52 -21t-27 -51q0 -2 -4 -2h-3l-55 7q-1 0 -1 1v2q0 21 2 42t8 40.5t17.5 36t30.5 28.5q20 14 40.5 22t46.5 8q13 0 27 -2t26 -7l234 -87q18 -6 41 -6q7 0 14.5 1t14.5 4q3 1 5.5 3t5.5 2q2 0 4 -2q-9 -12 -25 -16t-30 -4q-9 0 -17.5 0.5t-17.5 3.5
l-149 44h-4l126 -51q17 -7 35 -11t38 -4q45 0 68 28t31 71h21l1 -1v-1q0 -29 -9.5 -55.5t-26.5 -46t-41 -31t-54 -11.5t-56 9t-55 20h-3l4 -3q1 0 7.5 -3.5t14.5 -7.5t17 -8t14 -7q35 -16 72 -16q35 0 64.5 16t50.5 45l1 1q4 0 4 -3v-1q-22 -36 -56.5 -55.5t-76.5 -19.5
q-17 0 -32 1t-29 7l-210 80q-11 5 -25 8t-27 3zM399 275q0 1 -0.5 1t-0.5 -1t0.5 -1t0.5 1zM396 276q0 2 -0.5 2t-0.5 -2q0 -1 0.5 -1t0.5 1zM392 279q-1 0 -1 -1.5t1 -1.5q2 0 2 1.5t-2 1.5zM324 359q0 2 -1.5 2t-1.5 -2q0 -1 1.5 -1t1.5 1zM320 361q0 1 -1.5 1t-1.5 -1
q0 -2 1.5 -2t1.5 2zM315 363q-2 0 -2 -1t2 -1q1 0 1 1t-1 1z" />
    <glyph glyph-name="space" unicode=" " horiz-adv-x="500" 
 />
    <glyph glyph-name="A" unicode="A" 
d="M459 28v5.5t1 8.5t3 6.5t5 1.5q5 10 12.5 21.5t20.5 14.5q2 0 8.5 1.5t13.5 3.5t13 3.5t9 2.5q4 0 6 4v5q0 8 -1 12l-52 161q-1 2 -3 2h-3q-11 0 -39.5 -0.5t-60 -0.5t-60 -0.5t-39.5 -0.5q-1 -2 -2 -2.5t-1 -1.5l-36 -107q-1 -3 -4 -17t-4 -18v-8v-7t2 -8q4 -6 13 -9.5
t15 -5.5q1 0 7.5 -1.5t13.5 -3t13 -3t8 -1.5q3 -1 14.5 -5t14.5 -6q4 -2 4 -8q0 -5 -5.5 -7t-5.5 -5v-1q7 0 7 -4v-1q0 -3 -1.5 -10.5t-1.5 -8.5q-1 -8 -15.5 -15t-22.5 -9h-10q-29 0 -56 1t-54 1h-1q-6 0 -21.5 -0.5t-33 -0.5t-33 -0.5t-21.5 -0.5l1 -3v-1q0 -2 -2 -2h-2
q-1 0 -3 2t-3 4q-2 1 -6 5.5t-9.5 9t-10 8.5t-5.5 6v4q0 14 8 27t20 19q1 0 4 1t4 1q32 8 48 22.5t28 46.5l162 417q0 4 3 4h1l3 -1v-1l-150 -434q-8 -24 -24.5 -43.5t-39.5 -30.5q-7 -3 -14.5 -4t-13.5 -5h2q17 0 32.5 7.5t28 19.5t22 26.5t15.5 29.5l225 580l18 37h25
l3 -3h22l71 -163l2 -1h2q1 0 2 1l2 -5l170 -439l15 -30q4 -8 16 -14.5t20 -8.5q2 0 10 -2.5t17 -4.5t17 -4.5t10 -2.5q5 -2 12 -6t7 -9q0 -4 -3.5 -7.5t-6.5 -5.5q0 -3 1.5 -4t1.5 -3q0 -17 -11 -28t-25 -14h-23q-33 0 -67 1t-67 1h-60q-6 0 -21 -1t-32.5 -2t-32.5 -2.5
t-21 -1.5h-10q-2 7 -3 13q-1 5 -1.5 9.5t-0.5 6.5zM262 34q3 0 12.5 -0.5t21 -1t21 -1t12.5 -0.5h2q1 0 1 3q0 2 -6 4q-1 0 -9 1t-9 1q-18 4 -38 12.5t-31 25.5q-8 15 -8 35q0 17 4.5 34.5t9.5 32.5l43 123l1 3q36 0 70 1q29 0 60 0.5t51 0.5h47h30l54 -158q4 -12 8 -27
t4 -29q0 -18 -8.5 -28.5t-22 -16.5t-29.5 -8.5t-30 -4.5l-2 -1q0 -3 3 -3.5t5 -0.5h2q3 0 11 0.5t16.5 1t16.5 1t11 0.5h161q3 0 10.5 -0.5t16 -1t16 -1t10.5 -0.5h18q0 3 -4.5 5t-10 3t-11.5 1.5t-9 1.5q-30 8 -49 29.5t-30 50.5l-242 620h-18l-12 -27l-230 -592
q-13 -34 -40 -55t-62 -28q-4 -2 -4 -4t2 -2h164zM65 39q0 -4 4 -4h2q1 0 6 0.5t6 0.5q-5 2 -9 2.5t-7 4.5q-2 0 -2 -4zM391 583l29 63l121 -316v-2q-41 0 -80 1t-80 1q-21 0 -42.5 -1t-42.5 -1v3zM326 379q34 -1 69.5 -1h68.5v1l-68 180zM479 427q-1 0 -1 -0.5t1 -0.5t1 0.5
t-1 0.5zM401 567l77 -138v2l-66 168h-1l-8 -18v-1l1 -1q0 -3 -1.5 -5.5t-1.5 -5.5v-1z" />
  </font>
</defs>
</svg>
